<svg width="100" height="134" viewBox="0 0 100 134" fill="none" xmlns="http://www.w3.org/2000/svg">
<path d="M45.1543 60.8604L53.2709 39.2318L60.5899 58.3739L73.8673 50.4449L55.4291 2.49607C54.2092 -0.741186 49.5645 -0.647353 48.4385 2.63682L30.094 57.3417C29.2965 59.6875 29.3434 62.221 30.1879 64.5669L33.7535 74.4194L47.2186 66.3966L45.1543 60.8604Z" fill="#9AF229"/>
<path d="M42.6209 97.5023L24.2764 91.1216L9.73226 99.8012L8.55935 100.505L7.90251 100.927L0.161255 123.541L17.5674 112.938L17.5204 112.891L22.2121 110.076L61.6691 124.526C65.1878 125.84 68.6596 122.368 67.2991 118.849L49.4707 71.182L35.9587 79.2517L42.6209 97.5023Z" fill="#9AF229"/>
<path d="M89.7253 133.488L100 117.348L87.7548 85.398L76.1664 55.2775L62.9359 63.2064L89.7253 133.488Z" fill="#9AF229"/>
</svg>
