<svg width="487" height="487" viewBox="0 0 487 487" fill="none" xmlns="http://www.w3.org/2000/svg">
<g filter="url(#filter0_f_15_21)">
<circle cx="243.5" cy="243.5" r="113.5" fill="#9AF229"/>
</g>
<g clip-path="url(#clip0_15_21)">
<path d="M316.109 257.521L316.085 257.445L330.895 243.627V236.97H307.135V243.627H321.327L321.35 243.691L306.685 257.521V264.178H331.133V257.521L316.109 257.521ZM345.72 236.336C342.979 236.336 340.746 236.757 339.02 237.6C337.411 238.334 336.057 239.544 335.131 241.072C334.246 242.61 333.69 244.322 333.5 246.095L340.709 247.128C340.97 245.562 341.492 244.453 342.274 243.799C343.163 243.115 344.259 242.77 345.372 242.822C346.835 242.822 347.896 243.22 348.556 244.018C349.21 244.815 349.542 245.919 349.542 247.375V248.1H342.61C339.082 248.1 336.547 248.897 335.006 250.492C333.465 252.087 332.695 254.192 332.698 256.808C332.698 259.486 333.467 261.48 335.006 262.788C336.545 264.095 338.48 264.744 340.811 264.737C343.703 264.737 345.928 263.723 347.484 261.694C348.404 260.448 349.06 259.022 349.413 257.505H349.675L350.668 264.162H357.201V247.303C357.201 243.818 356.3 241.12 354.498 239.207C352.696 237.292 349.769 236.336 345.72 236.336V236.336ZM348.005 257.118C346.968 257.999 345.611 258.437 343.921 258.437C342.528 258.437 341.561 258.189 341.018 257.692C340.754 257.457 340.544 257.165 340.403 256.838C340.261 256.511 340.192 256.156 340.201 255.799C340.185 255.462 340.238 255.125 340.354 254.809C340.47 254.493 340.649 254.204 340.878 253.961C341.126 253.724 341.418 253.54 341.737 253.422C342.057 253.303 342.396 253.252 342.735 253.271H349.553V253.729C349.567 254.378 349.435 255.02 349.166 255.608C348.898 256.195 348.5 256.711 348.005 257.118ZM396.7 236.97H388.983V264.182H396.7V236.97ZM442.267 236.97C440.087 236.97 438.368 237.754 437.112 239.322C436.21 240.449 435.524 242.114 435.054 244.317H434.827L433.818 236.97H427.227V264.178H434.945V250.225C434.945 248.466 435.349 247.117 436.157 246.179C436.966 245.24 438.457 244.771 440.632 244.771H443.562V236.97H442.267ZM419.568 237.859C417.766 236.767 415.493 236.222 412.75 236.224C408.432 236.224 405.052 237.477 402.611 239.983C400.17 242.49 398.95 245.945 398.95 250.349C398.888 253.012 399.458 255.65 400.612 258.039C401.669 260.168 403.314 261.935 405.345 263.122C407.39 264.326 409.821 264.929 412.641 264.932C415.079 264.932 417.116 264.549 418.75 263.784C420.288 263.096 421.626 262.019 422.639 260.654C423.603 259.314 424.318 257.806 424.751 256.205L418.101 254.308C417.821 255.349 417.282 256.299 416.537 257.066C415.785 257.831 414.527 258.214 412.762 258.214C410.663 258.214 409.098 257.602 408.068 256.376C407.32 255.491 406.851 254.228 406.644 252.589H424.852C424.927 251.824 424.966 251.182 424.966 250.664V248.969C425.01 246.693 424.549 244.436 423.617 242.367C422.744 240.483 421.333 238.911 419.568 237.859ZM412.527 242.71C415.656 242.71 417.43 244.28 417.851 247.419H406.781C406.956 246.371 407.382 245.384 408.021 244.544C409.035 243.319 410.537 242.708 412.527 242.71ZM392.926 226.003C392.345 225.982 391.766 226.081 391.224 226.294C390.682 226.506 390.187 226.827 389.769 227.238C389.357 227.654 389.034 228.152 388.821 228.701C388.608 229.25 388.508 229.838 388.529 230.428C388.508 231.022 388.607 231.614 388.821 232.167C389.035 232.72 389.358 233.222 389.771 233.642C390.183 234.062 390.676 234.391 391.219 234.608C391.762 234.826 392.343 234.926 392.926 234.904C393.505 234.927 394.082 234.826 394.621 234.608C395.16 234.391 395.648 234.061 396.055 233.641C396.459 233.216 396.774 232.712 396.982 232.16C397.19 231.608 397.286 231.018 397.264 230.427C397.291 229.84 397.197 229.253 396.989 228.705C396.781 228.156 396.462 227.658 396.054 227.243C395.646 226.827 395.158 226.502 394.62 226.289C394.082 226.076 393.506 225.98 392.93 226.007L392.926 226.003ZM376.982 236.224C374.353 236.224 372.241 237.066 370.645 238.748C369.463 239.994 368.597 241.855 368.044 244.329H367.798L366.788 236.982H360.197V272H367.914V257.576H368.196C368.431 258.538 368.762 259.473 369.182 260.367C369.835 261.824 370.906 263.044 372.253 263.867C373.65 264.644 375.223 265.031 376.814 264.988C380.045 264.988 382.505 263.705 384.195 261.141C385.885 258.576 386.73 254.997 386.73 250.404C386.73 245.969 385.912 242.496 384.277 239.987C382.642 237.479 380.211 236.224 376.982 236.224ZM377.764 255.942C376.864 257.271 375.457 257.935 373.54 257.935C372.749 257.972 371.962 257.817 371.242 257.482C370.522 257.147 369.891 256.643 369.401 256.01C368.402 254.732 367.904 252.981 367.907 250.759V250.241C367.907 247.985 368.405 246.257 369.401 245.058C370.397 243.86 371.777 243.267 373.54 243.28C375.491 243.28 376.907 243.911 377.792 245.174C378.676 246.436 379.118 248.197 379.118 250.456C379.123 252.792 378.675 254.621 377.772 255.942H377.764Z" fill="#201515"/>
<path d="M303.701 257.521H277V264.187H303.701V257.521Z" fill="black"/>
</g>
<g clip-path="url(#clip1_15_21)">
<path d="M177.608 181.994C177.387 181.604 177.123 181.241 176.82 180.911C176.235 180.276 175.53 179.766 174.747 179.412C173.947 179.04 173.078 178.848 172.198 178.849C170.936 178.82 169.693 179.168 168.625 179.848C167.538 180.596 166.706 181.667 166.245 182.913C165.634 184.545 165.345 186.282 165.395 188.026V189.158C165.345 190.9 165.622 192.636 166.21 194.274C166.652 195.506 167.461 196.569 168.525 197.315C169.593 197.994 170.836 198.339 172.097 198.304C172.983 198.308 173.86 198.121 174.668 197.755C175.465 197.399 176.187 196.89 176.793 196.256C177.092 195.942 177.361 195.6 177.598 195.236V197.787H185.544V179.366H177.598L177.608 181.994ZM177.805 189.008C177.821 189.79 177.741 190.57 177.567 191.332C177.464 191.845 177.225 192.319 176.876 192.705C176.723 192.854 176.542 192.971 176.344 193.049C176.146 193.126 175.934 193.163 175.722 193.156C175.514 193.162 175.306 193.125 175.113 193.047C174.919 192.97 174.743 192.854 174.595 192.705C174.243 192.324 174.004 191.851 173.904 191.339C173.741 190.573 173.667 189.791 173.683 189.008V188.026C173.666 187.249 173.744 186.473 173.915 185.716C174.012 185.215 174.246 184.752 174.588 184.377C174.737 184.233 174.913 184.121 175.105 184.047C175.297 183.972 175.502 183.937 175.708 183.944C176.134 183.93 176.548 184.085 176.862 184.377C177.212 184.749 177.451 185.213 177.553 185.716C177.728 186.473 177.808 187.249 177.791 188.026L177.805 189.008Z" fill="black"/>
<path d="M204.651 179.587C203.768 179.081 202.765 178.831 201.752 178.863C200.765 178.849 199.787 179.05 198.884 179.454C198.06 179.828 197.32 180.369 196.711 181.044C196.304 181.502 195.961 182.015 195.692 182.568V179.381H188.001V197.801H195.923V186.758C195.908 186.343 195.99 185.93 196.162 185.552C196.293 185.259 196.512 185.015 196.787 184.853C197.046 184.709 197.338 184.634 197.634 184.637C197.839 184.625 198.044 184.658 198.236 184.732C198.428 184.807 198.601 184.922 198.746 185.07C199.053 185.466 199.197 185.967 199.15 186.468V197.808H207.069V185.433C207.106 184.188 206.897 182.948 206.454 181.785C206.098 180.88 205.466 180.113 204.651 179.594" fill="black"/>
<path d="M240.606 190.54C240.636 191.309 240.444 192.07 240.053 192.731C239.891 192.969 239.673 193.162 239.419 193.291C239.164 193.421 238.88 193.483 238.595 193.471C238.15 193.491 237.714 193.336 237.379 193.038C237.016 192.639 236.776 192.141 236.688 191.605C236.515 190.711 236.439 189.801 236.46 188.89V188.041C236.46 186.465 236.636 185.343 236.996 184.679C237.147 184.366 237.386 184.105 237.682 183.927C237.979 183.75 238.32 183.663 238.664 183.679C238.942 183.66 239.219 183.715 239.469 183.837C239.719 183.96 239.934 184.146 240.091 184.378C240.442 185.004 240.609 185.718 240.574 186.437V186.535H248.694C248.66 185.05 248.19 183.61 247.344 182.397C246.456 181.197 245.243 180.283 243.854 179.765C242.143 179.124 240.327 178.816 238.502 178.857C236.672 178.824 234.855 179.173 233.164 179.881C231.649 180.528 230.364 181.625 229.477 183.026C228.577 184.424 228.127 186.178 228.127 188.289V188.806C228.127 190.903 228.563 192.665 229.436 194.094C230.299 195.501 231.569 196.606 233.074 197.26C234.786 197.986 236.629 198.344 238.485 198.308C240.284 198.341 242.075 198.034 243.764 197.403C245.196 196.873 246.449 195.942 247.377 194.719C248.276 193.478 248.771 191.986 248.794 190.448H240.606V190.54Z" fill="black"/>
<path d="M266.998 179.585C266.118 179.074 265.115 178.819 264.099 178.848C263.114 178.833 262.137 179.035 261.236 179.439C260.41 179.811 259.67 180.352 259.063 181.029C258.763 181.365 258.499 181.73 258.272 182.119V173.693H250.35V197.786H258.272V186.742C258.256 186.327 258.338 185.914 258.509 185.537C258.643 185.245 258.861 185.001 259.135 184.838C259.396 184.693 259.688 184.618 259.985 184.621C260.19 184.61 260.396 184.643 260.587 184.717C260.778 184.792 260.953 184.907 261.098 185.054C261.402 185.452 261.544 185.952 261.498 186.452V197.793H269.421V185.418C269.457 184.172 269.246 182.932 268.802 181.769C268.447 180.863 267.815 180.095 266.998 179.578" fill="black"/>
<path d="M283.447 181.994C283.227 181.604 282.962 181.241 282.66 180.911C282.075 180.276 281.37 179.766 280.587 179.412C279.792 179.048 278.93 178.861 278.058 178.863C276.796 178.834 275.553 179.182 274.485 179.862C273.399 180.611 272.567 181.682 272.105 182.927C271.494 184.559 271.205 186.296 271.255 188.04V189.172C271.205 190.914 271.482 192.65 272.07 194.288C272.512 195.52 273.321 196.583 274.385 197.329C275.453 198.008 276.696 198.353 277.958 198.318C278.844 198.322 279.72 198.135 280.528 197.769C281.325 197.413 282.046 196.904 282.653 196.27C282.952 195.956 283.222 195.614 283.458 195.25V197.801H291.404V179.38H283.458L283.447 181.994ZM283.648 189.008C283.663 189.79 283.582 190.571 283.407 191.332C283.303 191.845 283.065 192.319 282.715 192.705C282.562 192.855 282.382 192.971 282.184 193.049C281.985 193.126 281.773 193.163 281.562 193.156C281.353 193.162 281.146 193.125 280.952 193.047C280.758 192.97 280.583 192.854 280.434 192.705C280.083 192.324 279.844 191.851 279.744 191.339C279.58 190.573 279.506 189.791 279.523 189.008V188.026C279.505 187.249 279.584 186.473 279.754 185.716C279.852 185.215 280.086 184.752 280.428 184.378C280.576 184.233 280.753 184.121 280.944 184.047C281.136 183.972 281.341 183.937 281.547 183.944C281.973 183.93 282.387 184.085 282.701 184.378C283.051 184.749 283.291 185.213 283.392 185.716C283.569 186.473 283.651 187.249 283.634 188.026L283.648 189.008Z" fill="black"/>
<path d="M307 184.311V179.38H303.607V173.708H295.688V179.38H292.904V184.311H295.668V192.348C295.614 193.53 295.922 194.699 296.549 195.696C297.129 196.546 297.958 197.19 298.919 197.538C300.023 197.927 301.185 198.115 302.353 198.094C303.229 198.104 304.104 198.017 304.961 197.835C305.665 197.685 306.347 197.45 306.997 197.136V192.789C306.45 192.974 305.877 193.069 305.3 193.072C304.853 193.105 304.41 192.981 304.042 192.723C303.749 192.485 303.604 192.065 303.604 191.464V184.304L307 184.311Z" fill="black"/>
<path d="M158.378 171.007H158.122C150.559 171.007 146.883 182.452 146.883 182.452V173.67H127V197.808H134.946V181.715H139.186V197.808H147.712C147.712 197.808 152.093 178.706 156.194 180.135C158.958 181.184 151.164 197.79 151.164 197.79H162.424C162.424 197.79 163.985 186.974 164.009 183.231C164.355 176.875 163.363 171 158.371 171" fill="black"/>
<path d="M214.182 198.873C214.194 198.556 214.102 198.244 213.92 197.986C213.723 197.735 213.456 197.551 213.153 197.458C212.755 197.333 212.339 197.274 211.923 197.283L207.687 179.38H215.934L218.404 194.736H217.651L220.236 179.38H228.317L224.309 197.283C223.866 197.269 223.424 197.328 223 197.458C222.712 197.544 222.462 197.725 222.288 197.972C222.129 198.244 222.052 198.557 222.067 198.873V203.109H214.182V198.873Z" fill="black"/>
</g>
<path d="M133.483 310.76L135.599 305.869C137.887 307.568 140.925 308.45 143.928 308.45C146.147 308.45 147.547 307.601 147.547 306.311C147.513 302.711 134.268 305.53 134.166 296.496C134.132 291.912 138.228 288.38 144.031 288.38C147.479 288.38 150.926 289.229 153.384 291.164L151.404 296.157C149.151 294.73 146.352 293.712 143.69 293.712C141.88 293.712 140.686 294.561 140.686 295.647C140.72 299.179 154.067 297.243 154.203 305.869C154.203 310.556 150.209 313.85 144.475 313.85C140.276 313.85 136.419 312.865 133.483 310.76Z" fill="black"/>
<path d="M214.691 304.104C213.633 305.937 211.653 307.194 209.366 307.194C205.986 307.194 203.256 304.477 203.256 301.115C203.256 297.753 205.986 295.036 209.366 295.036C211.653 295.036 213.633 296.293 214.691 298.126L220.528 294.9C218.343 291.029 214.145 288.38 209.366 288.38C202.3 288.38 196.565 294.085 196.565 301.115C196.565 308.145 202.3 313.85 209.366 313.85C214.179 313.85 218.343 311.235 220.528 307.33L214.691 304.104Z" fill="black"/>
<path d="M157.139 277.818H164.444V313.375H157.139V277.818Z" fill="black"/>
<path d="M223.395 277.818V313.375H230.7V302.711L239.371 313.375H248.724L237.698 300.707L247.904 288.889H238.961L230.7 298.704V277.818H223.395Z" fill="black"/>
<path d="M186.154 304.171C185.096 305.903 182.911 307.194 180.453 307.194C177.074 307.194 174.343 304.477 174.343 301.115C174.343 297.753 177.074 295.036 180.453 295.036C182.911 295.036 185.096 296.394 186.154 298.16V304.171ZM186.154 288.889V291.776C184.959 289.772 181.989 288.38 178.883 288.38C172.466 288.38 167.414 294.017 167.414 301.081C167.414 308.145 172.466 313.85 178.883 313.85C181.989 313.85 184.959 312.458 186.154 310.454V313.341H193.459V288.889H186.154Z" fill="black"/>
<path d="M88.3222 304.137C88.3222 306.617 86.3082 308.62 83.8163 308.62C81.3244 308.62 79.3105 306.617 79.3105 304.137C79.3105 301.658 81.3244 299.655 83.8163 299.655H88.3222V304.137Z" fill="black"/>
<path d="M90.5751 304.137C90.5751 301.658 92.5891 299.655 95.0809 299.655C97.5728 299.655 99.5868 301.658 99.5868 304.137V315.345C99.5868 317.824 97.5728 319.827 95.0809 319.827C92.5891 319.827 90.5751 317.824 90.5751 315.345V304.137Z" fill="black"/>
<path d="M95.0809 286.138C92.5891 286.138 90.5751 284.135 90.5751 281.655C90.5751 279.176 92.5891 277.173 95.0809 277.173C97.5728 277.173 99.5868 279.176 99.5868 281.655V286.138H95.0809Z" fill="black"/>
<path d="M95.0809 288.414C97.5728 288.414 99.5868 290.417 99.5868 292.896C99.5868 295.376 97.5728 297.379 95.0809 297.379H83.7822C81.2903 297.379 79.2763 295.376 79.2763 292.896C79.2763 290.417 81.2903 288.414 83.7822 288.414H95.0809Z" fill="black"/>
<path d="M113.138 292.896C113.138 290.417 115.152 288.414 117.644 288.414C120.136 288.414 122.15 290.417 122.15 292.896C122.15 295.376 120.136 297.379 117.644 297.379H113.138V292.896Z" fill="black"/>
<path d="M110.886 292.896C110.886 295.376 108.872 297.379 106.38 297.379C103.888 297.379 101.874 295.376 101.874 292.896V281.655C101.874 279.176 103.888 277.173 106.38 277.173C108.872 277.173 110.886 279.176 110.886 281.655V292.896Z" fill="black"/>
<path d="M106.38 310.862C108.872 310.862 110.886 312.865 110.886 315.345C110.886 317.824 108.872 319.827 106.38 319.827C103.888 319.827 101.874 317.824 101.874 315.345V310.862H106.38Z" fill="black"/>
<path d="M106.38 308.62C103.888 308.62 101.874 306.617 101.874 304.137C101.874 301.658 103.888 299.655 106.38 299.655H117.678C120.17 299.655 122.184 301.658 122.184 304.137C122.184 306.617 120.17 308.62 117.678 308.62H106.38Z" fill="black"/>
<defs>
<filter id="filter0_f_15_21" x="0" y="0" width="487" height="487" filterUnits="userSpaceOnUse" color-interpolation-filters="sRGB">
<feFlood flood-opacity="0" result="BackgroundImageFix"/>
<feBlend mode="normal" in="SourceGraphic" in2="BackgroundImageFix" result="shape"/>
<feGaussianBlur stdDeviation="65" result="effect1_foregroundBlur_15_21"/>
</filter>
<clipPath id="clip0_15_21">
<rect width="167" height="46" fill="white" transform="translate(277 226)"/>
</clipPath>
<clipPath id="clip1_15_21">
<rect width="180" height="33" fill="white" transform="translate(127 171)"/>
</clipPath>
</defs>
</svg>
