<svg width="450" height="449" viewBox="0 0 450 449" fill="none" xmlns="http://www.w3.org/2000/svg">
<g filter="url(#filter0_f_16_505)">
<circle cx="224.839" cy="224.5" r="94.5" fill="#9AF229"/>
</g>
<g clip-path="url(#clip0_16_505)">
<path d="M285.293 236.173L285.273 236.111L297.604 224.606V219.063H277.822V224.606H289.638L289.657 224.659L277.447 236.173V241.717H297.802V236.174L285.293 236.173ZM309.947 218.535C307.665 218.535 305.806 218.886 304.369 219.588C303.03 220.199 301.902 221.206 301.131 222.479C300.394 223.759 299.932 225.184 299.773 226.66L305.775 227.521C305.993 226.217 306.427 225.293 307.078 224.749C307.819 224.179 308.731 223.892 309.658 223.936C310.876 223.936 311.76 224.267 312.309 224.931C312.853 225.595 313.13 226.514 313.13 227.726V228.33H307.358C304.421 228.33 302.31 228.994 301.027 230.322C299.744 231.649 299.103 233.402 299.105 235.58C299.105 237.81 299.746 239.47 301.027 240.559C302.308 241.647 303.919 242.188 305.86 242.182C308.268 242.182 310.121 241.337 311.416 239.648C312.182 238.611 312.729 237.423 313.022 236.16H313.24L314.067 241.703H319.506V227.666C319.506 224.765 318.756 222.518 317.256 220.925C315.756 219.332 313.319 218.535 309.947 218.535V218.535ZM311.85 235.838C310.986 236.572 309.856 236.937 308.449 236.937C307.29 236.937 306.484 236.73 306.033 236.316C305.813 236.121 305.638 235.878 305.52 235.605C305.403 235.333 305.345 235.038 305.352 234.74C305.339 234.459 305.383 234.179 305.48 233.916C305.577 233.653 305.725 233.412 305.916 233.21C306.122 233.012 306.366 232.86 306.631 232.761C306.897 232.662 307.18 232.619 307.463 232.635H313.139V233.017C313.151 233.557 313.04 234.092 312.817 234.581C312.593 235.07 312.262 235.5 311.85 235.838ZM352.394 219.063H345.968V241.72H352.394V219.063ZM390.332 219.063C388.517 219.063 387.086 219.716 386.04 221.022C385.289 221.959 384.718 223.346 384.327 225.18H384.138L383.298 219.063H377.81V241.717H384.236V230.099C384.236 228.634 384.572 227.511 385.246 226.73C385.919 225.949 387.161 225.558 388.971 225.558H391.41V219.063H390.332ZM371.433 219.803C369.933 218.894 368.041 218.44 365.757 218.442C362.161 218.442 359.347 219.485 357.315 221.572C355.282 223.659 354.267 226.536 354.267 230.203C354.215 232.419 354.69 234.616 355.651 236.605C356.53 238.378 357.9 239.849 359.591 240.837C361.294 241.84 363.318 242.342 365.666 242.344C367.695 242.344 369.391 242.026 370.752 241.388C372.032 240.816 373.147 239.919 373.99 238.782C374.792 237.667 375.388 236.412 375.748 235.078L370.212 233.499C369.979 234.366 369.53 235.157 368.909 235.795C368.284 236.432 367.236 236.751 365.767 236.751C364.019 236.751 362.716 236.241 361.858 235.221C361.236 234.484 360.845 233.432 360.673 232.068H375.833C375.895 231.43 375.928 230.896 375.928 230.465V229.054C375.964 227.159 375.58 225.28 374.804 223.557C374.078 221.988 372.902 220.679 371.433 219.803ZM365.571 223.843C368.176 223.843 369.653 225.149 370.003 227.763H360.787C360.933 226.891 361.287 226.069 361.819 225.369C362.664 224.349 363.914 223.84 365.571 223.843ZM349.251 209.932C348.768 209.915 348.286 209.997 347.834 210.174C347.383 210.351 346.971 210.618 346.623 210.96C346.28 211.306 346.011 211.721 345.833 212.178C345.656 212.635 345.573 213.125 345.59 213.616C345.573 214.111 345.655 214.604 345.833 215.064C346.011 215.524 346.28 215.943 346.624 216.292C346.968 216.642 347.378 216.916 347.83 217.097C348.282 217.278 348.766 217.362 349.251 217.343C349.733 217.362 350.214 217.278 350.662 217.097C351.111 216.915 351.517 216.641 351.856 216.291C352.193 215.937 352.455 215.518 352.628 215.058C352.801 214.598 352.881 214.108 352.863 213.616C352.885 213.127 352.807 212.638 352.634 212.182C352.46 211.725 352.195 211.31 351.856 210.964C351.516 210.618 351.109 210.347 350.661 210.17C350.213 209.993 349.734 209.913 349.254 209.935L349.251 209.932ZM335.976 218.442C333.788 218.442 332.029 219.143 330.7 220.543C329.716 221.581 328.995 223.13 328.534 225.19H328.329L327.489 219.073H322.001V248.229H328.427V236.22H328.661C328.857 237.021 329.132 237.799 329.482 238.544C330.026 239.756 330.917 240.772 332.039 241.458C333.202 242.105 334.512 242.427 335.836 242.391C338.526 242.391 340.574 241.323 341.981 239.188C343.389 237.052 344.092 234.072 344.092 230.249C344.092 226.555 343.411 223.664 342.05 221.575C340.689 219.487 338.664 218.442 335.976 218.442ZM336.627 234.859C335.878 235.966 334.706 236.519 333.11 236.519C332.452 236.55 331.796 236.42 331.197 236.142C330.598 235.863 330.073 235.443 329.665 234.916C328.832 233.851 328.418 232.394 328.421 230.544V230.113C328.421 228.234 328.835 226.796 329.665 225.798C330.493 224.8 331.643 224.306 333.11 224.317C334.735 224.317 335.914 224.842 336.651 225.894C337.387 226.945 337.754 228.411 337.754 230.292C337.759 232.237 337.385 233.76 336.634 234.859H336.627Z" fill="#201515"/>
<path d="M274.962 236.173H252.731V241.724H274.962V236.173Z" fill="black"/>
</g>
<g clip-path="url(#clip1_16_505)">
<path d="M169.978 173.29C169.794 172.965 169.573 172.663 169.322 172.388C168.834 171.86 168.248 171.435 167.596 171.14C166.93 170.831 166.206 170.671 165.473 170.672C164.422 170.648 163.388 170.937 162.499 171.504C161.593 172.127 160.9 173.018 160.517 174.056C160.008 175.414 159.767 176.86 159.809 178.312V179.255C159.767 180.706 159.998 182.151 160.488 183.515C160.855 184.54 161.529 185.425 162.415 186.046C163.304 186.612 164.339 186.899 165.389 186.87C166.127 186.873 166.857 186.718 167.53 186.413C168.193 186.116 168.794 185.692 169.299 185.165C169.548 184.903 169.772 184.619 169.969 184.315V186.439H176.585V171.102H169.969L169.978 173.29ZM170.142 179.13C170.155 179.781 170.089 180.431 169.943 181.065C169.857 181.492 169.659 181.887 169.368 182.208C169.241 182.333 169.09 182.43 168.925 182.494C168.76 182.559 168.584 182.589 168.407 182.584C168.234 182.588 168.061 182.558 167.9 182.493C167.739 182.429 167.592 182.332 167.469 182.208C167.176 181.891 166.977 181.497 166.894 181.071C166.758 180.433 166.696 179.782 166.71 179.13V178.312C166.695 177.666 166.76 177.02 166.903 176.389C166.984 175.972 167.178 175.586 167.463 175.275C167.587 175.155 167.734 175.061 167.894 174.999C168.054 174.937 168.224 174.908 168.396 174.914C168.75 174.902 169.095 175.031 169.356 175.275C169.648 175.584 169.847 175.97 169.932 176.389C170.078 177.019 170.144 177.665 170.13 178.312L170.142 179.13Z" fill="black"/>
<path d="M192.493 171.286C191.759 170.865 190.924 170.657 190.08 170.684C189.258 170.671 188.444 170.839 187.692 171.175C187.006 171.487 186.39 171.937 185.883 172.499C185.544 172.881 185.258 173.308 185.034 173.768V171.114H178.631V186.451H185.227V177.257C185.214 176.911 185.282 176.567 185.425 176.253C185.535 176.009 185.717 175.806 185.946 175.671C186.162 175.551 186.405 175.489 186.651 175.491C186.822 175.481 186.993 175.508 187.152 175.57C187.312 175.632 187.457 175.728 187.577 175.851C187.832 176.181 187.953 176.598 187.914 177.015V186.457H194.507V176.154C194.538 175.117 194.364 174.084 193.995 173.116C193.698 172.362 193.172 171.724 192.493 171.292" fill="black"/>
<path d="M222.43 180.405C222.455 181.046 222.295 181.679 221.97 182.229C221.835 182.428 221.653 182.588 221.441 182.696C221.229 182.804 220.993 182.856 220.755 182.846C220.385 182.863 220.022 182.733 219.743 182.486C219.441 182.153 219.241 181.738 219.168 181.293C219.023 180.548 218.96 179.79 218.978 179.032V178.325C218.978 177.012 219.124 176.078 219.424 175.526C219.55 175.265 219.749 175.048 219.995 174.9C220.242 174.752 220.526 174.68 220.813 174.693C221.044 174.678 221.275 174.723 221.483 174.825C221.691 174.927 221.87 175.082 222.001 175.275C222.293 175.796 222.432 176.391 222.403 176.989V177.071H229.163C229.135 175.835 228.744 174.636 228.039 173.626C227.3 172.627 226.291 171.866 225.134 171.435C223.709 170.901 222.197 170.644 220.678 170.678C219.154 170.651 217.641 170.941 216.233 171.531C214.972 172.069 213.902 172.983 213.164 174.149C212.414 175.313 212.039 176.774 212.039 178.531V178.962C212.039 180.708 212.403 182.175 213.13 183.364C213.848 184.536 214.906 185.456 216.159 186C217.584 186.605 219.118 186.903 220.663 186.873C222.162 186.901 223.653 186.645 225.059 186.12C226.251 185.678 227.295 184.903 228.067 183.885C228.816 182.852 229.228 181.61 229.247 180.329H222.43V180.405Z" fill="black"/>
<path d="M244.404 171.285C243.671 170.859 242.836 170.646 241.99 170.671C241.17 170.659 240.357 170.826 239.606 171.163C238.919 171.472 238.302 171.923 237.797 172.487C237.547 172.766 237.327 173.07 237.138 173.394V166.379H230.542V186.438H237.138V177.244C237.125 176.898 237.193 176.554 237.336 176.24C237.447 175.997 237.629 175.794 237.857 175.658C238.074 175.537 238.317 175.475 238.565 175.478C238.735 175.468 238.907 175.495 239.066 175.558C239.225 175.62 239.37 175.715 239.491 175.838C239.744 176.17 239.863 176.585 239.825 177.002V186.444H246.421V176.141C246.451 175.104 246.275 174.071 245.905 173.103C245.61 172.349 245.084 171.709 244.404 171.279" fill="black"/>
<path d="M258.099 173.29C257.915 172.965 257.695 172.663 257.443 172.388C256.956 171.86 256.37 171.436 255.718 171.14C255.056 170.837 254.338 170.682 253.612 170.683C252.561 170.659 251.526 170.949 250.638 171.515C249.733 172.139 249.04 173.03 248.655 174.067C248.147 175.426 247.906 176.872 247.948 178.324V179.267C247.906 180.717 248.137 182.163 248.626 183.527C248.995 184.552 249.668 185.437 250.554 186.058C251.443 186.624 252.478 186.91 253.529 186.881C254.266 186.885 254.996 186.729 255.668 186.425C256.332 186.128 256.933 185.704 257.438 185.176C257.687 184.915 257.912 184.63 258.108 184.327V186.451H264.724V171.114H258.108L258.099 173.29ZM258.267 179.13C258.279 179.781 258.211 180.431 258.065 181.065C257.979 181.492 257.781 181.887 257.489 182.208C257.362 182.333 257.212 182.43 257.047 182.494C256.881 182.559 256.705 182.589 256.529 182.584C256.356 182.589 256.184 182.558 256.021 182.493C255.86 182.429 255.714 182.332 255.591 182.208C255.298 181.891 255.099 181.497 255.016 181.071C254.88 180.433 254.818 179.782 254.832 179.13V178.312C254.817 177.666 254.883 177.02 255.024 176.389C255.105 175.972 255.3 175.586 255.585 175.275C255.709 175.155 255.856 175.061 256.015 174.999C256.175 174.937 256.346 174.908 256.517 174.914C256.872 174.902 257.217 175.031 257.478 175.275C257.769 175.584 257.969 175.97 258.053 176.389C258.2 177.019 258.269 177.665 258.255 178.312L258.267 179.13Z" fill="black"/>
<path d="M277.709 175.219V171.114H274.884V166.391H268.291V171.114H265.973V175.219H268.274V181.911C268.229 182.895 268.486 183.868 269.008 184.699C269.491 185.406 270.181 185.942 270.981 186.232C271.9 186.556 272.868 186.712 273.84 186.695C274.57 186.703 275.298 186.631 276.012 186.48C276.597 186.354 277.166 186.159 277.706 185.898V182.278C277.251 182.432 276.774 182.511 276.294 182.514C275.922 182.541 275.553 182.438 275.247 182.223C275.002 182.025 274.881 181.676 274.881 181.175V175.213L277.709 175.219Z" fill="black"/>
<path d="M153.967 164.142H153.754C147.457 164.142 144.396 173.672 144.396 173.672V166.36H127.841V186.457H134.458V173.058H137.987V186.457H145.087C145.087 186.457 148.734 170.552 152.149 171.742C154.45 172.615 147.96 186.442 147.96 186.442H157.335C157.335 186.442 158.635 177.437 158.655 174.32C158.943 169.028 158.118 164.137 153.961 164.137" fill="black"/>
<path d="M200.429 187.344C200.439 187.08 200.362 186.82 200.211 186.605C200.047 186.396 199.824 186.243 199.572 186.166C199.241 186.062 198.895 186.013 198.548 186.02L195.021 171.114H201.888L203.945 183.899H203.318L205.469 171.114H212.198L208.861 186.02C208.492 186.008 208.124 186.057 207.771 186.166C207.531 186.237 207.323 186.388 207.178 186.593C207.046 186.82 206.982 187.081 206.994 187.344V190.87H200.429V187.344Z" fill="black"/>
</g>
<path d="M133.239 280.5L135.001 276.429C136.906 277.843 139.435 278.578 141.936 278.578C143.783 278.578 144.949 277.871 144.949 276.796C144.92 273.799 133.893 276.146 133.808 268.625C133.779 264.807 137.19 261.867 142.021 261.867C144.892 261.867 147.762 262.574 149.809 264.185L148.16 268.342C146.284 267.154 143.954 266.306 141.737 266.306C140.231 266.306 139.236 267.013 139.236 267.918C139.264 270.858 150.377 269.247 150.491 276.429C150.491 280.331 147.166 283.074 142.391 283.074C138.895 283.074 135.683 282.254 133.239 280.5Z" fill="black"/>
<path d="M200.853 274.958C199.972 276.485 198.323 277.532 196.419 277.532C193.605 277.532 191.332 275.269 191.332 272.47C191.332 269.671 193.605 267.409 196.419 267.409C198.323 267.409 199.972 268.455 200.853 269.982L205.713 267.296C203.894 264.072 200.398 261.867 196.419 261.867C190.536 261.867 185.761 266.617 185.761 272.47C185.761 278.323 190.536 283.074 196.419 283.074C200.426 283.074 203.894 280.896 205.713 277.645L200.853 274.958Z" fill="black"/>
<path d="M152.935 253.073H159.017V282.678H152.935V253.073Z" fill="black"/>
<path d="M208.1 253.073V282.678H214.182V273.799L221.401 282.678H229.188L220.008 272.131L228.506 262.291H221.06L214.182 270.463V253.073H208.1Z" fill="black"/>
<path d="M177.093 275.015C176.212 276.457 174.393 277.532 172.346 277.532C169.533 277.532 167.259 275.269 167.259 272.47C167.259 269.671 169.533 267.409 172.346 267.409C174.393 267.409 176.212 268.54 177.093 270.01V275.015ZM177.093 262.291V264.694C176.098 263.026 173.625 261.867 171.039 261.867C165.696 261.867 161.49 266.561 161.49 272.442C161.49 278.323 165.696 283.074 171.039 283.074C173.625 283.074 176.098 281.914 177.093 280.246V282.649H183.175V262.291H177.093Z" fill="black"/>
<path d="M95.6383 274.987C95.6383 277.051 93.9614 278.719 91.8867 278.719C89.812 278.719 88.1351 277.051 88.1351 274.987C88.1351 272.923 89.812 271.254 91.8867 271.254H95.6383V274.987Z" fill="black"/>
<path d="M97.5141 274.987C97.5141 272.923 99.1909 271.254 101.266 271.254C103.34 271.254 105.017 272.923 105.017 274.987V284.318C105.017 286.382 103.34 288.05 101.266 288.05C99.1909 288.05 97.5141 286.382 97.5141 284.318V274.987Z" fill="black"/>
<path d="M101.266 260.001C99.1909 260.001 97.5141 258.332 97.5141 256.268C97.5141 254.204 99.1909 252.536 101.266 252.536C103.34 252.536 105.017 254.204 105.017 256.268V260.001H101.266Z" fill="black"/>
<path d="M101.266 261.895C103.34 261.895 105.017 263.563 105.017 265.627C105.017 267.692 103.34 269.36 101.266 269.36H91.8583C89.7836 269.36 88.1067 267.692 88.1067 265.627C88.1067 263.563 89.7836 261.895 91.8583 261.895H101.266Z" fill="black"/>
<path d="M116.3 265.627C116.3 263.563 117.977 261.895 120.052 261.895C122.127 261.895 123.803 263.563 123.803 265.627C123.803 267.692 122.127 269.36 120.052 269.36H116.3V265.627Z" fill="black"/>
<path d="M114.425 265.627C114.425 267.692 112.748 269.36 110.673 269.36C108.598 269.36 106.921 267.692 106.921 265.627V256.268C106.921 254.204 108.598 252.536 110.673 252.536C112.748 252.536 114.425 254.204 114.425 256.268V265.627Z" fill="black"/>
<path d="M110.673 280.585C112.748 280.585 114.425 282.254 114.425 284.318C114.425 286.382 112.748 288.05 110.673 288.05C108.598 288.05 106.921 286.382 106.921 284.318V280.585H110.673Z" fill="black"/>
<path d="M110.673 278.719C108.598 278.719 106.921 277.051 106.921 274.987C106.921 272.923 108.598 271.254 110.673 271.254H120.08C122.155 271.254 123.832 272.923 123.832 274.987C123.832 277.051 122.155 278.719 120.08 278.719H110.673Z" fill="black"/>
<defs>
<filter id="filter0_f_16_505" x="0.339203" y="0" width="449" height="449" filterUnits="userSpaceOnUse" color-interpolation-filters="sRGB">
<feFlood flood-opacity="0" result="BackgroundImageFix"/>
<feBlend mode="normal" in="SourceGraphic" in2="BackgroundImageFix" result="shape"/>
<feGaussianBlur stdDeviation="65" result="effect1_foregroundBlur_16_505"/>
</filter>
<clipPath id="clip0_16_505">
<rect width="139.044" height="38.2996" fill="white" transform="translate(252.731 209.93)"/>
</clipPath>
<clipPath id="clip1_16_505">
<rect width="149.868" height="27.4758" fill="white" transform="translate(127.841 164.137)"/>
</clipPath>
</defs>
</svg>
