<svg width="153" height="49" viewBox="0 0 153 49" fill="none" xmlns="http://www.w3.org/2000/svg">
<path d="M17.5979 22.8968L20.2022 15.957L22.5505 22.0989L26.8108 19.5549L20.8946 4.16991C20.5032 3.1312 19.0129 3.16131 18.6516 4.21507L12.7656 21.7678C12.5097 22.5205 12.5247 23.3334 12.7957 24.086L13.9398 27.2473L18.2602 24.6731L17.5979 22.8968Z" fill="black"/>
<path d="M16.7849 34.6538L10.8989 32.6065L6.23222 35.3914L5.85588 35.6172L5.64513 35.7527L3.16125 43.0086L8.7462 39.6065L8.73115 39.5914L10.2365 38.6882L22.8967 43.3248C24.0258 43.7463 25.1398 42.6323 24.7032 41.5032L18.9828 26.2086L14.6473 28.7979L16.7849 34.6538Z" fill="black"/>
<path d="M31.8989 46.2L35.1956 41.0215L31.2666 30.7699L27.5483 21.1054L23.3032 23.6495L31.8989 46.2Z" fill="black"/>
<path d="M52.4323 14.0753L44.4387 36.1892H39.5764L31.628 14.0753H36.4753L42 29.4753L47.5699 14.0753H52.4323V14.0753Z" fill="black"/>
<path d="M68.6302 14.0752H73.2065V36.1892H68.6302V34.3677C67.7119 35.1354 66.628 35.6623 65.3635 35.9483L65.1226 35.9935C64.4001 36.129 63.6474 36.1892 62.8646 36.1892C62.0818 36.1892 61.3291 36.129 60.6065 35.9935L60.3657 35.9483C57.9269 35.4365 56.0302 34.2322 54.6452 32.3204C53.2302 30.4086 52.5226 28.015 52.5226 25.1247C52.5226 22.2193 53.2302 19.8107 54.6452 17.8838C56.0603 15.972 57.9872 14.7828 60.4409 14.301L60.6667 14.2408C61.3743 14.1204 62.1119 14.0602 62.8796 14.0602C63.6474 14.0602 64.385 14.1204 65.0925 14.2408L65.3183 14.301C66.613 14.572 67.7269 15.0989 68.6603 15.8817V14.0752H68.6302ZM68.6302 25.0946C68.6302 23.2731 68.2689 21.8279 67.5312 20.7441C66.5678 19.329 65.0173 18.6215 62.8646 18.6215C60.6968 18.6215 59.1312 19.329 58.1829 20.7441C57.4603 21.843 57.099 23.3032 57.099 25.1096C57.099 26.9311 57.4603 28.3763 58.1829 29.4602C59.1463 30.8903 60.7119 31.5978 62.8646 31.5978C65.0173 31.5978 66.5678 30.8903 67.5312 29.4752C68.2689 28.3914 68.6302 26.9462 68.6302 25.1247V25.0946Z" fill="black"/>
<path d="M91.7828 15.0236C93.4237 15.8516 94.6882 17.1311 95.5914 18.8774C96.5097 20.6387 96.9613 22.7161 96.9613 25.1247V36.1892H92.385V25.1247C92.385 23.3032 92.0839 21.858 91.4667 20.7742C90.6538 19.3441 89.329 18.6365 87.5075 18.6365C85.7011 18.6365 84.3914 19.329 83.5936 20.7139C82.9613 21.7677 82.6452 23.1828 82.6301 24.9742V36.2043H78.0538V14.0752H82.6301V15.4C82.8258 15.2645 83.0215 15.1441 83.2323 15.0236C84.5118 14.3763 85.9419 14.0602 87.5075 14.0602C89.0731 14.0602 90.5032 14.3763 91.7828 15.0236Z" fill="black"/>
<path d="M108.417 35.9484C105.979 35.4365 104.082 34.2322 102.697 32.3204C101.282 30.4086 100.574 28.015 100.574 25.1247C100.574 22.2193 101.282 19.8107 102.697 17.8839C104.112 15.972 106.039 14.7828 108.493 14.3011L108.718 14.2408C109.426 14.1204 110.163 14.0602 110.931 14.0602C111.699 14.0602 112.437 14.1204 113.144 14.2408L113.355 14.3011C114.649 14.572 115.763 15.0989 116.697 15.8817V3.71826H121.273V36.1892H116.697V34.3677C115.779 35.1355 114.695 35.6623 113.43 35.9484L113.189 35.9935C112.467 36.129 111.714 36.1892 110.931 36.1892C110.148 36.1892 109.396 36.129 108.673 35.9935L108.417 35.9484ZM110.916 18.6365C108.748 18.6365 107.183 19.3441 106.234 20.7591C105.512 21.858 105.151 23.3183 105.151 25.1247C105.151 26.9462 105.512 28.3914 106.234 29.4753C107.198 30.9054 108.763 31.6129 110.916 31.6129C113.069 31.6129 114.619 30.9054 115.583 29.4903C116.32 28.4064 116.682 26.9613 116.682 25.1398V25.0946C116.682 23.2731 116.32 21.8279 115.583 20.7441C114.619 19.3441 113.069 18.6365 110.916 18.6365Z" fill="black"/>
<path d="M130.049 35.2258C128.409 34.3978 127.144 33.1182 126.241 31.3871C125.323 29.6107 124.871 27.5333 124.871 25.1247V14.0602H129.447V25.1247C129.447 26.9613 129.748 28.4215 130.366 29.4903C131.179 30.9053 132.503 31.6129 134.325 31.6129C136.131 31.6129 137.441 30.9354 138.254 29.5656C138.886 28.4967 139.202 27.0666 139.217 25.2903V14.0602H143.794V36.1742H139.217V34.8494C139.022 35 138.826 35.1204 138.615 35.2258C137.335 35.8731 135.905 36.1892 134.34 36.1892C132.759 36.1892 131.329 35.8731 130.049 35.2258Z" fill="black"/>
</svg>
