<svg width="382" height="118" viewBox="0 0 382 118" fill="none" xmlns="http://www.w3.org/2000/svg">
<path fill-rule="evenodd" clip-rule="evenodd" d="M231.874 30.6565C240.614 30.6565 245.64 25.6233 245.64 18.3306V2.45306H238.731V18.1777C238.731 22.5014 236.058 24.7798 231.874 24.7798C227.702 24.7798 225.012 22.5641 225.012 18.1777V2.45306H218.095V18.3306C218.095 25.5971 223.053 30.6565 231.874 30.6565Z" fill="black"/>
<mask id="mask0_4_162" style="mask-type:alpha" maskUnits="userSpaceOnUse" x="0" y="0" width="381" height="117">
<path d="M0 116.953H380.784V0H0V116.953Z" fill="white"/>
</mask>
<g mask="url(#mask0_4_162)">
<path fill-rule="evenodd" clip-rule="evenodd" d="M206.205 29.8193H213.093V2.41418H206.205V29.8193Z" fill="black"/>
<path fill-rule="evenodd" clip-rule="evenodd" d="M257.485 7.97667H263.105C267.606 7.97667 271.252 11.607 271.252 16.0852C271.252 20.5648 267.606 24.1951 263.105 24.1951H257.485V7.97667ZM278.175 16.0182C278.175 8.134 272.9 2.45398 262.475 2.45398H250.624V29.8169H261.4C272.701 29.8169 278.175 23.8062 278.175 16.0182Z" fill="black"/>
<path fill-rule="evenodd" clip-rule="evenodd" d="M188.524 30.641C194.41 30.641 197.894 28.7166 201.031 25.6325L196.763 21.6671C194.364 23.6688 192.23 24.9537 188.745 24.9537C183.515 24.9537 179.892 20.9489 179.892 16.143V16.0629C179.892 11.2569 183.598 7.33233 188.745 7.33233C191.79 7.33233 194.189 8.53127 196.546 10.495L200.819 5.96732C197.979 3.40628 194.537 1.64502 188.789 1.64502C179.419 1.64502 172.873 8.1729 172.873 16.143V16.2231C172.873 24.269 179.544 30.641 188.524 30.641Z" fill="black"/>
<path fill-rule="evenodd" clip-rule="evenodd" d="M326.275 24.1948H320.654V7.97637H326.275C330.775 7.97637 334.419 11.6067 334.419 16.0863C334.419 20.5645 330.775 24.1948 326.275 24.1948ZM341.345 16.0178C341.345 8.13516 336.069 2.45367 325.644 2.45367H313.792V29.818H324.569C335.87 29.818 341.345 23.8058 341.345 16.0178Z" fill="black"/>
<path fill-rule="evenodd" clip-rule="evenodd" d="M291.084 18.5897L295.075 7.92597L299.034 18.5838C296.391 18.2852 293.727 18.2881 291.084 18.5897ZM303.205 29.8172H310.298L300.02 2.45135H290.381L279.985 29.8172H286.885L288.878 24.4911C292.944 23.6171 297.149 23.6112 301.221 24.4736L303.205 29.8172Z" fill="black"/>
<path fill-rule="evenodd" clip-rule="evenodd" d="M302.408 56.5829V48.6813H309.748C312.423 48.6813 314.426 49.8686 314.426 52.5228C314.426 55.4175 312.221 56.5829 309.328 56.5829H302.408ZM321.558 52.0785C321.558 47.1997 317.938 43.4922 311.995 43.4922H295.52V70.8565H302.408V59.0245L313.426 70.8565H322.017L311.664 60.4376C318.563 60.4376 321.558 56.9791 321.558 52.0785Z" fill="black"/>
<path fill-rule="evenodd" clip-rule="evenodd" d="M365.34 65.4019V43.5092H358.452V70.8765H380.784V65.4019H365.34Z" fill="black"/>
<path fill-rule="evenodd" clip-rule="evenodd" d="M229.098 65.2454H213.094V59.9281H225.492V54.4579H213.094V49.1027H229.098V43.4911H206.206V70.857H229.098V65.2454Z" fill="black"/>
<path fill-rule="evenodd" clip-rule="evenodd" d="M275.251 70.8762H282.095V48.9835H290.117V43.5118H267.225V48.9835H275.251V70.8762Z" fill="black"/>
<path fill-rule="evenodd" clip-rule="evenodd" d="M255.176 65.399L254.982 65.246L244.654 43.5107L234.132 43.4918V70.8954H241.02V49.1004L251.541 70.8954H262.063V43.4918H255.176V65.399Z" fill="black"/>
<path fill-rule="evenodd" clip-rule="evenodd" d="M188.524 71.6957C194.41 71.6957 197.894 69.7727 201.031 66.6872L196.763 62.7218C194.364 64.7249 192.23 66.0084 188.745 66.0084C183.515 66.0084 179.892 62.0051 179.892 57.1977V57.1205C179.892 52.3116 183.598 48.387 188.745 48.387C191.79 48.387 194.189 49.5874 196.546 51.5497L200.819 47.022C197.979 44.4624 194.537 42.7012 188.789 42.7012C179.419 42.7012 172.873 49.229 172.873 57.1977V57.2778C172.873 65.3251 179.544 71.6957 188.524 71.6957Z" fill="black"/>
<path fill-rule="evenodd" clip-rule="evenodd" d="M335.796 59.6273L339.789 48.9636L343.744 59.6215C341.099 59.3228 338.437 59.3257 335.796 59.6273ZM335.092 43.4919L324.694 70.8562H331.597L333.586 65.5302C337.658 64.6532 341.863 64.6474 345.929 65.5098L347.915 70.8562H355.011L344.733 43.4919H335.092Z" fill="black"/>
<path fill-rule="evenodd" clip-rule="evenodd" d="M195.415 90.1047V114.918H193.527V92.8697L184.305 108.112H183.981L174.761 92.8697V114.918H172.873V90.1047H175.25L184.144 104.807L193.04 90.1047H195.415Z" fill="black"/>
<path fill-rule="evenodd" clip-rule="evenodd" d="M212.521 90.1986L209.289 94.7059L207.558 94.7147L210.409 90.2132L212.521 90.1986ZM209.267 98.5067C207.249 98.5067 205.564 99.1331 204.211 100.384C202.857 101.637 202.085 103.256 201.895 105.241H216.211C216.023 103.139 215.268 101.492 213.952 100.297C212.632 99.104 211.071 98.5067 209.267 98.5067ZM209.267 96.8052C211.88 96.8052 213.998 97.7273 215.624 99.5716C217.25 101.414 218.064 103.6 218.064 106.127C218.064 106.223 218.058 106.366 218.046 106.554C218.036 106.74 218.027 106.883 218.027 106.978H201.895C202.109 108.964 202.912 110.565 204.3 111.78C205.687 112.997 207.403 113.606 209.446 113.606C210.87 113.606 212.117 113.311 213.184 112.722C214.254 112.131 215.06 111.351 215.606 110.381L217.174 111.302C216.438 112.531 215.393 113.507 214.04 114.227C212.686 114.947 211.144 115.308 209.409 115.308C206.68 115.308 204.437 114.441 202.68 112.705C200.922 110.967 200.045 108.749 200.045 106.059C200.045 103.409 200.904 101.208 202.626 99.4463C204.347 97.685 206.561 96.8052 209.267 96.8052Z" fill="black"/>
<path fill-rule="evenodd" clip-rule="evenodd" d="M224.011 100.669C225.08 98.1884 227.061 96.9472 229.958 96.9472V98.6487C228.272 98.6487 226.859 99.1863 225.721 100.263C224.58 101.335 224.011 102.938 224.011 105.066V114.918H222.231V97.1949H224.011V100.669Z" fill="black"/>
<path fill-rule="evenodd" clip-rule="evenodd" d="M233.604 114.918H235.543V97.1944H233.604V114.918ZM235.66 92.4977C235.349 92.7701 234.987 92.9071 234.574 92.9071C234.159 92.9071 233.797 92.7701 233.487 92.4977C233.176 92.2267 233.02 91.8888 233.02 91.4882C233.02 91.1094 233.176 90.7845 233.487 90.5121C233.797 90.2411 234.159 90.1071 234.574 90.1071C234.987 90.1071 235.349 90.2411 235.66 90.5121C235.969 90.7845 236.126 91.1094 236.126 91.4882C236.126 91.8888 235.969 92.2267 235.66 92.4977Z" fill="black"/>
<path fill-rule="evenodd" clip-rule="evenodd" d="M243.615 111.41C245.076 112.876 246.862 113.607 248.974 113.607C251.087 113.607 252.874 112.876 254.333 111.41C255.794 109.945 256.524 108.162 256.524 106.058C256.524 103.956 255.794 102.171 254.333 100.703C252.874 99.2387 251.087 98.5074 248.974 98.5074C246.862 98.5074 245.076 99.2387 243.615 100.703C242.156 102.171 241.426 103.956 241.426 106.058C241.426 108.162 242.156 109.945 243.615 111.41ZM256.524 90.1075H258.304V114.918H256.524V110.807C255.788 112.201 254.749 113.3 253.408 114.102C252.066 114.906 250.553 115.309 248.868 115.309C246.305 115.309 244.126 114.416 242.333 112.634C240.539 110.849 239.643 108.655 239.643 106.058C239.643 103.458 240.539 101.267 242.333 99.4805C244.126 97.6989 246.305 96.8059 248.868 96.8059C250.553 96.8059 252.066 97.2065 253.408 98.0121C254.749 98.8148 255.788 99.9117 256.524 101.306V90.1075Z" fill="black"/>
<path fill-rule="evenodd" clip-rule="evenodd" d="M266.584 111.41C268.045 112.876 269.83 113.607 271.944 113.607C274.056 113.607 275.837 112.876 277.286 111.41C278.734 109.945 279.459 108.162 279.459 106.058C279.459 103.956 278.734 102.171 277.286 100.703C275.837 99.2387 274.056 98.5074 271.944 98.5074C269.83 98.5074 268.045 99.2387 266.584 100.703C265.125 102.171 264.395 103.956 264.395 106.058C264.395 108.162 265.125 109.945 266.584 111.41ZM279.459 97.1949H281.274V114.918H279.459V110.915C278.697 112.284 277.652 113.359 276.324 114.139C274.995 114.918 273.488 115.309 271.8 115.309C269.261 115.309 267.089 114.416 265.283 112.634C263.48 110.849 262.578 108.655 262.578 106.058C262.578 103.458 263.48 101.267 265.283 99.4806C267.089 97.6989 269.261 96.8059 271.8 96.8059C273.488 96.8059 274.995 97.1949 276.324 97.9743C277.652 98.7536 278.697 99.8302 279.459 101.201V97.1949Z" fill="black"/>
<path fill-rule="evenodd" clip-rule="evenodd" d="M94.9541 77.7503C87.7927 91.0858 73.7348 99.6619 58.4972 99.6619C35.6811 99.6619 17.1197 81.1869 17.1197 58.4785C17.1197 35.7671 35.6811 17.2863 58.4972 17.2863C73.644 17.2863 87.6346 25.7706 94.8297 38.9881H99.339C91.8176 23.431 75.8087 13.3792 58.4972 13.3792C33.5165 13.3792 13.1944 33.6067 13.1944 58.4785C13.1944 83.3415 33.5165 103.569 58.4972 103.569C75.8643 103.569 91.9317 93.456 99.4312 77.8101L99.3054 77.7503H94.9541Z" fill="black"/>
<path fill-rule="evenodd" clip-rule="evenodd" d="M58.7497 3.90784C28.522 3.90784 3.92468 28.3892 3.92468 58.4777C3.92468 88.5648 28.522 113.046 58.7497 113.046C85.4136 113.046 108.241 93.7699 112.752 67.8464H89.5366C85.4195 81.2896 72.9701 90.5431 58.7497 90.5431C40.9831 90.5431 26.5329 76.1603 26.5329 58.4777C26.5329 40.7923 40.9831 26.4036 58.7497 26.4036C72.9759 26.4036 85.4195 35.6586 89.5307 49.1018L112.752 49.1077C108.246 23.1841 85.4136 3.90784 58.7497 3.90784ZM58.7497 116.953C26.3514 116.953 -0.000701904 90.7252 -0.000701904 58.4777C-0.000701904 26.2288 26.3514 -0.000732422 58.7497 -0.000732422C88.133 -0.000732422 113.169 21.8438 116.985 50.8048L117.275 53.0148L86.5099 53.0089L86.1381 51.5361C82.9518 39.0398 71.6924 30.3122 58.7497 30.3122C43.1477 30.3122 30.4568 42.9484 30.4568 58.4777C30.4568 74.0057 43.1477 86.6389 58.7497 86.6389C71.6865 86.6389 82.9518 77.907 86.1425 65.4135L86.5157 63.9392H117.275L116.985 66.1477C113.169 95.1087 88.133 116.953 58.7497 116.953Z" fill="black"/>
<path fill-rule="evenodd" clip-rule="evenodd" d="M58.4977 38.1624C50.0776 38.1624 42.6278 43.1927 39.5191 50.9865L39.7094 51.0608H43.8382C46.6352 45.5672 52.21 42.0695 58.4977 42.0695C67.5866 42.0695 74.9822 49.4292 74.9822 58.4773C74.9822 67.524 67.5866 74.8851 58.4977 74.8851C52.2232 74.8851 46.641 71.3859 43.8382 65.888H39.9699L39.5572 66.0555C42.682 73.7925 50.1215 78.7922 58.4977 78.7922C69.7528 78.7922 78.9076 69.6786 78.9076 58.4773C78.9076 47.276 69.7528 38.1624 58.4977 38.1624Z" fill="black"/>
<path fill-rule="evenodd" clip-rule="evenodd" d="M58.7499 53.0149C55.7231 53.0149 53.2628 55.4652 53.2628 58.4764C53.2628 61.489 55.7231 63.9394 58.7499 63.9394C61.7766 63.9394 64.2369 61.489 64.2369 58.4764C64.2369 55.4652 61.7766 53.0149 58.7499 53.0149ZM58.7499 67.8465C53.5585 67.8465 49.3374 63.6436 49.3374 58.4764C49.3374 53.3092 53.5585 49.1078 58.7499 49.1078C63.9412 49.1078 68.1623 53.3092 68.1623 58.4764C68.1623 63.6436 63.9412 67.8465 58.7499 67.8465Z" fill="black"/>
<path fill-rule="evenodd" clip-rule="evenodd" d="M28.4963 60.4308H51.3007V56.5223H28.4963V60.4308Z" fill="black"/>
<path fill-rule="evenodd" clip-rule="evenodd" d="M112.336 5.23674C112.902 5.23674 113.252 4.84195 113.252 4.36849C113.252 3.85716 112.902 3.50753 112.336 3.50753H110.838V5.23674H112.336ZM109.884 2.95978C109.884 2.8039 110.004 2.66988 110.168 2.66988H112.336C113.283 2.66988 114.213 3.23365 114.213 4.36849C114.213 5.50916 113.401 5.91852 112.977 6.02195C113.283 6.61632 113.587 7.22235 113.893 7.81672C113.997 7.9959 113.848 8.22608 113.632 8.22608H113.11C112.991 8.22608 112.887 8.10662 112.842 8.01047L111.986 6.1181H110.853V7.93617C110.853 8.09059 110.733 8.22608 110.569 8.22608H110.168C110.004 8.22608 109.884 8.09059 109.884 7.93617V2.95978ZM111.784 10.0048C114.317 10.0048 116.344 7.96531 116.344 5.46691C116.344 2.94521 114.317 0.926099 111.784 0.926099C109.274 0.926099 107.225 2.94521 107.225 5.46691C107.225 7.96531 109.274 10.0048 111.784 10.0048ZM111.784 0.0010376C114.809 0.0010376 117.275 2.45573 117.275 5.46691C117.275 8.47082 114.809 10.9109 111.784 10.9109C108.766 10.9109 106.316 8.47082 106.316 5.46691C106.316 2.45573 108.766 0.0010376 111.784 0.0010376Z" fill="black"/>
</g>
</svg>
