<?xml version="1.0" encoding="UTF-8"?>
<!DOCTYPE svg PUBLIC "-//W3C//DTD SVG 1.1//EN" "http://www.w3.org/Graphics/SVG/1.1/DTD/svg11.dtd">
<!-- Creator: CorelDRAW 2020 (64-Bit) -->
<svg xmlns="http://www.w3.org/2000/svg" xml:space="preserve" width="3780px" height="1230px" version="1.1" style="shape-rendering:geometricPrecision; text-rendering:geometricPrecision; image-rendering:optimizeQuality; fill-rule:evenodd; clip-rule:evenodd"
viewBox="0 0 3780 1230.15"
 xmlns:xlink="http://www.w3.org/1999/xlink"
 xmlns:xodm="http://www.corel.com/coreldraw/odm/2003">
 <defs>
  <style type="text/css">
   <![CDATA[
    .fil1 {fill:#E6E6E6}
    .fil0 {fill:#E6E6E6;fill-rule:nonzero}
   ]]>
  </style>
 </defs>
 <g id="Capa_x0020_1">
  <metadata id="CorelCorpID_0Corel-Layer"/>
  <g id="_1037747200">
   <polygon class="fil0" points="1992.45,890.94 1915.1,890.94 1859.56,1059.94 1858.2,1059.94 1801.64,890.94 1723.95,890.94 1723.95,1139.67 1772.34,1139.67 1772.34,948.87 1774.04,948.87 1839.46,1139.67 1877.96,1139.67 1942.02,951.93 1944.06,951.93 1944.06,1139.67 1992.45,1139.67 "/>
   <path id="1" class="fil0" d="M2091.6 947.16l36.46 0 49.4 -56.22 -55.53 0 -30.33 56.22zm105.29 162.19l-35.78 -26.58c-12.61,15 -25.21,21.47 -42.93,21.47 -25.9,0 -43.28,-13.63 -47.7,-34.76l131.18 0c0.68,-6.47 1.02,-12.94 1.02,-18.05 0,-51.45 -37.14,-90.64 -88.25,-90.64 -52.47,0 -93.36,40.55 -93.36,92.68 0,52.47 41.57,91.32 98.13,91.32 32.37,0 59.97,-12.61 77.69,-35.44zm-125.05 -75.64c5.45,-19.08 19.42,-33.05 42.25,-33.05 22.15,0 37.82,13.29 40.55,33.05l-82.8 0z"/>
   <path id="2" class="fil0" d="M2227.21 1139.67l44.98 0 0 -94.38c0,-26.91 9.88,-40.88 28.96,-40.88 5.11,0 8.52,1.02 13.97,3.4l18.74 -42.93c-7.84,-3.07 -15.67,-4.77 -23.17,-4.77 -16.7,0 -31.69,7.5 -41.57,20.44l0 -14.65 -41.91 0 0 173.77z"/>
   <path id="3" class="fil0" d="M2346.47 914.45c0,15.68 12.6,27.26 28.62,27.26 16.35,0 29.3,-11.92 29.3,-27.26 0,-15.67 -12.95,-27.26 -29.3,-27.26 -16.02,0 -28.62,11.59 -28.62,27.26zm6.47 225.22l44.98 0 0 -173.77 -44.98 0 0 173.77z"/>
   <path id="4" class="fil0" d="M2423.13 1052.79c0,51.11 40.21,92 90.29,92 21.81,0 41.91,-7.84 57.25,-21.13l0 16.01 41.91 0 0 -248.73 -44.98 0 0 88.25c-14.99,-11.58 -33.73,-18.4 -54.18,-18.4 -50.08,0 -90.29,40.89 -90.29,92zm47.36 0c0,-28.62 21.47,-50.43 48.73,-50.43 26.91,0 48.38,21.81 48.38,50.43 0,28.62 -21.47,50.43 -48.38,50.43 -27.26,0 -48.73,-21.81 -48.73,-50.43z"/>
   <path id="5" class="fil0" d="M2827.23 965.9l-42.59 0 0 15.34c-15.33,-12.95 -35.09,-20.45 -56.56,-20.45 -50.09,0 -90.29,40.89 -90.29,92 0,51.11 40.2,92 90.29,92 21.47,0 41.23,-7.5 56.56,-20.45l0 15.33 42.59 0 0 -173.77zm-142.08 86.89c0,-28.62 21.47,-50.43 48.72,-50.43 26.92,0 48.39,21.81 48.39,50.43 0,28.62 -21.47,50.43 -48.39,50.43 -27.25,0 -48.72,-21.81 -48.72,-50.43z"/>
   <path id="Fill-1" class="fil1" d="M2298.35 310.68c86.07,0 135.58,-49.57 135.58,-121.39l0 -156.43 -68.08 0 0 154.9c0,42.6 -26.31,65.04 -67.5,65.04 -41.1,0 -67.61,-21.82 -67.61,-65.04l0 -154.9 -68.13 0 0 156.43c0,71.57 48.85,121.39 135.74,121.39l0 0z"/>
   <polygon id="Fill-3" class="fil1" points="2045.5,302.46 2113.35,302.46 2113.35,32.49 2045.5,32.49 "/>
   <path id="Fill-5" class="fil1" d="M2550.6 87.27l55.35 0c44.32,0 80.23,35.76 80.23,79.89 0,44.13 -35.91,79.89 -80.23,79.89l-55.35 0 0 -159.77 0 -0.01zm203.77 79.23c0,-77.66 -51.94,-133.64 -154.64,-133.64l-116.74 0 0 269.56 106.14 0c111.33,0 165.24,-59.22 165.24,-135.92l0 0z"/>
   <path id="Fill-6" class="fil1" d="M1871.36 310.55c57.97,0 92.29,-18.97 123.2,-49.35l-42.04 -39.07c-23.63,19.73 -44.66,32.38 -78.98,32.38 -51.5,0 -87.19,-39.44 -87.19,-86.79l0 -0.78c0,-47.35 36.5,-86.01 87.19,-86.01 30.01,0 53.6,11.81 76.83,31.16l42.1 -44.6c-27.98,-25.25 -61.89,-42.57 -118.49,-42.57 -92.29,0 -156.77,64.29 -156.77,142.8l0 0.78c0,79.26 65.7,142.05 154.15,142.05l0 0z"/>
   <g>
    <path id="Fill-7" class="fil1" d="M3228.12 247.04l-55.35 0 0 -159.77 55.35 0c44.32,0 80.23,35.76 80.23,79.89 0,44.13 -35.91,79.89 -80.23,79.89l0 0 0 -0.01zm148.42 -80.54c0,-77.66 -51.94,-133.64 -154.64,-133.64l-116.74 0 0 269.57 106.17 0c111.3,0 165.21,-59.23 165.21,-135.93z"/>
   </g>
   <path id="Fill-8" class="fil1" d="M2881.51 191.82l39.32 -105.05 38.97 104.99c-26,-2.94 -52.25,-2.91 -78.29,0.06l0 0 0 0zm119.39 110.61l69.86 0 -101.24 -269.57 -94.92 0 -102.41 269.57 67.97 0 19.63 -52.48c40.04,-8.59 81.45,-8.66 121.55,-0.16l19.56 52.64 0 0z"/>
   <path id="Fill-9" class="fil1" d="M2993.06 566.08l0 -77.82 72.29 0c26.35,0 46.07,11.69 46.07,37.82 0,28.53 -21.72,40 -50.23,40l-68.13 0 0 0zm188.58 -44.38c0,-48.03 -35.63,-84.57 -94.16,-84.57l-162.28 0 0 269.56 67.86 0 0 -116.54 108.51 116.54 84.6 0 -101.98 -102.63c67.98,0 97.45,-34.07 97.45,-82.36l0 0 0 0z"/>
   <polygon id="Fill-10" class="fil1" points="3612.89,652.97 3612.89,437.29 3545.03,437.29 3545.03,706.88 3765,706.88 3765,652.97 "/>
   <polygon id="Fill-11" class="fil1" points="2271,651.41 2113.35,651.41 2113.35,599.02 2235.49,599.02 2235.49,545.14 2113.35,545.14 2113.35,492.39 2271,492.39 2271,437.13 2045.5,437.13 2045.5,706.69 2271,706.69 "/>
   <polygon id="Fill-12" class="fil1" points="2725.56,706.88 2792.97,706.88 2792.97,491.23 2871.98,491.23 2871.98,437.32 2646.52,437.32 2646.52,491.23 2725.56,491.23 "/>
   <polygon id="Fill-13" class="fil1" points="2527.84,652.94 2525.94,651.44 2424.2,437.32 2320.57,437.13 2320.57,707.07 2388.42,707.07 2388.42,492.39 2492.06,707.07 2595.66,707.07 2595.66,437.13 2527.84,437.13 "/>
   <path id="Fill-14" class="fil1" d="M1871.36 714.95c57.97,0 92.29,-18.94 123.2,-49.32l-42.04 -39.07c-23.63,19.72 -44.66,32.38 -78.98,32.38 -51.5,0 -87.19,-39.44 -87.19,-86.79l0 -0.75c0,-47.38 36.5,-86.05 87.19,-86.05 30.01,0 53.6,11.82 76.83,31.16l42.1 -44.63c-27.98,-25.19 -61.89,-42.53 -118.49,-42.53 -92.29,0 -156.77,64.29 -156.77,142.8l0 0.78c0,79.26 65.7,142.02 154.15,142.02l0 0z"/>
   <path id="Fill-15" class="fil1" d="M3321.91 596.06l39.32 -105.05 38.94 105.02c-26.03,-2.94 -52.25,-2.91 -78.26,0.03l0 0zm-6.94 -158.93l-102.42 269.56 67.98 0 19.6 -52.47c40.1,-8.63 81.54,-8.69 121.57,-0.19l19.57 52.66 69.88 0 -101.23 -269.56 -94.95 0 0 0z"/>
   <path id="Fill-22" class="fil1" d="M949.77 774.61c-70.54,131.36 -208.99,215.84 -359.08,215.84 -224.71,0 -407.55,-181.99 -407.55,-405.68 0,-223.74 182.84,-405.8 407.55,-405.8 149.18,0 286.98,83.61 357.86,213.78l44.41 0c-74.1,-153.24 -231.78,-252.25 -402.27,-252.25 -246.06,0 -446.21,199.24 -446.21,444.27 0,244.91 200.15,444.15 446.21,444.15 171.06,0 329.3,-99.6 403.18,-253.75l-1.25 -0.56 -42.85 0 0 0z"/>
   <g>
    <path id="Fill-23" class="fil1" d="M593.16 47.21c-297.72,0 -539.97,241.15 -539.97,537.53 0,296.38 242.25,537.54 539.97,537.54 262.63,0 487.47,-189.87 531.91,-445.24l-228.68 0c-40.54,132.42 -163.15,223.59 -303.23,223.59 -174.99,0 -317.29,-141.71 -317.29,-315.89 0,-174.21 142.3,-315.94 317.29,-315.94 140.15,0 262.69,91.17 303.2,223.59l228.71 0.06c-44.41,-255.37 -269.28,-445.24 -531.91,-445.24l0 0 0 0zm0 1113.57c-319.07,0 -578.63,-258.37 -578.63,-576.04 0,-317.66 259.56,-576.04 578.63,-576.04 289.42,0 536.01,215.18 573.58,500.47l2.87 21.75 -303.01 -0.06 -3.65 -14.47c-31.38,-123.11 -142.3,-209.09 -269.79,-209.09 -153.64,0 -278.66,124.48 -278.66,277.44 0,152.99 125.02,277.41 278.66,277.41 127.43,0 238.41,-86.01 269.82,-209.09l3.69 -14.5 302.94 0 -2.87 21.75c-37.57,285.29 -284.16,500.47 -573.58,500.47l0 0z"/>
   </g>
   <path id="Fill-24" class="fil1" d="M590.69 384.62c-82.94,0 -156.3,49.54 -186.92,126.33l1.87 0.72 40.66 0c27.57,-54.1 82.48,-88.54 144.4,-88.54 89.51,0 162.36,72.48 162.36,161.61 0,89.14 -72.85,161.65 -162.36,161.65 -61.79,0 -116.8,-34.48 -144.4,-88.64l-38.1 0 -4.06 1.66c30.78,76.19 104.04,125.45 186.55,125.45 110.86,0 201.03,-89.76 201.03,-200.12 0,-110.32 -90.17,-200.12 -201.03,-200.12z"/>
   <g>
    <path id="Fill-25" class="fil1" d="M593.16 530.92c-29.81,0 -54.03,24.16 -54.03,53.82 0,29.66 24.22,53.82 54.03,53.82 29.82,0 54.07,-24.16 54.07,-53.82 0,-29.66 -24.25,-53.82 -54.07,-53.82l0 0zm0 146.11c-51.13,0 -92.69,-41.38 -92.69,-92.29 0,-50.91 41.56,-92.29 92.69,-92.29 51.17,0 92.74,41.38 92.74,92.29 0,50.92 -41.57,92.29 -92.74,92.29z"/>
   </g>
   <polygon id="Fill-26" class="fil1" points="295.19,603.99 519.81,603.99 519.81,565.49 295.19,565.49 "/>
   <path id="Fill-27" class="fil1" d="M1120.95 60.3c5.59,0 9.03,-3.9 9.03,-8.56 0,-5.03 -3.44,-8.47 -9.03,-8.47l-14.72 0 0 17.03 14.72 0zm-24.13 -22.44c0,-1.53 1.19,-2.84 2.78,-2.84l21.35 0c9.34,0 18.5,5.53 18.5,16.72 0,11.22 -8,15.25 -12.16,16.28 3,5.88 6,11.81 9.01,17.69 1.03,1.75 -0.44,4.03 -2.57,4.03l-5.16 0c-1.15,0 -2.18,-1.19 -2.62,-2.12l-8.44 -18.66 -11.16 0 0 17.91c0,1.53 -1.19,2.87 -2.81,2.87l-3.94 0c-1.59,0 -2.78,-1.34 -2.78,-2.87l0 -49.01 0 0zm18.69 69.42c24.97,0 44.94,-20.1 44.94,-44.73 0,-24.84 -19.97,-44.72 -44.94,-44.72 -24.69,0 -44.88,19.88 -44.88,44.72 0,24.63 20.19,44.73 44.88,44.73l0 0zm0 -98.58c29.82,0 54.1,24.19 54.1,53.85 0,29.6 -24.28,53.63 -54.1,53.63 -29.72,0 -53.85,-24.03 -53.85,-53.63 0,-29.66 24.13,-53.85 53.85,-53.85l0 0 0 0z"/>
  </g>
 </g>
</svg>
