<?xml version="1.0" encoding="UTF-8"?>
<!DOCTYPE svg PUBLIC "-//W3C//DTD SVG 1.1//EN" "http://www.w3.org/Graphics/SVG/1.1/DTD/svg11.dtd">
<!-- Creator: CorelDRAW 2020 (64-Bit) -->
<svg xmlns="http://www.w3.org/2000/svg" xml:space="preserve" width="297mm" height="210mm" version="1.1" style="shape-rendering:geometricPrecision; text-rendering:geometricPrecision; image-rendering:optimizeQuality; fill-rule:evenodd; clip-rule:evenodd"
viewBox="0 0 29700 21000"
 xmlns:xlink="http://www.w3.org/1999/xlink"
 xmlns:xodm="http://www.corel.com/coreldraw/odm/2003">
 <defs>
  <style type="text/css">
   <![CDATA[
    .fil0 {fill:#1A1A1A;fill-rule:nonzero}
   ]]>
  </style>
 </defs>
 <g id="Capa_x0020_1">
  <metadata id="CorelCorpID_0Corel-Layer"/>
  <g id="logoSorena.svg">
   <g>
    <g>
     <path class="fil0" d="M3614.47 12512.63l-112 -42c-280,-126 -420,-196 -420,-392 0,-140 98,-224 140,-238 84,-56 196,-84 308,-84 210,0 308,126 364,196 0,0 14,14 14,14 28,14 70,0 84,-28 14,-28 14,-56 0,-70 -56,-70 -196,-238 -462,-238 -154,0 -280,28 -378,98 -126,84 -196,210 -196,350 0,280 238,392 504,504l112 56c378,168 448,308 420,476 -42,308 -266,350 -406,350 -238,0 -406,-154 -462,-224 0,0 0,0 0,-14 -28,-28 -56,-28 -84,-14 -28,14 -42,56 -28,84 42,84 140,154 210,196 56,28 196,84 350,84 84,0 210,-14 322,-98 112,-84 182,-196 210,-364 42,-294 -210,-462 -490,-602z"/>
    </g>
    <g>
     <path class="fil0" d="M7380.47 11616.63l-84 0c-364,0 -560,196 -560,560l0 826c0,168 42,308 140,406 98,98 238,140 406,140l84 0c336,0 560,-224 560,-560l0 -826c14,-336 -182,-546 -546,-546zm0 1820l-84 0c-140,0 -252,-42 -322,-112 -70,-70 -112,-182 -112,-322l0 -826c0,-294 154,-434 434,-434l84 0c294,0 434,140 434,434l0 826c0,126 -42,238 -112,322 -98,70 -196,112 -322,112z"/>
    </g>
    <g>
     <path class="fil0" d="M11104.47 11644.63l-406 0c-28,0 -70,28 -70,70l0 1778c0,28 28,56 70,56 42,0 70,-28 70,-56l0 -518 364 0 266 546c14,28 42,42 84,28 28,-14 42,-42 42,-84l-266 -518c70,-14 112,-28 168,-70 112,-84 168,-210 168,-392l0 -420c-14,-308 -266,-420 -490,-420zm-350 126l336 0c294,0 350,168 350,308l0 420c0,280 -154,336 -378,336l-308 0 0 -1064z"/>
    </g>
    <g>
     <path class="fil0" d="M15164.47 11770.63c42,0 70,-28 70,-70 0,-14 0,-28 -14,-42 -14,-14 -28,-14 -42,-14l-756 0c-42,0 -70,28 -70,70l0 1764c0,42 28,70 70,70l756 0c14,0 28,0 42,-14 14,-14 14,-28 14,-42 0,-42 -28,-70 -70,-70l-700 0 0 -784 560 0c28,0 56,-28 56,-70 0,-42 -28,-70 -56,-70l-560 0 0 -742 700 0 0 14z"/>
    </g>
    <g>
     <path class="fil0" d="M18888.47 11644.63c-14,0 -28,0 -42,14 -14,14 -14,28 -14,42l0 1526 -784 -1554c-14,-28 -42,-28 -70,-28 -28,14 -42,28 -42,56l0 1792c0,42 28,70 70,70 42,0 70,-28 70,-70l0 -1512 784 1554c14,28 42,28 56,28 0,0 14,0 14,0 28,-14 42,-28 42,-56l0 -1806c-14,-28 -56,-56 -84,-56z"/>
    </g>
    <g>
     <path class="fil0" d="M26224.47 11714.63c-14,-42 -42,-70 -84,-70 0,0 0,0 0,0 -42,0 -70,28 -84,56l-518 1764c-14,14 0,42 14,56 14,14 42,28 56,28 28,0 42,-14 56,-42l140 -476 686 0 140 462c0,28 14,42 42,42 0,0 14,0 14,0 14,0 28,0 42,-14 14,-14 14,-42 14,-56l-518 -1750zm-378 1190l308 -1022 308 1022 -616 0z"/>
    </g>
    <g>
     <path class="fil0" d="M21268.47 12554.63c-14,14 -14,28 0,42 14,14 28,14 42,0 14,-14 182,-168 406,-126l0 -70c-252,-28 -448,154 -448,154z"/>
     <path class="fil0" d="M23256.47 12610.63c14,14 42,14 42,0 14,-14 14,-42 0,-42 -210,-196 -420,-140 -560,-70l0 84c112,-84 322,-168 518,28z"/>
     <path class="fil0" d="M23256.47 12400.63c14,14 42,14 42,0 14,-14 14,-42 0,-42 -210,-196 -420,-140 -560,-70l0 84c112,-84 322,-168 518,28z"/>
     <path class="fil0" d="M21268.47 12344.63c-14,14 -14,28 0,42 14,14 28,14 42,0 14,-14 182,-168 406,-126l0 -70c-252,-28 -448,154 -448,154z"/>
     <path class="fil0" d="M23256.47 12806.63c14,14 42,14 42,0 14,-14 14,-42 0,-42 -210,-196 -420,-140 -560,-70l0 84c112,-70 322,-168 518,28z"/>
     <path class="fil0" d="M21268.47 12764.63c-14,14 -14,28 0,42 14,14 28,14 42,0 14,-14 182,-168 406,-126l0 -70c-252,-42 -448,154 -448,154z"/>
     <g>
      <path class="fil0" d="M21842.47 11672.63c-14,-28 -42,-28 -70,-28 -28,14 -42,28 -42,56l0 504 0 70 0 140 0 70 0 140 0 70 0 812c0,42 28,70 70,70 42,0 70,-28 70,-70l0 -672 0 0 0 -84 0 -84 0 -126 0 -84 0 -126 0 -84 0 -266 210 420c56,42 126,70 182,84l-420 -812z"/>
      <path class="fil0" d="M22276.47 12554.63c-56,0 -112,-14 -168,-42l84 168c56,14 98,14 154,14l-70 -140z"/>
      <path class="fil0" d="M22682.47 11644.63c-14,0 -28,0 -42,14 -14,14 -14,28 -14,42l0 336 0 322 0 84 0 126 0 84 0 126 0 84 0 266 0 112 -154 -294c-42,14 -84,28 -126,28l280 560c14,28 42,28 56,28 0,0 14,0 14,0 28,-14 42,-28 42,-56l0 -728 0 -84 0 -126 0 -84 0 -126 0 -84 0 -574c14,-28 -14,-56 -56,-56z"/>
      <path class="fil0" d="M22388.47 12750.63c-28,0 -42,0 -70,0 -28,0 -42,0 -70,0l70 140c42,0 98,0 126,-14l-56 -126z"/>
     </g>
     <g>
      <path class="fil0" d="M22248.47 12470.63c-56,-14 -126,-42 -182,-84 -14,-14 -42,-28 -56,-42 -56,-42 -98,-84 -154,-98l0 84c42,14 70,42 112,84 56,42 112,84 154,112 56,28 112,42 168,42 14,0 28,0 28,0 140,0 238,-56 308,-98l0 -84c-56,14 -196,126 -378,84z"/>
      <path class="fil0" d="M22206.47 12666.63c-56,-14 -126,-56 -196,-112 -56,-42 -98,-84 -154,-98l0 84c42,14 70,42 112,84 98,84 196,126 280,140 28,0 56,0 70,0 28,0 42,0 70,0 98,-14 182,-56 238,-98l0 -98c-42,28 -140,98 -280,112 -42,14 -98,0 -140,-14z"/>
      <path class="fil0" d="M22318.47 12890.63c-98,0 -196,-28 -308,-126 -56,-42 -98,-84 -154,-98l0 84c42,14 70,42 112,84 126,112 252,154 350,154 14,0 28,0 28,0 42,0 84,-14 126,-28 56,-14 112,-42 154,-70l0 -84c-28,28 -98,70 -182,98 -42,-14 -84,-14 -126,-14z"/>
     </g>
    </g>
    <g>
     <path class="fil0" d="M13806.47 6632.63c28,0 42,0 56,0 56,0 84,-42 98,-98 0,-14 28,-350 -182,-560 -196,-196 -546,-182 -560,-182 -56,0 -84,42 -98,98 0,14 -28,350 182,560 168,168 406,182 504,182zm-168 -504c84,84 112,210 112,308 -84,0 -224,-28 -308,-112l0 0c-84,-84 -112,-210 -112,-308 98,0 224,28 308,112z"/>
     <path class="fil0" d="M15850.47 6632.63c0,0 28,0 56,0 98,0 350,-14 504,-182 196,-196 182,-546 182,-560 0,-56 -42,-84 -98,-98 -14,0 -350,-28 -560,182 -196,196 -182,546 -182,560 0,56 42,98 98,98zm224 -504c84,-84 210,-112 308,-112 0,84 -28,224 -112,308 0,0 0,0 0,0 -84,84 -210,112 -308,112 0,-98 28,-224 112,-308z"/>
     <path class="fil0" d="M15892.47 8424.63c-28,0 -42,0 -56,0 -56,0 -84,42 -98,98 0,14 -28,350 182,560 196,196 546,182 560,182 56,0 84,-42 98,-98 0,-14 28,-350 -182,-560 -154,-168 -392,-182 -504,-182zm182 504c-84,-84 -112,-210 -112,-308 84,0 224,28 308,112l0 0c84,84 112,210 112,308 -98,0 -224,-28 -308,-112z"/>
     <path class="fil0" d="M13862.47 8424.63c0,0 -28,0 -56,0 -98,0 -350,14 -504,182 -196,196 -182,546 -182,560 0,56 42,84 98,98 14,0 350,28 560,-182 196,-196 182,-546 182,-560 -14,-56 -56,-98 -98,-98zm-224 504c-84,84 -210,112 -308,112 0,-84 28,-224 112,-308 0,0 0,0 0,0 84,-84 210,-112 308,-112 0,98 -28,224 -112,308z"/>
     <path class="fil0" d="M17222.47 7458.63c0,0 -140,-168 -350,-322 -294,-210 -588,-322 -868,-322 -280,0 -588,112 -868,322 -126,84 -210,168 -280,238 -14,-14 -28,-28 -28,-28 -14,-14 -28,-28 -42,-42 -168,-182 -420,-532 -420,-910 0,-462 350,-854 504,-1008 0,0 112,112 126,126 28,28 42,56 70,84 14,14 28,28 42,56 14,14 28,42 42,56 14,14 28,28 42,42 14,0 28,14 42,14 28,0 56,0 70,-14 28,-14 42,-42 42,-84 0,-42 -14,-70 -42,-98 -28,-42 -56,-70 -70,-98 -28,-28 -56,-70 -84,-98 -42,-42 -84,-98 -126,-140 -28,-28 -42,-42 -70,-70 -42,-28 -98,-28 -126,0 0,0 -168,140 -322,350 -210,294 -322,588 -322,868 0,196 56,392 154,588 -84,-42 -182,-84 -266,-98 -14,0 -42,-14 -56,-14 -28,-14 -70,-14 -98,-28 -42,0 -84,-14 -112,-14 -14,0 -42,0 -56,0 -280,0 -588,112 -868,322 -210,154 -350,308 -350,322 -28,42 -28,98 0,126 0,0 140,168 350,322 294,210 588,322 868,322 280,0 588,-112 868,-322 84,-56 154,-126 210,-168 14,-14 14,-14 28,-28 14,-14 28,-28 42,-42 14,14 42,42 56,56 14,14 14,14 28,28 168,182 420,532 420,910 0,462 -350,854 -504,1008 -112,-112 -364,-392 -462,-728l0 -14c-14,-56 -70,-84 -126,-56 -28,14 -56,28 -56,56 -14,28 0,70 14,98 0,14 14,42 28,56 0,14 14,42 28,56 14,42 28,70 42,112 42,70 84,154 126,210 14,28 28,42 42,56 154,210 308,350 322,350 42,28 98,28 126,0 0,0 168,-140 322,-350 210,-294 322,-588 322,-868 0,-196 -56,-392 -154,-588 84,42 182,84 266,98 14,0 42,14 56,14 28,14 70,14 98,28 42,0 84,14 112,14 14,0 42,0 56,0 280,0 588,-112 868,-322 210,-154 350,-308 350,-322 -14,-14 -14,-70 -56,-112zm-3514 574c-462,0 -868,-364 -1008,-504 154,-154 546,-504 1008,-504 462,0 868,364 1008,504 -154,154 -560,504 -1008,504zm2296 0c-462,0 -868,-364 -1008,-504 154,-154 546,-504 1008,-504 462,0 868,364 1008,504 -154,154 -546,504 -1008,504z"/>
    </g>
    <g>
     <path class="fil0" d="M6344.47 15830.63l-434 0 0 -42c112,0 126,-28 126,-168l0 -490c0,-140 -14,-168 -112,-168l0 -42 406 0 0 42c-98,0 -112,42 -112,168l0 490c0,154 14,168 126,168l0 42z"/>
     <path class="fil0" d="M6694.47 15634.63c0,126 14,140 98,154l0 42 -378 0 0 -42c98,0 112,-14 112,-140l0 -154c0,-98 0,-154 -14,-168 -14,-42 -28,-56 -98,-56l0 -42 238 -42 14 112 0 0c56,-70 126,-112 210,-112 98,0 154,28 210,98 28,42 56,84 56,196l0 168c0,126 14,140 98,154l0 42 -378 0 0 -56c98,0 112,-14 112,-140l0 -168c0,-168 -28,-224 -140,-224 -56,0 -84,28 -112,84 -14,28 -28,84 -28,126l0 168z"/>
     <path class="fil0" d="M7352.47 15354.63c-42,-98 -56,-112 -112,-112l0 -42 364 0 0 42c-84,0 -84,14 -84,42 0,14 14,56 14,70l112 322 0 0 126 -308c14,-28 14,-42 14,-70 0,-28 -28,-56 -84,-56l0 -42 266 0 0 42c-42,0 -70,14 -98,98l-224 504 -112 0 -182 -490z"/>
     <path class="fil0" d="M8290.47 15634.63c0,126 14,140 98,154l0 42 -378 0 0 -42c84,0 112,-28 112,-140l0 -154c0,-98 0,-154 -14,-182 -14,-42 -28,-56 -98,-56l0 -28 280 -42 0 448zm-84 -798c56,0 98,42 98,98 0,56 -42,98 -98,98 -56,0 -98,-42 -98,-98 14,-56 56,-98 98,-98z"/>
     <path class="fil0" d="M9074.47 15718.63c-70,84 -168,126 -280,126 -196,0 -336,-126 -336,-322 0,-196 140,-336 350,-336 168,0 266,98 266,266 0,28 0,28 -42,28l-392 0c0,14 0,14 0,42 0,154 70,252 196,252 70,0 140,-28 196,-84l42 28zm-238 -308c70,0 70,0 70,-28 0,-70 -42,-126 -112,-126 -70,0 -126,70 -140,154l182 0z"/>
     <path class="fil0" d="M9438.47 15648.63c0,126 14,140 126,140l0 42 -406 0 0 -42c98,0 112,-14 112,-140l0 -140c0,-196 -14,-224 -112,-224l0 -56 238 -42 14 140 0 0c42,-84 126,-140 196,-140 56,0 98,28 98,84 0,56 -28,98 -84,98 -56,0 -70,-42 -98,-42 -28,0 -56,42 -70,112 -14,42 -28,112 -28,168l0 42 14 0z"/>
     <path class="fil0" d="M9746.47 15256.63l0 -56c98,-28 168,-84 196,-154l56 0 0 140 140 0 0 70 -140 0 0 364c0,98 14,140 70,140 28,0 56,-14 70,-42l28 28c-28,56 -70,84 -154,84 -112,0 -182,-56 -182,-140l0 -434 -84 0z"/>
     <path class="fil0" d="M10838.47 15718.63c-70,84 -168,126 -280,126 -196,0 -336,-126 -336,-322 0,-196 140,-336 350,-336 168,0 266,98 266,266 0,28 0,28 -42,28l-378 0c0,14 0,14 0,42 0,154 70,252 196,252 70,0 140,-28 196,-84l28 28zm-238 -308c70,0 70,0 70,-28 0,-70 -42,-126 -112,-126 -70,0 -126,70 -140,154l182 0z"/>
     <path class="fil0" d="M11860.47 15718.63c-70,84 -168,126 -280,126 -196,0 -336,-126 -336,-322 0,-196 140,-336 350,-336 168,0 266,98 266,266 0,28 0,28 -42,28l-392 0c0,14 0,14 0,42 0,154 70,252 196,252 70,0 140,-28 196,-84l42 28zm-238 -308c70,0 70,0 70,-28 0,-70 -42,-126 -112,-126 -70,0 -126,70 -140,154l182 0z"/>
     <path class="fil0" d="M12224.47 15634.63c0,126 14,140 98,154l0 42 -378 0 0 -42c98,0 112,-14 112,-140l0 -154c0,-98 0,-154 -14,-168 -14,-42 -28,-56 -98,-56l0 -42 238 -42 14 112 0 0c56,-70 126,-112 210,-112 98,0 154,28 210,98 28,42 56,84 56,196l0 168c0,126 14,140 98,154l0 42 -378 0 0 -56c98,0 112,-14 112,-140l0 -168c0,-168 -28,-224 -140,-224 -56,0 -84,28 -112,84 -14,28 -28,84 -28,126l0 168z"/>
     <path class="fil0" d="M13666.47 15396.63c0,-126 -14,-140 -98,-154l0 -42 266 0 0 364c0,98 0,154 14,182 14,42 28,42 98,42l0 42 -238 14 -14 -112 0 0c-42,70 -126,112 -210,112 -84,0 -154,-28 -196,-98 -28,-42 -56,-112 -56,-196l0 -168c0,-126 0,-140 -98,-154l0 -42 266 0 0 336c0,168 42,224 126,224 42,0 84,-28 112,-70 28,-42 42,-98 42,-182l0 -98 -14 0z"/>
     <path class="fil0" d="M14268.47 15634.63c0,126 14,140 98,154l0 42 -378 0 0 -42c98,0 112,-14 112,-140l0 -154c0,-98 0,-154 -14,-168 -14,-42 -28,-56 -98,-56l0 -42 238 -42 14 112 0 0c56,-70 126,-112 210,-112 98,0 154,28 210,98 28,42 56,84 56,196l0 168c0,126 14,140 98,154l0 42 -378 0 0 -56c98,0 112,-14 112,-140l0 -168c0,-168 -28,-224 -140,-224 -56,0 -84,28 -112,84 -14,28 -28,84 -28,126l0 168z"/>
     <path class="fil0" d="M15178.47 15200.63l126 0 0 -70c0,-168 126,-294 308,-294 112,0 182,42 182,98 0,42 -28,70 -70,70 -28,0 -42,-14 -84,-70 -14,-28 -42,-28 -56,-28 -70,0 -98,84 -98,224l0 70 210 0 0 70 -210 0 0 378c0,126 28,154 126,154l0 42 -406 0 0 -56c98,0 112,-14 112,-140l0 -378 -140 0 0 -70z"/>
     <path class="fil0" d="M16242.47 15396.63c0,-126 -14,-140 -98,-154l0 -42 266 0 0 364c0,98 0,154 14,182 14,42 28,42 98,42l0 42 -238 14 -14 -112 0 0c-42,70 -126,112 -210,112 -84,0 -154,-28 -196,-98 -28,-42 -56,-112 -56,-196l0 -168c0,-126 0,-140 -98,-154l0 -42 266 0 0 336c0,168 42,224 126,224 42,0 84,-28 112,-70 28,-42 42,-98 42,-182l0 -98 -14 0z"/>
     <path class="fil0" d="M16564.47 15256.63l0 -56c98,-28 168,-84 196,-154l56 0 0 140 140 0 0 70 -140 0 0 364c0,98 14,140 70,140 28,0 56,-14 70,-42l28 28c-28,56 -70,84 -154,84 -112,0 -182,-56 -182,-140l0 -434 -84 0z"/>
     <path class="fil0" d="M17558.47 15396.63c0,-126 -14,-140 -98,-154l0 -42 266 0 0 364c0,98 0,154 14,182 14,42 28,42 98,42l0 42 -238 14 -14 -112 0 0c-42,70 -126,112 -210,112 -84,0 -154,-28 -196,-98 -28,-42 -56,-112 -56,-196l0 -168c0,-126 0,-140 -98,-154l0 -42 266 0 0 336c0,168 42,224 126,224 42,0 84,-28 112,-70 28,-42 42,-98 42,-182l0 -98 -14 0z"/>
     <path class="fil0" d="M18160.47 15648.63c0,126 14,140 126,140l0 42 -406 0 0 -42c98,0 112,-14 112,-140l0 -140c0,-196 -14,-224 -112,-224l0 -56 238 -42 14 140 0 0c42,-84 126,-140 196,-140 56,0 98,28 98,84 0,56 -28,98 -84,98 -56,0 -70,-42 -98,-42 -28,0 -56,42 -70,112 -14,42 -28,112 -28,168l0 42 14 0z"/>
     <path class="fil0" d="M19196.47 15508.63c0,196 -168,336 -350,336 -196,0 -350,-140 -350,-336 0,-196 154,-322 350,-322 182,0 350,140 350,322zm-518 0c0,154 56,266 168,266 98,0 168,-98 168,-266 0,-154 -70,-252 -168,-252 -98,0 -168,98 -168,252z"/>
     <path class="fil0" d="M20134.47 15760.63l0 0c-56,56 -140,84 -224,84 -182,0 -308,-140 -308,-322 0,-182 126,-336 308,-336 84,0 140,28 182,84l0 0 0 -98c0,-98 0,-168 -14,-182 -14,-28 -42,-42 -126,-42l0 -42 308 -42 0 686c0,126 0,182 14,210 14,42 14,56 84,56l0 42 -224 14 0 -112zm-28 -266c0,-56 -14,-112 -42,-154 -28,-42 -70,-70 -126,-70 -98,0 -140,84 -140,252 0,168 56,266 140,266 56,0 98,-28 140,-70 28,-28 28,-84 28,-168l0 -56z"/>
     <path class="fil0" d="M21142.47 15508.63c0,196 -168,336 -350,336 -196,0 -350,-140 -350,-336 0,-196 154,-322 350,-322 182,0 350,140 350,322zm-518 0c0,154 56,266 168,266 98,0 168,-98 168,-266 0,-154 -70,-252 -168,-252 -98,0 -168,98 -168,252z"/>
     <path class="fil0" d="M21506.47 15648.63c0,126 14,140 126,140l0 42 -406 0 0 -42c98,0 112,-14 112,-140l0 -140c0,-196 -14,-224 -112,-224l0 -56 238 -42 14 140 0 0c42,-84 126,-140 196,-140 56,0 98,28 98,84 0,56 -28,98 -84,98 -56,0 -70,-42 -98,-42 -28,0 -56,42 -70,112 -14,42 -28,112 -28,168l0 42 14 0z"/>
     <path class="fil0" d="M22206.47 15424.63l0 -56c0,-98 -28,-140 -98,-140 -42,0 -70,28 -84,84 -14,42 -42,70 -84,70 -42,0 -70,-28 -70,-84 0,-70 84,-126 252,-126 182,0 252,56 252,210l0 266c0,70 14,98 42,98 14,0 28,0 42,-14l14 28c-28,42 -70,70 -126,70 -70,0 -112,-42 -112,-126l0 0c-42,84 -126,126 -210,126 -98,0 -168,-56 -168,-154 0,-70 56,-126 210,-196l140 -56zm0 70c-140,56 -210,112 -210,168 0,42 28,70 70,70 84,0 140,-56 140,-126l0 -112z"/>
     <path class="fil0" d="M23060.47 15760.63l0 0c-56,56 -140,84 -224,84 -182,0 -308,-140 -308,-322 0,-182 126,-336 308,-336 84,0 140,28 182,84l0 0 0 -98c0,-98 0,-168 -14,-182 -14,-28 -42,-42 -126,-42l0 -42 308 -42 0 686c0,126 0,182 14,210 14,42 14,56 84,56l0 42 -224 14 0 -112zm-42 -266c0,-56 -14,-112 -42,-154 -28,-42 -70,-70 -126,-70 -98,0 -140,84 -140,252 0,168 56,266 140,266 56,0 98,-28 140,-70 28,-28 28,-84 28,-168l0 -56z"/>
     <path class="fil0" d="M24068.47 15508.63c0,196 -168,336 -350,336 -196,0 -350,-140 -350,-336 0,-196 154,-322 350,-322 182,0 350,140 350,322zm-518 0c0,154 56,266 168,266 98,0 168,-98 168,-266 0,-154 -70,-252 -168,-252 -112,0 -168,98 -168,252z"/>
    </g>
   </g>
  </g>
 </g>
</svg>
