<?xml version="1.0" encoding="UTF-8"?>
<!DOCTYPE svg PUBLIC "-//W3C//DTD SVG 1.1//EN" "http://www.w3.org/Graphics/SVG/1.1/DTD/svg11.dtd">
<!-- Creator: CorelDRAW 2020 (64-Bit) -->
<svg xmlns="http://www.w3.org/2000/svg" xml:space="preserve" width="250mm" height="190mm" version="1.1" style="shape-rendering:geometricPrecision; text-rendering:geometricPrecision; image-rendering:optimizeQuality; fill-rule:evenodd; clip-rule:evenodd"
viewBox="0 0 25000 19000"
 xmlns:xlink="http://www.w3.org/1999/xlink"
 xmlns:xodm="http://www.corel.com/coreldraw/odm/2003">
 <defs>
  <style type="text/css">
   <![CDATA[
    .fil0 {fill:#333333}
    .fil1 {fill:white}
   ]]>
  </style>
 </defs>
 <g id="Capa_x0020_1">
  <metadata id="CorelCorpID_0Corel-Layer"/>
  <g id="_1085126688">
   <path class="fil0" d="M10524.95 7138.17c0,365.39 36.98,630.78 192.57,961.87 484.52,1031.09 1847.42,1413.6 2803.66,787.5 284.02,-185.96 522.8,-423.83 683.09,-733.64 310.48,-600.07 293.64,-1398.24 -118.04,-1945.75 -166.73,-221.76 -203.89,-277.8 -432.72,-474.77l-391.13 -328.7c-64.03,40.1 -119.33,136.21 -167.55,194 -66.08,79.2 -106.15,133.85 -164.4,204.8 -64.71,78.8 -100.09,120.4 -162.21,206.76 -41.93,58.28 -149.69,164.69 -171.25,219.92 84.08,166.51 1056.65,618.6 681.13,1382.93 -100.29,204.11 -205.72,320.9 -410.79,420.92 -428.64,209.07 -963.6,37.32 -1179.77,-381 -88.76,-171.75 -95.35,-304.1 -95.35,-484.06 0,-225.99 177.65,-433.27 278.61,-562.9 66.74,-85.7 118.29,-148.18 186,-229.51l187.63 -242.29c61.24,-76.44 128.53,-146.9 188.44,-228.13 196.16,-265.95 406.91,-515.36 614.31,-770.94 18.01,-22.19 33.64,-45.04 45.91,-60.79 34.88,-44.77 62.61,-76.5 97.39,-119.03l954.01 -1185.1c148.27,-182.88 303.92,-347.72 566.66,-347.72 226.33,0 428.45,232.07 428.45,452.96l0 3401.18c0,148.95 -41.02,420.25 -73.52,556.24 -190.17,795.67 -695.86,1418.26 -1418.79,1781.34 -430.63,216.28 -795.89,263.52 -1290.8,263.52 -622.12,0 -1319.02,-363.28 -1723.16,-770.08 -210.09,-211.47 -379.17,-456.53 -516.59,-730.29 -119.19,-237.46 -253.29,-685.3 -253.29,-1008.39l0 -2539.34c0,-195 202.28,-402.19 400,-402.19 256.17,0 314.26,104.24 567.15,311.32 120.7,98.83 302.19,303.43 433.2,360.53 48.4,-41.8 122.38,-150.91 163.87,-198.68 51.11,-58.84 125.49,-142.1 166.22,-202.48 95.54,-141.63 211.92,-275.85 330.35,-400.82 -20.02,-81.67 -248.21,-232.82 -322.68,-298.06 -414.47,-363.06 -692.59,-640.86 -1338.11,-640.86 -429.3,0 -790.78,205.54 -1004.72,420.6 -244.16,245.45 -462.18,598.53 -462.18,989.08l0 2647.07c0,375.91 100.54,774.13 224.16,1103.3 119.22,317.41 272.9,596.25 463.81,875.39 101.44,148.29 276.49,357.95 409.97,483.2l115.11 100.82c151.41,119.13 185.61,165.07 375.04,301.57 621.46,447.78 1377.65,667.69 2202.7,667.69 459.27,0 1103.38,-165.24 1442.44,-335.08 195.98,-98.17 385.04,-190.14 559.91,-318.2l598.42 -508.64c41.04,-46.88 55.28,-71.02 99.47,-116.31 386.87,-396.53 622.52,-927.09 779.48,-1452.03 52.69,-176.23 126.39,-554.08 126.39,-770.93l0 -3693.59c0,-176.71 -83.98,-416.02 -148.76,-549.75 -68.27,-140.95 -185.18,-302.18 -286.83,-404.83 -191.45,-193.35 -578.35,-430.65 -954.37,-430.65 -268.44,0 -452.92,0.28 -720.12,111.36 -389.01,161.74 -635.04,447.15 -882.72,762.89l-365.12 451.11c-47.25,58.33 -80.8,97.21 -126.08,151.76l-723.72 906.92c-151.73,198.72 -425.66,500.67 -547.25,683.19l-186.94 229.33c-164.33,199.36 -342.26,406.65 -469.74,624.37 -114.4,195.36 -256.85,576.45 -256.85,850.09z"/>
   <path class="fil0" d="M6966.46 15187.12c0,288.06 137.76,640.26 272.51,823.76 595.64,811.13 1685.33,805.69 2259.87,227.68 47.3,-47.58 85.32,-81.01 129.02,-132.72 54.78,-64.82 67.84,-91.9 115.04,-162.14 458.03,-681.66 237.18,-1755.66 -678.14,-2173.93 -385.44,-176.13 -920.67,-159.23 -1294.29,47.25 -509.06,281.33 -804.01,772.15 -804.01,1370.1z"/>
   <path class="fil0" d="M10486.5 16603.13c608.78,0 1370.38,69.52 1839.85,-138.18 249.76,-110.5 396.15,-223.43 545.11,-439.71 384.77,-558.61 349.22,-1701.18 -396.83,-2093.76 -503.15,-264.76 -817.61,-213.63 -1487.85,-213.68 -183.93,-0.01 -500.8,-25.99 -500.9,345.59l0.62 2539.74z"/>
   <path class="fil0" d="M15824.68 16597.54l456.98 6.06 -15.39 -2258.91c80.14,77.8 141.73,178.83 201.44,255.86 46.4,59.85 56.58,67.54 97.33,133.52l1082.98 1456.18c167.78,216.71 269.65,439.53 480.1,454.62 409.71,29.39 367.51,-376.39 367.51,-549.75l0 -2337.82 -445 -1.73 0 2236.88c-23.11,-18.03 -6.46,-3.61 -25.26,-24.82l-173.47 -227.13c-36.78,-46.76 -59.31,-89.26 -95.81,-135.67l-1291 -1709.06c-69.59,-99.02 -116.47,-175.52 -291.59,-178.97 -471.93,-9.32 -348.82,587.01 -348.82,1039.4 0,613.78 0,1227.56 0,1841.34z"/>
   <path class="fil0" d="M18671.94 16597.42l484.41 3.64c30.53,-121.04 124.61,-349.1 175.54,-487.22 34.41,-93.3 34.13,-145.36 88.59,-145.36l1261.97 0c53.35,13.17 121.47,262.8 138.39,311.27 18.24,52.29 94.83,312.25 138.63,323.38l477.21 0c-12.05,-127.53 -925.3,-2309.26 -1046.04,-2631.93 -80.53,-215.2 -177.55,-253.4 -369.96,-253.4 -256.39,0 -330.54,342.58 -439.81,614.2 -106.09,263.69 -200.8,493.14 -305.07,756.9 -100.27,253.66 -205.11,507.44 -303.5,758.39 -99.59,254.01 -215.19,505.3 -300.36,750.13z"/>
   <path class="fil1" d="M9521.33 15248.67c0,-239.73 1.66,-353.44 -119.95,-585.66 -76.22,-145.53 -127.45,-192.51 -221.06,-285.85 -173.08,-172.59 -430.85,-279.53 -748.85,-278.91 -661.57,1.29 -1236.3,736.62 -928.33,1464.61 29.51,69.76 50.72,103.18 93.63,166.9 19.54,29.03 27.6,41.57 53.11,70.11 90.22,100.96 6.6,47.98 128.3,133.76 165.18,116.42 307.13,262.42 637.8,263.34 448.48,1.23 793.38,-200.49 979.5,-553.02 48.15,-91.18 125.85,-290.07 125.85,-395.28z"/>
   <path class="fil1" d="M10956.12 16208.77c507.67,0 846.83,50.75 1236.99,-154.93 671.46,-353.96 630.33,-1493.17 7.59,-1803.34 -390.36,-194.43 -756.02,-139.68 -1243.7,-139.68l-0.88 2097.95z"/>
   <path class="fil0" d="M13601.86 14017.48l0 2585.65 1662.37 0 -3.41 -394.52 -1177.73 -0.13 0 -910.71 1132.94 -3.13 0 -402.88 -1126.81 -5 -6.37 -773.34 1133.18 -2.96 0 -388.12c-162.96,-15.18 -1066.37,-4.62 -1301.31,-4.54 -169.6,0 -312.86,145.31 -312.86,299.68z"/>
   <path class="fil0" d="M4953.92 15864.89c193.17,0 320.03,-23.49 466.31,-164.92 179.5,-173.52 236.49,-545.15 36.44,-736.71 -53.46,31.14 -92.22,67.45 -140.3,109.95 -48.78,43.1 -95.08,73.84 -151.99,109.13 14.73,55.34 35.64,72.5 35.64,127.9 0,192.19 -383.27,270.49 -383.27,-30.78 0,-80.77 200.13,-218.6 274.9,-277.73l908.31 -774.3 0.34 2375.7 482.03 0 0.2 -2539.48c0,-213.94 -144.71,-345.85 -374.36,-345.85 -140.07,0 -269.07,135.84 -343.71,202.64 -50.59,45.28 -88.36,78.23 -139.42,121.99 -225.71,193.42 -870.16,715.71 -1031.64,876.57 -382.73,381.27 -38.31,945.89 360.52,945.89z"/>
   <path class="fil0" d="M3553.3 16603.13l450.53 0 -0.08 -2396.97c71.21,30.68 436.37,423.14 534.64,475.93l292.55 -226.36c-14.15,-67.74 -46.88,-73.7 -143.2,-156l-489.91 -434.41c-187.41,-165.67 -434.95,-251.17 -607.44,20.15 -44.12,69.41 -37.32,171.51 -37.12,270.52 1.61,815.65 0.03,1631.47 0.03,2447.14z"/>
   <path class="fil1" d="M19536.94 15587.12l1026.24 0 -119.42 -346.23c-47.19,-120.37 -329.51,-975.94 -400.22,-1044.64 -38.27,98.85 -493.61,1305.69 -506.6,1390.87z"/>
  </g>
 </g>
</svg>
