<?xml version="1.0" encoding="UTF-8"?>
<!DOCTYPE svg PUBLIC "-//W3C//DTD SVG 1.1//EN" "http://www.w3.org/Graphics/SVG/1.1/DTD/svg11.dtd">
<!-- Creator: CorelDRAW 2020 (64-Bit) -->
<svg xmlns="http://www.w3.org/2000/svg" xml:space="preserve" width="297mm" height="210mm" version="1.1" style="shape-rendering:geometricPrecision; text-rendering:geometricPrecision; image-rendering:optimizeQuality; fill-rule:evenodd; clip-rule:evenodd"
viewBox="0 0 29700 21000"
 xmlns:xlink="http://www.w3.org/1999/xlink"
 xmlns:xodm="http://www.corel.com/coreldraw/odm/2003">
 <defs>
  <style type="text/css">
   <![CDATA[
    .fil0 {fill:#1A1A1A;fill-rule:nonzero}
   ]]>
  </style>
 </defs>
 <g id="Capa_x0020_1">
  <metadata id="CorelCorpID_0Corel-Layer"/>
  <g id="_1239934496">
   <path class="fil0" d="M4658.06 13466.88l26.45 0c105.61,443.52 406.54,839.48 733.88,839.48 232.32,0 411.81,-190.09 411.81,-448.87 0,-644.05 -1166.82,-607.08 -1166.82,-1430.84 0,-401.21 269.23,-712.7 638.81,-712.7 279.84,0 448.79,179.43 522.81,179.43 84.49,0 121.4,-184.75 147.84,-237.6l21.13 0 15.78 908.19 -31.71 0c-89.67,-385.36 -353.78,-807.77 -659.93,-807.77 -200.74,0 -364.38,174.16 -364.38,401.28 0,607.1 1193.28,585.98 1193.28,1420.26 0,427.61 -306.21,760.27 -723.3,760.27 -285.23,0 -448.84,-158.37 -549.13,-158.37 -74.02,0 -153.17,73.89 -216.52,190.08l0 -902.84z"/>
   <path class="fil0" d="M7933.52 13561.82l-432.87 -1214.31 -438.26 1214.31 871.13 0zm110.94 665.41c36.9,-105.61 36.9,-243 5.32,-343.26l-95.14 -258.78 -913.37 0 -95.06 258.78c-36.92,105.6 -36.92,237.65 0,343.26l10.57 26.3 -364.3 0 73.82 -68.56c84.48,-74.02 168.97,-195.4 206.02,-301l823.62 -2249.28 73.95 0 760.33 2249.28c31.65,100.26 116.12,226.98 200.61,301l68.62 68.56 -765.59 0 10.6 -26.3z"/>
   <path class="fil0" d="M9267.35 14200.75c63.37,-79.15 105.6,-195.4 105.6,-295.69l0 -1884.96c0,-105.6 -47.57,-232.32 -116.12,-327.32l-26.4 -37 564.93 0 1124.7 1774.12 0 -1425.73c0,-94.93 -42.25,-216.39 -105.6,-295.67l-42.25 -52.72 353.66 0 -36.85 52.72c-63.35,79.28 -105.61,200.74 -105.61,295.67l0 2249.36 -58.16 0 -1488.93 -2259.82 0 1911.35c0,100.29 42.23,211.21 105.6,295.69l36.9 52.78 -348.39 0 36.92 -52.78z"/>
   <path class="fil0" d="M12111.53 14242.99c84.48,-110.94 142.65,-269.24 142.65,-395.96l0 -2143.73c-469.9,0 -649.53,84.46 -744.4,469.97l-26.53 0 95.08 -517.49 1821.54 0 100.34 533.27 -31.66 0c-100.26,-411.73 -237.64,-485.75 -744.53,-485.75l0 2143.73c0,126.72 52.91,285.02 137.37,395.96l5.21 10.52 -760.26 0 5.19 -10.52z"/>
   <path class="fil0" d="M14716.48 13561.82l-432.87 -1214.31 -438.27 1214.31 871.14 0zm110.94 665.41c36.89,-105.61 36.89,-243 5.31,-343.26l-95.14 -258.78 -913.36 0 -95.07 258.78c-36.91,105.6 -36.91,237.65 0,343.26l10.6 26.3 -364.32 0 73.81 -68.56c84.49,-74.02 168.97,-195.4 206.02,-301l823.63 -2249.28 73.94 0 760.33 2249.28c31.66,100.26 116.15,226.98 200.61,301l68.63 68.56 -765.59 0 10.6 -26.3z"/>
   <path class="fil0" d="M16585.1 12986.36l121.41 0c433.06,0 602.03,-179.55 602.03,-623.02 0,-443.52 -168.97,-665.32 -522.81,-665.32l-200.63 0 0 1288.34zm749.76 1251.29c15.91,-110.86 -10.54,-248.1 -68.57,-353.7l-501.7 -860.6 -179.49 0 0 850.06c0,110.8 47.59,242.86 116.15,337.86l26.37 42.24 -749.66 0 26.38 -42.24c68.55,-95 116.12,-227.06 116.12,-337.86l0 -1832.19c0,-110.86 -47.57,-248.12 -116.12,-343.2l-26.38 -42.24 876.38 0c580.92,0 934.56,179.55 934.56,686.45 0,327.32 -137.24,543.79 -522.61,654.67l517.28 887.05c52.9,105.6 163.76,221.72 264.11,301l89.74 68.56 -802.56 0 0 -15.86z"/>
   <path class="fil0" d="M18536.44 14242.99c79.28,-110.94 132.05,-269.24 132.05,-395.96l0 -1763.58c0,-126.72 -52.77,-285.01 -132.05,-395.95l-10.47 -15.78 1715.96 0 -95.01 607.16 -31.71 0c-100.34,-475.26 -316.81,-554.47 -712.84,-554.47l-253.44 0 0 1261.95 242.98 0c153.03,0 253.45,-84.47 253.45,-205.93l0 -5.28 31.58 0 0 469.85 -31.58 0 0 -15.78c0,-121.4 -100.42,-200.61 -253.45,-200.61l-242.98 0 0 1182.66 364.38 0c369.56,0 612.47,-110.8 744.53,-501.61l26.32 0 -68.55 543.85 -1689.64 0 10.47 -10.52z"/>
   <path class="fil0" d="M20744.73 14200.75c63.37,-79.15 105.6,-195.4 105.6,-295.69l0 -1884.96c0,-105.6 -47.49,-232.32 -116.2,-327.32l-26.43 -37 565.04 0 1124.57 1774.12 0 -1425.73c0,-94.93 -42.23,-216.39 -105.6,-295.67l-42.24 -52.72 353.78 0 -36.97 52.72c-63.37,79.28 -105.6,200.74 -105.6,295.67l0 2249.36 -58.03 0 -1488.95 -2259.82 0 1911.35c0,100.29 42.23,211.21 105.6,295.69l36.97 52.78 -348.57 0 37.03 -52.78z"/>
   <path class="fil0" d="M24174.95 13561.82l-432.85 -1214.31 -438.27 1214.31 871.12 0zm110.94 665.41c36.91,-105.61 36.91,-243 5.33,-343.26l-95.14 -258.78 -913.37 0 -95.02 258.78c-36.97,105.6 -36.97,237.65 0,343.26l10.54 26.3 -364.32 0 73.89 -68.56c84.48,-74.02 168.97,-195.4 205.94,-301l823.63 -2249.28 73.94 0 760.33 2249.28c31.74,100.26 116.14,226.98 200.63,301l68.61 68.56 -765.51 0 10.52 -26.3z"/>
   <path class="fil0" d="M14849.45 9763.21c-895.22,0 -1665.72,-542.99 -2000.28,-1316.88 152.96,-85.02 782.67,-387.65 1659.26,-164.36 930.72,237.18 2150.16,-262.83 2505.28,-453.39 -121.52,1086.79 -1045.56,1934.63 -2164.26,1934.63zm-2178.14 -2259.26c159.71,-69.7 923.81,-387.12 1350.67,-273.75 238.41,63.42 628.49,329.22 972.76,563.77 270.5,184.2 473.4,320.23 622.06,393.72 -359.44,63.85 -740.28,80.99 -1082.74,-6.27 -901.41,-229.63 -1539.96,65.32 -1724.16,167.55 -89.42,-237.86 -138.59,-495.22 -138.59,-763.9l0 -81.12zm716.93 -2097.12l512.23 0 158.7 387.11c-195.96,105.2 -368.63,248.12 -508.31,419.1l-630.92 -630.89c-26.16,22.66 -50.67,47.16 -73.33,73.41l640.76 640.76c-118.36,164.77 -207.97,351.68 -260.47,553.43l-555.59 -232.51 0 112.49 532.58 222.87c-16.26,83.87 -26.11,169.97 -29.29,257.76 -216.46,63.08 -404.25,138.2 -503.29,180.37l0 -1266.95c0,-395.29 321.58,-716.95 716.93,-716.95zm1409.32 0l0 190.16c-229.55,7.02 -447.56,60.25 -645.21,150.93l-139.82 -341.09 785.03 0zm907.17 0l-145.35 347.37c-200.95,-94.45 -423.42,-149.92 -658.04,-157.15l0 -190.22 803.39 0zm605.93 0c179.09,0 342.59,66.41 468.38,175.32l-631.4 631.37c1.69,2.03 3.1,4.32 4.8,6.35 -137.87,-170.52 -308.23,-313.71 -501.9,-419.58 0.54,0.27 1.15,0.48 1.69,0.81l164.99 -394.27 493.44 0zm541.58 248.59c-22.61,-26.11 -47.04,-50.55 -73.15,-73.14 26.11,22.59 50.54,47.03 73.15,73.14zm175.43 468.36l0 512.21 -553.43 226.92c-51.97,-206.53 -142.59,-397.69 -263.31,-565.99l641.44 -641.36c108.85,125.7 175.3,289.26 175.3,468.22zm-531.3 842.11l531.3 -217.82 0 277.27c-72.87,35.96 -292.91,143.25 -503.1,235.02 -0.73,-100.53 -10.52,-198.85 -28.2,-294.47zm-1646.92 -1370.18l0.54 0 -0.67 0 0.13 0zm-0.46 103.71c866.8,0 1572.08,705.34 1572.08,1572.21l0 32.72c-79.71,33.07 -154,61.75 -212.62,80.03 -93.67,29.23 -308.72,-1.01 -536.26,-33.13 -376.23,-53.09 -841.02,-118.15 -1124.42,23.28 -188.27,-116.06 -361.81,-208.03 -499.12,-244.6 -218.17,-57.9 -506.63,-16.47 -769.11,51.55 46.9,-825.12 732.8,-1482.06 1569.45,-1482.06zm976.18 2445.83l-0.07 -0.06c-94.66,23.2 -470.3,-231.52 -772,-436.98 -133.39,-90.97 -268.41,-182.86 -398.65,-266.54 260.26,-92.04 668.29,-34.95 1003.25,12.28 175.91,24.9 326.71,46.15 441.84,46.15 55.2,0 102.21,-4.91 139.8,-16.66 218.22,-68.09 623.84,-262.16 788.33,-342.51l0 444.14c0,39.74 -1.28,79.28 -3.36,118.47 -91.57,57.36 -595.15,303.05 -1199.14,441.71zm485.49 -2842.13l-2922.42 0c-452.5,0 -820.72,368.16 -820.72,820.66l0 1461.29c0,1258.23 1023.7,2281.93 2281.93,2281.93 1258.25,0 2281.95,-1023.7 2281.95,-2281.93l0 -1461.29c0,-452.5 -368.16,-820.66 -820.74,-820.66z"/>
   <path class="fil0" d="M13479.28 8760.46c-50.4,0 -91.43,-41.03 -91.43,-91.43 0,-50.48 41.03,-91.5 91.43,-91.5 50.48,0 91.43,41.02 91.43,91.5 0,50.4 -40.95,91.43 -91.43,91.43zm0 -286.72c-107.68,0 -195.21,87.66 -195.21,195.29 0,107.61 87.53,195.2 195.21,195.2 107.63,0 195.22,-87.59 195.22,-195.2 0,-107.63 -87.59,-195.29 -195.22,-195.29z"/>
   <path class="fil0" d="M14178.67 9331.28c-50.47,0 -91.5,-41.03 -91.5,-91.51 0,-50.4 41.03,-91.43 91.5,-91.43 50.48,0 91.43,41.03 91.43,91.43 0,50.48 -40.95,91.51 -91.43,91.51zm0 -286.72c-107.68,0 -195.27,87.58 -195.27,195.21 0,107.63 87.59,195.27 195.27,195.27 107.63,0 195.22,-87.64 195.22,-195.27 0,-107.63 -87.59,-195.21 -195.22,-195.21z"/>
   <path class="fil0" d="M14923.28 8903.8c-50.46,0 -91.48,-41.01 -91.48,-91.43 0,-50.46 41.02,-91.48 91.48,-91.48 50.42,0 91.45,41.02 91.45,91.48 0,50.42 -41.03,91.43 -91.45,91.43zm0 -286.7c-107.68,0 -195.27,87.58 -195.27,195.27 0,107.63 87.59,195.21 195.27,195.21 107.63,0 195.22,-87.58 195.22,-195.21 0,-107.69 -87.59,-195.27 -195.22,-195.27z"/>
   <path class="fil0" d="M15757.73 9218.92c-50.48,0 -91.5,-41.03 -91.5,-91.43 0,-50.47 41.02,-91.5 91.5,-91.5 50.4,0 91.43,41.03 91.43,91.5 0,50.4 -41.03,91.43 -91.43,91.43zm0 -286.72c-107.7,0 -195.29,87.59 -195.29,195.29 0,107.63 87.59,195.14 195.29,195.14 107.61,0 195.2,-87.51 195.2,-195.14 0,-107.7 -87.59,-195.29 -195.2,-195.29z"/>
   <path class="fil0" d="M16367.22 8617.12c-50.45,0 -91.48,-41.03 -91.48,-91.43 0,-50.53 41.03,-91.49 91.48,-91.49 50.48,0 91.51,40.96 91.51,91.49 0,50.4 -41.03,91.43 -91.51,91.43zm0 -286.7c-107.63,0 -195.21,87.58 -195.21,195.27 0,107.63 87.58,195.21 195.21,195.21 107.63,0 195.29,-87.58 195.29,-195.21 0,-107.69 -87.66,-195.27 -195.29,-195.27z"/>
   <polygon class="fil0" points="13045.9,15211.73 12900.49,15211.73 12900.49,15159.01 13256.76,15159.01 13256.76,15211.73 13106.36,15211.73 13106.36,15703.97 13045.9,15703.97 "/>
   <polygon class="fil0" points="13491.87,15158.99 13800.72,15158.99 13800.72,15211.71 13552.33,15211.71 13552.33,15399.75 13752.61,15399.75 13752.61,15452.2 13552.33,15452.2 13552.33,15651.66 13810.3,15651.66 13810.3,15703.95 13491.87,15703.95 "/>
   <polygon class="fil0" points="14064.12,15158.99 14124.7,15158.99 14124.7,15651.66 14340.49,15651.66 14340.49,15703.95 14064.12,15703.95 "/>
   <path class="fil0" d="M14762.27 15711.14c-180.49,0 -204.45,-103.65 -204.45,-268.97 0,-176.31 18.97,-290.27 203.43,-290.27 44.21,0 106.08,6.75 138.54,19.22l-16.06 56.27c-40.61,-14.23 -87.17,-24.21 -125.71,-24.21 -112.54,0 -136.36,59.52 -136.36,230.5l0 26.32c0,137.85 27.8,199.79 142.44,199.79l3.24 0c43.38,0 97.16,-14.58 116.87,-22.46l15.58 49.18c-7.42,3.57 -54.51,24.63 -132.45,24.63l-5.07 0z"/>
   <polygon class="fil0" points="15149,15158.99 15209.47,15158.99 15209.47,15405.16 15467.03,15405.16 15467.03,15158.99 15527.23,15158.99 15527.23,15703.95 15467.03,15703.95 15467.03,15456.77 15209.47,15456.77 15209.47,15703.95 15149,15703.95 "/>
   <path class="fil0" d="M15906.26 15493.17l185.89 0 -83.66 -247.24 -12.49 -38.81 -11 40.57 -78.74 245.48zm203.03 50.88l-219.5 0 -51.21 159.9 -62.75 0 178.53 -544.94 82.99 0 190.57 544.94 -64.52 0 -54.11 -159.9z"/>
   <path class="fil0" d="M16660.96 15711.14c-180.58,0 -204.45,-103.65 -204.45,-268.97 0,-176.31 18.88,-290.27 203.44,-290.27 44.18,0 106.06,6.75 138.46,19.22l-15.99 56.27c-40.62,-14.23 -87.26,-24.21 -125.72,-24.21 -112.55,0 -136.36,59.52 -136.36,230.5l0 26.32c0,137.85 27.73,199.79 142.44,199.79l3.23 0c43.33,0 97.17,-14.58 116.81,-22.46l15.59 49.18c-7.36,3.57 -54.53,24.63 -132.4,24.63l-5.05 0z"/>
  </g>
 </g>
</svg>
