<?xml version="1.0" encoding="UTF-8"?>
<!DOCTYPE svg PUBLIC "-//W3C//DTD SVG 1.1//EN" "http://www.w3.org/Graphics/SVG/1.1/DTD/svg11.dtd">
<!-- Creator: CorelDRAW 2020 (64-Bit) -->
<svg xmlns="http://www.w3.org/2000/svg" xml:space="preserve" width="4644px" height="1590px" version="1.1" style="shape-rendering:geometricPrecision; text-rendering:geometricPrecision; image-rendering:optimizeQuality; fill-rule:evenodd; clip-rule:evenodd"
viewBox="0 0 4644 1589.89"
 xmlns:xlink="http://www.w3.org/1999/xlink"
 xmlns:xodm="http://www.corel.com/coreldraw/odm/2003">
 <defs>
  <style type="text/css">
   <![CDATA[
    .str1 {stroke:#009933;stroke-width:41.66;stroke-miterlimit:22.9256}
    .str0 {stroke:#009933;stroke-width:41.66;stroke-linejoin:round;stroke-miterlimit:22.9256}
    .fil0 {fill:none}
    .fil1 {fill:white;fill-rule:nonzero}
   ]]>
  </style>
 </defs>
 <g id="Capa_x0020_1">
  <metadata id="CorelCorpID_0Corel-Layer"/>
  <g id="_1020724912">
   <rect class="fil0" x="-0.09" y="0.82" width="4644.04" height="1589.93"/>
   <path class="fil0 str0" d="M966.12 1383.98c2.97,-6.27 5.87,-12.52 8.69,-18.75 59.2,-130.35 87.85,-249.12 91.02,-355.94m0 0l0 -0.02m0 0c8.77,-296.69 -179.14,-501.27 -455.87,-606.22 -169.98,-60.5 -373.15,-100.37 -385.24,-317.92 -206.26,510.98 206.94,1018.1 744.21,996.96 -537.27,21.14 -950.47,-485.98 -744.21,-996.96"/>
   <path class="fil0 str1" d="M1065.84 1009.29c-110.1,-202.98 -223.2,-241.2 -418,-333.48"/>
   <path class="fil1" d="M1198.11 705.04c0,26.8 20.49,43.09 45.71,43.09 25.23,0 45.2,-16.29 45.2,-43.09l0 -262.21 38.88 0c22.6,0 44.67,-22.6 44.67,-44.14 0,-25.75 -22.07,-46.77 -44.67,-46.77l-168.15 0c-22.07,0 -44.14,21.02 -44.14,46.77 0,21.54 22.07,44.14 44.14,44.14l38.36 0 0 262.21z"/>
   <path id="1" class="fil1" d="M1584.86 593.11c25.75,0 45.19,-19.96 45.19,-45.71 0,-25.23 -19.44,-45.19 -45.19,-45.19l-89.33 0 0 -59.38 89.33 0c25.75,0 45.19,-20.5 45.19,-45.72 0,-25.22 -19.44,-45.19 -45.19,-45.19l-135.05 0c-25.22,0 -45.19,19.97 -45.19,45.72l0 302.67c0,25.22 19.97,45.72 45.19,45.72l135.05 0c25.75,0 45.19,-19.97 45.19,-45.19 0,-25.23 -19.44,-45.72 -45.19,-45.72l-89.33 0 0 -62.01 89.33 0z"/>
   <path id="2" class="fil1" d="M1809.77 442.83c24.17,0 29.95,19.96 29.95,31 0,12.09 -5.78,33.63 -29.43,33.63l-47.29 0 0 -64.63 46.77 0zm38.36 280.08c8.4,15.76 24.17,25.22 40.46,25.22 26.8,0 46.76,-22.07 46.76,-44.66 0,-6.84 -1.05,-13.67 -4.72,-19.97l-56.76 -97.22c32.58,-23.12 57.28,-61.48 57.28,-112.98 0,-68.31 -49.39,-121.38 -118.76,-121.38l-96.16 0c-25.75,0 -44.14,19.97 -44.14,46.24l0 302.68c0,24.17 18.39,47.29 44.14,47.29 25.75,0 46.77,-21.02 46.77,-46.77l0 -104.04c0,-2.1 0.52,-3.15 2.62,-3.15l8.94 0c2.63,0 3.68,1.05 4.73,3.15l68.84 125.59z"/>
   <path id="3" class="fil1" d="M2111.92 442.83c24.17,0 29.95,19.96 29.95,31 0,12.09 -5.78,33.63 -29.43,33.63l-47.29 0 0 -64.63 46.77 0zm38.36 280.08c8.4,15.76 24.17,25.22 40.46,25.22 26.8,0 46.77,-22.07 46.77,-44.66 0,-6.84 -1.05,-13.67 -4.73,-19.97l-56.76 -97.22c32.58,-23.12 57.28,-61.48 57.28,-112.98 0,-68.31 -49.39,-121.38 -118.76,-121.38l-96.16 0c-25.75,0 -44.14,19.97 -44.14,46.24l0 302.68c0,24.17 18.39,47.29 44.14,47.29 25.75,0 46.77,-21.02 46.77,-46.77l0 -104.04c0,-2.1 0.52,-3.15 2.63,-3.15l8.93 0c2.63,0 3.68,1.05 4.73,3.15l68.84 125.59z"/>
   <path id="4" class="fil1" d="M2457.16 593.11c25.74,0 45.19,-19.96 45.19,-45.71 0,-25.23 -19.45,-45.19 -45.19,-45.19l-89.34 0 0 -59.38 89.34 0c25.74,0 45.19,-20.5 45.19,-45.72 0,-25.22 -19.45,-45.19 -45.19,-45.19l-135.05 0c-25.23,0 -45.19,19.97 -45.19,45.72l0 302.67c0,25.22 19.96,45.72 45.19,45.72l135.05 0c25.74,0 45.19,-19.97 45.19,-45.19 0,-25.23 -19.45,-45.72 -45.19,-45.72l-89.34 0 0 -62.01 89.34 0z"/>
   <path id="5" class="fil1" d="M2600.09 349.82c-28.91,0 -55.71,25.75 -55.71,55.17l0 298.48c0,25.22 20.5,44.66 46.25,44.66 25.22,0 44.66,-18.39 44.66,-44.14l0 -181.82 120.34 197.06c7.36,12.09 22.07,28.9 49.39,28.9 28.9,0 55.7,-25.75 55.7,-55.17l0 -298.48c0,-25.22 -21.01,-44.66 -46.24,-44.66 -25.22,0 -44.66,18.39 -44.66,44.14l0 183.39 -120.34 -198.11c-7.36,-12.08 -22.07,-29.42 -49.39,-29.42z"/>
   <path id="6" class="fil1" d="M2897.51 549.5c0,110.88 89.33,202.31 200.21,202.31 110.87,0 200.2,-91.43 200.2,-202.31 0,-110.88 -89.33,-201.78 -200.2,-201.78 -110.88,0 -200.21,90.9 -200.21,201.78zm90.91 0c0,-60.43 49.39,-110.88 109.3,-110.88 60.95,0 109.3,50.45 109.3,110.88 0,60.43 -48.35,110.35 -109.3,110.35 -59.91,0 -109.3,-49.92 -109.3,-110.35z"/>
   <path id="7" class="fil1" d="M3318.94 661.43c0,59.38 63.06,88.8 118.76,88.8 64.11,0 114.56,-53.07 114.56,-118.75 0,-65.69 -28.91,-97.22 -95.12,-126.12l-6.83 -3.15c-16.81,-6.83 -39.93,-16.82 -39.93,-35.74 0,-13.13 10.51,-26.27 23.64,-26.27 6.83,0 17.87,3.15 23.65,15.24 7.36,16.29 25.75,24.7 40.46,24.7 25.22,0 45.19,-21.02 45.19,-46.25 0,-5.78 -1.05,-11.03 -3.15,-16.29 -14.71,-44.66 -63.06,-68.83 -101.94,-68.83 -72.52,0 -118.76,47.81 -118.76,120.86 0,59.38 41.51,99.31 96.69,118.23 26.8,7.36 43.61,14.71 45.19,44.14 -0.53,14.71 -12.09,27.32 -26.8,27.32 -15.24,0 -24.17,-8.93 -32.06,-18.39 -9.98,-11.56 -20.49,-23.64 -40.98,-23.64 -23.12,0 -42.57,17.34 -42.57,44.14z"/>
   <path id="8" class="fil1" d="M3716.21 399.74c-7.89,-28.9 -32.06,-49.92 -59.91,-49.92 -36.78,0 -67.26,31 -67.26,68.31l0 285.34c0,22.06 22.07,44.66 47.82,44.66 24.7,0 45.19,-22.07 45.19,-47.82l0 -170.25 59.38 183.92c6.3,18.91 25.22,34.15 46.77,34.15 19.44,0 37.31,-15.24 44.14,-34.15 0,0 42.56,-121.39 64.1,-184.97l0 174.98c0,24.17 18.92,44.14 43.09,44.14 25.23,0 47.82,-22.6 47.82,-44.66l0 -285.34c0,-37.31 -31,-68.31 -67.26,-68.31 -28.37,0 -54.12,21.02 -62,49.92l-71.47 199.15 -70.41 -199.15z"/>
   <path id="9" class="fil1" d="M4030.44 394.48l0 308.99c0,25.22 20.5,44.66 45.72,44.66 25.75,0 45.72,-19.44 45.72,-44.66l0 -308.99c0,-25.22 -19.97,-44.66 -45.72,-44.66 -25.22,0 -45.72,19.44 -45.72,44.66z"/>
   <path id="10" class="fil1" d="M4299.49 442.83c62,0 103.52,43.61 103.52,105.62 0,62.53 -44.14,106.67 -106.15,106.67l-41.51 0 0 -212.29 44.14 0zm-135.05 255.38c0,25.75 22.07,47.82 47.82,47.82l84.6 0c109.3,0 197.06,-89.86 197.06,-197.58 0,-107.2 -87.76,-196.53 -197.06,-196.53l-81.97 0c-28.38,0 -50.45,21.54 -50.45,50.45l0 295.84z"/>
   <path class="fil1" d="M1915.32 1047.6l-1.04 -6.21 -1.3 -6.46c-2.08,-8.25 -3.38,-16.79 -5.21,-25.12 -1.04,-4.17 -2.86,-8.07 -3.64,-11.98 -0.78,-4.94 -1.56,-9.63 -2.6,-14.58 -3.13,-16.66 -7.03,-30.71 -9.9,-46.33 -1.82,-8.33 -3.12,-16.14 -5.2,-24.21l-2.09 -7.55 -1.3 -8.33c-1.82,-8.07 -3.9,-16.14 -4.94,-24.73 -0.78,0.26 -0.52,-0.78 -1.3,-0.78 -13.28,-1.31 -26.3,-2.09 -38.53,0.26 -1.82,2.34 -2.08,5.46 -2.87,8.33 -1.04,3.38 -1.3,7.81 -2.08,10.67l-0.78 3.64c-0.78,4.95 -1.3,9.9 -2.08,14.32 -0.26,1.82 -0.52,3.39 -1.3,4.69 -0.78,2.34 -1.31,3.9 -1.31,6.77 -0.78,2.08 -1.56,4.42 -1.82,6.76 -1.3,8.59 -3.38,17.71 -4.16,24.21 -0.26,0.79 -0.78,0.52 -1.04,1.31 0.78,1.82 -0.52,3.38 -1.3,5.2l-0.79 4.43 -2.08 8.07c-1.04,6.24 -1.56,13.53 -2.34,18.74 -0.78,2.08 -1.56,3.64 -1.56,6.51l-2.61 9.63c-1.3,6.25 -2.08,12.24 -3.38,18.44 -0.26,2.65 -0.78,5.51 -1.56,8.37 -1.04,7.03 -2.08,14.58 -3.39,20.57 -0.26,1.3 -0.78,2.6 0.26,3.38 9.11,1.3 21.61,0.52 30.72,-0.26 3.91,-11.19 5.47,-23.43 8.33,-34.88 13.28,0 22.65,-1.56 35.41,-0.78 1.04,8.24 3.12,14.45 4.94,22.47 1.04,4.12 2.34,6.99 2.6,11.89 0.78,0.26 1.04,0.78 1.31,1.04 11.45,0.78 19.78,0 30.97,-0.78 0.78,-1.3 -0.26,-1.82 -0.52,-3.12l-0.52 -3.6zm-68.72 -59.92c4.16,-17.7 8.33,-34.88 11.45,-52.59 1.82,6.25 3.13,12.5 4.95,19.53 2.86,11.45 4.68,22.39 6.77,32.54 -7.03,0.26 -15.1,1.3 -23.17,0.52z"/>
   <path id="1" class="fil1" d="M2027.52 923.9c-0.78,-0.78 -4.17,-1.04 -5.73,-1.3 -3.64,-0.26 -10.41,0 -14.05,0 -1.05,0 -2.09,-0.52 -2.87,0.26 0.26,0.78 -0.78,1.3 -0.78,2.08 -0.78,2.87 -0.26,6.51 -1.56,8.59 -2.08,-3.38 -5.99,-5.98 -10.15,-7.55 -4.95,-1.82 -10.68,-3.64 -15.88,-3.38 -3.13,-0.26 -8.85,0 -13.54,1.3 -1.04,0.26 -2.08,1.04 -3.38,1.3 -3.91,1.3 -6.25,3.13 -9.12,5.47 -0.78,0.52 -1.56,0.78 -2.08,1.3 -2.34,2.08 -3.38,4.69 -5.72,6.77 -0.27,1.04 -0.78,2.08 -1.31,3.12 -0.52,1.04 -1.56,1.83 -2.08,2.61 -1.3,2.86 -1.82,6.76 -2.34,10.67 -0.78,5.99 -0.78,13.27 -1.04,20.04 -0.78,12.5 -0.78,26.04 0,39.05 1.04,12.76 3.64,24.73 10.41,32.28 1.82,1.04 3.12,2.86 4.95,4.17 9.63,6.5 25.51,7.29 38,4.16 3.13,-1.56 5.73,-3.38 8.59,-4.16 0.52,4.68 -0.26,8.59 0,13.27 0,3.39 0.52,9.89 -0.78,13.02l-2.6 3.64c-2.6,2.35 -7.29,2.61 -11.45,3.65l-0.27 0c-1.3,0 -3.12,-0.26 -4.68,-0.52 -1.56,-0.26 -3.12,-0.26 -4.17,-0.78 -2.6,-0.52 -3.64,-2.09 -4.68,-4.43 -1.56,-3.9 -2.87,-8.33 -2.61,-13.28 -1.04,0 -1.3,-0.78 -1.82,-1.3 -4.94,-1.04 -10.41,-0.78 -15.1,-1.82 -4.42,0.52 -8.59,0.52 -11.97,1.56 -0.26,0.78 -1.04,0.78 -1.3,1.3 0.26,11.72 2.86,23.17 8.85,30.72 0,2.34 3.12,2.08 3.9,3.65 0.52,0.26 0.78,0 1.3,0.26 4.43,4.42 11.2,7.02 18.75,8.33 2.34,0.52 4.68,1.04 6.77,1.3 10.67,1.04 21.6,-1.82 28.89,-4.95 3.13,-1.3 6.77,-3.12 9.37,-5.2 3.65,-2.87 7.29,-6.25 8.85,-10.68 0.79,-0.26 0.79,-0.52 1.31,-1.04 1.56,-2.08 2.6,-6.25 3.12,-10.15 0.26,-4.17 1.04,-8.59 1.04,-12.5 0,-5.98 -0.78,-11.97 -1.04,-16.66 -0.26,-4.94 0.26,-10.93 0,-16.4 0,-4.16 -0.26,-8.07 -0.26,-11.97 -0.52,-7.81 0,-15.36 0.78,-23.43 0.52,-7.81 0.26,-16.14 0.52,-24.21 0.26,-14.58 0,-31.5 0,-45.82 -1.04,-0.26 -0.52,-1.82 -1.04,-2.34zm-30.98 93.98c-0.26,1.04 -1.04,1.82 -0.78,3.38 -3.9,4.43 -10.41,9.63 -19.26,7.55 -1.3,-0.26 -4.69,-2.08 -5.21,-2.6 -0.78,-0.78 -1.56,-2.09 -2.34,-3.13 -1.82,-2.6 -1.56,-9.89 -1.82,-13.79 -0.26,-9.64 -0.79,-25.52 -0.79,-36.45 0,-4.43 0.53,-7.55 0.26,-11.71 0.79,-2.87 1.83,-3.91 3.91,-5.47 1.56,-1.04 2.08,-1.56 3.9,-2.34l3.13 -1.3c6.25,-1.57 12.49,1.56 16.4,5.98 0.26,0.52 0,0.52 0,1.04 1.56,2.09 2.6,4.95 3.12,7.55 0,1.57 -0.26,3.13 0,4.95 0,0.52 0.26,0.78 0.26,1.3 0.26,0.52 0,1.04 0,1.56 0,1.3 0.52,2.35 0.52,3.39 0.78,11.19 -0.52,26.55 -1.3,40.09z"/>
   <path id="2" class="fil1" d="M2054.07 1020.22c-0.52,6.25 2.34,11.97 4.69,16.4 3.12,2.6 5.21,6.25 8.33,8.59 0,0.52 0.52,0.78 0.52,1.3 2.34,1.04 3.9,2.86 6.51,3.65 0.52,0.26 0.52,0.78 1.04,1.3 2.08,0.26 3.64,1.3 5.46,2.08 1.05,-0.26 2.09,0.52 3.13,0.78 1.82,0.52 4.16,0.78 6.25,1.3l7.03 1.04c11.19,0.78 22.38,-2.34 30.19,-7.81l1.04 0c1.3,-1.82 3.39,-2.6 5.21,-3.9 1.82,-1.04 3.12,-3.12 4.69,-5.21 1.56,-1.82 3.38,-3.9 4.16,-5.98 0.52,-0.79 0.52,-1.83 0.78,-2.61 0.78,-2.86 2.08,-5.46 2.34,-8.33 0.79,-5.2 0.53,-10.15 0.26,-14.32 -1.04,-0.26 -0.52,-1.56 -1.04,-2.34 -2.6,-0.26 -5.2,-0.26 -7.81,0 -6.24,0.26 -12.49,0 -19,-0.26 -0.78,0.26 -1.3,0.78 -1.82,1.3 -1.04,3.39 -1.3,7.03 -2.08,10.16 -0.52,2.08 -2.09,4.16 -2.87,5.46 -1.82,2.87 -4.68,3.91 -8.85,4.43 -4.42,0.78 -8.85,0.52 -12.75,-1.3l-1.57 -1.05c-2.86,-2.34 -3.12,-7.8 -3.38,-12.49 -0.52,-7.03 -0.52,-13.02 0,-18.22 18.48,1.04 40.35,1.04 60.65,0 1.31,-2.35 1.31,-7.55 1.31,-11.98 0,-3.9 0.26,-8.07 0,-11.97 -0.26,-1.56 -0.79,-3.13 -0.79,-4.69 -0.26,-2.6 0,-5.46 -0.52,-8.07 -0.26,-2.08 -1.3,-4.16 -2.08,-6.25 -2.34,-7.28 -5.47,-14.05 -10.93,-18.22 -0.52,-0.26 -0.52,0.26 -1.04,0.26l-5.99 -3.9 -3.65 -1.82c-2.6,-1.31 -4.94,-1.83 -8.59,-2.35 -1.04,0 -2.34,-0.52 -3.38,-0.78 -4.95,-0.52 -9.89,-0.78 -14.58,-1.04 -0.52,0.26 -0.26,-0.52 -0.78,-0.26 -2.34,0.52 -3.9,0.26 -6.25,0.52l-1.82 0.78c-4.42,0.78 -9.37,1.04 -12.23,4.17 -1.82,0.26 -2.61,1.04 -3.39,2.08 -1.3,0.26 -2.08,1.04 -2.6,1.56l-1.04 0.52c-0.78,0.52 -1.82,1.56 -2.35,2.6 -0.78,0.79 -1.04,2.09 -1.82,2.87 -0.26,0.52 -0.78,0.78 -1.3,1.3l-1.04 1.56c-1.3,2.34 -2.86,4.69 -3.64,7.03 -1.57,4.43 -3.13,10.15 -3.13,15.36 -0.78,1.3 -0.52,1.82 0,2.86 -1.3,2.87 -0.52,5.99 -0.52,9.11 0,2.61 -0.52,5.21 -0.52,7.55 -0.26,3.39 0.26,7.03 0,10.16 0,2.86 0.52,5.98 0.52,8.85 0.26,6.24 -0.78,12.49 1.04,18.22zm39.05 -68.2c3.38,-0.26 7.55,-0.79 11.98,-0.26 3.9,0.26 4.94,1.82 6.76,4.68 1.83,2.86 3.65,5.99 2.61,10.41 -9.64,-0.26 -22.39,0.78 -31.24,0 -0.78,-6.24 4.16,-12.49 9.89,-14.83z"/>
   <path id="3" class="fil1" d="M2264.67 1054.84c0.26,-2.86 -0.26,-7.29 -0.26,-10.93 0,-2.61 0,-5.21 -0.26,-7.77 0,-5.99 0.78,-11.97 0.52,-17.66l0 -9.11c0.52,-7.03 -0.52,-13.49 -0.78,-20.26 -0.26,-9.37 1.04,-18.96 0.52,-28.33 -0.26,-4.64 -1.56,-9.59 -3.12,-13.49 -1.57,-3.39 -2.35,-5.73 -4.17,-8.55l-2.86 -3.65c-1.3,-1.3 -3.91,-2.86 -3.65,-4.42 -2.34,-0.78 -4.42,-1.82 -6.24,-3.12l-1.57 0c-2.08,-1.57 -5.2,-1.83 -7.28,-3.39 -1.83,0.52 -3.13,-0.78 -4.95,-1.04 -2.6,-0.26 -5.73,-0.26 -8.59,-0.26 -10.15,0 -20.05,4.16 -25.25,10.93 -0.26,-0.78 0,-0.78 0,-1.82 -1.56,-1.56 -1.3,-6.51 -3.13,-7.55 -1.04,-0.52 -3.64,-0.52 -4.94,-0.52 -5.21,-0.26 -12.5,0.26 -17.44,0 0.26,0.78 -0.26,1.04 -0.78,1.56 0.52,1.3 -0.52,4.17 0.52,5.21 -1.04,2.34 -0.26,5.21 -0.52,7.81 -0.26,8.03 0.52,17.14 0.52,25.94 -0.26,7.81 0,15.32 0.26,22.09 0.52,5.2 -0.26,12.49 0.52,17.92 -0.26,3.64 -0.26,7.55 -0.26,11.19 0,4.12 -0.26,7.25 -0.26,10.89 0,8.85 0.78,18.18 0.78,28.07l2.6 1.56c7.03,-0.52 11.46,0.26 17.7,0 2.61,0 5.99,-0.52 9.11,-0.52 0.26,-0.78 1.3,-0.78 1.57,-1.3 0,-15.36 0,-29.63 -0.27,-44.95 0,-2.86 0,-6.24 -0.26,-9.11 -0.26,-3.34 0,-6.72 -0.26,-10.11 -0.52,-8.07 -1.3,-16.62 0.52,-23.64 0.53,-2.09 1.57,-4.69 2.09,-6.99 0.78,-1.56 1.82,-2.86 2.86,-4.16 3.65,-2.35 9.89,-4.43 15.1,-3.13 1.56,0.26 4.43,2.35 5.73,3.39 3.12,3.12 3.64,6.72 4.42,11.93 0.26,1.82 1.04,3.9 1.04,5.46 1.83,14.02 0.26,27.51 0.78,41.57 0.26,1.82 0.53,3.9 0.53,5.94 0,2.87 -0.53,6.25 -0.53,9.37l-0.52 10.37c-0.26,2.09 0,3.91 -0.78,5.47 0.26,1.82 0.52,4.43 0,6.51 1.3,0.78 1.3,2.08 1.83,3.12 1.56,1.04 3.12,0.52 4.94,0.52 8.33,-0.26 18.48,0.26 24.47,-1.04l0 0z"/>
   <path id="4" class="fil1" d="M2377.91 971.8c1.56,-1.3 0.78,-4.17 0.52,-7.03 -0.26,-5.21 -1.04,-11.19 -2.86,-16.14 -1.57,-3.9 -3.65,-7.29 -5.73,-10.67 -0.78,-1.56 -2.08,-3.39 -3.38,-4.95 -1.83,-2.08 -4.17,-4.16 -5.99,-3.9 -7.55,-4.17 -17.7,-7.81 -28.12,-7.55 -0.26,0 -0.26,0 -0.52,0.26 -5.46,0.52 -10.67,1.3 -15.36,2.86l-5.98 2.6c-2.09,0.79 -3.91,1.83 -5.47,3.13 -3.38,2.34 -5.99,5.47 -9.11,8.33 -4.17,6.25 -7.81,13.02 -8.85,21.6 -0.78,9.12 -1.56,20.05 -1.04,30.46 0.26,8.07 -0.52,15.88 0.26,22.91 0,0.78 0.78,0.78 0.52,1.56 0.26,4.69 0.78,8.85 2.34,12.76 4.69,9.89 11.19,17.44 20.83,22.39 2.34,1.04 5.2,2.34 7.55,3.12 0.52,0.26 1.04,0 1.3,0.26 0.52,0.26 0.78,0.78 1.04,0.78 2.6,0.78 5.46,0.78 7.81,2.08 0.26,0 0.52,-0.26 1.04,-0.26 4.42,0.78 8.59,1.04 13.28,0.52 7.54,-1.04 12.75,-2.86 17.96,-5.98 2.6,-1.57 4.68,-2.87 6.51,-4.69 4.68,-4.42 8.59,-9.11 10.93,-15.36 1.56,-4.94 3.38,-13.53 2.6,-20.56 0,-1.04 -0.26,-2.61 -0.78,-3.65 -0.52,-0.78 -2.08,-1.04 -2.6,-2.08 -7.81,-0.78 -16.92,-1.82 -25.51,0 -2.09,5.21 -0.78,13.28 -3.91,17.7 -2.34,1.82 -4.94,3.39 -7.81,4.43 -5.2,1.56 -11.19,0 -15.36,-2.87 -2.34,-1.56 -3.9,-4.42 -4.42,-7.29 -2.86,-11.19 -0.26,-26.29 -0.78,-40.87 -0.26,-4.42 -0.26,-8.85 0.26,-12.23 0.78,-8.07 8.85,-10.41 14.58,-12.76 3.9,0.52 7.54,1.57 10.41,3.65 5.99,4.16 6.25,11.45 7.29,18.74 7.81,2.08 18.22,2.08 26.55,1.56 0.52,-0.78 1.04,-1.3 1.3,-2.34 -0.52,-0.26 -1.04,-0.52 -1.3,-0.52l0 0z"/>
   <path id="5" class="fil1" d="M2435.96 925.72c-1.04,0 -1.3,-0.26 -2.08,0 0,-0.52 -0.26,-1.04 -0.78,-1.04 -8.85,-2.34 -18.75,-1.3 -27.08,0 -0.78,5.47 -0.52,11.72 -0.52,17.96 0,4.69 -0.78,9.38 -0.78,14.58l0 15.62c-0.26,5.47 -1.3,11.45 -0.78,16.4 0.26,1.82 0,2.6 0,4.43 -0.26,5.46 0,11.19 0,16.14 -0.26,9.89 0.78,20.04 0.78,29.41 0,4.69 -0.78,9.11 -0.52,13.28 0.26,2.6 1.56,4.68 3.65,2.86 7.81,1.56 17.44,0.78 27.33,0 0.52,-0.52 0.52,-1.56 1.3,-2.08 0.26,-11.72 -0.52,-23.69 -0.52,-35.66 -0.26,-8.33 0.26,-16.14 0.78,-24.73 0.52,-7.03 0,-14.32 0.52,-21.61 0.52,-12.24 -0.26,-23.43 -1.3,-35.66 0.78,-2.61 -0.52,-6.77 0,-9.9zm0.26 -51.8c-10.41,-0.52 -20.04,-1.82 -29.67,-0.52 0.52,0.78 -0.27,0.78 -0.79,1.56 0,8.33 -0.26,17.44 -0.52,27.59 6.77,0.27 13.28,0.27 19.79,0.79 0.52,0 1.3,0.52 1.82,0.52l3.91 0c1.82,0 3.12,-0.26 4.42,0.26 0,-0.52 0.52,-0.52 0.78,-0.52 0.78,-2.87 1.3,-7.81 1.3,-11.98l-1.04 -17.7z"/>
   <path id="6" class="fil1" d="M2554.15 1050.94l0 -2.35c0,-3.12 -0.27,-6.24 -0.27,-9.37 0,-3.12 -0.51,-5.98 -0.51,-8.85 0,-9.37 -0.27,-18.48 0.25,-27.59 0.26,-9.89 0.53,-19.79 0,-29.68 -0.25,-9.89 -0.52,-19.78 -3.38,-29.15 -1.3,-1.31 -1.56,-3.39 -2.34,-4.69 -1.04,-1.56 -2.35,-2.6 -3.65,-3.91 -2.6,-2.34 -5.46,-4.16 -8.07,-6.5 -3.12,-1.57 -5.98,-3.13 -9.37,-3.91 -6.77,-1.82 -13.53,-4.16 -21.86,-3.64 -0.79,0.52 0,0.26 -1.05,0.26 -6.5,0 -11.45,1.3 -15.88,2.6l-3.12 1.04c-0.78,0.26 -1.3,1.04 -1.82,1.56l-2.08 0.52c-1.05,0.53 -2.09,1.57 -3.13,2.35 -1.3,1.04 -2.6,2.08 -3.38,3.38 -1.04,1.04 -3.39,2.61 -4.43,3.65 -6.77,7.55 -8.33,18.48 -8.33,32.02l1.82 1.56c5.47,0.26 10.16,0.26 16.14,0.78 3.91,0.52 8.6,1.3 11.72,0 0.26,-1.3 -0.78,-1.82 -0.78,-2.86 -1.04,-4.43 1.82,-9.12 3.38,-11.46 1.3,-2.08 2.87,-3.9 4.95,-4.94 1.04,-0.79 2.86,-1.57 4.16,-1.83 5.73,-1.56 10.16,0.26 14.06,3.13 6.51,1.3 7.29,13.01 5.99,19 -4.95,1.04 -10.15,3.12 -14.06,4.42 -5.99,2.35 -12.23,3.91 -17.7,6.25 -5.73,2.61 -10.67,5.73 -15.36,9.11 -1.56,1.05 -2.86,2.87 -4.95,2.87 -4.16,5.46 -8.07,11.71 -9.63,19.52 -0.26,1.56 -0.26,3.91 -0.26,5.99 0,1.82 -0.26,3.9 0,5.47l0.78 1.82 0 2.86c1.04,6.51 4.17,10.93 6.77,15.36 3.12,2.6 6.77,5.47 10.67,7.55 3.65,1.82 8.59,4.16 12.76,4.95 4.42,0.78 8.33,-0.26 12.49,-0.26 1.83,0 3.39,-0.27 4.95,-0.79 2.34,-0.78 4.69,-1.3 6.51,-2.08l2.08 -0.52c0.78,-0.26 1.56,-1.04 2.34,-1.3l2.61 -1.04c2.6,-1.3 4.42,-3.91 6.25,-5.47 1.04,3.13 2.34,6.25 3.9,8.85 5.47,-0.26 14.58,1.82 20.83,1.04 0.78,-2.08 0.26,-3.9 0,-5.72zm-32.8 -28.9c-5.21,5.99 -16.93,9.37 -24.74,3.91 -1.82,-1.05 -3.64,-4.17 -4.16,-6.77 -0.78,-4.43 1.82,-7.03 3.12,-10.68 7.29,-5.98 17.71,-8.07 27.08,-11.19l0.26 0c-0.26,8.85 1.3,17.96 -1.56,24.73z"/>
   <path id="7" class="fil1" d="M2674.41 963.73c0.26,15.62 1.05,31.76 0.78,45.3 -0.26,14.57 -0.78,29.67 0.27,46.33 1.82,1.82 4.68,1.3 7.54,1.56 5.99,0.78 11.2,0.52 16.4,-0.26 3.13,-0.26 5.99,0.26 8.33,-1.56 0.53,-10.93 0.53,-21.86 0,-33.06l-1.04 -10.93c-0.78,-12.24 0.52,-24.47 0.52,-35.67 0,-1.82 -0.26,-5.72 0,-8.59 0,-1.04 0.26,-1.82 0.52,-2.86 0,-2.34 -0.26,-4.95 -0.26,-7.81l0 -3.38c0,-1.31 0.26,-2.87 0,-4.17 0,-0.78 -0.52,-0.52 -0.78,-1.3 -0.78,-2.86 0,-6.77 0,-10.15 0,-10.16 0,-19.53 -0.26,-28.64 0,-12.49 0.52,-24.21 -0.52,-35.66 -2.34,-1.3 -5.72,-1.04 -9.11,-1.04 -8.07,0 -14.84,0.26 -21.09,1.04 -0.25,0.78 -0.25,1.56 -1.3,1.56 0.26,13.8 0,28.64 0,45.3 0.26,12.49 0,28.37 0,43.99z"/>
   <path id="8" class="fil1" d="M2831.39 1054.84c0.26,-2.86 -0.26,-7.29 -0.26,-10.93 0,-2.61 0,-5.21 -0.26,-7.77 0,-5.99 0.78,-11.97 0.52,-17.66l0 -9.11c0.52,-7.03 -0.52,-13.49 -0.78,-20.26 -0.27,-9.37 1.04,-18.96 0.52,-28.33 -0.26,-4.64 -1.57,-9.59 -3.13,-13.49 -1.56,-3.39 -2.34,-5.73 -4.16,-8.55l-2.87 -3.65c-1.3,-1.3 -3.9,-2.86 -3.64,-4.42 -2.34,-0.78 -4.43,-1.82 -6.25,-3.12l-1.56 0c-2.08,-1.57 -5.21,-1.83 -7.29,-3.39 -1.82,0.52 -3.12,-0.78 -4.95,-1.04 -2.6,-0.26 -5.72,-0.26 -8.59,-0.26 -10.15,0 -20.04,4.16 -25.25,10.93 -0.26,-0.78 0,-0.78 0,-1.82 -1.56,-1.56 -1.3,-6.51 -3.12,-7.55 -1.04,-0.52 -3.65,-0.52 -4.95,-0.52 -5.2,-0.26 -12.49,0.26 -17.44,0 0.26,0.78 -0.26,1.04 -0.78,1.56 0.52,1.3 -0.52,4.17 0.52,5.21 -1.04,2.34 -0.26,5.21 -0.52,7.81 -0.26,8.03 0.52,17.14 0.52,25.94 -0.26,7.81 0,15.32 0.26,22.09 0.52,5.2 -0.26,12.49 0.52,17.92 -0.26,3.64 -0.26,7.55 -0.26,11.19 0,4.12 -0.26,7.25 -0.26,10.89 0,8.85 0.78,18.18 0.78,28.07l2.61 1.56c7.02,-0.52 11.45,0.26 17.7,0 2.6,0 5.98,-0.52 9.11,-0.52 0.26,-0.78 1.3,-0.78 1.56,-1.3 0,-15.36 0,-29.63 -0.26,-44.95 0,-2.86 0,-6.24 -0.26,-9.11 -0.26,-3.34 0,-6.72 -0.26,-10.11 -0.52,-8.07 -1.3,-16.62 0.52,-23.64 0.52,-2.09 1.56,-4.69 2.08,-6.99 0.78,-1.56 1.83,-2.86 2.87,-4.16 3.64,-2.35 9.89,-4.43 15.1,-3.13 1.56,0.26 4.42,2.35 5.72,3.39 3.13,3.12 3.65,6.72 4.43,11.93 0.26,1.82 1.04,3.9 1.04,5.46 1.82,14.02 0.26,27.51 0.78,41.57 0.26,1.82 0.52,3.9 0.52,5.94 0,2.87 -0.52,6.25 -0.52,9.37l-0.52 10.37c-0.26,2.09 0,3.91 -0.78,5.47 0.26,1.82 0.52,4.43 0,6.51 1.3,0.78 1.3,2.08 1.82,3.12 1.56,1.04 3.12,0.52 4.95,0.52 8.33,-0.26 18.48,0.26 24.47,-1.04l0 0z"/>
   <path id="9" class="fil1" d="M2970.4 921.56c-12.24,0 -22.13,4.94 -30.2,14.06l0 -0.27c-2.34,-2.08 -5.21,-3.64 -6.77,-6.5 -0.78,-0.26 -1.56,-0.52 -2.08,-1.04 -6.25,-2.87 -12.24,-5.47 -19.53,-4.69 -2.08,-0.52 -4.42,0 -6.5,0.26 -6.77,1.04 -13.54,2.6 -18.23,5.99 -1.82,1.04 -2.86,2.34 -4.16,3.9 -0.78,-1.3 -0.78,-3.64 -1.82,-4.68 1.04,-0.26 0,-2.87 0.26,-4.17 -7.03,-1.3 -17.44,-1.82 -24.47,-0.78 -1.82,4.43 0,9.11 -1.3,13.28 1.82,4.16 0,7.81 -0.27,11.97 -0.51,6.51 1.31,13.8 1.57,20.83 0,3.9 0,7.29 0.26,10.93 -0.78,0.26 0.52,0 0.26,0.52 0,1.56 -0.52,4.95 0,6.77l0 18.22c-0.26,8.59 -0.78,16.14 0,24.73 0.52,3.39 1.3,6.51 1.3,9.89 -0.26,4.69 -0.78,9.38 -0.26,14.32 0.52,0.26 0.52,1.04 1.04,1.3 8.33,-0.78 20.04,0.78 28.9,0 1.3,-2.34 0.26,-5.46 0.26,-8.33 0.26,-4.94 0,-10.15 -0.26,-15.1 -0.52,-13.53 0.52,-27.07 0.26,-40.08 0.52,-2.87 0,-5.99 0.26,-9.12 0.52,-3.9 1.3,-7.8 1.04,-11.71 -0.26,-0.52 -0.52,-1.04 -0.52,-1.56 -0.26,-1.56 0.52,-3.39 0.78,-4.95 0.52,-4.16 1.56,-6.77 3.38,-9.11 3.65,-4.16 11.98,-5.99 17.44,-3.38 0.26,0 1.05,0 1.3,0.26 0.53,0.26 0.79,1.04 1.05,1.3l1.82 1.04 1.04 1.82c0.26,0.52 1.04,1.04 1.3,1.82 0,0.26 0,0.79 0.26,1.04 0.26,0.53 0.78,1.05 0.78,1.31 0.52,1.3 1.04,3.12 1.04,4.42 0.53,1.83 0.53,3.65 0.78,5.47 0.27,1.82 0.53,3.64 0.53,5.21 0.52,3.9 0.26,8.07 0.26,12.23 0,3.91 -0.26,7.81 -0.52,12.24 -0.27,3.9 -0.79,8.33 -0.79,12.75 0,3.91 0.52,7.55 0.79,11.2 0.26,3.64 -0.27,7.28 0,10.67 0,6.25 0.26,12.49 0.78,17.96 0.52,0.26 0.52,1.04 1.3,1.56 9.63,0.52 20.04,0 28.89,0 0.26,-5.2 0.52,-10.15 0.52,-15.36 -0.26,-4.68 -0.78,-10.15 -0.52,-14.83 0.26,-2.87 0.26,-5.73 0,-8.34 0,-5.72 0,-13.27 -0.26,-18.74 -0.26,-9.11 0.52,-21.87 -0.52,-30.98 0.52,-1.3 0.78,-3.12 0.78,-4.68 1.04,-1.04 1.57,-2.6 1.83,-3.65 1.82,-1.04 3.12,-2.86 5.2,-4.16 2.61,-1.56 4.69,-2.6 7.81,-2.6 2.87,0 4.43,-0.26 7.03,1.04 2.34,0.78 4.16,2.34 5.47,3.9 2.08,2.08 2.34,3.13 3.12,5.99 0.26,1.04 1.04,2.34 1.04,3.38 0.78,3.39 0.52,7.55 0.52,11.46l0 18.74c0,2.86 -0.26,5.73 -0.52,8.85 0,3.12 0.26,6.25 0.52,9.37 0.26,6.77 -0.78,13.54 -0.78,19.79 0,5.72 0,11.71 0.26,16.92 0,1.04 -0.26,1.82 0,2.6 0.78,0.26 1.56,0.52 2.08,1.04 8.59,0.52 16.93,-0.26 25.26,-0.52 0.78,0.26 0.78,1.04 1.82,1.04 1.56,-1.3 1.04,-3.38 1.04,-4.68l-0.52 -17.7c-0.26,-11.72 1.3,-27.08 1.04,-39.57 -0.26,-6.51 0.26,-13.54 0.26,-20.57 0,-6.51 -1.04,-12.76 -1.56,-18.48 0,-2.34 -0.26,-4.69 -0.78,-7.03 -0.52,-2.08 -1.3,-2.34 -2.09,-3.9l-0.78 -1.83c-2.6,-4.42 -5.72,-8.85 -9.63,-12.23 -1.3,0 -1.82,-0.78 -2.86,-1.04 -1.04,-1.04 -2.61,-1.57 -4.17,-2.61 -2.6,-1.56 -5.72,-2.34 -9.37,-3.64 -3.9,-0.26 -8.33,-0.78 -12.49,-0.78zm-30.46 14.58c0,0 0.26,-0.26 0.26,-0.52 0,0.26 -0.26,0.26 -0.26,0.52z"/>
   <path id="10" class="fil1" d="M3128.93 1006.42c-0.52,-2.34 0,-6.25 0,-9.37l0 -17.44c0,-6.77 -0.26,-12.24 -1.04,-17.96 -0.78,-4.69 -1.04,-9.37 -2.6,-13.28 -1.83,-3.64 -3.65,-7.29 -5.99,-10.67l-6.25 -5.73c-0.26,0 -0.52,-0.26 -0.78,-0.26 -1.56,0.26 -2.34,-0.52 -3.38,-1.04 -9.9,-4.43 -23.17,-8.07 -36.71,-7.55 -6.25,0.52 -11.97,2.86 -16.4,5.73 -4.95,2.6 -7.81,7.03 -11.71,10.67 -0.78,2.08 -2.35,3.9 -3.39,5.99 -2.08,3.9 -3.38,7.55 -4.16,12.23l-1.3 7.03c-0.26,4.43 0.26,6.51 0.78,10.15 1.04,10.16 0,21.87 0.26,31.76 0.26,8.59 0.26,17.18 3.12,24.21 1.3,3.65 2.86,6.77 5.21,9.11l2.08 2.87c1.3,1.3 3.12,2.34 4.69,3.38 4.94,3.65 10.67,5.99 16.66,7.81 0.78,0 0.78,-0.52 1.56,-0.26 10.67,3.64 21.34,2.86 30.72,-0.52 2.08,-0.52 4.16,-1.04 5.72,-1.82 2.61,-1.04 4.95,-2.61 6.77,-3.91 3.12,-2.08 5.21,-4.68 8.07,-7.81 1.82,-2.08 4.69,-4.94 5.47,-7.55 0.78,-2.08 1.3,-4.42 1.82,-6.76 0.78,-4.17 1.04,-8.6 0.78,-12.76 0,-1.3 -0.52,-3.38 0,-4.95 0,-0.26 0,-0.26 0.26,-0.26l-0.26 -0.26c-0.26,0 0,-0.52 0,-0.78zm-29.94 4.95c-0.26,3.12 -0.78,5.73 -1.56,8.07 -1.82,1.56 -3.9,2.86 -5.46,4.94 -2.09,1.05 -3.65,1.57 -5.73,2.35 -0.52,0.26 -1.04,0.52 -1.56,0.52 -3.13,0.52 -8.07,-1.04 -10.42,-2.61 -1.3,-1.04 -2.86,-2.86 -3.9,-4.68 -1.3,-1.82 -2.34,-3.65 -2.86,-5.47 -0.53,-1.3 -0.79,-2.86 -0.79,-4.68 -0.26,-0.78 -0.26,-1.57 -0.26,-2.35l0 -20.04c0,-6.77 -0.26,-15.1 0.26,-21.61 0.26,-2.6 0.53,-5.47 1.57,-7.03 0.78,-1.3 2.34,-2.86 3.9,-4.16 1.3,-1.3 3.39,-2.08 4.43,-2.86 2.34,-0.53 5.46,-0.27 8.07,-0.79 1.04,0 1.56,0.79 2.86,0.52 4.69,2.09 8.07,4.95 9.37,10.42 0.52,1.56 0.52,4.16 0.78,5.72 0.26,0.53 0,1.31 0,2.09 0,1.04 0.26,1.82 0.52,2.86 0.26,4.17 -0.26,9.11 0,14.06 0.52,8.33 1.31,15.62 0.78,24.73z"/>
   <path id="11" class="fil1" d="M3247.12 1014.49c-0.26,-15.88 -0.53,-34.36 -0.26,-50.5 0,-2.86 0,-5.73 -0.27,-8.33 -0.26,-3.64 -1.56,-7.81 -2.86,-10.41 -1.56,-2.87 -2.86,-4.95 -4.68,-7.55 -2.87,-3.91 -7.03,-7.81 -11.46,-9.89 -1.3,-1.83 -4.42,-1.57 -5.99,-3.13 -3.38,-0.52 -7.81,-2.08 -12.23,-1.82 -0.52,0 -1.04,0.26 -1.56,0.26 -0.52,0 -1.3,-0.26 -1.82,-0.26 -0.27,0 -1.05,0.26 -1.57,0.26 -1.56,0.52 -1.82,0.52 -2.86,0.26 -6.25,1.3 -11.98,3.64 -17.18,5.99 0.78,-5.99 0.52,-12.24 0.52,-17.7l0 -6.77c0,-3.13 -0.52,-6.51 -0.52,-9.37 0,-0.78 0.52,-1.31 0.52,-2.09 0.26,-1.82 0.26,-4.16 0,-6.24 0,-4.95 0,-9.12 -0.78,-14.06 -0.78,-0.52 -1.56,0.26 -2.34,0 -0.53,0 -0.53,-0.52 -1.31,-0.52 -1.04,-0.26 -2.6,0 -3.9,0 -1.56,0 -3.13,-0.52 -4.69,-0.78 -4.42,-0.26 -9.37,0.26 -13.53,0 -1.05,-0.26 -2.09,-0.78 -3.13,-0.52 -0.78,0.26 -1.3,1.82 -2.08,2.6 0.52,0 0,0.52 0,0.52 0,0.78 0.26,1.3 0.26,2.08 0.52,5.99 0,10.16 -0.78,17.18 0,0.78 0.78,0.52 0.78,1.31 -0.52,3.64 -0.26,8.07 -0.26,11.97 -0.26,9.89 -0.26,19.26 0.78,28.37 -0.52,9.38 -0.78,19.53 -0.78,27.86 -0.26,2.08 0.26,4.16 0.26,5.99 0,1.04 -0.26,1.82 -0.26,2.6 0.26,4.42 0.78,9.11 0.78,13.54l-0.52 7.81c0,3.12 0.52,6.76 0.52,10.15 -0.26,3.12 -0.78,6.25 0,9.37 -0.52,3.38 -0.78,6.25 -0.52,9.63 -0.78,1.3 -0.52,3.65 0,5.21 -0.26,8.33 -1.04,17.18 0.26,23.95 0,0.52 -0.26,1.04 -0.26,1.82l2.08 1.82c7.03,0.52 14.32,0.52 21.35,0.52 0.26,-0.52 0.78,-1.3 1.56,-1.56 0.52,-1.56 1.04,-5.47 1.56,-8.07 6.77,8.07 19.79,11.19 32.02,11.19 2.61,-1.04 5.73,-1.04 8.59,-1.56 1.3,-0.26 2.87,-0.78 3.91,-1.3 1.3,-0.78 2.34,-2.08 3.64,-2.86 2.08,-0.78 3.65,-1.56 5.47,-3.39 1.04,-1.04 2.86,-2.86 3.38,-4.16 0.78,-1.04 0.78,-2.35 1.56,-3.13 0.27,-0.26 1.05,-0.26 1.31,-0.52 0.26,-0.52 0.52,-1.56 1.04,-2.08 1.04,-1.56 1.82,-3.12 2.6,-4.69 0.78,-2.08 2.08,-4.68 2.86,-7.02 0.79,-3.13 0.79,-8.85 0.79,-11.98zm-31.24 -27.85c-0.26,1.04 -1.04,1.82 -1.04,3.12 -0.26,2.6 0.26,5.73 0.26,8.59 0,3.65 0,7.03 0.26,10.41 0.26,1.83 -0.26,4.43 -0.78,6.77 -0.53,2.09 -0.79,4.69 -1.31,5.99 -0.78,2.08 -2.86,4.17 -4.68,4.95 -1.3,0.78 -4.17,1.56 -5.73,1.82 -4.16,0.52 -7.55,-2.34 -12.49,-2.6 -2.35,-2.87 -5.21,-6.25 -5.73,-10.68 -0.26,-1.56 -0.52,-3.64 -0.52,-5.46 -0.26,-3.65 0.26,-6.77 0.52,-9.9 0,-9.37 0,-20.82 0.26,-29.67 0.26,-2.35 -0.52,-5.21 0.52,-6.51 0,0 0.52,0 0.52,-0.52 0.52,-0.78 0.52,-1.56 0.78,-2.08 0.78,-1.31 2.6,-3.13 3.91,-4.43 2.6,-2.86 4.42,-4.16 8.85,-4.16 3.64,-0.26 7.55,1.3 10.93,2.86l3.64 3.9c1.31,5.73 1.57,13.54 1.57,20.31 0.26,2.6 0.52,5.47 0.26,7.29z"/>
   <path id="12" class="fil1" d="M3302.82 925.72c-1.04,0 -1.3,-0.26 -2.08,0 0,-0.52 -0.26,-1.04 -0.78,-1.04 -8.85,-2.34 -18.74,-1.3 -27.07,0 -0.78,5.47 -0.52,11.72 -0.52,17.96 0,4.69 -0.78,9.38 -0.78,14.58l0 15.62c-0.27,5.47 -1.31,11.45 -0.79,16.4 0.27,1.82 0,2.6 0,4.43 -0.26,5.46 0,11.19 0,16.14 -0.26,9.89 0.79,20.04 0.79,29.41 0,4.69 -0.79,9.11 -0.52,13.28 0.25,2.6 1.56,4.68 3.64,2.86 7.81,1.56 17.44,0.78 27.33,0 0.52,-0.52 0.52,-1.56 1.3,-2.08 0.26,-11.72 -0.52,-23.69 -0.52,-35.66 -0.26,-8.33 0.26,-16.14 0.78,-24.73 0.53,-7.03 0,-14.32 0.53,-21.61 0.52,-12.24 -0.26,-23.43 -1.31,-35.66 0.78,-2.61 -0.52,-6.77 0,-9.9zm0.26 -51.8c-10.41,-0.52 -20.04,-1.82 -29.67,-0.52 0.52,0.78 -0.26,0.78 -0.78,1.56 0,8.33 -0.26,17.44 -0.52,27.59 6.76,0.27 13.27,0.27 19.78,0.79 0.52,0 1.3,0.52 1.82,0.52l3.91 0c1.82,0 3.12,-0.26 4.42,0.26 0,-0.52 0.52,-0.52 0.78,-0.52 0.78,-2.87 1.31,-7.81 1.31,-11.98l-1.05 -17.7z"/>
   <path id="13" class="fil1" d="M3363.74 873.14c-0.52,-0.52 -1.56,-0.26 -1.3,-1.04 -9.38,-1.3 -21.09,0 -29.68,-0.78 0,0.78 -0.26,1.82 -1.04,1.82 0.78,2.6 0.26,4.94 0,7.29l0 9.11c0,1.3 0.26,2.6 0.26,3.9 0,3.65 -0.78,7.55 -0.52,11.2 0,9.37 -0.52,18.22 0,27.33 0,2.08 -0.52,4.17 -0.52,6.51l0 19.26c-0.26,6.25 -0.52,12.76 -0.52,19.53l1.04 34.88c0.26,6.77 0,14.58 0,20.56 -0.26,5.73 -0.26,9.9 0,15.88 -1.04,2.35 -0.26,5.73 0.26,7.29 1.3,0.26 2.08,-0.26 3.64,-0.52 4.43,-0.52 9.63,0 14.32,0.52 4.43,0.26 8.85,0.52 12.24,0 0.78,-1.56 -0.52,-1.82 -0.79,-3.12 -0.52,-2.34 -0.26,-5.73 -0.26,-9.11l0.53 -29.16c0.52,-14.58 -0.53,-29.15 0,-42.69 0.26,-8.33 0,-16.4 0.26,-24.73 0,-8.33 0.52,-16.92 0.78,-24.99 0.52,-8.07 0.26,-16.14 0.52,-24.21 0.26,-8.07 -0.52,-16.66 0.78,-24.73z"/>
   <path id="14" class="fil1" d="M3422.05 925.72c-1.04,0 -1.3,-0.26 -2.08,0 0,-0.52 -0.26,-1.04 -0.78,-1.04 -8.85,-2.34 -18.75,-1.3 -27.08,0 -0.78,5.47 -0.52,11.72 -0.52,17.96 0,4.69 -0.78,9.38 -0.78,14.58l0 15.62c-0.26,5.47 -1.3,11.45 -0.78,16.4 0.26,1.82 0,2.6 0,4.43 -0.26,5.46 0,11.19 0,16.14 -0.26,9.89 0.78,20.04 0.78,29.41 0,4.69 -0.78,9.11 -0.52,13.28 0.26,2.6 1.56,4.68 3.65,2.86 7.8,1.56 17.44,0.78 27.33,0 0.52,-0.52 0.52,-1.56 1.3,-2.08 0.26,-11.72 -0.52,-23.69 -0.52,-35.66 -0.26,-8.33 0.26,-16.14 0.78,-24.73 0.52,-7.03 0,-14.32 0.52,-21.61 0.52,-12.24 -0.26,-23.43 -1.3,-35.66 0.78,-2.61 -0.52,-6.77 0,-9.9zm0.26 -51.8c-10.41,-0.52 -20.04,-1.82 -29.68,-0.52 0.52,0.78 -0.26,0.78 -0.78,1.56 0,8.33 -0.26,17.44 -0.52,27.59 6.77,0.27 13.28,0.27 19.79,0.79 0.52,0 1.3,0.52 1.82,0.52l3.9 0c1.83,0 3.13,-0.26 4.43,0.26 0,-0.52 0.52,-0.52 0.78,-0.52 0.78,-2.87 1.3,-7.81 1.3,-11.98l-1.04 -17.7z"/>
   <path id="15" class="fil1" d="M3540.23 1050.94l0 -2.35c0,-3.12 -0.26,-6.24 -0.26,-9.37 0,-3.12 -0.52,-5.98 -0.52,-8.85 0,-9.37 -0.26,-18.48 0.26,-27.59 0.26,-9.89 0.52,-19.79 0,-29.68 -0.26,-9.89 -0.52,-19.78 -3.38,-29.15 -1.3,-1.31 -1.56,-3.39 -2.34,-4.69 -1.04,-1.56 -2.35,-2.6 -3.65,-3.91 -2.6,-2.34 -5.46,-4.16 -8.07,-6.5 -3.12,-1.57 -5.99,-3.13 -9.37,-3.91 -6.77,-1.82 -13.54,-4.16 -21.87,-3.64 -0.78,0.52 0,0.26 -1.04,0.26 -6.51,0 -11.45,1.3 -15.88,2.6l-3.12 1.04c-0.78,0.26 -1.3,1.04 -1.82,1.56l-2.09 0.52c-1.04,0.53 -2.08,1.57 -3.12,2.35 -1.3,1.04 -2.6,2.08 -3.38,3.38 -1.04,1.04 -3.39,2.61 -4.43,3.65 -6.77,7.55 -8.33,18.48 -8.33,32.02l1.82 1.56c5.47,0.26 10.16,0.26 16.14,0.78 3.91,0.52 8.59,1.3 11.72,0 0.26,-1.3 -0.78,-1.82 -0.78,-2.86 -1.04,-4.43 1.82,-9.12 3.38,-11.46 1.3,-2.08 2.86,-3.9 4.95,-4.94 1.04,-0.79 2.86,-1.57 4.16,-1.83 5.73,-1.56 10.15,0.26 14.06,3.13 6.51,1.3 7.29,13.01 5.99,19 -4.95,1.04 -10.16,3.12 -14.06,4.42 -5.99,2.35 -12.24,3.91 -17.7,6.25 -5.73,2.61 -10.68,5.73 -15.36,9.11 -1.56,1.05 -2.87,2.87 -4.95,2.87 -4.16,5.46 -8.07,11.71 -9.63,19.52 -0.26,1.56 -0.26,3.91 -0.26,5.99 0,1.82 -0.26,3.9 0,5.47l0.78 1.82 0 2.86c1.04,6.51 4.17,10.93 6.77,15.36 3.12,2.6 6.77,5.47 10.67,7.55 3.65,1.82 8.59,4.16 12.76,4.95 4.42,0.78 8.33,-0.26 12.49,-0.26 1.83,0 3.39,-0.27 4.95,-0.79 2.34,-0.78 4.69,-1.3 6.51,-2.08l2.08 -0.52c0.78,-0.26 1.56,-1.04 2.34,-1.3l2.61 -1.04c2.6,-1.3 4.42,-3.91 6.24,-5.47 1.05,3.13 2.35,6.25 3.91,8.85 5.47,-0.26 14.58,1.82 20.82,1.04 0.79,-2.08 0.26,-3.9 0,-5.72zm-32.8 -28.9c-5.2,5.99 -16.92,9.37 -24.73,3.91 -1.82,-1.05 -3.64,-4.17 -4.16,-6.77 -0.78,-4.43 1.82,-7.03 3.12,-10.68 7.29,-5.98 17.7,-8.07 27.08,-11.19l0.26 0c-0.26,8.85 1.3,17.96 -1.57,24.73z"/>
   <path id="16" class="fil1" d="M3642.8 926.24c-1.04,-0.26 -1.56,-1.04 -2.08,-1.56 -1.82,-0.26 -3.13,-2.08 -5.21,-1.56 -0.52,-0.26 0.52,-0.52 -0.26,-0.52 -7.55,-1.56 -13.8,-0.52 -21.61,0 -0.52,0.52 -1.3,0.78 -2.08,0.52 -8.07,3.12 -14.58,8.07 -19.26,13.8 -0.52,-4.69 -1.56,-8.85 -2.08,-12.5 -0.52,0.26 -0.79,0 -0.52,-0.52 -1.57,0.26 -3.39,-0.52 -4.69,-0.26 -0.78,0 -1.56,0.26 -2.6,0.26 -1.56,0.26 -3.39,-0.26 -5.21,-0.26 -3.12,0 -9.37,0.26 -10.15,3.12 -0.26,0.79 0,1.83 0.26,2.61 0,5.72 0,11.19 -0.26,17.44 0.52,13.53 0.26,28.11 0.52,42.69 0.26,4.95 0.52,9.63 0.52,14.58 -0.26,7.29 0,14.06 -0.26,20.82 -0.26,4.69 0,10.16 -0.26,14.84 -0.52,5.47 0.26,10.42 0.78,15.36 2.6,-0.26 4.68,0.78 7.29,0.78 5.21,0.52 11.45,0.26 16.14,0 2.34,-0.26 4.16,-1.04 5.99,0 1.04,-1.04 0.52,-2.08 0.52,-3.38 0,-2.34 0.26,-4.69 0.26,-6.77 -0.26,-3.38 -0.78,-6.77 -0.78,-9.89 0,-12.24 0.26,-27.86 -0.27,-41.65 -0.52,-12.5 -0.26,-23.43 3.65,-31.76l1.3 -2.87c2.6,-3.38 8.07,-6.5 12.5,-7.28 6.5,-1.05 14.57,0.78 20.56,0 0.52,-0.79 -0.52,-1.31 -0.26,-2.09 3.12,-7.03 4.69,-15.88 7.55,-23.95z"/>
   <path id="17" class="fil1" d="M3694.6 925.72c-1.04,0 -1.3,-0.26 -2.08,0 0,-0.52 -0.26,-1.04 -0.78,-1.04 -8.85,-2.34 -18.74,-1.3 -27.07,0 -0.78,5.47 -0.52,11.72 -0.52,17.96 0,4.69 -0.78,9.38 -0.78,14.58l0 15.62c-0.26,5.47 -1.31,11.45 -0.79,16.4 0.27,1.82 0,2.6 0,4.43 -0.26,5.46 0,11.19 0,16.14 -0.26,9.89 0.79,20.04 0.79,29.41 0,4.69 -0.79,9.11 -0.52,13.28 0.26,2.6 1.56,4.68 3.64,2.86 7.81,1.56 17.44,0.78 27.33,0 0.52,-0.52 0.52,-1.56 1.31,-2.08 0.25,-11.72 -0.53,-23.69 -0.53,-35.66 -0.26,-8.33 0.26,-16.14 0.78,-24.73 0.53,-7.03 0,-14.32 0.53,-21.61 0.52,-12.24 -0.26,-23.43 -1.31,-35.66 0.78,-2.61 -0.52,-6.77 0,-9.9zm0.26 -51.8c-10.41,-0.52 -20.04,-1.82 -29.67,-0.52 0.52,0.78 -0.26,0.78 -0.78,1.56 0,8.33 -0.26,17.44 -0.52,27.59 6.76,0.27 13.27,0.27 19.78,0.79 0.52,0 1.3,0.52 1.82,0.52l3.91 0c1.82,0 3.12,-0.26 4.42,0.26 0,-0.52 0.52,-0.52 0.78,-0.52 0.78,-2.87 1.31,-7.81 1.31,-11.98l-1.05 -17.7z"/>
   <path id="18" class="fil1" d="M3812.79 1050.94l0 -2.35c0,-3.12 -0.26,-6.24 -0.26,-9.37 0,-3.12 -0.52,-5.98 -0.52,-8.85 0,-9.37 -0.26,-18.48 0.26,-27.59 0.26,-9.89 0.52,-19.79 0,-29.68 -0.26,-9.89 -0.52,-19.78 -3.39,-29.15 -1.3,-1.31 -1.56,-3.39 -2.34,-4.69 -1.04,-1.56 -2.34,-2.6 -3.64,-3.91 -2.61,-2.34 -5.47,-4.16 -8.07,-6.5 -3.13,-1.57 -5.99,-3.13 -9.37,-3.91 -6.77,-1.82 -13.54,-4.16 -21.87,-3.64 -0.78,0.52 0,0.26 -1.04,0.26 -6.51,0 -11.46,1.3 -15.88,2.6l-3.13 1.04c-0.78,0.26 -1.3,1.04 -1.82,1.56l-2.08 0.52c-1.04,0.53 -2.08,1.57 -3.12,2.35 -1.31,1.04 -2.61,2.08 -3.39,3.38 -1.04,1.04 -3.38,2.61 -4.43,3.65 -6.76,7.55 -8.32,18.48 -8.32,32.02l1.82 1.56c5.46,0.26 10.15,0.26 16.14,0.78 3.9,0.52 8.59,1.3 11.71,0 0.26,-1.3 -0.78,-1.82 -0.78,-2.86 -1.04,-4.43 1.82,-9.12 3.38,-11.46 1.31,-2.08 2.87,-3.9 4.95,-4.94 1.04,-0.79 2.86,-1.57 4.17,-1.83 5.72,-1.56 10.15,0.26 14.05,3.13 6.51,1.3 7.29,13.01 5.99,19 -4.95,1.04 -10.15,3.12 -14.06,4.42 -5.98,2.35 -12.23,3.91 -17.7,6.25 -5.72,2.61 -10.67,5.73 -15.36,9.11 -1.56,1.05 -2.86,2.87 -4.94,2.87 -4.17,5.46 -8.07,11.71 -9.63,19.52 -0.27,1.56 -0.27,3.91 -0.27,5.99 0,1.82 -0.26,3.9 0,5.47l0.79 1.82 0 2.86c1.04,6.51 4.16,10.93 6.76,15.36 3.13,2.6 6.77,5.47 10.68,7.55 3.64,1.82 8.59,4.16 12.75,4.95 4.43,0.78 8.33,-0.26 12.5,-0.26 1.82,0 3.38,-0.27 4.94,-0.79 2.35,-0.78 4.69,-1.3 6.51,-2.08l2.08 -0.52c0.79,-0.26 1.57,-1.04 2.35,-1.3l2.6 -1.04c2.6,-1.3 4.43,-3.91 6.25,-5.47 1.04,3.13 2.34,6.25 3.9,8.85 5.47,-0.26 14.58,1.82 20.83,1.04 0.78,-2.08 0.26,-3.9 0,-5.72zm-32.8 -28.9c-5.21,5.99 -16.92,9.37 -24.73,3.91 -1.82,-1.05 -3.65,-4.17 -4.17,-6.77 -0.78,-4.43 1.82,-7.03 3.13,-10.68 7.29,-5.98 17.7,-8.07 27.07,-11.19l0.26 0c-0.26,8.85 1.3,17.96 -1.56,24.73z"/>
  </g>
 </g>
</svg>
