<?xml version="1.0" encoding="UTF-8"?>
<svg width="123px" height="38px" viewBox="0 0 123 38" version="1.1" xmlns="http://www.w3.org/2000/svg" xmlns:xlink="http://www.w3.org/1999/xlink">
    <!-- Generator: Sketch 55.1 (78136) - https://sketchapp.com -->
    <title>Logo CC Mid A</title>
    <desc>Created with Sketch.</desc>
    <defs>
        <polygon id="path-1" points="0 37.6627852 122.608379 37.6627852 122.608379 9.38271605e-05 0 9.38271605e-05"></polygon>
    </defs>
    <g id="Symbols" stroke="none" stroke-width="1" fill="none" fill-rule="evenodd">
        <g id="Menu-Bar-A" transform="translate(-135.000000, -16.000000)">
            <g id="Menu-Bar" transform="translate(0.000000, 5.000000)">
                <g id="Logo-CC-Mid-A" transform="translate(135.000000, 11.000000)">
                    <g id="Group-28">
                        <path d="M74.6609057,9.87244691 C77.4752966,9.87244691 79.0936184,8.25158272 79.0936184,5.90308889 L79.0936184,0.789977778 L76.8687793,0.789977778 L76.8687793,5.85382963 C76.8687793,7.24622469 76.0082506,7.97995309 74.6609057,7.97995309 C73.3178023,7.97995309 72.4516184,7.26639753 72.4516184,5.85382963 L72.4516184,0.789977778 L70.224423,0.789977778 L70.224423,5.90308889 C70.224423,8.24313827 71.8205954,9.87244691 74.6609057,9.87244691" id="Fill-1" fill="#000000"></path>
                        <mask id="mask-2" fill="white">
                            <use xlink:href="#path-1"></use>
                        </mask>
                        <g id="Clip-4"></g>
                        <polygon id="Fill-3" fill="#000000" mask="url(#mask-2)" points="66.3959655 9.60283457 68.6137356 9.60283457 68.6137356 0.777451852 66.3959655 0.777451852"></polygon>
                        <path d="M82.9075609,2.56875309 L84.7172161,2.56875309 C86.166354,2.56875309 87.3402736,3.73783951 87.3402736,5.17996296 C87.3402736,6.62255556 86.166354,7.79164198 84.7172161,7.79164198 L82.9075609,7.79164198 L82.9075609,2.56875309 Z M89.569354,5.15838272 C89.569354,2.61941975 87.8709172,0.790259259 84.5141011,0.790259259 L80.6982736,0.790259259 L80.6982736,9.60203704 L84.1681931,9.60203704 C87.8068253,9.60203704 89.569354,7.66638272 89.569354,5.15838272 L89.569354,5.15838272 Z" id="Fill-5" fill="#000000" mask="url(#mask-2)"></path>
                        <path d="M60.7029034,9.86742716 C62.5978575,9.86742716 63.7199379,9.24769877 64.7298575,8.25453827 L63.3556506,6.97755062 C62.5832483,7.62214321 61.8961448,8.03592099 60.7740644,8.03592099 C59.0897655,8.03592099 57.9233862,6.74626667 57.9233862,5.19858765 L57.9233862,5.17278519 C57.9233862,3.62510617 59.1166276,2.36125432 60.7740644,2.36125432 C61.7542943,2.36125432 62.5266966,2.74735309 63.2859034,3.37974815 L64.6615241,1.92167407 C63.7472713,1.09693333 62.6388575,0.529748148 60.7882023,0.529748148 C57.7711678,0.529748148 55.6632023,2.63194568 55.6632023,5.19858765 L55.6632023,5.22439012 C55.6632023,7.81542716 57.8112253,9.86742716 60.7029034,9.86742716" id="Fill-6" fill="#000000" mask="url(#mask-2)"></path>
                        <path d="M105.056986,7.79154815 L103.247331,7.79154815 L103.247331,2.56865926 L105.056986,2.56865926 C106.506124,2.56865926 107.679572,3.73774568 107.679572,5.18033827 C107.679572,6.62246173 106.506124,7.79154815 105.056986,7.79154815 M109.909595,5.15828889 C109.909595,2.61979506 108.210687,0.790165432 104.853871,0.790165432 L101.037572,0.790165432 L101.037572,9.60241235 L104.507963,9.60241235 C108.146595,9.60241235 109.909595,7.66628889 109.909595,5.15828889" id="Fill-7" fill="#000000" mask="url(#mask-2)"></path>
                        <path d="M93.7259057,5.98650123 L95.0110437,2.55242716 L96.2858138,5.98462469 C95.4347103,5.88845185 94.5770092,5.88939012 93.7259057,5.98650123 L93.7259057,5.98650123 Z M97.6289172,9.60213086 L99.9126644,9.60213086 L96.603446,0.789414815 L93.4996989,0.789414815 L90.152308,9.60213086 L92.3738483,9.60213086 L93.0157103,7.88697037 C94.3248828,7.60548889 95.6788253,7.60361235 96.9898828,7.88134074 L97.6289172,9.60213086 Z" id="Fill-8" fill="#000000" mask="url(#mask-2)"></path>
                        <path d="M97.3722195,18.2216099 L97.3722195,15.6770173 L99.7356103,15.6770173 C100.597082,15.6770173 101.241771,16.059363 101.241771,16.9141284 C101.241771,17.8463012 100.532047,18.2216099 99.6003575,18.2216099 L97.3722195,18.2216099 Z M103.538243,16.771042 C103.538243,15.1999062 102.372806,14.0059556 100.459001,14.0059556 L95.1544494,14.0059556 L95.1544494,22.8182025 L97.3722195,22.8182025 L97.3722195,19.0078815 L100.919898,22.8182025 L103.68622,22.8182025 L100.352495,19.4629432 C102.574036,19.4629432 103.538243,18.3492148 103.538243,16.771042 L103.538243,16.771042 Z" id="Fill-9" fill="#000000" mask="url(#mask-2)"></path>
                        <polygon id="Fill-10" fill="#000000" mask="url(#mask-2)" points="117.635692 21.0616173 117.635692 14.0114444 115.417922 14.0114444 115.417922 22.8246296 122.608474 22.8246296 122.608474 21.0616173"></polygon>
                        <polygon id="Fill-11" fill="#000000" mask="url(#mask-2)" points="73.7671529 21.0112321 68.613877 21.0112321 68.613877 19.2988864 72.6059575 19.2988864 72.6059575 17.5372815 68.613877 17.5372815 68.613877 15.8127383 73.7671529 15.8127383 73.7671529 14.0056272 66.3961069 14.0056272 66.3961069 22.8183432 73.7671529 22.8183432"></polygon>
                        <polygon id="Fill-12" fill="#000000" mask="url(#mask-2)" points="88.6280977 22.8245358 90.8317299 22.8245358 90.8317299 15.774363 93.4147299 15.774363 93.4147299 14.0122889 86.0436839 14.0122889 86.0436839 15.774363 88.6280977 15.774363"></polygon>
                        <polygon id="Fill-13" fill="#000000" mask="url(#mask-2)" points="82.1638586 21.060679 82.1016517 21.0114198 78.7759391 14.0119136 75.3880195 14.0058148 75.3880195 22.8307284 77.6057897 22.8307284 77.6057897 15.8119877 80.9937092 22.8307284 84.3816287 22.8307284 84.3816287 14.0058148 82.1638586 14.0058148"></polygon>
                        <path d="M60.7029034,23.0884247 C62.5978575,23.0884247 63.7199379,22.4691654 64.7298575,21.4755358 L63.3556506,20.1985481 C62.5832483,20.8436099 61.8961448,21.2569185 60.7740644,21.2569185 C59.0897655,21.2569185 57.9233862,19.9677333 57.9233862,18.4195852 L57.9233862,18.394721 C57.9233862,16.8461037 59.1166276,15.5822519 60.7740644,15.5822519 C61.7542943,15.5822519 62.5266966,15.9688198 63.2859034,16.6007457 L64.6615241,15.1426716 C63.7472713,14.3184 62.6388575,13.7512148 60.7882023,13.7512148 C57.7711678,13.7512148 55.6632023,15.8534123 55.6632023,18.4195852 L55.6632023,18.4453877 C55.6632023,21.0368938 57.8112253,23.0884247 60.7029034,23.0884247" id="Fill-14" fill="#000000" mask="url(#mask-2)"></path>
                        <path d="M108.122938,19.2020099 L109.408547,15.7679358 L110.681903,19.2001333 C109.830329,19.1039605 108.973099,19.1048988 108.122938,19.2020099 L108.122938,19.2020099 Z M107.89626,14.0058617 L104.547926,22.8181086 L106.77088,22.8181086 L107.411329,21.1029481 C108.722386,20.8205284 110.076329,20.8186519 111.385501,21.0963802 L112.025007,22.8181086 L114.309697,22.8181086 L111.000478,14.0058617 L107.89626,14.0058617 Z" id="Fill-15" fill="#000000" mask="url(#mask-2)"></path>
                        <polygon id="Fill-16" fill="#000000" mask="url(#mask-2)" points="62.9216161 29.0167531 62.9216161 37.0075432 62.3136851 37.0075432 62.3136851 29.9071728 59.3442483 34.8157407 59.2400989 34.8157407 56.2711333 29.9071728 56.2711333 37.0075432 55.6632023 37.0075432 55.6632023 29.0167531 56.4285356 29.0167531 59.2924092 33.7512716 62.156754 29.0167531"></polygon>
                        <path d="M68.4295184,29.0470123 L67.3889667,30.4985185 L66.8314609,30.5013333 L67.7494839,29.0517037 L68.4295184,29.0470123 Z M67.3818977,31.7224938 C66.7320241,31.7224938 66.1895989,31.9242222 65.7536793,32.3272099 C65.3177598,32.7306667 65.0694034,33.2518765 65.0081391,33.8913086 L69.6175759,33.8913086 C69.557254,33.2143457 69.3140816,32.6837531 68.8904149,32.2990617 C68.4653345,31.9148395 67.9624954,31.7224938 67.3818977,31.7224938 L67.3818977,31.7224938 Z M67.3818977,31.1745432 C68.2231046,31.1745432 68.9050241,31.4715062 69.4285989,32.0654321 C69.9521736,32.6588889 70.2141966,33.3625926 70.2141966,34.1765432 C70.2141966,34.2075062 70.2123115,34.2534815 70.2085414,34.314 C70.2052425,34.3740494 70.2024149,34.4200247 70.2024149,34.4505185 L65.0081391,34.4505185 C65.0769437,35.0899506 65.3356678,35.6055309 65.7824264,35.9967901 C66.2291851,36.3889877 66.7815069,36.5850864 67.439392,36.5850864 C67.8979322,36.5850864 68.2994494,36.4898519 68.6430011,36.300321 C68.9874954,36.1098519 69.2471621,35.8588642 69.4229437,35.5464198 L69.9276678,35.8429136 C69.6906218,36.2388642 69.3541391,36.5531852 68.9186908,36.7849383 C68.4827713,37.0166914 67.9860586,37.133037 67.4276103,37.133037 C66.5487023,37.133037 65.8267253,36.8539012 65.2607368,36.2946914 C64.6947483,35.7350123 64.4124609,35.0209877 64.4124609,34.1544938 C64.4124609,33.3011358 64.6890931,32.5922716 65.2433,32.0250864 C65.7975069,31.4579012 66.5105299,31.1745432 67.3818977,31.1745432 L67.3818977,31.1745432 Z" id="Fill-17" fill="#000000" mask="url(#mask-2)"></path>
                        <path d="M72.1292264,32.4189259 C72.4732494,31.6199877 73.1113414,31.220284 74.0439736,31.220284 L74.0439736,31.7682346 C73.501077,31.7682346 73.0463069,31.9413457 72.6796632,32.288037 C72.3125483,32.633321 72.1292264,33.1493704 72.1292264,33.8347778 L72.1292264,37.0075432 L71.556169,37.0075432 L71.556169,31.300037 L72.1292264,31.300037 L72.1292264,32.4189259 Z" id="Fill-18" fill="#000000" mask="url(#mask-2)"></path>
                        <path d="M75.2179815,37.0074025 L75.8425321,37.0074025 L75.8425321,31.2998963 L75.2179815,31.2998963 L75.2179815,37.0074025 Z M75.8800257,29.7874025 C75.7798716,29.8751309 75.663282,29.9192296 75.5302568,29.9192296 C75.396718,29.9192296 75.2801284,29.8751309 75.1804879,29.7874025 C75.0803338,29.7001432 75.03,29.5913037 75.03,29.4622914 C75.03,29.340316 75.0803338,29.2356988 75.1804879,29.1479704 C75.2801284,29.0607111 75.396718,29.0175506 75.5302568,29.0175506 C75.663282,29.0175506 75.7798716,29.0607111 75.8800257,29.1479704 C75.9796662,29.2356988 76.03,29.340316 76.03,29.4622914 C76.03,29.5913037 75.9796662,29.7001432 75.8800257,29.7874025 L75.8800257,29.7874025 Z" id="Fill-19" fill="#000000" mask="url(#mask-2)"></path>
                        <path d="M78.441577,35.8778642 C78.9118989,36.3498148 79.4868414,36.585321 80.1668759,36.585321 C80.8473816,36.585321 81.4227954,36.3498148 81.892646,35.8778642 C82.3629678,35.4059136 82.5981287,34.8316914 82.5981287,34.1542593 C82.5981287,33.4772963 82.3629678,32.9026049 81.892646,32.429716 C81.4227954,31.9582346 80.8473816,31.7227284 80.1668759,31.7227284 C79.4868414,31.7227284 78.9118989,31.9582346 78.441577,32.429716 C77.9717264,32.9026049 77.7365655,33.4772963 77.7365655,34.1542593 C77.7365655,34.8316914 77.9717264,35.4059136 78.441577,35.8778642 L78.441577,35.8778642 Z M82.5981287,29.0176914 L83.1711862,29.0176914 L83.1711862,37.0075432 L82.5981287,37.0075432 L82.5981287,35.683642 C82.3610828,36.1326049 82.0264851,36.4863333 81.5948069,36.7448272 C81.1626575,37.0037901 80.6753701,37.1332716 80.1329448,37.1332716 C79.3077609,37.1332716 78.6060483,36.8456914 78.0287494,36.2719383 C77.4509793,35.6972469 77.1625655,34.9907284 77.1625655,34.1542593 C77.1625655,33.3168519 77.4509793,32.6112716 78.0287494,32.0361111 C78.6060483,31.462358 79.3077609,31.1747778 80.1329448,31.1747778 C80.6753701,31.1747778 81.1626575,31.3037901 81.5948069,31.5632222 C82.0264851,31.821716 82.3610828,32.1749753 82.5981287,32.6239383 L82.5981287,29.0176914 Z" id="Fill-20" fill="#000000" mask="url(#mask-2)"></path>
                        <path d="M85.8373172,35.8778642 C86.3076391,36.3498148 86.8825816,36.585321 87.5630874,36.585321 C88.2431218,36.585321 88.8166506,36.3498148 89.2832023,35.8778642 C89.7492828,35.4059136 89.9830299,34.8316914 89.9830299,34.1542593 C89.9830299,33.4772963 89.7492828,32.9026049 89.2832023,32.429716 C88.8166506,31.9582346 88.2431218,31.7227284 87.5630874,31.7227284 C86.8825816,31.7227284 86.3076391,31.9582346 85.8373172,32.429716 C85.3674667,32.9026049 85.1323057,33.4772963 85.1323057,34.1542593 C85.1323057,34.8316914 85.3674667,35.4059136 85.8373172,35.8778642 L85.8373172,35.8778642 Z M89.9830299,31.300037 L90.5673977,31.300037 L90.5673977,37.0075432 L89.9830299,37.0075432 L89.9830299,35.718358 C89.7375011,36.1593457 89.4010184,36.5055679 88.9735816,36.7565556 C88.5456736,37.0075432 88.0602713,37.1332716 87.5169034,37.1332716 C86.6992598,37.1332716 85.9999034,36.8456914 85.4183632,36.2719383 C84.8377655,35.6972469 84.5474667,34.9907284 84.5474667,34.1542593 C84.5474667,33.3168519 84.8377655,32.6112716 85.4183632,32.0361111 C85.9999034,31.462358 86.6992598,31.1747778 87.5169034,31.1747778 C88.0602713,31.1747778 88.5456736,31.300037 88.9735816,31.5510247 C89.4010184,31.8020123 89.7375011,32.1487037 89.9830299,32.5901605 L89.9830299,31.300037 Z" id="Fill-21" fill="#000000" mask="url(#mask-2)"></path>
                        <path d="M30.5742184,25.0382469 C28.2683218,29.332716 23.7418276,32.0945185 18.8354943,32.0945185 C11.488954,32.0945185 5.51237931,26.1449383 5.51237931,18.8320494 C5.51237931,11.5182222 11.488954,5.56676543 18.8354943,5.56676543 C23.7126092,5.56676543 28.2174253,8.29901235 30.5341609,12.5554815 L31.9861264,12.5554815 C29.5642989,7.54558025 24.4096092,4.30854321 18.8354943,4.30854321 C10.791954,4.30854321 4.24844828,10.8224938 4.24844828,18.8320494 C4.24844828,26.8387901 10.791954,33.3527407 18.8354943,33.3527407 C24.4275172,33.3527407 29.6010575,30.096 32.0158161,25.0574815 L31.9752874,25.0382469 L30.5742184,25.0382469 Z" id="Fill-22" fill="#000000" mask="url(#mask-2)"></path>
                        <path d="M18.9168345,1.2585037 C9.18381149,1.2585037 1.26374253,9.14233086 1.26374253,18.8318617 C1.26374253,28.5209235 9.18381149,36.4047506 18.9168345,36.4047506 C27.5023287,36.4047506 34.8526391,30.1971457 36.3050759,21.8488741 L28.8298805,21.8488741 C27.5042138,26.1780593 23.4956391,29.1580099 18.9168345,29.1580099 C13.1961563,29.1580099 8.54336322,24.5262321 8.54336322,18.8318617 C8.54336322,13.1365531 13.1961563,8.50289877 18.9168345,8.50289877 C23.4975241,8.50289877 27.5042138,11.4833185 28.8279954,15.8125037 L36.3050759,15.8143802 C34.8540529,7.46610864 27.5023287,1.2585037 18.9168345,1.2585037 M18.9168345,37.6629728 C8.48492644,37.6629728 -0.000188505747,29.2166519 -0.000188505747,18.8318617 C-0.000188505747,8.44660247 8.48492644,-0.000187654321 18.9168345,-0.000187654321 C28.3779379,-0.000187654321 36.4393862,7.0345037 37.6679724,16.3609235 L37.7612828,17.0726025 L27.8553057,17.0707259 L27.7356046,16.5964296 C26.7096621,12.5721827 23.0842253,9.76159012 18.9168345,9.76159012 C13.8931563,9.76159012 9.80682299,13.8308741 9.80682299,18.8318617 C9.80682299,23.8323802 13.8931563,27.9007259 18.9168345,27.9007259 C23.0823402,27.9007259 26.7096621,25.0887259 27.7370184,21.0654173 L27.8571908,20.5906519 L37.7612828,20.5906519 L37.6679724,21.3018617 C36.4393862,30.6282815 28.3779379,37.6629728 18.9168345,37.6629728" id="Fill-23" fill="#000000" mask="url(#mask-2)"></path>
                        <path d="M18.8356356,12.2895753 C16.1244517,12.2895753 13.7257161,13.9095012 12.7247506,16.4193778 L12.7860149,16.4433037 L14.1154517,16.4433037 C15.0160379,14.6741926 16.8110839,13.5477975 18.8356356,13.5477975 C21.7621874,13.5477975 24.1434862,15.9178716 24.1434862,18.8316741 C24.1434862,21.7450074 21.7621874,24.1155506 18.8356356,24.1155506 C16.8153253,24.1155506 15.017923,22.9886864 14.1154517,21.2181679 L12.8699,21.2181679 L12.7370034,21.2721185 C13.7431529,23.7636988 16.1385897,25.3737728 18.8356356,25.3737728 C22.4596586,25.3737728 25.4074172,22.4388593 25.4074172,18.8316741 C25.4074172,15.2244889 22.4596586,12.2895753 18.8356356,12.2895753" id="Fill-24" fill="#000000" mask="url(#mask-2)"></path>
                        <path d="M18.9168345,17.0726025 C17.9422598,17.0726025 17.1500644,17.8616889 17.1500644,18.8313926 C17.1500644,19.8015654 17.9422598,20.5906519 18.9168345,20.5906519 C19.8914092,20.5906519 20.6836046,19.8015654 20.6836046,18.8313926 C20.6836046,17.8616889 19.8914092,17.0726025 18.9168345,17.0726025 M18.9168345,21.8488741 C17.2452598,21.8488741 15.8861333,20.4954173 15.8861333,18.8313926 C15.8861333,17.1673679 17.2452598,15.8143802 18.9168345,15.8143802 C20.5884092,15.8143802 21.9475356,17.1673679 21.9475356,18.8313926 C21.9475356,20.4954173 20.5884092,21.8488741 18.9168345,21.8488741" id="Fill-25" fill="#000000" mask="url(#mask-2)"></path>
                        <polygon id="Fill-26" fill="#000000" mask="url(#mask-2)" points="9.17551724 19.4607852 16.5182874 19.4607852 16.5182874 18.2020938 9.17551724 18.2020938"></polygon>
                        <path d="M36.1709069,1.68640247 C36.3532862,1.68640247 36.4659184,1.55926667 36.4659184,1.40679753 C36.4659184,1.24213086 36.3532862,1.12953827 36.1709069,1.12953827 L35.6888034,1.12953827 L35.6888034,1.68640247 L36.1709069,1.68640247 Z M35.3815391,0.95314321 C35.3815391,0.902945679 35.4201828,0.859785185 35.4729644,0.859785185 L36.1709069,0.859785185 C36.4758149,0.859785185 36.7755391,1.04134074 36.7755391,1.40679753 C36.7755391,1.77413086 36.5139874,1.90595802 36.3773207,1.93926667 C36.4758149,2.13067407 36.5738379,2.32583457 36.6723322,2.51724198 C36.705792,2.57494568 36.657723,2.64906914 36.5884471,2.64906914 L36.4202057,2.64906914 C36.3820333,2.64906914 36.3485736,2.6106 36.3339644,2.57963704 L36.0582747,1.97022963 L35.6935161,1.97022963 L35.6935161,2.55571111 C35.6935161,2.60543951 35.6548724,2.64906914 35.6020908,2.64906914 L35.4729644,2.64906914 C35.4201828,2.64906914 35.3815391,2.60543951 35.3815391,2.55571111 L35.3815391,0.95314321 Z M35.9932402,3.22188395 C36.8089989,3.22188395 37.4617,2.56509383 37.4617,1.76052593 C37.4617,0.948451852 36.8089989,0.29822963 35.9932402,0.29822963 C35.1850218,0.29822963 34.5252517,0.948451852 34.5252517,1.76052593 C34.5252517,2.56509383 35.1850218,3.22188395 35.9932402,3.22188395 L35.9932402,3.22188395 Z M35.9932402,0.000328395062 C36.9673437,0.000328395062 37.7614241,0.790822222 37.7614241,1.76052593 C37.7614241,2.72788395 36.9673437,3.51368642 35.9932402,3.51368642 C35.0214931,3.51368642 34.2325966,2.72788395 34.2325966,1.76052593 C34.2325966,0.790822222 35.0214931,0.000328395062 35.9932402,0.000328395062 L35.9932402,0.000328395062 Z" id="Fill-27" fill="#000000" mask="url(#mask-2)"></path>
                    </g>
                </g>
            </g>
        </g>
    </g>
</svg>