<?xml version="1.0" encoding="UTF-8"?>
<!DOCTYPE svg PUBLIC "-//W3C//DTD SVG 1.1//EN" "http://www.w3.org/Graphics/SVG/1.1/DTD/svg11.dtd">
<!-- Creator: CorelDRAW 2020 (64-Bit) -->
<svg xmlns="http://www.w3.org/2000/svg" xml:space="preserve" width="210mm" height="297mm" version="1.1" style="shape-rendering:geometricPrecision; text-rendering:geometricPrecision; image-rendering:optimizeQuality; fill-rule:evenodd; clip-rule:evenodd"
viewBox="0 0 21000 29700"
 xmlns:xlink="http://www.w3.org/1999/xlink"
 xmlns:xodm="http://www.corel.com/coreldraw/odm/2003">
 <defs>
  <style type="text/css">
   <![CDATA[
    .fil0 {fill:black}
    .fil1 {fill:#FFCA00}
   ]]>
  </style>
 </defs>
 <g id="Capa_x0020_1">
  <metadata id="CorelCorpID_0Corel-Layer"/>
  <g id="_906452816">
   <path class="fil0" d="M8539.24 15994.8l27.9 0 0 -55.82 27.91 0 0 -27.9 55.82 0 0 -27.91 3795.63 0 0 27.91 55.82 0 0 27.9 27.91 0 0 55.82 27.91 0 0 669.82 -27.91 0 0 27.91 -27.91 0 0 27.91 -55.82 0 0 27.91 -27.9 0 0 27.91 -55.82 0 0 27.9 -27.91 0 0 27.91 -55.82 0 0 27.91 -55.82 0 0 27.91 -55.81 0 0 27.91 -55.83 0 0 27.91 -55.81 0 0 27.91 -55.82 0 0 27.91 -55.82 0 0 27.91 -55.82 0 0 27.9 -83.72 0 0 27.91 -83.73 0 0 27.91 -55.82 0 0 27.91 -83.73 0 0 27.92 -111.63 0 0 27.9 -111.64 0 0 27.91 -111.64 0 0 27.91 -167.45 0 0 27.91 -307 0 0 27.9 -446.55 0 0 -27.9 -279.08 0 0 -27.91 -167.46 0 0 -27.91 -111.63 0 0 -27.91 -111.64 0 0 -27.9 -111.63 0 0 -27.92 -83.74 0 0 -27.91 -83.72 0 0 -27.91 -83.73 0 0 -27.91 -55.82 0 0 -27.9 -55.82 0 0 -27.91 -83.72 0 0 -27.91 -55.82 0 0 -27.91 -55.82 0 0 -27.91 -55.82 0 0 -27.91 -55.81 0 0 -27.91 -27.92 0 0 -27.91 -55.81 0 0 -27.91 -55.82 0 0 -27.9 -27.91 0 0 -27.91 -55.82 0 0 -27.91 -27.91 0 0 -27.91 -55.82 0 0 -27.91 -27.9 0 0 -669.82zm1758.27 -781.45l27.9 0 0 -55.82 27.91 0 0 -27.91 27.91 0 0 -27.91 55.82 0 0 -27.91 223.28 0 0 27.91 27.9 0 0 27.91 55.82 0 0 55.82 27.91 0 0 55.82 27.91 0 0 474.45 -502.36 0 0 -502.36zm1786.17 -1869.91l27.91 0 0 -27.91 55.83 0 0 167.46 27.9 0 0 167.45 27.91 0 0 111.64 27.91 0 0 111.63 27.91 0 0 139.55 27.91 0 0 111.64 27.91 0 0 83.72 27.91 0 0 83.73 27.91 0 0 111.64 27.91 0 0 55.81 27.9 0 0 83.73 27.91 0 0 83.73 27.91 0 0 83.72 27.91 0 0 55.83 27.91 0 0 83.72 27.91 0 0 55.82 27.91 0 0 55.82 27.91 0 0 83.72 27.91 0 0 55.82 27.9 0 0 55.82 27.91 0 0 55.82 27.91 0 0 55.82 27.91 0 0 55.81 27.92 0 0 55.82 27.9 0 0 55.82 27.91 0 0 55.82 27.91 0 0 27.91 27.91 0 0 55.81 27.9 0 0 55.83 27.91 0 0 27.91 27.92 0 0 55.81 27.91 0 0 55.82 27.91 0 0 27.9 27.9 0 0 55.83 27.91 0 0 27.91 27.91 0 0 55.81 27.91 0 0 27.91 27.91 0 0 55.82 27.91 0 0 27.91 -27.91 0 0 27.91 -27.91 0 0 55.82 -27.91 0 0 27.91 -27.91 0 0 27.9 -27.91 0 0 27.91 -27.9 0 0 27.91 -27.91 0 0 27.91 -27.91 0 0 27.91 -27.92 0 0 27.91 -27.91 0 0 27.91 -27.9 0 0 27.91 -27.91 0 0 27.91 -27.91 0 0 27.9 -27.91 0 0 27.91 -55.82 0 0 27.92 -27.91 0 0 27.91 -55.82 0 0 -614 -27.9 0 0 -27.91 -27.91 0 0 -55.82 -27.91 0 0 -27.92 -55.82 0 0 -27.9 -27.91 0 0 -27.91 -111.63 0 0 -27.91 -83.73 0 0 -195.36 -27.91 0 0 -251.18 -27.91 0 0 -223.28 -27.91 0 0 -279.08 -27.91 0 0 -223.28 -27.91 0 0 -223.27 -27.9 0 0 -279.1 -27.91 0 0 -223.27 -27.92 0 0 -223.27 -27.91 0 0 -251.18zm-3042.08 307l-27.91 0 0 223.27 -27.91 0 0 279.1 -27.91 0 0 251.18 -27.91 0 0 195.36 -27.9 0 0 307 -27.91 0 0 223.27 -27.92 0 0 223.27 -27.91 0 0 279.1 -27.9 0 0 83.72 -111.64 0 0 27.91 -111.64 0 0 27.91 -27.9 0 0 27.9 -55.82 0 0 27.92 -27.91 0 0 55.82 -27.91 0 0 55.81 -27.91 0 0 586.1 -55.82 0 0 -27.91 -27.91 0 0 -27.92 -27.9 0 0 -27.91 -27.91 0 0 -27.9 -27.91 0 0 -27.91 -27.91 0 0 -27.91 -55.82 0 0 -55.82 -55.82 0 0 -27.91 -27.91 0 0 -55.82 -27.9 0 0 -27.91 -27.91 0 0 -27.9 -27.92 0 0 -27.91 -27.91 0 0 -27.91 -27.91 0 0 -27.91 -27.9 0 0 -83.73 27.9 0 0 -55.82 27.91 0 0 -27.9 27.91 0 0 -55.82 27.92 0 0 -27.91 27.91 0 0 -55.82 27.9 0 0 -27.91 27.91 0 0 -55.82 27.91 0 0 -27.9 27.91 0 0 -55.83 27.9 0 0 -55.82 27.92 0 0 -55.81 27.91 0 0 -27.91 27.91 0 0 -55.82 27.91 0 0 -55.82 27.9 0 0 -55.82 27.91 0 0 -55.81 27.91 0 0 -55.82 27.91 0 0 -55.82 27.91 0 0 -83.73 27.91 0 0 -55.81 27.91 0 0 -55.83 27.91 0 0 -55.81 27.91 0 0 -83.73 27.9 0 0 -55.82 27.91 0 0 -83.72 27.91 0 0 -83.73 27.91 0 0 -55.82 27.91 0 0 -83.73 27.91 0 0 -111.63 27.91 0 0 -83.73 27.91 0 0 -83.72 27.91 0 0 -111.65 27.9 0 0 -111.63 27.91 0 0 -111.64 27.92 0 0 -139.54 27.91 0 0 -139.55 27.9 0 0 -139.54 27.91 0 0 -83.73 27.91 0 0 27.91 27.91 0 0 27.91 27.91 0 0 27.91 27.91 0 0 27.91 -27.91 0 0 223.27zm3265.36 -530.27l27.91 0 0 -27.91 27.91 0 0 -27.91 27.91 0 0 -27.91 55.81 0 0 27.91 27.91 0 0 111.63 27.91 0 0 223.28 27.91 0 0 195.36 27.91 0 0 167.46 27.91 0 0 111.63 27.91 0 0 83.73 27.91 0 0 111.63 27.91 0 0 83.74 27.9 0 0 83.72 27.91 0 0 83.73 27.91 0 0 83.73 27.91 0 0 55.81 27.92 0 0 83.73 27.9 0 0 55.82 27.91 0 0 55.82 27.91 0 0 83.72 27.91 0 0 55.82 27.9 0 0 27.91 27.91 0 0 55.82 27.92 0 0 55.81 27.91 0 0 55.83 27.91 0 0 55.81 27.9 0 0 55.82 27.91 0 0 27.91 27.91 0 0 55.82 27.91 0 0 27.91 27.91 0 0 55.82 27.91 0 0 27.9 27.91 0 0 55.82 27.91 0 0 27.91 27.91 0 0 27.91 27.9 0 0 55.82 27.91 0 0 27.91 27.91 0 0 27.91 27.91 0 0 55.81 27.91 0 0 27.91 27.91 0 0 27.92 27.91 0 0 55.81 -27.91 0 0 27.91 -27.91 0 0 55.82 -27.91 0 0 27.9 -27.91 0 0 27.92 -27.91 0 0 55.82 -55.81 0 0 -27.91 -27.91 0 0 -55.83 -27.91 0 0 -27.9 -27.91 0 0 -55.82 -27.91 0 0 -27.91 -27.91 0 0 -55.81 -27.91 0 0 -55.83 -27.91 0 0 -27.91 -27.91 0 0 -55.81 -27.9 0 0 -55.82 -27.91 0 0 -27.91 -27.91 0 0 -55.82 -27.92 0 0 -55.82 -27.91 0 0 -55.81 -27.9 0 0 -55.82 -27.91 0 0 -55.82 -27.91 0 0 -55.82 -27.91 0 0 -55.81 -27.9 0 0 -55.82 -27.92 0 0 -83.73 -27.91 0 0 -55.82 -27.91 0 0 -55.81 -27.91 0 0 -83.74 -27.9 0 0 -55.81 -27.91 0 0 -83.73 -27.91 0 0 -83.73 -27.91 0 0 -83.72 -27.91 0 0 -83.73 -27.91 0 0 -111.64 -27.91 0 0 -83.72 -27.91 0 0 -83.73 -27.91 0 0 -139.55 -27.9 0 0 -111.63 -27.91 0 0 -111.64 -27.91 0 0 -167.45 -27.91 0 0 -167.46 -27.91 0 0 -195.36zm-3516.54 279.09l-27.91 0 0 139.54 -27.91 0 0 167.46 -27.91 0 0 111.63 -27.91 0 0 111.64 -27.91 0 0 111.63 -27.91 0 0 111.65 -27.91 0 0 83.72 -27.91 0 0 83.73 -27.9 0 0 83.73 -27.91 0 0 83.72 -27.91 0 0 83.73 -27.91 0 0 83.73 -27.91 0 0 55.81 -27.91 0 0 55.83 -27.91 0 0 83.72 -27.91 0 0 55.82 -27.91 0 0 55.82 -27.9 0 0 83.72 -27.91 0 0 55.82 -27.91 0 0 55.82 -27.91 0 0 55.82 -27.92 0 0 55.82 -27.9 0 0 55.81 -27.91 0 0 27.91 -27.91 0 0 55.82 -27.91 0 0 55.82 -27.9 0 0 55.82 -27.91 0 0 27.9 -27.92 0 0 55.82 -27.91 0 0 55.83 -27.91 0 0 27.9 -27.9 0 0 55.82 -27.91 0 0 27.91 -27.91 0 0 55.82 -27.91 0 0 27.91 -27.91 0 0 27.91 -27.91 0 0 -27.91 -27.91 0 0 -27.91 -27.91 0 0 -55.82 -27.91 0 0 -27.91 -27.9 0 0 -55.82 -27.91 0 0 -83.73 27.91 0 0 -27.91 27.9 0 0 -27.91 27.91 0 0 -27.9 27.91 0 0 -55.82 27.91 0 0 -27.91 27.91 0 0 -27.91 27.91 0 0 -55.82 27.91 0 0 -27.91 27.91 0 0 -55.81 27.91 0 0 -27.91 27.9 0 0 -55.82 27.91 0 0 -27.91 27.91 0 0 -55.82 27.92 0 0 -55.82 27.91 0 0 -27.9 27.9 0 0 -55.82 27.91 0 0 -55.82 27.91 0 0 -55.82 27.91 0 0 -55.82 27.9 0 0 -55.82 27.92 0 0 -55.82 27.91 0 0 -55.81 27.91 0 0 -55.82 27.91 0 0 -55.82 27.9 0 0 -83.73 27.91 0 0 -83.72 27.91 0 0 -83.73 27.91 0 0 -55.82 27.91 0 0 -111.63 27.91 0 0 -83.73 27.91 0 0 -111.63 27.91 0 0 -111.65 27.91 0 0 -139.54 27.9 0 0 -139.54 27.91 0 0 -251.18 27.91 0 0 -167.46 27.91 0 0 -27.91 27.91 0 0 -27.91 27.91 0 0 27.91 27.91 0 0 27.91 27.91 0 0 27.91 27.91 0 0 27.91 27.9 0 0 83.73 -27.9 0 0 167.45zm3823.54 -446.55l251.18 0 0 27.91 111.63 0 0 27.91 55.83 0 0 27.91 55.81 0 0 27.91 27.91 0 0 27.91 55.82 0 0 27.91 27.91 0 0 27.91 27.91 0 0 27.9 27.91 0 0 27.91 27.91 0 0 55.83 27.91 0 0 27.9 27.9 0 0 55.82 27.91 0 0 83.73 27.91 0 0 111.63 27.91 0 0 223.28 -27.91 0 0 -27.91 -27.91 0 0 -27.91 -27.91 0 0 -27.91 -55.81 0 0 -55.82 -27.91 0 0 -27.91 -55.82 0 0 -27.91 -27.91 0 0 -27.91 -27.91 0 0 -27.9 -27.91 0 0 -27.91 -27.91 0 0 -27.91 -27.9 0 0 -27.91 -27.91 0 0 -27.91 -27.91 0 0 -27.91 -27.92 0 0 -27.91 -27.91 0 0 -27.91 -27.9 0 0 -27.91 -27.91 0 0 -27.9 -27.91 0 0 -27.91 -27.91 0 0 -27.92 -27.9 0 0 -27.91 -27.92 0 0 -27.9 -27.91 0 0 -27.91 -27.91 0 0 -27.91 -27.91 0 0 -27.91 -27.9 0 0 -27.91 -27.91 0 0 -27.91 -27.91 0 0 -55.82zm-390.73 55.82l-27.91 0 0 27.91 -27.9 0 0 27.91 -27.91 0 0 27.91 -27.92 0 0 27.91 -27.91 0 0 27.91 -27.9 0 0 27.9 -27.91 0 0 27.91 -27.91 0 0 27.92 -27.91 0 0 27.91 -27.91 0 0 27.9 -27.91 0 0 27.91 -27.91 0 0 27.91 -27.91 0 0 27.91 -27.91 0 0 27.91 -27.9 0 0 27.91 -27.91 0 0 27.91 -27.91 0 0 27.91 -27.91 0 0 27.91 -27.91 0 0 27.9 -27.91 0 0 27.91 -27.91 0 0 27.91 -27.91 0 0 27.91 -27.91 0 0 27.91 -27.9 0 0 27.91 -27.91 0 0 27.91 -27.91 0 0 27.91 -27.91 0 0 27.91 -27.92 0 0 -279.09 27.92 0 0 -83.73 27.91 0 0 -83.73 27.91 0 0 -27.91 27.91 0 0 -55.81 27.9 0 0 -27.92 27.91 0 0 -27.91 27.91 0 0 -27.9 27.91 0 0 -27.91 27.91 0 0 -27.91 27.91 0 0 -27.91 27.91 0 0 -27.91 55.82 0 0 -27.91 55.81 0 0 -27.91 111.64 0 0 -27.91 279.09 0 0 27.91 -27.91 0 0 27.91zm-3349.08 -55.82l251.18 0 0 27.91 111.63 0 0 27.91 55.82 0 0 27.91 55.82 0 0 27.91 55.82 0 0 27.91 27.9 0 0 27.91 27.91 0 0 27.91 27.91 0 0 27.9 27.91 0 0 55.83 27.92 0 0 27.91 27.9 0 0 55.81 27.91 0 0 55.82 27.91 0 0 83.73 27.91 0 0 307 -27.91 0 0 -27.91 -27.91 0 0 -27.91 -27.91 0 0 -27.91 -27.9 0 0 -27.91 -27.92 0 0 -27.91 -27.91 0 0 -27.91 -27.91 0 0 -27.91 -27.91 0 0 -27.91 -27.9 0 0 -27.9 -27.91 0 0 -27.91 -27.91 0 0 -27.91 -27.91 0 0 -27.91 -27.91 0 0 -27.91 -27.91 0 0 -27.91 -27.91 0 0 -27.91 -27.91 0 0 -27.91 -27.91 0 0 -55.81 -27.9 0 0 -27.91 -55.82 0 0 -27.92 -27.91 0 0 -27.91 -27.91 0 0 -27.9 -27.91 0 0 -27.91 -27.91 0 0 -55.82 -27.91 0 0 -27.91 -27.91 0 0 -27.91 -27.9 0 0 -27.91 -27.91 0 0 -27.91zm-390.73 55.82l-27.91 0 0 27.91 -27.91 0 0 27.91 -27.91 0 0 27.91 -27.91 0 0 27.91 -27.91 0 0 27.91 -27.91 0 0 27.9 -27.9 0 0 27.91 -27.91 0 0 27.92 -27.91 0 0 27.91 -27.91 0 0 27.9 -27.92 0 0 27.91 -27.9 0 0 27.91 -27.91 0 0 27.91 -27.91 0 0 27.91 -27.91 0 0 27.91 -27.9 0 0 27.91 -27.91 0 0 27.91 -27.92 0 0 27.91 -27.91 0 0 27.9 -27.91 0 0 27.91 -27.9 0 0 27.91 -27.91 0 0 27.91 -27.91 0 0 27.91 -27.91 0 0 27.91 -27.91 0 0 27.91 -27.91 0 0 27.91 -27.91 0 0 27.91 -27.91 0 0 -307 27.91 0 0 -83.73 27.91 0 0 -55.82 27.91 0 0 -55.81 27.91 0 0 -27.91 27.91 0 0 -27.92 27.91 0 0 -55.81 55.81 0 0 -27.91 27.91 0 0 -27.91 27.91 0 0 -27.91 27.92 0 0 -27.91 55.81 0 0 -27.91 55.82 0 0 -27.91 139.55 0 0 -27.91 251.18 0 0 27.91 -27.91 0 0 27.91zm4130.54 -251.18l27.91 0 0 -27.91 27.91 0 0 -27.91 27.9 0 0 -27.91 27.91 0 0 -27.9 27.91 0 0 -27.91 55.83 0 0 -27.91 55.81 0 0 -27.91 55.82 0 0 -27.92 139.55 0 0 -27.9 167.45 0 0 27.9 139.54 0 0 27.92 55.82 0 0 27.91 55.82 0 0 27.91 55.82 0 0 27.91 27.91 0 0 27.9 27.9 0 0 27.91 55.82 0 0 27.91 27.92 0 0 55.82 27.9 0 0 55.82 -139.54 0 0 -27.91 -697.73 0 0 -27.91 -251.18 0 0 -27.91zm-669.82 55.82l-781.45 0 0 -27.91 27.9 0 0 -55.82 27.91 0 0 -27.91 55.83 0 0 -27.91 27.91 0 0 -27.9 27.9 0 0 -27.91 55.82 0 0 -27.91 55.81 0 0 -27.91 55.83 0 0 -27.92 139.54 0 0 -27.9 167.46 0 0 27.9 139.54 0 0 27.92 55.82 0 0 27.91 55.82 0 0 27.91 55.81 0 0 27.91 27.92 0 0 27.9 27.91 0 0 27.91 27.9 0 0 27.91 27.91 0 0 27.91 27.91 0 0 27.91 -307 0 0 27.91zm-3097.91 -55.82l27.92 0 0 -27.91 27.91 0 0 -27.91 27.9 0 0 -27.91 27.91 0 0 -27.9 55.82 0 0 -27.91 27.91 0 0 -27.91 55.82 0 0 -27.91 83.72 0 0 -27.92 139.55 0 0 -27.9 139.54 0 0 27.9 139.55 0 0 27.92 83.72 0 0 27.91 55.83 0 0 27.91 27.91 0 0 27.91 55.81 0 0 27.9 27.91 0 0 27.91 27.91 0 0 27.91 27.91 0 0 27.91 27.91 0 0 55.82 -753.55 0 0 -27.91 -334.91 0 0 -27.91zm-613.99 55.82l-697.73 0 0 27.91 -139.54 0 0 -55.82 27.9 0 0 -27.91 27.91 0 0 -27.91 27.91 0 0 -27.91 27.91 0 0 -27.91 27.91 0 0 -27.9 27.91 0 0 -27.91 55.82 0 0 -27.91 55.81 0 0 -27.91 55.82 0 0 -27.92 139.55 0 0 -27.9 167.46 0 0 27.9 139.53 0 0 27.92 55.83 0 0 27.91 55.82 0 0 27.91 55.81 0 0 27.91 27.91 0 0 27.9 55.82 0 0 27.91 27.91 0 0 27.91 27.91 0 0 27.91 27.91 0 0 27.91 -279.09 0 0 27.91zm1255.9 -809.36l-27.91 0 0 27.9 -27.91 0 0 27.91 -27.9 0 0 27.91 -27.91 0 0 27.91 -27.91 0 0 27.91 -27.91 0 0 27.91 -55.82 0 0 27.91 -27.91 0 0 27.91 -27.91 0 0 27.91 -27.91 0 0 27.9 -27.9 0 0 55.82 -55.82 0 0 27.92 -27.91 0 0 27.91 -27.91 0 0 27.9 -27.91 0 0 27.91 -55.82 0 0 27.91 -55.81 0 0 27.91 -27.91 0 0 27.9 -27.92 0 0 27.92 -27.91 0 0 27.91 -27.9 0 0 -167.46 -27.91 0 0 -111.64 27.91 0 0 -55.81 27.9 0 0 -55.82 27.91 0 0 -27.91 27.92 0 0 -27.91 27.91 0 0 -27.91 27.9 0 0 -27.91 27.91 0 0 -27.91 27.91 0 0 -27.91 55.82 0 0 -27.9 55.82 0 0 -27.91 55.82 0 0 -27.91 83.72 0 0 -27.91 279.09 0 0 55.82 -27.91 0 0 27.91zm2093.18 -83.73l279.09 0 0 27.91 111.64 0 0 27.91 55.82 0 0 27.91 55.81 0 0 27.9 27.91 0 0 27.91 27.92 0 0 27.91 55.81 0 0 27.91 27.91 0 0 55.82 27.91 0 0 27.91 27.91 0 0 27.91 27.91 0 0 55.81 27.91 0 0 55.82 27.91 0 0 27.92 -27.91 0 0 167.44 -27.91 0 0 27.92 -27.91 0 0 -27.92 -55.82 0 0 -27.9 -27.91 0 0 -27.91 -55.81 0 0 -27.91 -55.83 0 0 -27.91 -27.9 0 0 -27.9 -27.91 0 0 -27.91 -27.91 0 0 -27.92 -27.91 0 0 -27.91 -27.91 0 0 -27.91 -27.91 0 0 -27.9 -27.91 0 0 -27.91 -27.91 0 0 -27.91 -27.91 0 0 -27.91 -27.9 0 0 -27.91 -27.91 0 0 -27.91 -27.91 0 0 -27.91 -27.91 0 0 -27.91 -27.91 0 0 -27.91 -27.91 0 0 -27.9 -27.91 0 0 -27.91 -27.91 0 0 -27.91 -27.91 0 0 -27.91zm1674.55 27.91l-27.91 0 0 55.82 -55.82 0 0 55.81 -27.91 0 0 27.91 -55.82 0 0 27.91 -27.9 0 0 55.82 -55.82 0 0 27.91 -27.92 0 0 55.82 -27.91 0 0 27.9 -27.9 0 0 27.91 -27.91 0 0 27.91 -27.91 0 0 27.92 -27.91 0 0 27.91 -27.9 0 0 27.9 -27.92 0 0 27.91 -55.82 0 0 27.91 -55.81 0 0 27.91 -27.91 0 0 27.9 -27.91 0 0 27.92 -55.82 0 0 27.91 -27.91 0 0 27.91 -55.82 0 0 -83.74 27.91 0 0 -139.53 27.91 0 0 -111.65 27.91 0 0 -55.81 27.91 0 0 -27.91 27.91 0 0 -55.82 27.91 0 0 -27.91 27.91 0 0 -27.91 27.9 0 0 -27.91 27.91 0 0 -27.91 27.91 0 0 -27.9 55.83 0 0 -27.91 55.81 0 0 -27.91 55.82 0 0 -27.91 83.73 0 0 -27.91 279.09 0 0 27.91 -27.91 0 0 27.91zm-5442.27 -55.82l307 0 0 27.91 83.73 0 0 27.91 55.82 0 0 27.91 27.91 0 0 27.91 55.81 0 0 27.9 27.91 0 0 27.91 27.91 0 0 27.91 27.91 0 0 27.91 27.91 0 0 27.91 27.91 0 0 27.91 27.91 0 0 55.82 27.91 0 0 55.81 27.9 0 0 55.82 27.91 0 0 83.73 27.91 0 0 223.28 -27.91 0 0 -27.91 -27.91 0 0 -27.91 -27.9 0 0 -27.91 -27.91 0 0 -27.92 -27.91 0 0 -27.9 -55.82 0 0 -27.91 -27.91 0 0 -27.91 -55.82 0 0 -27.91 -27.91 0 0 -27.9 -27.9 0 0 -27.91 -27.91 0 0 -27.92 -27.91 0 0 -27.91 -27.91 0 0 -27.91 -27.92 0 0 -27.9 -27.9 0 0 -27.91 -27.91 0 0 -27.91 -27.91 0 0 -27.91 -27.91 0 0 -27.91 -27.9 0 0 -27.91 -27.91 0 0 -27.91 -27.92 0 0 -27.91 -27.91 0 0 -27.91 -27.91 0 0 -27.9 -27.9 0 0 -27.91 -27.91 0 0 -27.91 -27.91 0 0 -27.91 -27.91 0 0 -27.91zm1590.82 -223.28l27.9 0 0 -251.18 27.91 0 0 -195.36 27.91 0 0 -279.09 27.91 0 0 -251.18 27.92 0 0 -223.27 27.9 0 0 -223.27 27.91 0 0 -279.09 27.91 0 0 -223.28 27.91 0 0 -223.27 27.9 0 0 -111.64 1786.19 0 0 251.18 27.91 0 0 251.18 27.91 0 0 223.28 27.91 0 0 223.27 27.9 0 0 279.1 27.91 0 0 223.27 27.91 0 0 223.27 27.91 0 0 279.09 27.91 0 0 223.27 27.91 0 0 167.46 -167.45 0 0 27.9 -111.65 0 0 27.91 -55.81 0 0 27.91 -83.72 0 0 83.73 27.9 0 0 27.91 27.91 0 0 27.91 27.91 0 0 27.91 27.91 0 0 27.9 27.9 0 0 27.91 27.92 0 0 27.91 27.91 0 0 27.91 27.91 0 0 27.91 27.91 0 0 27.91 27.9 0 0 27.91 55.82 0 0 55.82 27.91 0 0 27.9 55.82 0 0 55.82 27.91 0 0 27.92 -251.18 0 0 27.91 -83.73 0 0 27.9 -55.82 0 0 27.91 -55.81 0 0 27.91 -55.83 0 0 27.91 -27.91 0 0 27.9 -55.81 0 0 27.92 -27.91 0 0 27.91 -27.91 0 0 27.91 -27.91 0 0 27.91 -27.91 0 0 55.81 -27.91 0 0 27.91 -27.91 0 0 55.82 -27.91 0 0 27.91 -27.91 0 0 83.73 -27.9 0 0 83.72 641.91 0 0 27.91 -27.91 0 0 27.91 -27.91 0 0 27.91 -27.91 0 0 55.82 -27.92 0 0 27.91 -27.9 0 0 27.9 -27.91 0 0 55.83 -27.91 0 0 55.81 -27.91 0 0 83.73 -27.9 0 0 139.55 -27.91 0 0 251.18 27.91 0 0 139.55 27.9 0 0 55.81 27.91 0 0 83.72 83.72 0 0 -27.9 27.92 0 0 -27.91 27.91 0 0 -27.91 27.91 0 0 -27.91 27.91 0 0 -27.9 27.9 0 0 -27.92 27.91 0 0 -27.91 27.91 0 0 -27.91 27.91 0 0 -27.91 27.91 0 0 -27.9 27.91 0 0 -27.91 27.91 0 0 -27.91 27.91 0 0 -27.91 27.91 0 0 -55.82 27.9 0 0 -27.91 27.91 0 0 -27.91 27.91 0 0 -27.91 55.82 0 0 251.18 27.91 0 0 223.28 27.91 0 0 223.27 27.91 0 0 279.09 27.91 0 0 223.27 27.9 0 0 223.28 27.91 0 0 307 27.92 0 0 195.36 27.91 0 0 251.18 -1200.1 0 0 -474.45 -27.91 0 0 -83.73 -27.9 0 0 -55.82 -27.91 0 0 -55.82 -27.91 0 0 -27.9 -27.91 0 0 -27.91 -55.82 0 0 -27.91 -27.91 0 0 -27.92 -83.72 0 0 -27.9 -223.28 0 0 27.9 -83.73 0 0 27.92 -27.91 0 0 27.91 -55.81 0 0 27.91 -27.91 0 0 27.9 -27.91 0 0 55.82 -27.91 0 0 27.91 -27.91 0 0 83.73 -27.91 0 0 502.36 -1172.18 0 0 -167.46 27.91 0 0 -223.27 27.91 0 0 -223.27 27.91 0 0 -251.18 27.91 0 0 -251.18 27.91 0 0 -223.27 27.91 0 0 -251.18 27.91 0 0 -279.1 27.9 0 0 -223.27 27.91 0 0 -55.82 27.91 0 0 27.91 27.91 0 0 27.91 27.91 0 0 27.91 27.91 0 0 27.91 27.91 0 0 27.91 27.91 0 0 27.91 27.91 0 0 27.91 27.9 0 0 27.9 27.91 0 0 27.91 27.91 0 0 27.91 27.91 0 0 27.91 27.92 0 0 27.92 27.9 0 0 27.9 27.91 0 0 27.91 27.91 0 0 27.91 27.91 0 0 27.91 27.9 0 0 27.9 55.83 0 0 -55.81 27.91 0 0 -55.82 27.91 0 0 -111.64 27.9 0 0 -362.81 -27.9 0 0 -111.64 -27.91 0 0 -83.72 -27.91 0 0 -27.91 -27.92 0 0 -55.83 -27.91 0 0 -55.81 -27.9 0 0 -27.91 -27.91 0 0 -27.91 -27.91 0 0 -27.91 -27.91 0 0 -27.91 -27.9 0 0 -27.91 641.9 0 0 -27.91 27.91 0 0 -27.91 -27.91 0 0 -55.81 -27.91 0 0 -55.82 -27.91 0 0 -55.82 -27.91 0 0 -55.82 -27.91 0 0 -27.91 -27.9 0 0 -27.9 -27.91 0 0 -27.91 -27.91 0 0 -27.91 -27.91 0 0 -27.91 -27.91 0 0 -27.92 -27.91 0 0 -27.9 -55.82 0 0 -27.91 -27.91 0 0 -27.91 -55.81 0 0 -27.91 -83.74 0 0 -27.9 -55.81 0 0 -27.91 -279.09 0 0 -27.92 27.91 0 0 -27.91 27.91 0 0 -27.91 27.9 0 0 -27.9 27.91 0 0 -27.91 27.91 0 0 -27.91 27.91 0 0 -27.91 27.92 0 0 -27.91 27.9 0 0 -27.91 27.91 0 0 -27.91 27.91 0 0 -27.91 27.91 0 0 -27.91 27.9 0 0 -27.9 27.91 0 0 -27.91 27.92 0 0 -27.91 27.91 0 0 -27.91 27.91 0 0 -27.91 27.9 0 0 -27.91 -27.9 0 0 -27.91 -55.82 0 0 -27.91 -83.73 0 0 -27.91 -83.73 0 0 -27.9 -167.45 0 0 -83.74zm2288.54 -2455.99l-27.91 0 0 27.91 -2260.63 0 0 -390.73 27.9 0 0 -27.91 2232.73 0 0 27.91 27.91 0 0 55.82 27.91 0 0 279.09 -27.91 0 0 27.91zm-1367.55 -641.91l27.91 0 0 -139.54 27.91 0 0 -195.36 27.92 0 0 -167.46 27.9 0 0 -139.55 27.91 0 0 -167.45 27.91 0 0 -27.91 111.64 0 0 27.91 27.91 0 0 139.54 27.91 0 0 167.46 27.9 0 0 195.37 27.91 0 0 139.53 27.91 0 0 167.46 27.91 0 0 83.73 -446.55 0 0 -83.73zm-27.9 -614l-27.91 0 0 167.46 -27.91 0 0 195.36 -27.91 0 0 139.55 -27.91 0 0 167.45 -27.91 0 0 27.91 -334.91 0 0 -753.55 27.91 0 0 -27.9 27.91 0 0 -27.91 27.91 0 0 -27.91 83.73 0 0 -27.91 167.45 0 0 -27.91 167.45 0 0 55.82 -27.9 0 0 139.54zm474.45 -223.27l27.91 0 0 27.91 139.54 0 0 27.91 167.46 0 0 27.91 83.72 0 0 27.91 27.91 0 0 27.91 27.91 0 0 27.9 27.92 0 0 753.55 -334.92 0 0 -27.91 -27.9 0 0 -167.45 -27.91 0 0 -167.46 -27.91 0 0 -167.45 -27.91 0 0 -167.46 -27.91 0 0 -167.45 -27.91 0 0 -55.82zm-390.73 -167.45l27.92 0 0 -55.82 27.9 0 0 -27.91 55.82 0 0 -27.91 83.72 0 0 27.91 83.74 0 0 27.91 27.9 0 0 55.82 27.91 0 0 27.91 -334.91 0 0 -27.91zm55.82 -223.27l-55.82 0 0 27.91 -55.82 0 0 27.9 -27.9 0 0 27.91 -27.91 0 0 55.82 -27.91 0 0 83.73 -27.91 0 0 27.91 -27.91 0 0 27.91 -139.54 0 0 27.9 -167.46 0 0 27.91 -55.82 0 0 27.91 -27.9 0 0 27.91 -27.91 0 0 27.91 -27.91 0 0 27.91 -27.92 0 0 55.82 -27.91 0 0 83.72 -27.9 0 0 725.64 -223.28 0 0 27.91 -83.72 0 0 27.91 -27.91 0 0 27.91 -27.91 0 0 27.91 -27.91 0 0 55.81 -27.91 0 0 446.55 27.91 0 0 27.91 27.91 0 0 27.91 27.91 0 0 27.91 27.91 0 0 27.91 55.82 0 0 27.9 111.63 0 0 139.55 -27.91 0 0 223.28 -27.91 0 0 223.27 -27.91 0 0 279.09 -27.9 0 0 223.27 -27.91 0 0 223.27 -27.91 0 0 279.09 -27.91 0 0 251.18 -27.91 0 0 195.36 -27.91 0 0 279.1 -27.91 0 0 55.81 -111.63 0 0 27.91 -55.82 0 0 27.91 -83.73 0 0 27.91 -27.91 0 0 27.91 -55.81 0 0 27.91 -27.91 0 0 27.91 -27.92 0 0 27.91 -27.91 0 0 27.91 -27.9 0 0 27.9 -27.91 0 0 27.91 -27.91 0 0 27.91 -27.91 0 0 27.91 -27.91 0 0 27.91 -27.91 0 0 -55.82 -27.91 0 0 -27.91 -27.91 0 0 -27.91 -27.91 0 0 -55.81 -27.9 0 0 -27.91 -27.91 0 0 -27.91 -55.82 0 0 -27.91 -27.91 0 0 -27.91 -55.82 0 0 -27.91 -27.91 0 0 -27.91 -55.81 0 0 -27.91 -83.73 0 0 -27.9 -111.64 0 0 -27.91 -334.91 0 0 27.91 -111.63 0 0 27.9 -55.82 0 0 27.91 -55.82 0 0 55.82 27.91 0 0 27.91 27.91 0 0 27.91 27.91 0 0 27.91 27.91 0 0 27.91 27.9 0 0 27.91 27.91 0 0 27.9 27.91 0 0 27.91 27.91 0 0 27.91 27.91 0 0 27.91 27.91 0 0 27.91 27.91 0 0 27.91 27.91 0 0 27.91 27.91 0 0 27.91 27.9 0 0 55.81 55.82 0 0 55.82 27.92 0 0 27.92 -279.1 0 0 27.91 -83.72 0 0 27.9 -55.82 0 0 27.91 -55.82 0 0 27.91 -55.82 0 0 27.91 -27.91 0 0 27.9 -27.91 0 0 27.92 -27.9 0 0 27.91 -27.91 0 0 27.91 -27.91 0 0 27.91 -27.92 0 0 27.9 -27.9 0 0 27.91 -27.91 0 0 55.82 -27.91 0 0 27.91 -27.91 0 0 55.82 -27.91 0 0 83.72 -27.9 0 0 55.82 669.81 0 0 27.91 -27.91 0 0 27.91 -27.91 0 0 27.91 -27.91 0 0 27.91 -27.91 0 0 55.82 -27.91 0 0 27.9 -27.9 0 0 55.83 -27.91 0 0 55.81 -27.91 0 0 55.82 -27.91 0 0 111.64 -27.91 0 0 362.81 27.91 0 0 111.64 27.91 0 0 55.82 27.91 0 0 55.81 55.81 0 0 -27.9 27.91 0 0 -27.91 27.91 0 0 -27.91 27.91 0 0 -27.91 27.91 0 0 -27.9 27.91 0 0 -27.92 27.91 0 0 -27.91 27.91 0 0 -27.91 27.91 0 0 -27.91 27.9 0 0 -27.9 27.91 0 0 -27.91 27.91 0 0 -27.91 27.92 0 0 -27.91 27.91 0 0 -27.91 27.9 0 0 -27.91 27.91 0 0 -27.91 27.91 0 0 -27.91 27.91 0 0 -27.91 27.9 0 0 -27.9 27.92 0 0 -27.91 27.91 0 0 -27.91 27.91 0 0 -27.91 27.91 0 0 -27.91 27.9 0 0 -27.91 27.91 0 0 -27.91 27.91 0 0 -27.91 27.91 0 0 -27.91 55.82 0 0 27.91 -27.91 0 0 195.37 -27.91 0 0 139.54 -27.91 0 0 139.54 -27.91 0 0 111.65 -27.91 0 0 111.63 -27.9 0 0 83.73 -27.91 0 0 83.72 -27.91 0 0 83.73 -27.91 0 0 83.73 -27.92 0 0 55.82 -27.9 0 0 83.72 -27.91 0 0 55.82 -27.91 0 0 55.82 -27.91 0 0 55.82 -27.9 0 0 55.81 -27.91 0 0 55.83 -27.92 0 0 55.81 -27.91 0 0 55.82 -27.91 0 0 55.81 -27.9 0 0 55.83 -27.91 0 0 27.91 -27.91 0 0 55.81 -27.91 0 0 27.91 -27.91 0 0 55.82 -27.91 0 0 27.91 -27.91 0 0 55.82 -27.91 0 0 27.91 -27.91 0 0 27.9 -27.9 0 0 55.82 -27.91 0 0 27.91 -27.91 0 0 27.91 -27.91 0 0 55.82 -27.91 0 0 27.91 -27.91 0 0 -27.91 -27.91 0 0 -55.82 -27.91 0 0 -55.82 -27.91 0 0 -55.82 -27.9 0 0 -83.72 -27.91 0 0 -55.82 -27.91 0 0 -83.73 -27.92 0 0 -55.81 -27.9 0 0 -83.74 -27.91 0 0 -83.72 -27.91 0 0 -83.72 -27.91 0 0 -139.55 -27.91 0 0 -139.55 -27.9 0 0 -139.54 -27.92 0 0 -223.27 -27.91 0 0 -6251.63 27.91 0 0 -251.18 27.92 0 0 -139.55 27.9 0 0 -139.54 27.91 0 0 -111.64 27.91 0 0 -83.73 27.91 0 0 -83.73 27.91 0 0 -83.72 27.9 0 0 -83.73 27.92 0 0 -55.82 27.91 0 0 -83.72 27.91 0 0 -55.82 27.9 0 0 -55.83 27.91 0 0 -55.81 27.91 0 0 -55.82 27.91 0 0 -55.81 27.91 0 0 -55.83 27.91 0 0 -55.81 27.91 0 0 -27.91 27.91 0 0 -55.82 27.91 0 0 -27.91 27.9 0 0 -55.82 27.91 0 0 -27.91 27.91 0 0 -55.81 27.91 0 0 -27.91 27.91 0 0 -27.91 27.91 0 0 -55.82 27.91 0 0 -27.91 27.91 0 0 -27.91 27.91 0 0 -27.91 27.9 0 0 -55.81 27.91 0 0 -27.91 27.91 0 0 -27.91 27.92 0 0 -27.92 27.91 0 0 -27.9 27.9 0 0 -27.91 27.91 0 0 -27.91 27.91 0 0 -27.91 27.91 0 0 -27.91 27.9 0 0 -27.9 27.92 0 0 -27.92 27.91 0 0 -27.91 27.91 0 0 -27.91 55.81 0 0 -27.9 27.91 0 0 -27.91 27.91 0 0 -27.91 27.91 0 0 -27.91 55.82 0 0 -27.91 27.91 0 0 -27.91 27.91 0 0 -27.91 55.81 0 0 -27.91 27.91 0 0 -27.91 27.91 0 0 -27.9 55.82 0 0 -27.91 55.82 0 0 -27.91 27.91 0 0 -27.91 55.81 0 0 -27.91 55.83 0 0 -27.91 27.91 0 0 -27.91 55.81 0 0 -27.91 55.82 0 0 -27.91 55.82 0 0 -27.9 55.82 0 0 -27.91 83.72 0 0 -27.91 55.82 0 0 -27.92 83.73 0 0 -27.91 83.72 0 0 -27.9 83.73 0 0 -27.91 83.73 0 0 -27.91 83.72 0 0 -27.91 139.55 0 0 -27.9 139.55 0 0 -27.92 167.45 0 0 -27.91 837.27 0 0 27.91 195.37 0 0 27.92 111.64 0 0 27.9 139.54 0 0 27.91 111.64 0 0 27.91 83.72 0 0 27.91 83.73 0 0 27.9 83.73 0 0 27.91 55.81 0 0 27.92 83.73 0 0 27.91 55.82 0 0 27.91 55.82 0 0 27.9 55.81 0 0 27.91 55.83 0 0 27.91 55.81 0 0 27.91 55.82 0 0 27.91 55.82 0 0 27.91 27.91 0 0 27.91 55.82 0 0 27.91 55.81 0 0 27.91 27.91 0 0 27.9 55.82 0 0 27.91 27.91 0 0 27.91 27.91 0 0 27.91 55.82 0 0 27.91 27.91 0 0 27.91 27.9 0 0 27.91 55.82 0 0 27.91 27.91 0 0 27.91 27.92 0 0 27.9 27.9 0 0 27.91 27.91 0 0 27.91 27.91 0 0 27.92 27.91 0 0 27.9 27.9 0 0 27.91 27.91 0 0 27.91 27.92 0 0 27.91 27.91 0 0 27.91 27.91 0 0 27.9 27.9 0 0 27.92 27.91 0 0 27.91 27.91 0 0 27.91 27.91 0 0 27.9 27.91 0 0 27.91 27.91 0 0 27.91 27.91 0 0 55.82 27.91 0 0 27.91 27.91 0 0 27.91 27.9 0 0 55.82 27.91 0 0 27.9 27.91 0 0 27.91 27.91 0 0 55.82 27.91 0 0 27.91 27.91 0 0 55.82 27.91 0 0 55.82 27.91 0 0 27.9 27.91 0 0 55.82 27.9 0 0 55.83 27.91 0 0 55.81 27.91 0 0 55.82 27.92 0 0 55.82 27.9 0 0 55.82 27.91 0 0 55.81 27.91 0 0 83.73 27.91 0 0 55.82 27.91 0 0 83.73 27.9 0 0 83.72 27.92 0 0 83.73 27.91 0 0 111.63 27.91 0 0 111.64 27.9 0 0 139.54 27.91 0 0 223.28 27.91 0 0 6474.9 -27.91 0 0 195.36 -27.91 0 0 139.55 -27.9 0 0 111.63 -27.91 0 0 111.64 -27.91 0 0 111.64 -27.92 0 0 55.82 -27.9 0 0 83.72 -27.91 0 0 83.73 -27.91 0 0 55.82 -27.91 0 0 83.73 -27.91 0 0 55.81 -27.9 0 0 55.82 -27.92 0 0 55.82 -27.91 0 0 55.82 -27.91 0 0 -27.91 -27.9 0 0 -27.91 -27.91 0 0 -27.91 -27.91 0 0 -27.91 -27.91 0 0 -55.82 -27.91 0 0 -27.91 -27.91 0 0 -27.9 -27.91 0 0 -55.82 -27.91 0 0 -27.91 -27.91 0 0 -55.82 -27.9 0 0 -27.91 -27.91 0 0 -55.82 -27.91 0 0 -27.9 -27.91 0 0 -55.82 -27.91 0 0 -55.82 -27.91 0 0 -55.82 -27.91 0 0 -55.82 -27.91 0 0 -27.9 -27.91 0 0 -55.83 -27.9 0 0 -83.72 -27.91 0 0 -55.82 -27.91 0 0 -55.82 -27.92 0 0 -55.82 -27.91 0 0 -83.72 -27.9 0 0 -55.82 -27.91 0 0 -83.73 -27.91 0 0 -83.72 -27.91 0 0 -83.74 -27.9 0 0 -111.63 -27.92 0 0 -83.73 -27.91 0 0 -111.63 -27.91 0 0 -139.55 -27.91 0 0 -195.36 -27.9 0 0 -139.55 27.9 0 0 27.91 27.91 0 0 27.91 27.91 0 0 27.91 27.91 0 0 27.91 27.92 0 0 27.91 27.9 0 0 27.91 27.91 0 0 27.91 27.91 0 0 27.91 27.91 0 0 27.9 27.9 0 0 27.91 27.91 0 0 27.91 27.92 0 0 27.91 27.91 0 0 27.91 27.91 0 0 27.91 27.9 0 0 27.91 27.91 0 0 27.91 27.91 0 0 27.91 27.91 0 0 27.9 27.91 0 0 27.91 27.91 0 0 27.91 27.91 0 0 27.91 27.91 0 0 27.92 27.91 0 0 27.9 27.9 0 0 27.91 27.91 0 0 27.91 27.91 0 0 27.91 27.91 0 0 27.9 83.73 0 0 -83.72 27.91 0 0 -83.73 27.91 0 0 -139.54 27.9 0 0 -195.37 -27.9 0 0 -111.63 -27.91 0 0 -83.73 -27.91 0 0 -83.72 -27.91 0 0 -55.83 -27.91 0 0 -27.91 -27.91 0 0 -55.81 -27.91 0 0 -27.91 -27.91 0 0 -27.91 -27.91 0 0 -27.91 -27.9 0 0 -27.91 -27.91 0 0 -27.91 697.72 0 0 -27.91 -27.91 0 0 -83.72 -27.9 0 0 -27.91 -27.91 0 0 -55.82 -27.91 0 0 -55.82 -27.92 0 0 -27.91 -27.9 0 0 -55.81 -27.91 0 0 -27.91 -27.91 0 0 -27.91 -27.91 0 0 -27.91 -27.91 0 0 -27.92 -55.82 0 0 -27.9 -27.91 0 0 -27.91 -55.81 0 0 -27.91 -55.82 0 0 -27.91 -55.82 0 0 -27.9 -83.73 0 0 -27.91 -279.09 0 0 -27.92 27.91 0 0 -27.91 27.91 0 0 -27.91 27.91 0 0 -27.9 27.91 0 0 -27.91 27.91 0 0 -27.91 27.91 0 0 -27.91 27.91 0 0 -27.91 27.91 0 0 -27.91 27.9 0 0 -27.91 27.91 0 0 -27.91 27.91 0 0 -27.91 27.91 0 0 -27.9 27.91 0 0 -55.82 55.82 0 0 -27.91 27.91 0 0 -27.91 27.91 0 0 -55.82 27.9 0 0 -27.91 -55.81 0 0 -27.91 -83.73 0 0 -27.9 -111.64 0 0 -27.91 -334.9 0 0 27.91 -111.64 0 0 27.9 -55.82 0 0 27.91 -55.82 0 0 27.91 -55.82 0 0 27.91 -55.81 0 0 27.91 -27.91 0 0 27.91 -27.91 0 0 27.91 -27.91 0 0 27.91 -27.91 0 0 27.91 -27.91 0 0 27.9 -27.91 0 0 27.91 -27.91 0 0 55.82 -27.91 0 0 27.91 -27.9 0 0 -27.91 -27.91 0 0 -27.91 -27.91 0 0 -55.82 -27.91 0 0 -27.9 -27.91 0 0 -27.91 -27.91 0 0 -27.91 -27.91 0 0 -27.91 -55.82 0 0 -27.91 -27.9 0 0 -27.91 -55.83 0 0 -27.91 -55.81 0 0 -27.91 -83.73 0 0 -27.91 -83.73 0 0 -167.45 -27.91 0 0 -223.27 -27.91 0 0 -251.18 -27.9 0 0 -251.18 -27.91 0 0 -223.28 -27.91 0 0 -251.18 -27.91 0 0 -279.09 -27.91 0 0 -195.37 -27.91 0 0 -223.27 -27.91 0 0 -307 55.82 0 0 -27.9 55.82 0 0 -27.91 27.91 0 0 -27.91 27.91 0 0 -27.91 27.9 0 0 -55.82 27.91 0 0 -418.64 -27.91 0 0 -55.81 -27.9 0 0 -27.91 -27.91 0 0 -27.91 -27.91 0 0 -27.91 -83.73 0 0 -27.91 -223.28 0 0 -725.64 -27.9 0 0 -83.72 -27.91 0 0 -55.82 -27.91 0 0 -55.82 -55.81 0 0 -27.91 -27.91 0 0 -27.91 -55.83 0 0 -27.91 -167.45 0 0 -27.9 -139.54 0 0 -27.91 -27.91 0 0 -27.91 -27.91 0 0 -83.73 -27.91 0 0 -27.91 -27.91 0 0 -55.82 -27.91 0 0 -27.9 -55.82 0 0 -27.91 -55.81 0 0 -27.92 -223.28 0 0 27.92zm-195.36 -2790.91l-223.27 0 0 27.91 -167.46 0 0 27.91 -111.63 0 0 27.9 -139.55 0 0 27.91 -83.73 0 0 27.91 -83.73 0 0 27.91 -83.72 0 0 27.92 -83.73 0 0 27.9 -55.82 0 0 27.91 -83.72 0 0 27.91 -55.82 0 0 27.91 -55.82 0 0 27.9 -55.82 0 0 27.91 -55.81 0 0 27.92 -55.83 0 0 27.91 -55.81 0 0 27.91 -55.82 0 0 27.9 -27.91 0 0 27.91 -55.82 0 0 27.91 -55.82 0 0 27.91 -27.91 0 0 27.91 -55.81 0 0 27.91 -27.91 0 0 27.91 -55.82 0 0 27.91 -27.91 0 0 27.91 -27.91 0 0 27.9 -55.82 0 0 27.91 -27.9 0 0 27.91 -27.91 0 0 27.91 -27.91 0 0 27.91 -27.91 0 0 27.91 -55.82 0 0 27.91 -27.91 0 0 27.91 -27.91 0 0 27.91 -27.91 0 0 27.9 -27.9 0 0 27.91 -27.91 0 0 27.91 -27.92 0 0 27.92 -27.91 0 0 27.9 -27.91 0 0 27.91 -27.9 0 0 27.91 -27.91 0 0 27.91 -27.91 0 0 27.91 -27.91 0 0 55.82 -27.91 0 0 27.91 -27.91 0 0 27.91 -27.91 0 0 27.9 -27.91 0 0 55.82 -27.91 0 0 27.91 -27.9 0 0 27.91 -27.91 0 0 55.82 -27.91 0 0 27.91 -27.91 0 0 55.81 -27.91 0 0 27.91 -27.91 0 0 27.91 -27.91 0 0 55.82 -27.91 0 0 55.82 -27.91 0 0 55.82 -27.9 0 0 27.9 -27.91 0 0 55.82 -27.91 0 0 55.83 -27.92 0 0 55.81 -27.9 0 0 55.82 -27.91 0 0 55.82 -27.91 0 0 83.73 -27.91 0 0 55.81 -27.91 0 0 83.73 -27.9 0 0 83.73 -27.92 0 0 83.72 -27.91 0 0 83.73 -27.91 0 0 111.64 -27.9 0 0 111.64 -27.91 0 0 167.44 -27.91 0 0 167.46 -27.91 0 0 6586.54 27.91 0 0 167.45 27.91 0 0 139.55 27.91 0 0 139.54 27.9 0 0 83.73 27.91 0 0 111.63 27.91 0 0 83.74 27.92 0 0 83.72 27.9 0 0 55.82 27.91 0 0 83.73 27.91 0 0 55.81 27.91 0 0 55.82 27.91 0 0 55.82 27.9 0 0 55.82 27.92 0 0 55.82 27.91 0 0 55.81 27.91 0 0 55.83 27.9 0 0 55.81 27.91 0 0 27.91 27.91 0 0 55.82 27.91 0 0 27.9 27.91 0 0 55.83 27.91 0 0 55.82 27.91 0 0 27.9 27.91 0 0 27.91 27.91 0 0 55.82 27.9 0 0 27.91 27.91 0 0 27.91 27.91 0 0 27.91 27.91 0 0 55.82 27.91 0 0 27.9 27.91 0 0 27.91 27.91 0 0 27.91 27.91 0 0 27.91 27.91 0 0 27.91 27.9 0 0 55.82 55.82 0 0 27.91 27.92 0 0 55.81 55.81 0 0 27.91 27.91 0 0 27.92 27.91 0 0 27.91 27.91 0 0 27.9 27.9 0 0 27.91 27.92 0 0 27.91 27.91 0 0 27.91 55.82 0 0 27.91 27.9 0 0 27.91 27.91 0 0 27.91 27.91 0 0 27.91 55.82 0 0 27.91 27.91 0 0 27.9 55.82 0 0 27.91 27.91 0 0 27.91 27.9 0 0 27.91 55.82 0 0 27.91 55.82 0 0 27.91 27.91 0 0 27.91 55.82 0 0 27.91 55.81 0 0 27.91 55.83 0 0 27.9 55.81 0 0 27.91 55.82 0 0 27.91 55.82 0 0 27.91 55.82 0 0 27.92 55.82 0 0 27.9 83.72 0 0 27.91 55.82 0 0 27.91 83.73 0 0 27.91 83.72 0 0 27.9 83.74 0 0 27.91 111.63 0 0 27.92 139.55 0 0 27.91 111.63 0 0 27.91 223.27 0 0 27.9 837.27 0 0 -27.9 251.18 0 0 -27.91 111.64 0 0 -27.91 111.63 0 0 -27.92 111.65 0 0 -27.91 83.72 0 0 -27.9 83.73 0 0 -27.91 83.73 0 0 -27.91 83.72 0 0 -27.91 55.82 0 0 -27.9 83.73 0 0 -27.92 55.81 0 0 -27.91 55.83 0 0 -27.91 55.81 0 0 -27.91 55.82 0 0 -27.9 55.82 0 0 -27.91 55.82 0 0 -27.91 27.91 0 0 -27.91 55.81 0 0 -27.91 27.91 0 0 -27.91 55.82 0 0 -27.91 27.91 0 0 -27.91 55.82 0 0 -27.91 27.91 0 0 -27.9 55.81 0 0 -27.91 27.91 0 0 -27.91 27.91 0 0 -27.91 55.83 0 0 -27.91 27.9 0 0 -27.91 27.91 0 0 -27.91 27.91 0 0 -27.91 27.91 0 0 -27.91 55.81 0 0 -27.9 27.92 0 0 -27.91 27.91 0 0 -27.92 27.91 0 0 -27.91 27.9 0 0 -27.9 27.91 0 0 -27.91 27.91 0 0 -27.91 27.91 0 0 -27.91 27.91 0 0 -27.91 27.91 0 0 -27.91 27.91 0 0 -27.91 27.91 0 0 -55.82 27.91 0 0 -27.9 27.9 0 0 -27.91 27.91 0 0 -27.91 27.91 0 0 -27.91 27.91 0 0 -55.82 27.91 0 0 -27.91 27.91 0 0 -27.91 27.91 0 0 -55.81 27.91 0 0 -27.91 27.91 0 0 -55.82 27.9 0 0 -27.92 27.91 0 0 -55.81 27.91 0 0 -27.91 27.92 0 0 -55.81 27.9 0 0 -55.83 27.91 0 0 -55.82 27.91 0 0 -55.81 27.91 0 0 -55.82 27.91 0 0 -55.82 27.9 0 0 -55.82 27.92 0 0 -55.81 27.91 0 0 -83.73 27.91 0 0 -55.82 27.9 0 0 -83.73 27.91 0 0 -83.72 27.91 0 0 -83.73 27.91 0 0 -83.73 27.91 0 0 -139.54 27.91 0 0 -111.64 27.91 0 0 -139.54 27.91 0 0 -279.09 27.91 0 0 -6279.54 -27.91 0 0 -251.18 -27.91 0 0 -167.46 -27.91 0 0 -111.64 -27.91 0 0 -111.63 -27.91 0 0 -111.64 -27.91 0 0 -83.72 -27.91 0 0 -83.73 -27.91 0 0 -83.73 -27.9 0 0 -55.82 -27.91 0 0 -55.81 -27.91 0 0 -83.74 -27.92 0 0 -55.81 -27.9 0 0 -55.82 -27.91 0 0 -55.81 -27.91 0 0 -55.83 -27.91 0 0 -55.81 -27.91 0 0 -27.91 -27.9 0 0 -55.82 -27.92 0 0 -55.82 -27.91 0 0 -27.91 -27.91 0 0 -55.82 -27.9 0 0 -27.9 -27.91 0 0 -55.82 -27.91 0 0 -27.91 -27.91 0 0 -27.91 -27.91 0 0 -55.82 -27.91 0 0 -27.91 -27.91 0 0 -27.91 -27.91 0 0 -55.81 -27.91 0 0 -27.91 -27.9 0 0 -27.92 -27.91 0 0 -27.9 -27.91 0 0 -27.91 -27.91 0 0 -27.91 -27.91 0 0 -27.91 -27.91 0 0 -27.91 -27.91 0 0 -27.9 -27.91 0 0 -27.92 -27.91 0 0 -27.91 -27.9 0 0 -27.91 -27.91 0 0 -27.9 -27.91 0 0 -27.91 -27.92 0 0 -27.91 -27.91 0 0 -27.91 -27.9 0 0 -27.91 -27.91 0 0 -27.91 -27.91 0 0 -27.91 -55.81 0 0 -27.91 -27.92 0 0 -27.91 -27.91 0 0 -27.9 -55.82 0 0 -27.91 -27.9 0 0 -27.91 -27.91 0 0 -27.91 -55.82 0 0 -27.91 -27.91 0 0 -27.91 -55.82 0 0 -27.91 -27.91 0 0 -27.91 -55.81 0 0 -27.91 -55.82 0 0 -27.9 -27.91 0 0 -27.91 -55.82 0 0 -27.91 -55.82 0 0 -27.92 -55.81 0 0 -27.91 -55.83 0 0 -27.9 -55.81 0 0 -27.91 -55.82 0 0 -27.91 -83.73 0 0 -27.91 -83.73 0 0 -27.9 -55.81 0 0 -27.92 -83.73 0 0 -27.91 -111.64 0 0 -27.91 -83.72 0 0 -27.91 -111.64 0 0 -27.9 -139.55 0 0 -27.91 -139.54 0 0 -27.91 -251.18 0 0 -27.91 -614 0 0 27.91z"/>
   <path class="fil0" d="M14344.32 14515.62l-27.91 0 0 167.45 -27.91 0 0 111.64 -27.91 0 0 111.64 -27.91 0 0 111.64 -27.91 0 0 83.72 -27.9 0 0 83.73 -27.91 0 0 83.73 -27.91 0 0 55.81 -27.91 0 0 83.73 -27.91 0 0 55.82 -27.91 0 0 83.72 -27.91 0 0 27.91 -27.91 0 0 83.74 -27.91 0 0 55.81 -27.9 0 0 27.91 -27.91 0 0 55.81 -27.91 0 0 55.83 -27.92 0 0 27.91 -27.9 0 0 55.81 -27.91 0 0 55.82 -27.91 0 0 27.91 -27.91 0 0 55.82 -27.91 0 0 27.91 -27.9 0 0 27.91 -27.92 0 0 55.81 -27.91 0 0 27.91 -27.91 0 0 27.91 -27.9 0 0 55.82 -27.91 0 0 27.91 -27.91 0 0 27.91 -27.91 0 0 27.91 -27.91 0 0 27.91 -27.91 0 0 55.81 -27.91 0 0 27.92 -27.91 0 0 27.91 -27.91 0 0 27.9 -27.9 0 0 27.91 -27.91 0 0 27.91 -27.91 0 0 27.91 -27.91 0 0 27.91 -27.91 0 0 27.91 -55.82 0 0 27.91 -27.91 0 0 27.91 -27.91 0 0 27.91 -27.9 0 0 27.9 -27.91 0 0 27.91 -27.91 0 0 27.91 -55.83 0 0 27.91 -27.9 0 0 27.91 -27.91 0 0 27.91 -55.82 0 0 27.91 -27.9 0 0 27.91 -27.92 0 0 27.91 -55.82 0 0 27.9 -27.91 0 0 27.91 -55.81 0 0 27.91 -55.82 0 0 27.91 -27.91 0 0 27.92 -55.82 0 0 27.9 -55.82 0 0 27.91 -27.9 0 0 27.91 -55.82 0 0 27.91 -83.73 0 0 27.9 -27.91 0 0 27.91 -83.72 0 0 27.92 -55.83 0 0 27.91 -55.81 0 0 27.91 -83.73 0 0 27.9 -83.73 0 0 27.91 -83.72 0 0 27.91 -83.73 0 0 27.91 -111.64 0 0 27.91 -111.63 0 0 27.91 -111.64 0 0 27.91 -195.37 0 0 27.91 -279.08 0 0 27.91 -725.64 0 0 -27.91 -279.09 0 0 -27.91 -167.45 0 0 -27.91 -139.55 0 0 -27.91 -111.64 0 0 -27.91 -111.63 0 0 -27.91 -83.73 0 0 -27.91 -55.82 0 0 -27.91 -111.63 0 0 -27.9 -55.82 0 0 -27.91 -55.82 0 0 -27.91 -83.73 0 0 -27.92 -55.81 0 0 -27.91 -55.83 0 0 -27.9 -55.81 0 0 -27.91 -55.82 0 0 -27.91 -55.82 0 0 -27.91 -27.91 0 0 -27.9 -55.82 0 0 -27.92 -55.81 0 0 -27.91 -55.82 0 0 -27.91 -27.91 0 0 -27.91 -55.82 0 0 -27.9 -27.91 0 0 -27.91 -55.81 0 0 -27.91 -27.91 0 0 -27.91 -27.91 0 0 -27.91 -55.83 0 0 -27.91 -27.9 0 0 -27.91 -27.91 0 0 -27.91 -27.91 0 0 -27.91 -55.81 0 0 -27.9 -27.91 0 0 -27.91 -27.92 0 0 -27.91 -27.91 0 0 -27.91 -27.91 0 0 -27.91 -27.9 0 0 -27.91 -27.91 0 0 -27.91 -27.91 0 0 -27.91 -27.91 0 0 -27.91 -27.91 0 0 -27.9 -27.91 0 0 -27.91 -27.91 0 0 -27.92 -27.91 0 0 -27.91 -27.91 0 0 -27.9 -27.9 0 0 -27.91 -27.91 0 0 -55.82 -27.91 0 0 -27.91 -27.91 0 0 -27.91 -27.91 0 0 -27.91 -27.91 0 0 -55.82 -27.91 0 0 -27.9 -27.91 0 0 -27.91 -27.91 0 0 -55.82 -27.9 0 0 -27.91 -27.91 0 0 -55.82 -27.91 0 0 -27.91 -27.92 0 0 -55.81 -27.9 0 0 -27.91 -27.91 0 0 -55.82 -27.91 0 0 -55.82 -27.91 0 0 -55.82 -27.91 0 0 -55.81 -27.9 0 0 -27.91 -27.92 0 0 -83.74 -27.91 0 0 -55.81 -27.91 0 0 -55.82 -27.9 0 0 -55.82 -27.91 0 0 -83.73 -27.91 0 0 -83.72 -27.91 0 0 -55.82 -27.91 0 0 -111.64 -27.91 0 0 -83.72 -27.91 0 0 -111.64 -27.91 0 0 -111.64 -27.91 0 0 -167.45 -27.9 0 0 -195.36 -27.91 0 0 -6781.9 27.91 0 0 -167.46 27.9 0 0 -167.45 27.91 0 0 -139.55 27.91 0 0 -83.73 27.91 0 0 -111.63 27.91 0 0 -83.73 27.91 0 0 -83.72 27.91 0 0 -55.82 27.91 0 0 -83.73 27.91 0 0 -55.82 27.9 0 0 -55.81 27.91 0 0 -83.74 27.91 0 0 -55.81 27.92 0 0 -55.82 27.9 0 0 -55.82 27.91 0 0 -55.82 27.91 0 0 -27.91 27.91 0 0 -55.81 27.91 0 0 -55.82 27.9 0 0 -27.91 27.92 0 0 -55.82 27.91 0 0 -27.91 27.91 0 0 -55.82 27.9 0 0 -27.9 27.91 0 0 -27.91 27.91 0 0 -55.83 27.91 0 0 -27.9 27.91 0 0 -27.91 27.91 0 0 -55.82 27.91 0 0 -27.91 27.91 0 0 -27.9 27.91 0 0 -27.92 27.9 0 0 -27.91 27.91 0 0 -27.91 27.91 0 0 -27.9 27.91 0 0 -27.91 27.91 0 0 -55.82 27.91 0 0 -27.91 27.91 0 0 -27.91 55.82 0 0 -27.91 27.9 0 0 -27.91 27.91 0 0 -27.91 27.91 0 0 -27.9 27.92 0 0 -27.91 27.91 0 0 -27.91 27.9 0 0 -27.91 27.91 0 0 -27.91 55.82 0 0 -27.91 27.9 0 0 -27.91 27.92 0 0 -27.91 55.82 0 0 -27.91 27.91 0 0 -27.9 27.9 0 0 -27.91 55.82 0 0 -27.91 27.91 0 0 -27.92 55.82 0 0 -27.91 55.82 0 0 -27.9 27.91 0 0 -27.91 55.81 0 0 -27.91 55.82 0 0 -27.91 55.82 0 0 -27.9 27.91 0 0 -27.92 55.82 0 0 -27.91 83.73 0 0 -27.91 27.91 0 0 -27.91 83.72 0 0 -27.9 55.82 0 0 -27.91 83.73 0 0 -27.91 55.81 0 0 -27.91 83.73 0 0 -27.91 111.64 0 0 -27.91 83.72 0 0 -27.91 111.64 0 0 -27.91 139.54 0 0 -27.91 139.55 0 0 -27.9 195.37 0 0 -27.91 1032.63 0 0 27.91 195.37 0 0 27.9 139.54 0 0 27.91 139.55 0 0 27.91 111.63 0 0 27.91 83.73 0 0 27.91 83.72 0 0 27.91 83.73 0 0 27.91 83.73 0 0 27.91 55.82 0 0 27.91 83.73 0 0 27.9 55.81 0 0 27.91 55.82 0 0 27.91 55.82 0 0 27.91 55.82 0 0 27.92 55.82 0 0 27.9 55.81 0 0 27.91 55.82 0 0 27.91 27.91 0 0 27.91 55.82 0 0 27.9 55.82 0 0 27.91 27.9 0 0 27.92 55.82 0 0 27.91 27.91 0 0 27.91 55.82 0 0 27.9 27.91 0 0 27.91 27.91 0 0 27.91 55.81 0 0 27.91 27.91 0 0 27.91 27.92 0 0 27.91 27.91 0 0 27.91 27.91 0 0 27.91 55.81 0 0 27.91 27.91 0 0 27.9 27.91 0 0 27.91 27.91 0 0 27.91 27.91 0 0 27.91 27.91 0 0 27.91 27.91 0 0 27.91 27.91 0 0 27.91 27.9 0 0 27.91 27.91 0 0 27.91 27.91 0 0 27.9 27.91 0 0 27.91 27.91 0 0 27.91 27.91 0 0 55.82 27.91 0 0 27.91 27.91 0 0 27.91 27.91 0 0 27.91 27.9 0 0 55.81 27.91 0 0 27.92 27.91 0 0 27.91 27.92 0 0 55.81 27.9 0 0 27.91 27.91 0 0 55.82 27.91 0 0 27.91 27.91 0 0 55.82 27.91 0 0 27.91 27.9 0 0 55.81 27.92 0 0 55.82 27.91 0 0 27.91 27.91 0 0 55.82 27.9 0 0 55.82 27.91 0 0 55.81 27.91 0 0 55.82 27.91 0 0 55.83 27.91 0 0 83.72 27.91 0 0 55.81 27.91 0 0 83.74 27.91 0 0 83.72 27.91 0 0 83.73 27.9 0 0 83.73 27.91 0 0 83.72 27.91 0 0 139.55 27.91 0 0 111.63 27.91 0 0 167.46 27.91 0 0 334.91 27.91 0 0 6335.36 -27.91 0 0 362.81zm-4158.45 -10326.35l-307 0 0 27.91 -139.54 0 0 27.91 -139.55 0 0 27.91 -139.55 0 0 27.91 -83.72 0 0 27.91 -83.73 0 0 27.91 -111.64 0 0 27.9 -55.81 0 0 27.91 -83.73 0 0 27.91 -83.73 0 0 27.91 -55.81 0 0 27.91 -55.83 0 0 27.91 -55.81 0 0 27.91 -55.82 0 0 27.91 -55.82 0 0 27.91 -55.82 0 0 27.9 -55.82 0 0 27.91 -55.81 0 0 27.91 -55.82 0 0 27.91 -27.91 0 0 27.92 -55.82 0 0 27.9 -27.91 0 0 27.91 -55.81 0 0 27.91 -27.91 0 0 27.91 -55.82 0 0 27.9 -27.92 0 0 27.91 -27.9 0 0 27.92 -55.82 0 0 27.91 -27.91 0 0 27.91 -27.9 0 0 27.9 -55.83 0 0 27.91 -27.91 0 0 27.91 -27.91 0 0 27.91 -27.9 0 0 27.91 -27.91 0 0 27.91 -27.91 0 0 27.91 -27.91 0 0 27.91 -27.91 0 0 27.91 -55.82 0 0 27.9 -27.91 0 0 27.91 -27.91 0 0 55.82 -27.9 0 0 27.91 -27.91 0 0 27.91 -27.91 0 0 27.91 -27.91 0 0 27.91 -27.91 0 0 27.91 -27.91 0 0 27.9 -27.91 0 0 27.91 -27.91 0 0 55.83 -27.91 0 0 27.9 -27.9 0 0 27.91 -27.91 0 0 55.82 -27.91 0 0 27.91 -27.92 0 0 27.9 -27.9 0 0 55.83 -27.91 0 0 27.91 -27.91 0 0 55.81 -27.91 0 0 27.91 -27.91 0 0 55.82 -27.9 0 0 27.91 -27.92 0 0 55.82 -27.91 0 0 55.81 -27.91 0 0 55.82 -27.9 0 0 55.82 -27.91 0 0 55.82 -27.91 0 0 55.82 -27.91 0 0 55.81 -27.91 0 0 55.83 -27.91 0 0 55.81 -27.91 0 0 83.73 -27.91 0 0 83.73 -27.91 0 0 55.82 -27.9 0 0 83.72 -27.91 0 0 111.64 -27.91 0 0 83.72 -27.91 0 0 111.64 -27.91 0 0 167.45 -27.91 0 0 167.46 -27.91 0 0 195.36 -27.91 0 0 6614.45 27.91 0 0 223.27 27.91 0 0 167.45 27.91 0 0 167.46 27.91 0 0 83.72 27.91 0 0 111.64 27.91 0 0 83.73 27.91 0 0 83.73 27.9 0 0 83.72 27.91 0 0 83.73 27.91 0 0 55.82 27.91 0 0 83.73 27.91 0 0 55.81 27.91 0 0 55.83 27.91 0 0 55.81 27.91 0 0 55.82 27.91 0 0 55.81 27.9 0 0 55.83 27.91 0 0 55.82 27.91 0 0 27.9 27.92 0 0 55.82 27.9 0 0 27.91 27.91 0 0 55.82 27.91 0 0 55.82 27.91 0 0 27.91 27.91 0 0 27.9 27.9 0 0 55.82 27.92 0 0 27.91 27.91 0 0 27.91 27.91 0 0 55.82 27.9 0 0 27.91 27.91 0 0 27.91 27.91 0 0 27.9 27.91 0 0 27.91 27.91 0 0 55.83 27.91 0 0 27.9 27.91 0 0 27.91 27.91 0 0 27.91 27.91 0 0 27.91 27.9 0 0 27.91 27.91 0 0 27.91 27.91 0 0 27.91 27.91 0 0 27.91 27.91 0 0 27.91 27.91 0 0 27.9 27.91 0 0 27.91 27.91 0 0 27.91 27.91 0 0 27.91 27.9 0 0 27.91 55.82 0 0 27.91 27.92 0 0 27.91 27.91 0 0 27.91 27.9 0 0 27.91 55.82 0 0 27.9 27.91 0 0 27.91 27.9 0 0 27.91 55.83 0 0 27.91 27.91 0 0 27.92 55.81 0 0 27.9 27.91 0 0 27.91 55.82 0 0 27.91 27.91 0 0 27.91 55.82 0 0 27.9 55.82 0 0 27.91 55.81 0 0 27.92 55.82 0 0 27.91 27.91 0 0 27.91 55.82 0 0 27.9 83.72 0 0 27.91 55.83 0 0 27.91 55.81 0 0 27.91 55.82 0 0 27.91 83.73 0 0 27.91 83.73 0 0 27.91 83.72 0 0 27.91 83.73 0 0 27.91 83.73 0 0 27.9 111.63 0 0 27.91 111.64 0 0 27.91 139.55 0 0 27.91 223.27 0 0 27.91 1116.36 0 0 -27.91 251.18 0 0 -27.91 111.64 0 0 -27.91 111.63 0 0 -27.91 139.55 0 0 -27.9 83.73 0 0 -27.91 83.72 0 0 -27.91 83.73 0 0 -27.91 83.73 0 0 -27.91 55.81 0 0 -27.91 83.73 0 0 -27.91 55.82 0 0 -27.91 55.82 0 0 -27.91 55.82 0 0 -27.9 55.82 0 0 -27.91 55.81 0 0 -27.91 55.82 0 0 -27.92 55.82 0 0 -27.91 27.91 0 0 -27.9 55.82 0 0 -27.91 55.81 0 0 -27.91 27.91 0 0 -27.91 55.83 0 0 -27.9 27.9 0 0 -27.92 55.82 0 0 -27.91 27.91 0 0 -27.91 55.81 0 0 -27.91 27.92 0 0 -27.9 27.91 0 0 -27.91 27.91 0 0 -27.91 55.81 0 0 -27.91 27.91 0 0 -27.91 27.91 0 0 -27.91 27.91 0 0 -27.91 27.91 0 0 -27.91 27.91 0 0 -27.91 55.82 0 0 -27.9 27.9 0 0 -27.91 27.91 0 0 -27.91 27.91 0 0 -27.91 27.91 0 0 -27.91 27.91 0 0 -27.91 27.91 0 0 -27.91 27.91 0 0 -55.82 27.91 0 0 -27.9 27.91 0 0 -27.91 27.9 0 0 -27.92 27.91 0 0 -27.91 27.91 0 0 -27.9 27.92 0 0 -55.82 27.9 0 0 -27.91 27.91 0 0 -27.91 27.91 0 0 -27.91 27.91 0 0 -55.82 27.91 0 0 -27.91 27.9 0 0 -55.81 27.92 0 0 -27.91 27.91 0 0 -55.82 27.91 0 0 -27.91 27.9 0 0 -55.82 27.91 0 0 -55.81 27.91 0 0 -27.91 27.91 0 0 -55.82 27.91 0 0 -55.82 27.91 0 0 -55.82 27.91 0 0 -55.81 27.91 0 0 -55.83 27.91 0 0 -55.82 27.9 0 0 -55.81 27.91 0 0 -83.73 27.91 0 0 -55.82 27.91 0 0 -83.72 27.91 0 0 -83.73 27.91 0 0 -83.73 27.91 0 0 -83.72 27.91 0 0 -139.55 27.91 0 0 -111.63 27.9 0 0 -139.55 27.91 0 0 -223.27 27.91 0 0 -6837.72 -27.91 0 0 -195.36 -27.91 0 0 -139.55 -27.9 0 0 -111.64 -27.91 0 0 -139.54 -27.91 0 0 -83.73 -27.91 0 0 -83.73 -27.91 0 0 -83.72 -27.91 0 0 -83.74 -27.91 0 0 -55.81 -27.91 0 0 -83.72 -27.91 0 0 -55.83 -27.9 0 0 -55.82 -27.91 0 0 -83.72 -27.91 0 0 -27.91 -27.91 0 0 -55.82 -27.91 0 0 -55.82 -27.91 0 0 -55.81 -27.91 0 0 -55.82 -27.91 0 0 -27.91 -27.91 0 0 -55.82 -27.9 0 0 -55.82 -27.91 0 0 -27.91 -27.91 0 0 -55.81 -27.92 0 0 -27.91 -27.9 0 0 -27.92 -27.91 0 0 -55.81 -27.91 0 0 -27.91 -27.91 0 0 -27.91 -27.91 0 0 -55.81 -27.9 0 0 -27.92 -27.92 0 0 -27.91 -27.91 0 0 -27.91 -27.91 0 0 -55.81 -27.9 0 0 -27.91 -27.91 0 0 -27.91 -27.91 0 0 -27.91 -27.91 0 0 -27.91 -27.91 0 0 -27.91 -27.91 0 0 -27.91 -27.91 0 0 -27.91 -27.91 0 0 -27.9 -27.91 0 0 -27.91 -27.9 0 0 -27.91 -27.91 0 0 -27.91 -27.91 0 0 -27.91 -27.91 0 0 -27.91 -27.91 0 0 -27.91 -55.82 0 0 -27.91 -27.91 0 0 -27.91 -27.91 0 0 -27.9 -27.9 0 0 -27.91 -55.82 0 0 -27.91 -27.92 0 0 -27.92 -27.91 0 0 -27.91 -55.81 0 0 -27.9 -27.91 0 0 -27.91 -55.81 0 0 -27.91 -27.92 0 0 -27.91 -55.82 0 0 -27.9 -27.91 0 0 -27.92 -55.81 0 0 -27.91 -55.82 0 0 -27.91 -27.91 0 0 -27.91 -55.82 0 0 -27.9 -55.82 0 0 -27.91 -55.81 0 0 -27.91 -55.82 0 0 -27.91 -55.82 0 0 -27.91 -83.73 0 0 -27.91 -55.81 0 0 -27.91 -83.73 0 0 -27.91 -55.82 0 0 -27.91 -83.73 0 0 -27.9 -83.73 0 0 -27.91 -83.72 0 0 -27.91 -111.64 0 0 -27.91 -111.63 0 0 -27.91 -139.55 0 0 -27.91 -167.46 0 0 -27.91 -306.99 0 0 -27.91 -725.64 0 0 27.91z"/>
   <polygon class="fil0" points="11497.6,20320.7 11581.32,20320.7 11581.32,20348.61 11776.69,20348.61 11776.69,20376.52 11804.6,20376.52 11804.6,20404.43 11832.5,20404.43 11832.5,23167.43 11804.6,23167.43 11804.6,23195.33 11748.78,23195.33 11748.78,23223.24 11553.42,23223.24 11553.42,23251.16 11497.6,23251.16 11497.6,23306.98 13786.14,23306.98 13786.14,22888.34 13814.05,22888.34 13814.05,22553.43 13758.23,22553.43 13758.23,22581.34 13730.32,22581.34 13730.32,22665.07 13702.41,22665.07 13702.41,22748.79 13674.51,22748.79 13674.51,22804.61 13646.59,22804.61 13646.59,22860.43 13618.68,22860.43 13618.68,22916.25 13590.77,22916.25 13590.77,22972.06 13562.87,22972.06 13562.87,22999.97 13534.96,22999.97 13534.96,23027.88 13507.05,23027.88 13507.05,23055.8 13479.14,23055.8 13479.14,23083.7 13451.23,23083.7 13451.23,23111.61 13423.32,23111.61 13423.32,23139.52 13367.5,23139.52 13367.5,23167.43 13311.69,23167.43 13311.69,23195.33 13255.87,23195.33 13255.87,23223.24 12362.78,23223.24 12362.78,21799.89 12976.77,21799.89 12976.77,21827.79 13032.6,21827.79 13032.6,21855.7 13060.51,21855.7 13060.51,21883.61 13088.41,21883.61 13088.41,21911.52 13116.32,21911.52 13116.32,21939.43 13144.23,21939.43 13144.23,21967.34 13172.14,21967.34 13172.14,22023.16 13200.05,22023.16 13200.05,22106.88 13227.96,22106.88 13227.96,22218.52 13255.87,22218.52 13255.87,22274.34 13311.69,22274.34 13311.69,21213.79 13255.87,21213.79 13255.87,21297.53 13227.96,21297.53 13227.96,21409.16 13200.05,21409.16 13200.05,21464.97 13172.14,21464.97 13172.14,21520.8 13144.23,21520.8 13144.23,21576.61 13116.32,21576.61 13116.32,21604.52 13088.41,21604.52 13088.41,21632.43 13060.51,21632.43 13060.51,21660.34 13004.69,21660.34 13004.69,21688.24 12920.96,21688.24 12920.96,21716.16 12362.78,21716.16 12362.78,20320.7 13144.23,20320.7 13144.23,20348.61 13255.87,20348.61 13255.87,20376.52 13339.59,20376.52 13339.59,20404.43 13367.5,20404.43 13367.5,20432.34 13423.32,20432.34 13423.32,20460.25 13451.23,20460.25 13451.23,20488.16 13479.14,20488.16 13479.14,20516.07 13507.05,20516.07 13507.05,20571.88 13534.96,20571.88 13534.96,20599.79 13562.87,20599.79 13562.87,20655.62 13590.77,20655.62 13590.77,20711.43 13618.68,20711.43 13618.68,20795.16 13646.59,20795.16 13646.59,20878.89 13674.51,20878.89 13674.51,20962.61 13702.41,20962.61 13702.41,20990.52 13758.23,20990.52 13758.23,20264.89 11497.6,20264.89 "/>
   <path class="fil0" d="M3180.69 22162.71l27.92 0 0 -83.74 27.91 0 0 -83.72 27.91 0 0 -83.73 27.9 0 0 -111.63 27.91 0 0 -55.82 27.91 0 0 -111.64 27.91 0 0 -83.72 27.91 0 0 -83.74 27.91 0 0 -83.72 27.91 0 0 -83.72 27.91 0 0 -83.74 27.91 0 0 -83.72 27.9 0 0 -111.64 27.91 0 0 -55.82 27.91 0 0 -111.63 27.91 0 0 -83.73 27.91 0 0 -83.73 55.82 0 0 83.73 27.91 0 0 83.73 27.91 0 0 55.82 27.9 0 0 83.72 27.91 0 0 83.73 27.91 0 0 83.73 27.92 0 0 83.72 27.9 0 0 83.73 27.91 0 0 55.82 27.91 0 0 83.72 27.91 0 0 83.74 27.91 0 0 83.72 27.9 0 0 55.81 27.92 0 0 83.74 27.91 0 0 83.72 27.91 0 0 83.73 27.9 0 0 83.73 27.91 0 0 83.72 27.91 0 0 55.83 27.91 0 0 27.9 -1060.55 0 0 -27.9zm558.19 -1897.82l-27.91 0 0 83.72 -27.91 0 0 83.73 -27.91 0 0 83.73 -27.91 0 0 111.64 -27.91 0 0 83.72 -27.91 0 0 83.73 -27.91 0 0 83.73 -27.9 0 0 83.72 -27.91 0 0 83.73 -27.91 0 0 111.64 -27.91 0 0 83.72 -27.91 0 0 55.83 -27.91 0 0 111.63 -27.91 0 0 83.73 -27.91 0 0 83.72 -27.91 0 0 83.73 -27.9 0 0 83.73 -27.91 0 0 83.72 -27.91 0 0 83.73 -27.92 0 0 111.64 -27.9 0 0 83.72 -27.91 0 0 55.83 -27.91 0 0 111.63 -27.91 0 0 83.72 -27.91 0 0 83.73 -27.9 0 0 83.73 -27.91 0 0 83.73 -27.92 0 0 83.72 -27.91 0 0 111.64 -27.9 0 0 83.73 -27.91 0 0 83.72 -27.91 0 0 83.74 -27.91 0 0 55.81 -27.91 0 0 27.91 -27.91 0 0 27.91 -55.82 0 0 27.9 -83.72 0 0 27.91 -111.64 0 0 27.92 -27.91 0 0 55.82 948.91 0 0 -83.74 -307 0 0 -27.91 -139.54 0 0 -27.9 -55.83 0 0 -27.91 -27.9 0 0 -111.64 27.9 0 0 -83.73 27.91 0 0 -83.72 27.92 0 0 -83.73 27.91 0 0 -111.63 27.9 0 0 -55.82 27.91 0 0 -111.64 27.91 0 0 -83.72 27.91 0 0 -83.74 27.91 0 0 -55.81 1116.36 0 0 83.72 27.91 0 0 55.83 27.91 0 0 83.72 27.91 0 0 83.73 27.91 0 0 55.82 27.9 0 0 83.72 27.91 0 0 83.73 27.91 0 0 83.73 27.91 0 0 55.81 27.92 0 0 111.65 27.9 0 0 55.81 -27.9 0 0 55.82 -27.92 0 0 27.9 -83.73 0 0 27.91 -195.36 0 0 27.92 -27.91 0 0 55.82 1200.09 0 0 -27.91 27.91 0 0 -27.91 -27.91 0 0 -27.92 -139.54 0 0 -27.91 -55.82 0 0 -27.9 -27.91 0 0 -27.91 -27.91 0 0 -55.82 -27.91 0 0 -55.82 -27.91 0 0 -83.73 -27.91 0 0 -83.72 -27.9 0 0 -55.82 -27.91 0 0 -83.73 -27.91 0 0 -55.81 -27.91 0 0 -83.73 -27.92 0 0 -83.73 -27.9 0 0 -55.82 -27.91 0 0 -83.73 -27.91 0 0 -83.72 -27.91 0 0 -55.82 -27.9 0 0 -83.73 -27.91 0 0 -83.72 -27.92 0 0 -83.73 -27.91 0 0 -83.73 -27.91 0 0 -55.82 -27.9 0 0 -83.72 -27.91 0 0 -55.83 -27.91 0 0 -83.72 -27.91 0 0 -83.72 -27.9 0 0 -83.74 -27.92 0 0 -55.81 -27.91 0 0 -83.72 -27.91 0 0 -55.83 -27.91 0 0 -83.72 -27.9 0 0 -83.73 -27.91 0 0 -55.82 -27.91 0 0 -83.73 -27.91 0 0 -83.72 -27.91 0 0 -83.73 -27.91 0 0 -55.82 -27.91 0 0 -83.72 -27.91 0 0 -83.73 -27.91 0 0 -83.73 -27.9 0 0 -55.82 -27.91 0 0 -83.73 -27.91 0 0 -55.81 -27.92 0 0 -27.91 -306.99 0 0 27.91z"/>
   <path class="fil0" d="M16437.5 22134.79l27.9 0 0 -83.72 27.92 0 0 -83.73 27.91 0 0 -83.73 27.91 0 0 -83.72 27.91 0 0 -83.73 27.9 0 0 -83.73 27.91 0 0 -111.63 27.91 0 0 -83.74 27.91 0 0 -83.72 27.91 0 0 -83.73 27.91 0 0 -83.73 27.91 0 0 -83.72 27.91 0 0 -83.73 27.91 0 0 -83.73 27.9 0 0 -83.72 27.91 0 0 -83.73 27.91 0 0 -111.63 27.92 0 0 55.81 27.9 0 0 55.82 27.91 0 0 83.73 27.91 0 0 83.72 27.91 0 0 83.73 27.91 0 0 83.73 27.9 0 0 83.72 27.92 0 0 55.82 27.91 0 0 83.73 27.91 0 0 83.73 27.9 0 0 83.73 27.91 0 0 55.82 27.91 0 0 111.63 27.91 0 0 55.82 27.91 0 0 83.73 27.91 0 0 83.72 27.91 0 0 83.73 27.91 0 0 55.82 27.91 0 0 83.72 27.9 0 0 83.73 -1032.63 0 0 -55.82zm558.18 -1869.9l-27.91 0 0 55.81 -27.9 0 0 111.64 -27.92 0 0 83.73 -27.91 0 0 83.72 -27.91 0 0 83.73 -27.9 0 0 83.73 -27.91 0 0 83.73 -27.91 0 0 83.72 -27.91 0 0 111.64 -27.91 0 0 83.73 -27.91 0 0 55.81 -27.91 0 0 111.65 -27.91 0 0 83.72 -27.91 0 0 83.72 -27.9 0 0 83.74 -27.91 0 0 83.72 -27.91 0 0 83.73 -27.91 0 0 83.73 -27.92 0 0 111.63 -27.9 0 0 83.73 -27.91 0 0 83.72 -27.91 0 0 83.74 -27.91 0 0 83.72 -27.9 0 0 83.72 -27.91 0 0 83.74 -27.91 0 0 111.63 -27.92 0 0 55.82 -27.91 0 0 111.63 -27.9 0 0 83.73 -27.91 0 0 83.73 -27.91 0 0 83.72 -27.91 0 0 83.73 -27.9 0 0 55.82 -27.92 0 0 55.82 -55.82 0 0 27.91 -27.91 0 0 27.9 -83.72 0 0 27.91 -111.64 0 0 27.92 -27.91 0 0 55.82 948.91 0 0 -55.82 -27.91 0 0 -27.92 -279.09 0 0 -27.91 -167.46 0 0 -27.9 -27.9 0 0 -27.91 -27.91 0 0 -139.55 27.91 0 0 -83.72 27.9 0 0 -83.73 27.91 0 0 -83.73 27.92 0 0 -83.72 27.91 0 0 -111.64 27.91 0 0 -55.82 27.9 0 0 -83.72 27.91 0 0 -111.64 27.91 0 0 -27.91 1116.36 0 0 83.72 27.91 0 0 83.73 27.91 0 0 55.82 27.91 0 0 83.73 27.91 0 0 83.73 27.91 0 0 83.72 27.91 0 0 83.73 27.9 0 0 83.73 27.91 0 0 55.81 27.91 0 0 195.37 -55.82 0 0 27.9 -55.81 0 0 27.91 -195.37 0 0 27.92 -27.9 0 0 55.82 1200.08 0 0 -55.82 -27.91 0 0 -27.92 -111.63 0 0 -27.91 -55.82 0 0 -27.9 -27.91 0 0 -27.91 -27.91 0 0 -27.91 -27.91 0 0 -55.81 -27.91 0 0 -83.74 -27.9 0 0 -83.72 -27.91 0 0 -55.82 -27.91 0 0 -83.73 -27.91 0 0 -83.72 -27.91 0 0 -55.82 -27.91 0 0 -83.73 -27.91 0 0 -83.73 -27.91 0 0 -55.81 -27.91 0 0 -83.73 -27.9 0 0 -83.73 -27.91 0 0 -55.81 -27.92 0 0 -83.74 -27.91 0 0 -83.72 -27.9 0 0 -83.73 -27.91 0 0 -55.82 -27.91 0 0 -83.72 -27.91 0 0 -83.74 -27.91 0 0 -55.81 -27.9 0 0 -83.72 -27.92 0 0 -83.74 -27.91 0 0 -55.81 -27.91 0 0 -83.73 -27.9 0 0 -83.73 -27.91 0 0 -55.82 -27.91 0 0 -83.72 -27.91 0 0 -83.73 -27.91 0 0 -55.82 -27.91 0 0 -83.72 -27.91 0 0 -83.73 -27.91 0 0 -83.73 -27.91 0 0 -55.81 -27.9 0 0 -83.74 -27.91 0 0 -83.72 -27.91 0 0 -55.82 -27.91 0 0 -83.73 -27.91 0 0 -83.72 -27.91 0 0 -27.91 -307 0 0 27.91z"/>
   <polygon class="fil0" points="7311.23,20320.7 7394.97,20320.7 7394.97,20348.61 7590.33,20348.61 7590.33,20376.52 7618.24,20376.52 7618.24,20404.43 7646.15,20404.43 7646.15,23167.43 7618.24,23167.43 7618.24,23195.33 7562.42,23195.33 7562.42,23223.24 7339.15,23223.24 7339.15,23251.16 7311.23,23251.16 7311.23,23306.98 9543.97,23306.98 9543.97,23055.8 9571.87,23055.8 9571.87,22553.43 9516.05,22553.43 9516.05,22609.25 9488.14,22609.25 9488.14,22692.97 9460.23,22692.97 9460.23,22776.7 9432.32,22776.7 9432.32,22832.52 9404.42,22832.52 9404.42,22888.34 9376.51,22888.34 9376.51,22916.25 9348.6,22916.25 9348.6,22972.06 9320.69,22972.06 9320.69,22999.97 9292.78,22999.97 9292.78,23027.88 9264.87,23027.88 9264.87,23055.8 9236.96,23055.8 9236.96,23111.61 9181.14,23111.61 9181.14,23139.52 9153.24,23139.52 9153.24,23167.43 9097.42,23167.43 9097.42,23195.33 9013.69,23195.33 9013.69,23223.24 8176.41,23223.24 8176.41,20404.43 8204.33,20404.43 8204.33,20376.52 8232.24,20376.52 8232.24,20348.61 8427.6,20348.61 8427.6,20320.7 8511.33,20320.7 8511.33,20264.89 7311.23,20264.89 "/>
   <polygon class="fil1" points="11860.41,5947.54 11776.69,5947.54 11776.69,5975.45 11720.87,5975.45 11720.87,6003.36 11692.96,6003.36 11692.96,6031.27 11637.14,6031.27 11637.14,6059.18 11609.23,6059.18 11609.23,6087.09 11581.32,6087.09 11581.32,6115 11553.42,6115 11553.42,6142.9 11525.51,6142.9 11525.51,6170.81 11497.6,6170.81 11497.6,6198.72 11469.69,6198.72 11469.69,6254.54 11441.77,6254.54 11441.77,6310.36 11413.87,6310.36 11413.87,6394.08 11385.96,6394.08 11385.96,6561.54 11358.05,6561.54 11358.05,6617.36 11385.96,6617.36 11385.96,6784.81 11413.87,6784.81 11413.87,6868.54 11441.77,6868.54 11441.77,6924.36 11469.69,6924.36 11469.69,6952.27 11497.6,6952.27 11497.6,7008.09 11525.51,7008.09 11525.51,7035.99 11553.42,7035.99 11553.42,7063.9 11581.32,7063.9 11581.32,7091.81 11609.23,7091.81 11609.23,7119.72 11637.14,7119.72 11637.14,7147.63 11692.96,7147.63 11692.96,7175.54 11720.87,7175.54 11720.87,7203.45 11804.6,7203.45 11804.6,7231.36 11860.41,7231.36 11860.41,7259.27 12223.23,7259.27 12223.23,7231.36 12306.96,7231.36 12306.96,7203.45 12362.78,7203.45 12362.78,7175.54 12418.6,7175.54 12418.6,7147.63 12446.5,7147.63 12446.5,7119.72 12502.32,7119.72 12502.32,7091.81 12530.23,7091.81 12530.23,7063.9 12558.14,7063.9 12558.14,7035.99 12586.05,7035.99 12586.05,6980.18 12613.96,6980.18 12613.96,6952.27 12641.87,6952.27 12641.87,6896.45 12669.78,6896.45 12669.78,6840.63 12697.68,6840.63 12697.68,6756.91 12725.59,6756.91 12725.59,6421.99 12697.68,6421.99 12697.68,6338.27 12669.78,6338.27 12669.78,6282.45 12641.87,6282.45 12641.87,6226.63 12613.96,6226.63 12613.96,6198.72 12586.05,6198.72 12586.05,6142.9 12558.14,6142.9 12558.14,6115 12530.23,6115 12530.23,6087.09 12502.32,6087.09 12502.32,6059.18 12474.41,6059.18 12474.41,6031.27 12418.6,6031.27 12418.6,6003.36 12390.69,6003.36 12390.69,5975.45 12306.96,5975.45 12306.96,5947.54 12223.23,5947.54 12223.23,5919.63 11860.41,5919.63 "/>
   <path class="fil0" d="M16660.77 13789.98l-27.91 0 0 55.82 -27.91 0 0 55.83 -27.9 0 0 27.9 -111.65 0 0 -27.9 -27.9 0 0 -27.92 -27.91 0 0 -55.82 -27.91 0 0 -111.63 -27.91 0 0 -418.64 27.91 0 0 -111.64 27.91 0 0 -55.81 27.91 0 0 -55.82 55.82 0 0 -27.91 55.82 0 0 27.91 27.91 0 0 27.91 27.9 0 0 27.91 27.91 0 0 83.72 27.91 0 0 195.37 27.91 0 0 167.45 -27.91 0 0 223.27zm-251.18 -753.54l-55.82 0 0 27.91 -27.9 0 0 27.91 -27.91 0 0 27.91 -27.91 0 0 27.91 -27.92 0 0 27.9 -27.91 0 0 55.83 -27.9 0 0 83.72 -27.91 0 0 334.91 27.91 0 0 83.73 27.9 0 0 55.81 27.91 0 0 55.82 27.92 0 0 27.91 27.91 0 0 27.92 27.91 0 0 27.9 55.81 0 0 27.91 83.72 0 0 27.91 111.65 0 0 -27.91 83.72 0 0 -27.91 55.82 0 0 -27.9 27.91 0 0 -27.92 27.91 0 0 -55.82 27.91 0 0 -27.91 27.91 0 0 -83.72 27.9 0 0 -83.73 27.91 0 0 -279.09 -27.91 0 0 -83.72 -27.9 0 0 -55.83 -27.91 0 0 -55.81 -27.91 0 0 -27.91 -27.91 0 0 -27.91 -27.91 0 0 -27.91 -27.91 0 0 -27.91 -55.82 0 0 -27.91 -223.27 0 0 27.91z"/>
   <path class="fil0" d="M5162.24 13175.98l27.91 0 0 -83.72 27.91 0 0 -27.91 27.91 0 0 -55.82 139.54 0 0 55.82 27.91 0 0 27.91 27.91 0 0 111.63 27.91 0 0 502.37 -27.91 0 0 83.72 -27.91 0 0 55.82 -27.91 0 0 27.91 -55.82 0 0 27.92 -27.91 0 0 -27.92 -55.81 0 0 -27.91 -27.91 0 0 -55.82 -27.91 0 0 -83.72 -27.91 0 0 -530.28zm83.73 -195.36l-83.73 0 0 27.91 -27.91 0 0 27.91 -27.91 0 0 27.91 -27.91 0 0 27.91 -27.91 0 0 27.91 -27.9 0 0 55.81 -27.91 0 0 55.83 -27.91 0 0 167.45 -27.91 0 0 111.64 27.91 0 0 139.54 27.91 0 0 55.82 27.91 0 0 55.82 27.9 0 0 55.81 27.91 0 0 27.91 27.91 0 0 27.91 55.82 0 0 27.92 55.82 0 0 27.9 195.36 0 0 -27.9 55.82 0 0 -27.92 55.82 0 0 -27.91 27.9 0 0 -27.91 27.91 0 0 -55.81 27.92 0 0 -55.82 27.91 0 0 -55.82 27.9 0 0 -418.63 -27.9 0 0 -55.83 -27.91 0 0 -55.81 -27.92 0 0 -27.91 -27.91 0 0 -27.91 -27.9 0 0 -27.91 -27.91 0 0 -27.91 -27.91 0 0 -27.91 -83.73 0 0 -27.91 -139.54 0 0 27.91z"/>
   <polygon class="fil0" points="4380.79,12980.62 4297.06,12980.62 4297.06,13008.53 4269.15,13008.53 4269.15,13036.44 4241.24,13036.44 4241.24,13064.35 4213.33,13064.35 4213.33,13092.26 4185.42,13092.26 4185.42,13231.81 4213.33,13231.81 4213.33,13259.72 4324.97,13259.72 4324.97,13231.81 4352.88,13231.81 4352.88,13175.98 4324.97,13175.98 4324.97,13148.08 4297.06,13148.08 4297.06,13064.35 4324.97,13064.35 4324.97,13036.44 4352.88,13036.44 4352.88,13008.53 4492.42,13008.53 4492.42,13036.44 4520.34,13036.44 4520.34,13064.35 4548.24,13064.35 4548.24,13120.17 4576.15,13120.17 4576.15,13315.53 4548.24,13315.53 4548.24,13399.26 4520.34,13399.26 4520.34,13482.99 4492.42,13482.99 4492.42,13510.9 4464.51,13510.9 4464.51,13566.71 4436.6,13566.71 4436.6,13594.62 4408.69,13594.62 4408.69,13622.53 4380.79,13622.53 4380.79,13678.35 4352.88,13678.35 4352.88,13706.26 4324.97,13706.26 4324.97,13734.17 4297.06,13734.17 4297.06,13762.08 4269.15,13762.08 4269.15,13789.98 4241.24,13789.98 4241.24,13817.89 4213.33,13817.89 4213.33,13845.8 4185.42,13845.8 4185.42,13873.71 4157.51,13873.71 4157.51,13929.53 4771.52,13929.53 4771.52,13901.63 4799.42,13901.63 4799.42,13762.08 4352.88,13762.08 4352.88,13734.17 4408.69,13734.17 4408.69,13706.26 4436.6,13706.26 4436.6,13678.35 4492.42,13678.35 4492.42,13650.44 4520.34,13650.44 4520.34,13622.53 4548.24,13622.53 4548.24,13594.62 4576.15,13594.62 4576.15,13566.71 4604.06,13566.71 4604.06,13538.8 4631.97,13538.8 4631.97,13510.9 4659.87,13510.9 4659.87,13482.99 4687.78,13482.99 4687.78,13455.08 4715.69,13455.08 4715.69,13399.26 4743.61,13399.26 4743.61,13343.44 4771.52,13343.44 4771.52,13148.08 4743.61,13148.08 4743.61,13092.26 4715.69,13092.26 4715.69,13036.44 4687.78,13036.44 4687.78,13008.53 4631.97,13008.53 4631.97,12980.62 4548.24,12980.62 4548.24,12952.71 4380.79,12952.71 "/>
   <polygon class="fil0" points="15544.41,13036.44 15488.59,13036.44 15488.59,13064.35 15460.68,13064.35 15460.68,13092.26 15432.78,13092.26 15432.78,13120.17 15404.87,13120.17 15404.87,13175.98 15376.95,13175.98 15376.95,13259.72 15404.87,13259.72 15404.87,13287.62 15432.78,13287.62 15432.78,13315.53 15488.59,13315.53 15488.59,13287.62 15544.41,13287.62 15544.41,13203.89 15516.5,13203.89 15516.5,13175.98 15488.59,13175.98 15488.59,13120.17 15516.5,13120.17 15516.5,13092.26 15544.41,13092.26 15544.41,13064.35 15711.86,13064.35 15711.86,13092.26 15739.77,13092.26 15739.77,13148.08 15767.68,13148.08 15767.68,13399.26 15739.77,13399.26 15739.77,13482.99 15711.86,13482.99 15711.86,13538.8 15683.96,13538.8 15683.96,13566.71 15656.05,13566.71 15656.05,13622.53 15628.14,13622.53 15628.14,13650.44 15600.23,13650.44 15600.23,13678.35 15572.32,13678.35 15572.32,13734.17 15544.41,13734.17 15544.41,13762.08 15516.5,13762.08 15516.5,13789.98 15488.59,13789.98 15488.59,13817.89 15460.68,13817.89 15460.68,13845.8 15432.78,13845.8 15432.78,13873.71 15404.87,13873.71 15404.87,13901.63 15376.95,13901.63 15376.95,13957.44 15990.95,13957.44 15990.95,13817.89 15572.32,13817.89 15572.32,13789.98 15600.23,13789.98 15600.23,13762.08 15628.14,13762.08 15628.14,13734.17 15656.05,13734.17 15656.05,13706.26 15711.86,13706.26 15711.86,13678.35 15739.77,13678.35 15739.77,13650.44 15767.68,13650.44 15767.68,13622.53 15795.59,13622.53 15795.59,13594.62 15823.5,13594.62 15823.5,13566.71 15851.41,13566.71 15851.41,13538.8 15879.32,13538.8 15879.32,13510.9 15907.23,13510.9 15907.23,13455.08 15935.14,13455.08 15935.14,13399.26 15963.04,13399.26 15963.04,13175.98 15935.14,13175.98 15935.14,13120.17 15907.23,13120.17 15907.23,13092.26 15879.32,13092.26 15879.32,13064.35 15851.41,13064.35 15851.41,13036.44 15795.59,13036.44 15795.59,13008.53 15544.41,13008.53 "/>
   <polygon class="fil0" points="7841.51,8291.9 7785.69,8291.9 7785.69,8319.81 7757.78,8319.81 7757.78,8347.72 7729.87,8347.72 7729.87,8403.53 7757.78,8403.53 7757.78,8431.45 7785.69,8431.45 7785.69,8459.36 7869.42,8459.36 7869.42,8431.45 7953.14,8431.45 7953.14,8403.53 7981.05,8403.53 7981.05,8431.45 8092.69,8431.45 8092.69,8459.36 8064.78,8459.36 8064.78,8487.27 8036.88,8487.27 8036.88,8515.18 8008.97,8515.18 8008.97,8543.08 7981.05,8543.08 7981.05,8570.99 8008.97,8570.99 8008.97,8598.9 8036.88,8598.9 8036.88,8626.81 8064.78,8626.81 8064.78,8654.72 8120.6,8654.72 8120.6,8626.81 8148.51,8626.81 8148.51,8598.9 8176.41,8598.9 8176.41,8570.99 8204.33,8570.99 8204.33,8543.08 8288.06,8543.08 8288.06,8570.99 8315.96,8570.99 8315.96,8598.9 8343.87,8598.9 8343.87,8626.81 8371.78,8626.81 8371.78,8654.72 8427.6,8654.72 8427.6,8626.81 8455.51,8626.81 8455.51,8598.9 8483.42,8598.9 8483.42,8570.99 8511.33,8570.99 8511.33,8543.08 8483.42,8543.08 8483.42,8515.18 8455.51,8515.18 8455.51,8487.27 8427.6,8487.27 8427.6,8459.36 8399.69,8459.36 8399.69,8431.45 8511.33,8431.45 8511.33,8403.53 8539.24,8403.53 8539.24,8431.45 8622.96,8431.45 8622.96,8459.36 8706.69,8459.36 8706.69,8431.45 8734.6,8431.45 8734.6,8403.53 8762.51,8403.53 8762.51,8347.72 8734.6,8347.72 8734.6,8319.81 8706.69,8319.81 8706.69,8291.9 8650.87,8291.9 8650.87,8264 8399.69,8264 8399.69,8291.9 8315.96,8291.9 8315.96,8319.81 8260.15,8319.81 8260.15,8347.72 8232.24,8347.72 8232.24,8319.81 8176.41,8319.81 8176.41,8291.9 8092.69,8291.9 8092.69,8264 7841.51,8264 "/>
   <path class="fil0" d="M5720.42 25093.15l-27.91 0 0 27.91 -307 0 0 -306.99 251.19 0 0 27.9 55.81 0 0 27.91 27.91 0 0 27.91 27.91 0 0 167.45 -27.91 0 0 27.91zm-418.64 -334.91l-27.9 0 0 753.55 27.9 0 0 27.91 55.82 0 0 -27.91 27.91 0 0 -307 195.36 0 0 27.91 27.92 0 0 55.82 27.91 0 0 27.9 27.9 0 0 55.82 27.91 0 0 55.82 27.91 0 0 27.91 27.91 0 0 55.82 27.91 0 0 27.91 55.82 0 0 -83.73 -27.91 0 0 -55.82 -27.91 0 0 -55.82 -27.91 0 0 -55.81 -27.91 0 0 -27.91 -27.91 0 0 -83.73 55.82 0 0 -27.91 27.91 0 0 -27.91 27.91 0 0 -27.91 27.91 0 0 -223.27 -27.91 0 0 -27.91 -27.91 0 0 -27.9 -27.91 0 0 -27.91 -27.91 0 0 -27.92 -83.72 0 0 -27.91 -334.92 0 0 27.91z"/>
   <polygon class="fil0" points="19758.68,24758.24 19730.76,24758.24 19730.76,25539.7 19814.5,25539.7 19814.5,24925.7 19842.4,24925.7 19842.4,24953.6 19870.31,24953.6 19870.31,24981.52 19898.22,24981.52 19898.22,25037.34 19926.13,25037.34 19926.13,25065.24 19954.04,25065.24 19954.04,25093.15 19981.95,25093.15 19981.95,25148.97 20009.86,25148.97 20009.86,25176.88 20037.77,25176.88 20037.77,25204.79 20065.68,25204.79 20065.68,25260.61 20093.58,25260.61 20093.58,25288.52 20121.49,25288.52 20121.49,25316.42 20149.4,25316.42 20149.4,25344.33 20177.31,25344.33 20177.31,25400.15 20205.22,25400.15 20205.22,25428.06 20233.13,25428.06 20233.13,25455.97 20261.04,25455.97 20261.04,25511.79 20288.95,25511.79 20288.95,25539.7 20344.76,25539.7 20344.76,25511.79 20372.67,25511.79 20372.67,24758.24 20344.76,24758.24 20344.76,24730.33 20316.86,24730.33 20316.86,24758.24 20288.95,24758.24 20288.95,25372.24 20261.04,25372.24 20261.04,25316.42 20233.13,25316.42 20233.13,25288.52 20205.22,25288.52 20205.22,25260.61 20177.31,25260.61 20177.31,25204.79 20149.4,25204.79 20149.4,25176.88 20121.49,25176.88 20121.49,25148.97 20093.58,25148.97 20093.58,25121.06 20065.68,25121.06 20065.68,25065.24 20037.77,25065.24 20037.77,25037.34 20009.86,25037.34 20009.86,25009.43 19981.95,25009.43 19981.95,24953.6 19954.04,24953.6 19954.04,24925.7 19926.13,24925.7 19926.13,24897.79 19898.22,24897.79 19898.22,24841.97 19870.31,24841.97 19870.31,24814.07 19842.4,24814.07 19842.4,24786.16 19814.5,24786.16 19814.5,24758.24 19786.59,24758.24 19786.59,24730.33 19758.68,24730.33 "/>
   <polygon class="fil0" points="13423.32,24758.24 13395.41,24758.24 13395.41,25539.7 13479.14,25539.7 13479.14,24925.7 13507.05,24925.7 13507.05,24953.6 13534.96,24953.6 13534.96,24981.52 13562.87,24981.52 13562.87,25037.34 13590.77,25037.34 13590.77,25065.24 13618.68,25065.24 13618.68,25093.15 13646.59,25093.15 13646.59,25148.97 13674.51,25148.97 13674.51,25176.88 13702.41,25176.88 13702.41,25204.79 13730.32,25204.79 13730.32,25232.7 13758.23,25232.7 13758.23,25288.52 13786.14,25288.52 13786.14,25316.42 13814.05,25316.42 13814.05,25344.33 13841.95,25344.33 13841.95,25372.24 13869.87,25372.24 13869.87,25428.06 13897.78,25428.06 13897.78,25455.97 13925.69,25455.97 13925.69,25483.88 13953.59,25483.88 13953.59,25539.7 14009.41,25539.7 14009.41,25511.79 14037.32,25511.79 14037.32,24758.24 14009.41,24758.24 14009.41,24730.33 13981.5,24730.33 13981.5,24758.24 13953.59,24758.24 13953.59,25344.33 13925.69,25344.33 13925.69,25316.42 13897.78,25316.42 13897.78,25288.52 13869.87,25288.52 13869.87,25260.61 13841.95,25260.61 13841.95,25204.79 13814.05,25204.79 13814.05,25176.88 13786.14,25176.88 13786.14,25148.97 13758.23,25148.97 13758.23,25093.15 13730.32,25093.15 13730.32,25065.24 13702.41,25065.24 13702.41,25037.34 13674.51,25037.34 13674.51,25009.43 13646.59,25009.43 13646.59,24953.6 13618.68,24953.6 13618.68,24925.7 13590.77,24925.7 13590.77,24897.79 13562.87,24897.79 13562.87,24841.97 13534.96,24841.97 13534.96,24814.07 13507.05,24814.07 13507.05,24786.16 13479.14,24786.16 13479.14,24758.24 13451.23,24758.24 13451.23,24730.33 13423.32,24730.33 "/>
   <path class="fil0" d="M9013.69 25009.43l27.91 0 0 -55.83 27.91 0 0 -27.9 27.91 0 0 -27.91 27.91 0 0 -27.91 27.91 0 0 -27.91 55.81 0 0 -27.9 223.27 0 0 27.9 55.82 0 0 27.91 27.91 0 0 27.91 27.92 0 0 27.91 27.9 0 0 27.9 27.91 0 0 55.83 27.91 0 0 251.18 -27.91 0 0 55.81 -27.91 0 0 27.91 -27.9 0 0 27.91 -27.92 0 0 27.91 -27.91 0 0 27.91 -55.82 0 0 27.91 -223.27 0 0 -27.91 -55.81 0 0 -27.91 -27.91 0 0 -27.91 -27.91 0 0 -27.91 -27.91 0 0 -27.91 -27.91 0 0 -55.81 -27.91 0 0 -251.18zm195.36 -251.19l-83.72 0 0 27.92 -27.91 0 0 27.91 -27.91 0 0 27.9 -55.82 0 0 55.82 -27.91 0 0 27.91 -27.91 0 0 55.82 -27.91 0 0 139.54 -27.9 0 0 27.91 27.9 0 0 139.55 27.91 0 0 55.81 27.91 0 0 27.91 27.91 0 0 55.82 27.91 0 0 27.91 55.82 0 0 27.91 27.91 0 0 27.91 83.72 0 0 27.91 251.18 0 0 -27.91 55.82 0 0 -27.91 27.92 0 0 -27.91 55.81 0 0 -27.91 27.91 0 0 -27.91 27.91 0 0 -55.82 27.9 0 0 -55.81 27.91 0 0 -307 -27.91 0 0 -55.82 -27.9 0 0 -27.91 -27.91 0 0 -55.82 -27.91 0 0 -27.9 -55.81 0 0 -27.91 -27.92 0 0 -27.92 -83.73 0 0 -27.91 -223.27 0 0 27.91z"/>
   <path class="fil0" d="M18642.31 25009.43l27.91 0 0 -55.83 27.92 0 0 -27.9 27.9 0 0 -27.91 27.91 0 0 -27.91 27.91 0 0 -27.91 55.81 0 0 -27.9 223.28 0 0 27.9 55.82 0 0 27.91 27.91 0 0 27.91 27.91 0 0 27.91 27.91 0 0 27.9 27.9 0 0 55.83 27.91 0 0 251.18 -27.91 0 0 55.81 -27.9 0 0 27.91 -27.91 0 0 27.91 -27.91 0 0 27.91 -27.91 0 0 27.91 -55.82 0 0 27.91 -223.28 0 0 -27.91 -55.81 0 0 -27.91 -27.91 0 0 -27.91 -27.91 0 0 -27.91 -27.9 0 0 -27.91 -27.92 0 0 -55.81 -27.91 0 0 -251.18zm195.36 -251.19l-83.72 0 0 27.92 -27.91 0 0 27.91 -27.9 0 0 27.9 -55.83 0 0 55.82 -27.91 0 0 27.91 -27.91 0 0 55.82 -27.9 0 0 307 27.9 0 0 55.81 27.91 0 0 27.91 27.91 0 0 55.82 27.91 0 0 27.91 55.82 0 0 27.91 27.91 0 0 27.91 83.72 0 0 27.91 251.19 0 0 -27.91 55.82 0 0 -27.91 27.91 0 0 -27.91 55.81 0 0 -27.91 27.91 0 0 -55.82 27.91 0 0 -27.91 27.91 0 0 -55.81 27.91 0 0 -307 -27.91 0 0 -55.82 -27.91 0 0 -27.91 -27.91 0 0 -55.82 -27.91 0 0 -27.9 -55.81 0 0 -27.91 -27.91 0 0 -27.92 -83.73 0 0 -27.91 -223.28 0 0 27.91z"/>
   <path class="fil0" d="M6250.69 25065.24l27.92 0 0 -83.72 27.9 0 0 -55.82 27.91 0 0 -27.91 27.91 0 0 -27.91 55.81 0 0 -27.91 55.83 0 0 -27.9 195.36 0 0 27.9 83.73 0 0 27.91 27.91 0 0 27.91 27.9 0 0 27.91 27.91 0 0 55.82 27.91 0 0 55.82 27.91 0 0 195.36 -27.91 0 0 55.82 -27.91 0 0 55.81 -27.91 0 0 27.91 -27.9 0 0 27.91 -27.91 0 0 27.91 -55.82 0 0 27.91 -223.27 0 0 -27.91 -55.83 0 0 -27.91 -55.81 0 0 -27.91 -27.91 0 0 -27.91 -27.91 0 0 -55.81 -27.9 0 0 -83.73 -27.92 0 0 -139.55zm223.28 -307l-83.73 0 0 27.92 -55.82 0 0 27.91 -27.91 0 0 27.9 -27.9 0 0 27.91 -27.92 0 0 27.91 -27.91 0 0 55.81 -27.91 0 0 83.74 -27.91 0 0 195.36 27.91 0 0 83.72 27.91 0 0 55.82 27.91 0 0 27.91 27.92 0 0 27.91 27.9 0 0 27.91 27.91 0 0 27.91 55.82 0 0 27.91 55.81 0 0 27.91 251.19 0 0 -27.91 83.73 0 0 -27.91 27.9 0 0 -27.91 27.91 0 0 -27.91 27.91 0 0 -27.91 27.91 0 0 -27.91 27.91 0 0 -55.82 27.91 0 0 -55.81 27.91 0 0 -251.18 -27.91 0 0 -55.83 -27.91 0 0 -55.81 -27.91 0 0 -27.91 -27.91 0 0 -27.91 -27.91 0 0 -27.9 -27.91 0 0 -27.91 -55.81 0 0 -27.92 -55.82 0 0 -27.91 -223.27 0 0 27.91z"/>
   <path class="fil0" d="M4771.52 25093.15l-27.91 0 0 27.91 -307.01 0 0 -306.99 251.18 0 0 27.9 83.74 0 0 55.82 27.9 0 0 167.45 -27.9 0 0 27.91zm-390.73 -334.91l-27.91 0 0 781.46 55.81 0 0 -27.91 27.91 0 0 -307 195.37 0 0 27.91 27.9 0 0 27.91 27.91 0 0 55.81 27.91 0 0 55.82 27.92 0 0 27.91 27.91 0 0 55.82 27.9 0 0 55.82 27.91 0 0 27.91 83.72 0 0 -55.82 -27.9 0 0 -55.82 -27.91 0 0 -55.82 -27.91 0 0 -27.91 -27.91 0 0 -55.81 -27.9 0 0 -55.82 -27.91 0 0 -27.91 27.91 0 0 -27.91 27.9 0 0 -27.91 55.82 0 0 -55.82 27.91 0 0 -111.63 27.9 0 0 -27.92 -27.9 0 0 -83.72 -27.91 0 0 -55.81 -27.91 0 0 -27.91 -55.81 0 0 -27.92 -55.83 0 0 -27.91 -334.9 0 0 27.91z"/>
   <path class="fil0" d="M11078.96 25260.61l-27.91 0 0 55.81 -27.91 0 0 27.91 -27.91 0 0 27.91 -27.91 0 0 27.91 -27.91 0 0 27.91 -83.72 0 0 27.91 -251.18 0 0 -641.9 223.27 0 0 27.9 83.73 0 0 27.91 55.81 0 0 27.91 27.91 0 0 27.91 27.91 0 0 27.9 27.91 0 0 55.83 27.91 0 0 111.63 27.91 0 0 55.82 -27.91 0 0 83.73zm-530.27 -502.37l-27.91 0 0 781.46 334.91 0 0 -27.91 83.72 0 0 -27.91 55.82 0 0 -27.91 27.91 0 0 -27.91 27.91 0 0 -27.91 27.91 0 0 -27.91 27.91 0 0 -27.91 27.91 0 0 -55.81 27.91 0 0 -111.64 27.9 0 0 -83.73 -27.9 0 0 -111.63 -27.91 0 0 -55.82 -27.91 0 0 -27.91 -27.91 0 0 -27.91 -27.91 0 0 -27.91 -27.91 0 0 -27.9 -27.91 0 0 -27.91 -55.82 0 0 -27.92 -111.63 0 0 -27.91 -279.09 0 0 27.91z"/>
   <path class="fil0" d="M1143.34 25316.42l-27.91 0 0 27.91 -27.91 0 0 27.91 -27.91 0 0 27.91 -55.82 0 0 27.91 -55.82 0 0 27.91 -251.18 0 0 -641.9 223.27 0 0 27.9 83.73 0 0 27.91 55.82 0 0 27.91 27.91 0 0 27.91 27.91 0 0 27.9 27.91 0 0 83.74 27.9 0 0 223.27 -27.9 0 0 55.81zm-502.36 -558.18l-27.91 0 0 781.46 334.9 0 0 -27.91 83.73 0 0 -27.91 55.82 0 0 -27.91 27.91 0 0 -27.91 27.91 0 0 -27.91 27.9 0 0 -27.91 27.91 0 0 -27.91 27.91 0 0 -83.72 27.92 0 0 -251.18 -27.92 0 0 -83.73 -27.91 0 0 -27.91 -27.91 0 0 -27.91 -27.9 0 0 -27.91 -27.91 0 0 -27.9 -27.91 0 0 -27.91 -55.82 0 0 -27.92 -111.64 0 0 -27.91 -279.08 0 0 27.91z"/>
   <path class="fil0" d="M16744.5 25093.15l-27.91 0 0 27.91 -307 0 0 -306.99 251.18 0 0 27.9 55.82 0 0 27.91 27.91 0 0 27.91 27.91 0 0 167.45 -27.91 0 0 27.91zm-390.73 -334.91l-27.9 0 0 781.46 55.81 0 0 -27.91 27.91 0 0 -307 223.27 0 0 55.82 27.91 0 0 55.81 27.91 0 0 27.91 27.91 0 0 55.82 27.91 0 0 55.82 27.91 0 0 55.82 27.91 0 0 27.91 83.72 0 0 -55.82 -27.91 0 0 -55.82 -27.9 0 0 -27.91 -27.91 0 0 -55.82 -27.91 0 0 -55.81 -27.91 0 0 -55.82 -27.91 0 0 -55.82 55.82 0 0 -27.91 27.91 0 0 -27.91 27.91 0 0 -27.91 27.9 0 0 -83.72 27.91 0 0 -55.83 -27.91 0 0 -83.72 -27.9 0 0 -55.81 -27.91 0 0 -27.91 -55.82 0 0 -27.92 -55.82 0 0 -27.91 -334.91 0 0 27.91z"/>
   <polygon class="fil0" points="15432.78,24758.24 15404.87,24758.24 15404.87,25539.7 15963.04,25539.7 15963.04,25455.97 15488.59,25455.97 15488.59,25176.88 15851.41,25176.88 15851.41,25065.24 15488.59,25065.24 15488.59,24814.07 15935.14,24814.07 15935.14,24786.16 15963.04,24786.16 15963.04,24758.24 15935.14,24758.24 15935.14,24730.33 15432.78,24730.33 "/>
   <polygon class="fil0" points="11581.32,24758.24 11553.42,24758.24 11553.42,25539.7 12083.68,25539.7 12083.68,25511.79 12111.59,25511.79 12111.59,25455.97 11637.14,25455.97 11637.14,25176.88 11972.05,25176.88 11972.05,25148.97 11999.96,25148.97 11999.96,25065.24 11637.14,25065.24 11637.14,24814.07 12083.68,24814.07 12083.68,24758.24 12055.78,24758.24 12055.78,24730.33 11581.32,24730.33 "/>
   <polygon class="fil0" points="1673.61,24758.24 1645.7,24758.24 1645.7,25539.7 2175.97,25539.7 2175.97,25511.79 2203.88,25511.79 2203.88,25483.88 2175.97,25483.88 2175.97,25455.97 1729.43,25455.97 1729.43,25176.88 2064.33,25176.88 2064.33,25148.97 2092.24,25148.97 2092.24,25093.15 2064.33,25093.15 2064.33,25065.24 1729.43,25065.24 1729.43,24814.07 2175.97,24814.07 2175.97,24758.24 2148.07,24758.24 2148.07,24730.33 1673.61,24730.33 "/>
   <path class="fil0" d="M3515.61 25148.97l27.9 0 0 -55.82 27.91 0 0 -83.72 27.91 0 0 -55.83 27.91 0 0 -55.81 27.91 0 0 27.91 27.91 0 0 55.82 27.91 0 0 83.72 27.91 0 0 55.82 27.91 0 0 83.73 27.9 0 0 27.91 -279.08 0 0 -83.73zm111.63 -390.73l-27.91 0 0 27.92 -27.91 0 0 83.72 -27.91 0 0 55.82 -27.9 0 0 83.73 -27.91 0 0 55.81 -27.91 0 0 55.82 -27.91 0 0 83.73 -27.91 0 0 55.82 -27.91 0 0 83.72 -27.91 0 0 55.82 -27.91 0 0 55.82 -27.91 0 0 83.73 83.73 0 0 -55.82 27.91 0 0 -55.82 27.91 0 0 -83.73 27.91 0 0 -27.91 362.81 0 0 27.91 27.91 0 0 55.82 27.92 0 0 55.82 27.9 0 0 55.82 27.91 0 0 27.91 55.82 0 0 -83.73 -27.91 0 0 -83.73 -27.91 0 0 -55.82 -27.91 0 0 -83.72 -27.9 0 0 -55.82 -27.92 0 0 -55.82 -27.91 0 0 -83.72 -27.91 0 0 -83.74 -27.9 0 0 -55.81 -27.91 0 0 -55.82 -27.91 0 0 -83.73 -55.82 0 0 -27.91 -27.91 0 0 27.91z"/>
   <polygon class="fil0" points="2650.43,24758.24 2594.61,24758.24 2594.61,24786.16 2566.7,24786.16 2566.7,24814.07 2538.79,24814.07 2538.79,24841.97 2510.88,24841.97 2510.88,24925.7 2482.97,24925.7 2482.97,24953.6 2510.88,24953.6 2510.88,25037.34 2538.79,25037.34 2538.79,25093.15 2594.61,25093.15 2594.61,25121.06 2622.52,25121.06 2622.52,25148.97 2706.24,25148.97 2706.24,25176.88 2817.88,25176.88 2817.88,25204.79 2873.7,25204.79 2873.7,25232.7 2901.61,25232.7 2901.61,25260.61 2929.51,25260.61 2929.51,25372.24 2901.61,25372.24 2901.61,25428.06 2845.79,25428.06 2845.79,25455.97 2650.43,25455.97 2650.43,25428.06 2594.61,25428.06 2594.61,25400.15 2566.7,25400.15 2566.7,25372.24 2510.88,25372.24 2510.88,25400.15 2482.97,25400.15 2482.97,25455.97 2538.79,25455.97 2538.79,25483.88 2566.7,25483.88 2566.7,25511.79 2622.52,25511.79 2622.52,25539.7 2873.7,25539.7 2873.7,25511.79 2929.51,25511.79 2929.51,25483.88 2957.42,25483.88 2957.42,25455.97 2985.34,25455.97 2985.34,25372.24 3013.25,25372.24 3013.25,25260.61 2985.34,25260.61 2985.34,25204.79 2957.42,25204.79 2957.42,25176.88 2929.51,25176.88 2929.51,25148.97 2901.61,25148.97 2901.61,25121.06 2817.88,25121.06 2817.88,25093.15 2734.15,25093.15 2734.15,25065.24 2650.43,25065.24 2650.43,25037.34 2622.52,25037.34 2622.52,25009.43 2594.61,25009.43 2594.61,24869.88 2622.52,24869.88 2622.52,24841.97 2650.43,24841.97 2650.43,24814.07 2845.79,24814.07 2845.79,24841.97 2901.61,24841.97 2901.61,24869.88 2985.34,24869.88 2985.34,24814.07 2957.42,24814.07 2957.42,24786.16 2929.51,24786.16 2929.51,24758.24 2845.79,24758.24 2845.79,24730.33 2650.43,24730.33 "/>
   <polygon class="fil0" points="17358.5,24758.24 17302.68,24758.24 17302.68,24786.16 17274.77,24786.16 17274.77,24814.07 17246.86,24814.07 17246.86,24841.97 17218.95,24841.97 17218.95,25037.34 17246.86,25037.34 17246.86,25065.24 17274.77,25065.24 17274.77,25093.15 17302.68,25093.15 17302.68,25121.06 17330.59,25121.06 17330.59,25148.97 17414.32,25148.97 17414.32,25176.88 17525.95,25176.88 17525.95,25204.79 17581.77,25204.79 17581.77,25232.7 17609.68,25232.7 17609.68,25260.61 17637.59,25260.61 17637.59,25372.24 17609.68,25372.24 17609.68,25428.06 17553.86,25428.06 17553.86,25455.97 17358.5,25455.97 17358.5,25428.06 17302.68,25428.06 17302.68,25400.15 17274.77,25400.15 17274.77,25372.24 17191.05,25372.24 17191.05,25455.97 17246.86,25455.97 17246.86,25483.88 17274.77,25483.88 17274.77,25511.79 17330.59,25511.79 17330.59,25539.7 17553.86,25539.7 17553.86,25511.79 17637.59,25511.79 17637.59,25483.88 17665.5,25483.88 17665.5,25455.97 17693.41,25455.97 17693.41,25372.24 17721.31,25372.24 17721.31,25260.61 17693.41,25260.61 17693.41,25204.79 17665.5,25204.79 17665.5,25176.88 17637.59,25176.88 17637.59,25148.97 17609.68,25148.97 17609.68,25121.06 17525.95,25121.06 17525.95,25093.15 17442.23,25093.15 17442.23,25065.24 17358.5,25065.24 17358.5,25037.34 17330.59,25037.34 17330.59,25009.43 17302.68,25009.43 17302.68,24869.88 17330.59,24869.88 17330.59,24841.97 17358.5,24841.97 17358.5,24814.07 17553.86,24814.07 17553.86,24841.97 17609.68,24841.97 17609.68,24869.88 17693.41,24869.88 17693.41,24814.07 17665.5,24814.07 17665.5,24786.16 17637.59,24786.16 17637.59,24758.24 17553.86,24758.24 17553.86,24730.33 17358.5,24730.33 "/>
   <polygon class="fil0" points="14400.14,24758.24 14372.23,24758.24 14372.23,24786.16 14400.14,24786.16 14400.14,24841.97 14428.05,24841.97 14428.05,24925.7 14455.95,24925.7 14455.95,24981.52 14483.86,24981.52 14483.86,25065.24 14511.77,25065.24 14511.77,25148.97 14539.69,25148.97 14539.69,25204.79 14567.6,25204.79 14567.6,25288.52 14595.5,25288.52 14595.5,25344.33 14623.41,25344.33 14623.41,25428.06 14651.32,25428.06 14651.32,25483.88 14679.23,25483.88 14679.23,25539.7 14762.96,25539.7 14762.96,25483.88 14790.87,25483.88 14790.87,25400.15 14818.78,25400.15 14818.78,25344.33 14846.68,25344.33 14846.68,25260.61 14874.59,25260.61 14874.59,25204.79 14902.5,25204.79 14902.5,25121.06 14930.41,25121.06 14930.41,25065.24 14958.32,25065.24 14958.32,24981.52 14986.23,24981.52 14986.23,24925.7 15014.14,24925.7 15014.14,24841.97 15042.05,24841.97 15042.05,24730.33 14986.23,24730.33 14986.23,24758.24 14958.32,24758.24 14958.32,24814.07 14930.41,24814.07 14930.41,24897.79 14902.5,24897.79 14902.5,24953.6 14874.59,24953.6 14874.59,25037.34 14846.68,25037.34 14846.68,25121.06 14818.78,25121.06 14818.78,25176.88 14790.87,25176.88 14790.87,25260.61 14762.96,25260.61 14762.96,25316.42 14735.05,25316.42 14735.05,25372.24 14707.13,25372.24 14707.13,25344.33 14679.23,25344.33 14679.23,25260.61 14651.32,25260.61 14651.32,25176.88 14623.41,25176.88 14623.41,25121.06 14595.5,25121.06 14595.5,25037.34 14567.6,25037.34 14567.6,24981.52 14539.69,24981.52 14539.69,24897.79 14511.77,24897.79 14511.77,24841.97 14483.86,24841.97 14483.86,24758.24 14428.05,24758.24 14428.05,24730.33 14400.14,24730.33 "/>
   <polygon class="fil0" points="8204.33,24758.24 8176.41,24758.24 8176.41,25511.79 8204.33,25511.79 8204.33,25539.7 8678.78,25539.7 8678.78,25455.97 8260.15,25455.97 8260.15,24730.33 8204.33,24730.33 "/>
   <polygon class="fil0" points="7394.97,24758.24 7367.06,24758.24 7367.06,25539.7 7841.51,25539.7 7841.51,25455.97 7450.78,25455.97 7450.78,24758.24 7422.87,24758.24 7422.87,24730.33 7394.97,24730.33 "/>
   <polygon class="fil0" points="18112.04,24758.24 18084.13,24758.24 18084.13,25511.79 18112.04,25511.79 18112.04,25539.7 18167.86,25539.7 18167.86,24758.24 18139.95,24758.24 18139.95,24730.33 18112.04,24730.33 "/>
   <polygon class="fil0" points="12920.96,24758.24 12893.05,24758.24 12893.05,25539.7 12948.86,25539.7 12948.86,25511.79 12976.77,25511.79 12976.77,24758.24 12948.86,24758.24 12948.86,24730.33 12920.96,24730.33 "/>
   <polygon class="fil0" points="11023.14,9129.18 11330.14,9129.18 11330.14,8961.72 11023.14,8961.72 "/>
   <polygon class="fil0" points="9795.15,9129.18 10074.23,9129.18 10074.23,9101.27 10102.14,9101.27 10102.14,8989.63 10074.23,8989.63 10074.23,8961.72 9795.15,8961.72 "/>
   <polygon class="fil0" points="10409.15,8989.63 10381.23,8989.63 10381.23,9101.27 10409.15,9101.27 10409.15,9129.18 10688.23,9129.18 10688.23,8961.72 10409.15,8961.72 "/>
   <polygon class="fil0" points="10464.96,14348.17 10437.05,14348.17 10437.05,14515.62 10464.96,14515.62 10464.96,14543.53 10632.42,14543.53 10632.42,14515.62 10660.33,14515.62 10660.33,14348.17 10632.42,14348.17 10632.42,14320.26 10464.96,14320.26 "/>
   <polygon class="fil0" points="10437.05,10217.63 10660.33,10217.63 10660.33,10050.17 10632.42,10050.17 10632.42,10022.27 10437.05,10022.27 "/>
   <polygon class="fil0" points="19033.04,24507.06 18977.22,24507.06 18977.22,24562.88 18949.32,24562.88 18949.32,24618.7 18921.41,24618.7 18921.41,24646.61 18949.32,24646.61 18949.32,24674.52 18977.22,24674.52 18977.22,24646.61 19005.13,24646.61 19005.13,24618.7 19033.04,24618.7 19033.04,24562.88 19060.95,24562.88 19060.95,24534.97 19088.86,24534.97 19088.86,24507.06 19060.95,24507.06 19060.95,24479.15 19033.04,24479.15 "/>
  </g>
 </g>
</svg>
