<svg width="4345" height="1341" viewBox="0 0 4345 1341" fill="none" xmlns="http://www.w3.org/2000/svg">
<path d="M916.83 945.345C913.66 1052.16 885.01 1170.93 825.81 1301.28C822.99 1307.51 820.09 1313.76 817.12 1320.03L916.83 945.345ZM916.83 945.345V945.325C925.6 648.635 737.69 444.055 460.96 339.105C290.98 278.605 87.8101 238.735 75.7201 21.185C-130.54 532.165 282.66 1039.28 819.93 1018.14" stroke="white" stroke-width="41.66" stroke-miterlimit="22.9256" stroke-linejoin="round"/>
<path d="M916.84 945.345C806.74 742.365 693.64 704.145 498.84 611.865" stroke="white" stroke-width="41.66" stroke-miterlimit="22.9256"/>
<path d="M1049.11 641.095C1049.11 667.895 1069.6 684.185 1094.82 684.185C1120.05 684.185 1140.02 667.895 1140.02 641.095V378.885H1178.9C1201.5 378.885 1223.57 356.285 1223.57 334.745C1223.57 308.995 1201.5 287.975 1178.9 287.975H1010.75C988.68 287.975 966.61 308.995 966.61 334.745C966.61 356.285 988.68 378.885 1010.75 378.885H1049.11V641.095Z" fill="white"/>
<path d="M1435.86 529.165C1461.61 529.165 1481.05 509.205 1481.05 483.455C1481.05 458.225 1461.61 438.265 1435.86 438.265H1346.53V378.885H1435.86C1461.61 378.885 1481.05 358.385 1481.05 333.165C1481.05 307.945 1461.61 287.975 1435.86 287.975H1300.81C1275.59 287.975 1255.62 307.945 1255.62 333.695V636.365C1255.62 661.585 1275.59 682.085 1300.81 682.085H1435.86C1461.61 682.085 1481.05 662.115 1481.05 636.895C1481.05 611.665 1461.61 591.175 1435.86 591.175H1346.53V529.165H1435.86Z" fill="white"/>
<path d="M1660.77 378.885C1684.94 378.885 1690.72 398.845 1690.72 409.885C1690.72 421.975 1684.94 443.515 1661.29 443.515H1614V378.885H1660.77ZM1699.13 658.965C1707.53 674.725 1723.3 684.185 1739.59 684.185C1766.39 684.185 1786.35 662.115 1786.35 639.525C1786.35 632.685 1785.3 625.855 1781.63 619.555L1724.87 522.335C1757.45 499.215 1782.15 460.855 1782.15 409.355C1782.15 341.045 1732.76 287.975 1663.39 287.975H1567.23C1541.48 287.975 1523.09 307.945 1523.09 334.215V636.895C1523.09 661.065 1541.48 684.185 1567.23 684.185C1592.98 684.185 1614 663.165 1614 637.415V533.375C1614 531.275 1614.52 530.225 1616.62 530.225H1625.56C1628.19 530.225 1629.24 531.275 1630.29 533.375L1699.13 658.965Z" fill="white"/>
<path d="M1962.92 378.885C1987.09 378.885 1992.87 398.845 1992.87 409.885C1992.87 421.975 1987.09 443.515 1963.44 443.515H1916.15V378.885H1962.92ZM2001.28 658.965C2009.68 674.725 2025.45 684.185 2041.74 684.185C2068.54 684.185 2088.51 662.115 2088.51 639.525C2088.51 632.685 2087.46 625.855 2083.78 619.555L2027.02 522.335C2059.6 499.215 2084.3 460.855 2084.3 409.355C2084.3 341.045 2034.91 287.975 1965.54 287.975H1869.38C1843.63 287.975 1825.24 307.945 1825.24 334.215V636.895C1825.24 661.065 1843.63 684.185 1869.38 684.185C1895.13 684.185 1916.15 663.165 1916.15 637.415V533.375C1916.15 531.275 1916.67 530.225 1918.78 530.225H1927.71C1930.34 530.225 1931.39 531.275 1932.44 533.375L2001.28 658.965Z" fill="white"/>
<path d="M2308.16 529.165C2333.9 529.165 2353.35 509.205 2353.35 483.455C2353.35 458.225 2333.9 438.265 2308.16 438.265H2218.82V378.885H2308.16C2333.9 378.885 2353.35 358.385 2353.35 333.165C2353.35 307.945 2333.9 287.975 2308.16 287.975H2173.11C2147.88 287.975 2127.92 307.945 2127.92 333.695V636.365C2127.92 661.585 2147.88 682.085 2173.11 682.085H2308.16C2333.9 682.085 2353.35 662.115 2353.35 636.895C2353.35 611.665 2333.9 591.175 2308.16 591.175H2218.82V529.165H2308.16Z" fill="white"/>
<path d="M2451.09 285.875C2422.18 285.875 2395.38 311.625 2395.38 341.045V639.525C2395.38 664.745 2415.88 684.185 2441.63 684.185C2466.85 684.185 2486.29 665.795 2486.29 640.045V458.225L2606.63 655.285C2613.99 667.375 2628.7 684.185 2656.02 684.185C2684.92 684.185 2711.72 658.435 2711.72 629.015V330.535C2711.72 305.315 2690.71 285.875 2665.48 285.875C2640.26 285.875 2620.82 304.265 2620.82 330.015V513.405L2500.48 315.295C2493.12 303.215 2478.41 285.875 2451.09 285.875Z" fill="white"/>
<path d="M2748.51 485.555C2748.51 596.435 2837.84 687.865 2948.72 687.865C3059.59 687.865 3148.92 596.435 3148.92 485.555C3148.92 374.675 3059.59 283.775 2948.72 283.775C2837.84 283.775 2748.51 374.675 2748.51 485.555ZM2839.42 485.555C2839.42 425.125 2888.81 374.675 2948.72 374.675C3009.67 374.675 3058.02 425.125 3058.02 485.555C3058.02 545.985 3009.67 595.905 2948.72 595.905C2888.81 595.905 2839.42 545.985 2839.42 485.555Z" fill="white"/>
<path d="M3169.94 597.485C3169.94 656.865 3233 686.285 3288.7 686.285C3352.81 686.285 3403.26 633.215 3403.26 567.535C3403.26 501.845 3374.35 470.315 3308.14 441.415L3301.31 438.265C3284.5 431.435 3261.38 421.445 3261.38 402.525C3261.38 389.395 3271.89 376.255 3285.02 376.255C3291.85 376.255 3302.89 379.405 3308.67 391.495C3316.03 407.785 3334.42 416.195 3349.13 416.195C3374.35 416.195 3394.32 395.175 3394.32 369.945C3394.32 364.165 3393.27 358.915 3391.17 353.655C3376.46 308.995 3328.11 284.825 3289.23 284.825C3216.71 284.825 3170.47 332.635 3170.47 405.685C3170.47 465.065 3211.98 504.995 3267.16 523.915C3293.96 531.275 3310.77 538.625 3312.35 568.055C3311.82 582.765 3300.26 595.375 3285.55 595.375C3270.31 595.375 3261.38 586.445 3253.49 576.985C3243.51 565.425 3233 553.345 3212.51 553.345C3189.39 553.345 3169.94 570.685 3169.94 597.485Z" fill="white"/>
<path d="M3567.21 335.795C3559.32 306.895 3535.15 285.875 3507.3 285.875C3470.52 285.875 3440.04 316.875 3440.04 354.185V639.525C3440.04 661.585 3462.11 684.185 3487.86 684.185C3512.56 684.185 3533.05 662.115 3533.05 636.365V466.115L3592.43 650.035C3598.73 668.945 3617.65 684.185 3639.2 684.185C3658.64 684.185 3676.51 668.945 3683.34 650.035C3683.34 650.035 3725.9 528.645 3747.44 465.065V640.045C3747.44 664.215 3766.36 684.185 3790.53 684.185C3815.76 684.185 3838.35 661.585 3838.35 639.525V354.185C3838.35 316.875 3807.35 285.875 3771.09 285.875C3742.72 285.875 3716.97 306.895 3709.09 335.795L3637.62 534.945L3567.21 335.795Z" fill="white"/>
<path d="M3881.44 330.535V639.525C3881.44 664.745 3901.94 684.185 3927.16 684.185C3952.91 684.185 3972.88 664.745 3972.88 639.525V330.535C3972.88 305.315 3952.91 285.875 3927.16 285.875C3901.94 285.875 3881.44 305.315 3881.44 330.535Z" fill="white"/>
<path d="M4150.49 378.885C4212.49 378.885 4254.01 422.495 4254.01 484.505C4254.01 547.035 4209.87 591.175 4147.86 591.175H4106.35V378.885H4150.49ZM4015.44 634.265C4015.44 660.015 4037.51 682.085 4063.26 682.085H4147.86C4257.16 682.085 4344.92 592.225 4344.92 484.505C4344.92 377.305 4257.16 287.975 4147.86 287.975H4065.89C4037.51 287.975 4015.44 309.515 4015.44 338.425V634.265Z" fill="white"/>
<path d="M1766.32 983.655L1765.28 977.445L1763.98 970.985C1761.9 962.735 1760.6 954.195 1758.77 945.865C1757.73 941.695 1755.91 937.795 1755.13 933.885C1754.35 928.945 1753.57 924.255 1752.53 919.305C1749.4 902.645 1745.5 888.595 1742.63 872.975C1740.81 864.645 1739.51 856.835 1737.43 848.765L1735.34 841.215L1734.04 832.885C1732.22 824.815 1730.14 816.745 1729.1 808.155C1728.32 808.415 1728.58 807.375 1727.8 807.375C1714.52 806.065 1701.5 805.285 1689.27 807.635C1687.45 809.975 1687.19 813.095 1686.4 815.965C1685.36 819.345 1685.1 823.775 1684.32 826.635L1683.54 830.275C1682.76 835.225 1682.24 840.175 1681.46 844.595C1681.2 846.415 1680.94 847.985 1680.16 849.285C1679.38 851.625 1678.85 853.185 1678.85 856.055C1678.07 858.135 1677.29 860.475 1677.03 862.815C1675.73 871.405 1673.65 880.525 1672.87 887.025C1672.61 887.815 1672.09 887.545 1671.83 888.335C1672.61 890.155 1671.31 891.715 1670.53 893.535L1669.74 897.965L1667.66 906.035C1666.62 912.275 1666.1 919.565 1665.32 924.775C1664.54 926.855 1663.76 928.415 1663.76 931.285L1661.15 940.915C1659.85 947.165 1659.07 953.155 1657.77 959.355C1657.51 962.005 1656.99 964.865 1656.21 967.725C1655.17 974.755 1654.13 982.305 1652.82 988.295C1652.56 989.595 1652.04 990.895 1653.08 991.675C1662.19 992.975 1674.69 992.195 1683.8 991.415C1687.71 980.225 1689.27 967.985 1692.13 956.535C1705.41 956.535 1714.78 954.975 1727.54 955.755C1728.58 963.995 1730.66 970.205 1732.48 978.225C1733.52 982.345 1734.82 985.215 1735.08 990.115C1735.86 990.375 1736.12 990.895 1736.39 991.155C1747.84 991.935 1756.17 991.155 1767.36 990.375C1768.14 989.075 1767.1 988.555 1766.84 987.255L1766.32 983.655ZM1697.6 923.735C1701.76 906.035 1705.93 888.855 1709.05 871.145C1710.87 877.395 1712.18 883.645 1714 890.675C1716.86 902.125 1718.68 913.065 1720.77 923.215C1713.74 923.475 1705.67 924.515 1697.6 923.735Z" fill="white"/>
<path d="M1878.52 859.955C1877.74 859.175 1874.35 858.915 1872.79 858.655C1869.15 858.395 1862.38 858.655 1858.74 858.655C1857.69 858.655 1856.65 858.135 1855.87 858.915C1856.13 859.695 1855.09 860.215 1855.09 860.995C1854.31 863.865 1854.83 867.505 1853.53 869.585C1851.45 866.205 1847.54 863.605 1843.38 862.035C1838.43 860.215 1832.7 858.395 1827.5 858.655C1824.37 858.395 1818.65 858.655 1813.96 859.955C1812.92 860.215 1811.88 860.995 1810.58 861.255C1806.67 862.555 1804.33 864.385 1801.46 866.725C1800.68 867.245 1799.9 867.505 1799.38 868.025C1797.04 870.105 1796 872.715 1793.66 874.795C1793.39 875.835 1792.88 876.875 1792.35 877.915C1791.83 878.955 1790.79 879.745 1790.27 880.525C1788.97 883.385 1788.45 887.285 1787.93 891.195C1787.15 897.185 1787.15 904.465 1786.89 911.235C1786.11 923.735 1786.11 937.275 1786.89 950.285C1787.93 963.045 1790.53 975.015 1797.3 982.565C1799.12 983.605 1800.42 985.425 1802.25 986.735C1811.88 993.235 1827.76 994.025 1840.25 990.895C1843.38 989.335 1845.98 987.515 1848.84 986.735C1849.36 991.415 1848.58 995.325 1848.84 1000C1848.84 1003.39 1849.36 1009.89 1848.06 1013.02L1845.46 1016.66C1842.86 1019.01 1838.17 1019.27 1834.01 1020.31H1833.74C1832.44 1020.31 1830.62 1020.05 1829.06 1019.79C1827.5 1019.53 1825.94 1019.53 1824.89 1019.01C1822.29 1018.49 1821.25 1016.93 1820.21 1014.59C1818.65 1010.69 1817.34 1006.25 1817.6 1001.3C1816.56 1001.3 1816.3 1000.52 1815.78 1000C1810.84 998.965 1805.37 999.225 1800.68 998.185C1796.26 998.705 1792.09 998.705 1788.71 999.745C1788.45 1000.52 1787.67 1000.52 1787.41 1001.04C1787.67 1012.76 1790.27 1024.21 1796.26 1031.76C1796.26 1034.1 1799.38 1033.84 1800.16 1035.41C1800.68 1035.67 1800.94 1035.41 1801.46 1035.67C1805.89 1040.09 1812.66 1042.69 1820.21 1044C1822.55 1044.52 1824.89 1045.04 1826.98 1045.3C1837.65 1046.34 1848.58 1043.49 1855.87 1040.36C1859 1039.06 1862.64 1037.23 1865.24 1035.15C1868.89 1032.28 1872.53 1028.91 1874.09 1024.48C1874.88 1024.22 1874.88 1023.95 1875.4 1023.43C1876.96 1021.35 1878 1017.18 1878.52 1013.28C1878.78 1009.11 1879.56 1004.69 1879.56 1000.78C1879.56 994.805 1878.78 988.815 1878.52 984.125C1878.26 979.185 1878.78 973.195 1878.52 967.725C1878.52 963.565 1878.26 959.655 1878.26 955.755C1877.74 947.945 1878.26 940.395 1879.04 932.325C1879.56 924.515 1879.3 916.185 1879.56 908.115C1879.82 893.535 1879.56 876.615 1879.56 862.295C1878.52 862.035 1879.04 860.475 1878.52 859.955ZM1847.54 953.935C1847.28 954.975 1846.5 955.755 1846.76 957.315C1842.86 961.745 1836.35 966.945 1827.5 964.865C1826.2 964.605 1822.81 962.785 1822.29 962.265C1821.51 961.485 1820.73 960.175 1819.95 959.135C1818.13 956.535 1818.39 949.245 1818.13 945.345C1817.87 935.705 1817.34 919.825 1817.34 908.895C1817.34 904.465 1817.87 901.345 1817.6 897.185C1818.39 894.315 1819.43 893.275 1821.51 891.715C1823.07 890.675 1823.59 890.155 1825.41 889.375L1828.54 888.075C1834.79 886.505 1841.03 889.635 1844.94 894.055C1845.2 894.575 1844.94 894.575 1844.94 895.095C1846.5 897.185 1847.54 900.045 1848.06 902.645C1848.06 904.215 1847.8 905.775 1848.06 907.595C1848.06 908.115 1848.32 908.375 1848.32 908.895C1848.58 909.415 1848.32 909.935 1848.32 910.455C1848.32 911.755 1848.84 912.805 1848.84 913.845C1849.62 925.035 1848.32 940.395 1847.54 953.935Z" fill="white"/>
<path d="M1905.07 956.275C1904.55 962.525 1907.41 968.245 1909.76 972.675C1912.88 975.275 1914.97 978.925 1918.09 981.265C1918.09 981.785 1918.61 982.045 1918.61 982.565C1920.95 983.605 1922.51 985.425 1925.12 986.215C1925.64 986.475 1925.64 986.995 1926.16 987.515C1928.24 987.775 1929.8 988.815 1931.62 989.595C1932.67 989.335 1933.71 990.115 1934.75 990.375C1936.57 990.895 1938.91 991.155 1941 991.675L1948.03 992.715C1959.22 993.495 1970.41 990.375 1978.22 984.905H1979.26C1980.56 983.085 1982.65 982.305 1984.47 981.005C1986.29 979.965 1987.59 977.885 1989.16 975.795C1990.72 973.975 1992.54 971.895 1993.32 969.815C1993.84 969.025 1993.84 967.985 1994.1 967.205C1994.88 964.345 1996.18 961.745 1996.44 958.875C1997.23 953.675 1996.97 948.725 1996.7 944.555C1995.66 944.295 1996.18 942.995 1995.66 942.215C1993.06 941.955 1990.46 941.955 1987.85 942.215C1981.61 942.475 1975.36 942.215 1968.85 941.955C1968.07 942.215 1967.55 942.735 1967.03 943.255C1965.99 946.645 1965.73 950.285 1964.95 953.415C1964.43 955.495 1962.86 957.575 1962.08 958.875C1960.26 961.745 1957.4 962.785 1953.23 963.305C1948.81 964.085 1944.38 963.825 1940.48 962.005L1938.91 960.955C1936.05 958.615 1935.79 953.155 1935.53 948.465C1935.01 941.435 1935.01 935.445 1935.53 930.245C1954.01 931.285 1975.88 931.285 1996.18 930.245C1997.49 927.895 1997.49 922.695 1997.49 918.265C1997.49 914.365 1997.75 910.195 1997.49 906.295C1997.23 904.735 1996.7 903.165 1996.7 901.605C1996.44 899.005 1996.7 896.145 1996.18 893.535C1995.92 891.455 1994.88 889.375 1994.1 887.285C1991.76 880.005 1988.63 873.235 1983.17 869.065C1982.65 868.805 1982.65 869.325 1982.13 869.325L1976.14 865.425L1972.49 863.605C1969.89 862.295 1967.55 861.775 1963.9 861.255C1962.86 861.255 1961.56 860.735 1960.52 860.475C1955.57 859.955 1950.63 859.695 1945.94 859.435C1945.42 859.695 1945.68 858.915 1945.16 859.175C1942.82 859.695 1941.26 859.435 1938.91 859.695L1937.09 860.475C1932.67 861.255 1927.72 861.515 1924.86 864.645C1923.04 864.905 1922.25 865.685 1921.47 866.725C1920.17 866.985 1919.39 867.765 1918.87 868.285L1917.83 868.805C1917.05 869.325 1916.01 870.365 1915.48 871.405C1914.7 872.195 1914.44 873.495 1913.66 874.275C1913.4 874.795 1912.88 875.055 1912.36 875.575L1911.32 877.135C1910.02 879.475 1908.46 881.825 1907.68 884.165C1906.11 888.595 1904.55 894.315 1904.55 899.525C1903.77 900.825 1904.03 901.345 1904.55 902.385C1903.25 905.255 1904.03 908.375 1904.03 911.495C1904.03 914.105 1903.51 916.705 1903.51 919.045C1903.25 922.435 1903.77 926.075 1903.51 929.205C1903.51 932.065 1904.03 935.185 1904.03 938.055C1904.29 944.295 1903.25 950.545 1905.07 956.275ZM1944.12 888.075C1947.5 887.815 1951.67 887.285 1956.1 887.815C1960 888.075 1961.04 889.635 1962.86 892.495C1964.69 895.355 1966.51 898.485 1965.47 902.905C1955.83 902.645 1943.08 903.685 1934.23 902.905C1933.45 896.665 1938.39 890.415 1944.12 888.075Z" fill="white"/>
<path d="M2115.67 990.895C2115.93 988.035 2115.41 983.605 2115.41 979.965C2115.41 977.355 2115.41 974.755 2115.15 972.195C2115.15 966.205 2115.93 960.225 2115.67 954.535V945.425C2116.19 938.395 2115.15 931.935 2114.89 925.165C2114.63 915.795 2115.93 906.205 2115.41 896.835C2115.15 892.195 2113.85 887.245 2112.29 883.345C2110.72 879.955 2109.94 877.615 2108.12 874.795L2105.26 871.145C2103.96 869.845 2101.35 868.285 2101.61 866.725C2099.27 865.945 2097.19 864.905 2095.37 863.605H2093.8C2091.72 862.035 2088.6 861.775 2086.52 860.215C2084.69 860.735 2083.39 859.435 2081.57 859.175C2078.97 858.915 2075.84 858.915 2072.98 858.915C2062.83 858.915 2052.93 863.075 2047.73 869.845C2047.47 869.065 2047.73 869.065 2047.73 868.025C2046.17 866.465 2046.43 861.515 2044.6 860.475C2043.56 859.955 2040.96 859.955 2039.66 859.955C2034.45 859.695 2027.16 860.215 2022.22 859.955C2022.48 860.735 2021.96 860.995 2021.44 861.515C2021.96 862.815 2020.92 865.685 2021.96 866.725C2020.92 869.065 2021.7 871.935 2021.44 874.535C2021.18 882.565 2021.96 891.675 2021.96 900.475C2021.7 908.285 2021.96 915.795 2022.22 922.565C2022.74 927.765 2021.96 935.055 2022.74 940.485C2022.48 944.125 2022.48 948.035 2022.48 951.675C2022.48 955.795 2022.22 958.925 2022.22 962.565C2022.22 971.415 2023 980.745 2023 990.635L2025.6 992.195C2032.63 991.675 2037.06 992.455 2043.3 992.195C2045.91 992.195 2049.29 991.675 2052.41 991.675C2052.67 990.895 2053.71 990.895 2053.98 990.375C2053.98 975.015 2053.98 960.745 2053.71 945.425C2053.71 942.565 2053.71 939.185 2053.45 936.315C2053.19 932.975 2053.45 929.595 2053.19 926.205C2052.67 918.135 2051.89 909.585 2053.71 902.565C2054.24 900.475 2055.28 897.875 2055.8 895.575C2056.58 894.015 2057.62 892.715 2058.66 891.415C2062.31 889.065 2068.55 886.985 2073.76 888.285C2075.32 888.545 2078.19 890.635 2079.49 891.675C2082.61 894.795 2083.13 898.395 2083.91 903.605C2084.17 905.425 2084.95 907.505 2084.95 909.065C2086.78 923.085 2085.21 936.575 2085.73 950.635C2085.99 952.455 2086.26 954.535 2086.26 956.575C2086.26 959.445 2085.73 962.825 2085.73 965.945L2085.21 976.315C2084.95 978.405 2085.21 980.225 2084.43 981.785C2084.69 983.605 2084.95 986.215 2084.43 988.295C2085.73 989.075 2085.73 990.375 2086.26 991.415C2087.82 992.455 2089.38 991.935 2091.2 991.935C2099.53 991.675 2109.68 992.195 2115.67 990.895Z" fill="white"/>
<path d="M2228.91 907.855C2230.47 906.555 2229.69 903.685 2229.43 900.825C2229.17 895.615 2228.39 889.635 2226.57 884.685C2225 880.785 2222.92 877.395 2220.84 874.015C2220.06 872.455 2218.76 870.625 2217.46 869.065C2215.63 866.985 2213.29 864.905 2211.47 865.165C2203.92 860.995 2193.77 857.355 2183.35 857.615C2183.09 857.615 2183.09 857.615 2182.83 857.875C2177.37 858.395 2172.16 859.175 2167.47 860.735L2161.49 863.335C2159.4 864.125 2157.58 865.165 2156.02 866.465C2152.64 868.805 2150.03 871.935 2146.91 874.795C2142.74 881.045 2139.1 887.815 2138.06 896.395C2137.28 905.515 2136.5 916.445 2137.02 926.855C2137.28 934.925 2136.5 942.735 2137.28 949.765C2137.28 950.545 2138.06 950.545 2137.8 951.325C2138.06 956.015 2138.58 960.175 2140.14 964.085C2144.83 973.975 2151.33 981.525 2160.97 986.475C2163.31 987.515 2166.17 988.815 2168.52 989.595C2169.04 989.855 2169.56 989.595 2169.82 989.855C2170.34 990.115 2170.6 990.635 2170.86 990.635C2173.46 991.415 2176.32 991.415 2178.67 992.715C2178.93 992.715 2179.19 992.455 2179.71 992.455C2184.13 993.235 2188.3 993.495 2192.99 992.975C2200.53 991.935 2205.74 990.115 2210.95 986.995C2213.55 985.425 2215.63 984.125 2217.46 982.305C2222.14 977.885 2226.05 973.195 2228.39 966.945C2229.95 962.005 2231.77 953.415 2230.99 946.385C2230.99 945.345 2230.73 943.775 2230.21 942.735C2229.69 941.955 2228.13 941.695 2227.61 940.655C2219.8 939.875 2210.69 938.835 2202.1 940.655C2200.01 945.865 2201.32 953.935 2198.19 958.355C2195.85 960.175 2193.25 961.745 2190.38 962.785C2185.18 964.345 2179.19 962.785 2175.02 959.915C2172.68 958.355 2171.12 955.495 2170.6 952.625C2167.74 941.435 2170.34 926.335 2169.82 911.755C2169.56 907.335 2169.56 902.905 2170.08 899.525C2170.86 891.455 2178.93 889.115 2184.66 886.765C2188.56 887.285 2192.2 888.335 2195.07 890.415C2201.06 894.575 2201.32 901.865 2202.36 909.155C2210.17 911.235 2220.58 911.235 2228.91 910.715C2229.43 909.935 2229.95 909.415 2230.21 908.375C2229.69 908.115 2229.17 907.855 2228.91 907.855Z" fill="white"/>
<path d="M2286.96 861.775C2285.92 861.775 2285.66 861.515 2284.88 861.775C2284.88 861.255 2284.62 860.735 2284.1 860.735C2275.25 858.395 2265.35 859.435 2257.02 860.735C2256.24 866.205 2256.5 872.455 2256.5 878.695C2256.5 883.385 2255.72 888.075 2255.72 893.275V908.895C2255.46 914.365 2254.42 920.345 2254.94 925.295C2255.2 927.115 2254.94 927.895 2254.94 929.725C2254.68 935.185 2254.94 940.915 2254.94 945.865C2254.68 955.755 2255.72 965.905 2255.72 975.275C2255.72 979.965 2254.94 984.385 2255.2 988.555C2255.46 991.155 2256.76 993.235 2258.85 991.415C2266.66 992.975 2276.29 992.195 2286.18 991.415C2286.7 990.895 2286.7 989.855 2287.48 989.335C2287.74 977.615 2286.96 965.645 2286.96 953.675C2286.7 945.345 2287.22 937.535 2287.74 928.945C2288.26 921.915 2287.74 914.625 2288.26 907.335C2288.78 895.095 2288 883.905 2286.96 871.675C2287.74 869.065 2286.44 864.905 2286.96 861.775ZM2287.22 809.975C2276.81 809.455 2267.18 808.155 2257.55 809.455C2258.07 810.235 2257.28 810.235 2256.76 811.015C2256.76 819.345 2256.5 828.455 2256.24 838.605C2263.01 838.875 2269.52 838.875 2276.03 839.395C2276.55 839.395 2277.33 839.915 2277.85 839.915H2281.76C2283.58 839.915 2284.88 839.655 2286.18 840.175C2286.18 839.655 2286.7 839.655 2286.96 839.655C2287.74 836.785 2288.26 831.845 2288.26 827.675L2287.22 809.975Z" fill="white"/>
<path d="M2405.15 986.995V984.645C2405.15 981.525 2404.88 978.405 2404.88 975.275C2404.88 972.155 2404.37 969.295 2404.37 966.425C2404.37 957.055 2404.1 947.945 2404.62 938.835C2404.88 928.945 2405.15 919.045 2404.62 909.155C2404.37 899.265 2404.1 889.375 2401.24 880.005C2399.94 878.695 2399.68 876.615 2398.9 875.315C2397.86 873.755 2396.55 872.715 2395.25 871.405C2392.65 869.065 2389.79 867.245 2387.18 864.905C2384.06 863.335 2381.2 861.775 2377.81 860.995C2371.04 859.175 2364.28 856.835 2355.95 857.355C2355.16 857.875 2355.95 857.615 2354.9 857.615C2348.4 857.615 2343.45 858.915 2339.02 860.215L2335.9 861.255C2335.12 861.515 2334.6 862.295 2334.08 862.815L2332 863.335C2330.95 863.865 2329.91 864.905 2328.87 865.685C2327.57 866.725 2326.27 867.765 2325.49 869.065C2324.45 870.105 2322.1 871.675 2321.06 872.715C2314.29 880.265 2312.73 891.195 2312.73 904.735L2314.55 906.295C2320.02 906.555 2324.71 906.555 2330.69 907.075C2334.6 907.595 2339.29 908.375 2342.41 907.075C2342.67 905.775 2341.63 905.255 2341.63 904.215C2340.59 899.785 2343.45 895.095 2345.01 892.755C2346.31 890.675 2347.88 888.855 2349.96 887.815C2351 887.025 2352.82 886.245 2354.12 885.985C2359.85 884.425 2364.28 886.245 2368.18 889.115C2374.69 890.415 2375.47 902.125 2374.17 908.115C2369.22 909.155 2364.02 911.235 2360.11 912.535C2354.12 914.885 2347.88 916.445 2342.41 918.785C2336.68 921.395 2331.74 924.515 2327.05 927.895C2325.49 928.945 2324.19 930.765 2322.1 930.765C2317.94 936.225 2314.03 942.475 2312.47 950.285C2312.21 951.845 2312.21 954.195 2312.21 956.275C2312.21 958.095 2311.95 960.175 2312.21 961.745L2312.99 963.565V966.425C2314.03 972.935 2317.16 977.355 2319.76 981.785C2322.88 984.385 2326.53 987.255 2330.43 989.335C2334.08 991.155 2339.02 993.495 2343.19 994.285C2347.61 995.065 2351.52 994.025 2355.68 994.025C2357.51 994.025 2359.07 993.755 2360.63 993.235C2362.97 992.455 2365.32 991.935 2367.14 991.155L2369.22 990.635C2370 990.375 2370.78 989.595 2371.56 989.335L2374.17 988.295C2376.77 986.995 2378.59 984.385 2380.42 982.825C2381.46 985.955 2382.76 989.075 2384.32 991.675C2389.79 991.415 2398.9 993.495 2405.15 992.715C2405.93 990.635 2405.41 988.815 2405.15 986.995ZM2372.35 958.095C2367.14 964.085 2355.42 967.465 2347.61 962.005C2345.79 960.955 2343.97 957.835 2343.45 955.235C2342.67 950.805 2345.27 948.205 2346.57 944.555C2353.86 938.575 2364.28 936.485 2373.65 933.365H2373.91C2373.65 942.215 2375.21 951.325 2372.35 958.095Z" fill="white"/>
<path d="M2525.41 899.785C2525.67 915.405 2526.46 931.545 2526.19 945.085C2525.93 959.655 2525.41 974.755 2526.46 991.415C2528.28 993.235 2531.14 992.715 2534 992.975C2539.99 993.755 2545.2 993.495 2550.4 992.715C2553.53 992.455 2556.39 992.975 2558.73 991.155C2559.26 980.225 2559.26 969.295 2558.73 958.095L2557.69 947.165C2556.91 934.925 2558.21 922.695 2558.21 911.495C2558.21 909.675 2557.95 905.775 2558.21 902.905C2558.21 901.865 2558.47 901.085 2558.73 900.045C2558.73 897.705 2558.47 895.095 2558.47 892.235V888.855C2558.47 887.545 2558.73 885.985 2558.47 884.685C2558.47 883.905 2557.95 884.165 2557.69 883.385C2556.91 880.525 2557.69 876.615 2557.69 873.235C2557.69 863.075 2557.69 853.705 2557.43 844.595C2557.43 832.105 2557.95 820.385 2556.91 808.935C2554.57 807.635 2551.19 807.895 2547.8 807.895C2539.73 807.895 2532.96 808.155 2526.71 808.935C2526.46 809.715 2526.46 810.495 2525.41 810.495C2525.67 824.295 2525.41 839.135 2525.41 855.795C2525.67 868.285 2525.41 884.165 2525.41 899.785Z" fill="white"/>
<path d="M2682.39 990.895C2682.65 988.035 2682.13 983.605 2682.13 979.965C2682.13 977.355 2682.13 974.755 2681.87 972.195C2681.87 966.205 2682.65 960.225 2682.39 954.535V945.425C2682.91 938.395 2681.87 931.935 2681.61 925.165C2681.34 915.795 2682.65 906.205 2682.13 896.835C2681.87 892.195 2680.56 887.245 2679 883.345C2677.44 879.955 2676.66 877.615 2674.84 874.795L2671.97 871.145C2670.67 869.845 2668.07 868.285 2668.33 866.725C2665.99 865.945 2663.9 864.905 2662.08 863.605H2660.52C2658.44 862.035 2655.31 861.775 2653.23 860.215C2651.41 860.735 2650.11 859.435 2648.28 859.175C2645.68 858.915 2642.56 858.915 2639.69 858.915C2629.54 858.915 2619.65 863.075 2614.44 869.845C2614.18 869.065 2614.44 869.065 2614.44 868.025C2612.88 866.465 2613.14 861.515 2611.32 860.475C2610.28 859.955 2607.67 859.955 2606.37 859.955C2601.17 859.695 2593.88 860.215 2588.93 859.955C2589.19 860.735 2588.67 860.995 2588.15 861.515C2588.67 862.815 2587.63 865.685 2588.67 866.725C2587.63 869.065 2588.41 871.935 2588.15 874.535C2587.89 882.565 2588.67 891.675 2588.67 900.475C2588.41 908.285 2588.67 915.795 2588.93 922.565C2589.45 927.765 2588.67 935.055 2589.45 940.485C2589.19 944.125 2589.19 948.035 2589.19 951.675C2589.19 955.795 2588.93 958.925 2588.93 962.565C2588.93 971.415 2589.71 980.745 2589.71 990.635L2592.32 992.195C2599.34 991.675 2603.77 992.455 2610.02 992.195C2612.62 992.195 2616 991.675 2619.13 991.675C2619.39 990.895 2620.43 990.895 2620.69 990.375C2620.69 975.015 2620.69 960.745 2620.43 945.425C2620.43 942.565 2620.43 939.185 2620.17 936.315C2619.91 932.975 2620.17 929.595 2619.91 926.205C2619.39 918.135 2618.61 909.585 2620.43 902.565C2620.95 900.475 2621.99 897.875 2622.51 895.575C2623.29 894.015 2624.34 892.715 2625.38 891.415C2629.02 889.065 2635.27 886.985 2640.48 888.285C2642.04 888.545 2644.9 890.635 2646.2 891.675C2649.33 894.795 2649.85 898.395 2650.63 903.605C2650.89 905.425 2651.67 907.505 2651.67 909.065C2653.49 923.085 2651.93 936.575 2652.45 950.635C2652.71 952.455 2652.97 954.535 2652.97 956.575C2652.97 959.445 2652.45 962.825 2652.45 965.945L2651.93 976.315C2651.67 978.405 2651.93 980.225 2651.15 981.785C2651.41 983.605 2651.67 986.215 2651.15 988.295C2652.45 989.075 2652.45 990.375 2652.97 991.415C2654.53 992.455 2656.09 991.935 2657.92 991.935C2666.25 991.675 2676.4 992.195 2682.39 990.895Z" fill="white"/>
<path d="M2821.4 857.615C2809.16 857.615 2799.27 862.555 2791.2 871.675V871.405C2788.86 869.325 2785.99 867.765 2784.43 864.905C2783.65 864.645 2782.87 864.385 2782.35 863.865C2776.1 860.995 2770.11 858.395 2762.82 859.175C2760.74 858.655 2758.4 859.175 2756.32 859.435C2749.55 860.475 2742.78 862.035 2738.09 865.425C2736.27 866.465 2735.23 867.765 2733.93 869.325C2733.15 868.025 2733.15 865.685 2732.11 864.645C2733.15 864.385 2732.11 861.775 2732.37 860.475C2725.34 859.175 2714.93 858.655 2707.9 859.695C2706.08 864.125 2707.9 868.805 2706.6 872.975C2708.42 877.135 2706.6 880.785 2706.33 884.945C2705.82 891.455 2707.64 898.745 2707.9 905.775C2707.9 909.675 2707.9 913.065 2708.16 916.705C2707.38 916.965 2708.68 916.705 2708.42 917.225C2708.42 918.785 2707.9 922.175 2708.42 923.995V942.215C2708.16 950.805 2707.64 958.355 2708.42 966.945C2708.94 970.335 2709.72 973.455 2709.72 976.835C2709.46 981.525 2708.94 986.215 2709.46 991.155C2709.98 991.415 2709.98 992.195 2710.5 992.455C2718.83 991.675 2730.54 993.235 2739.4 992.455C2740.7 990.115 2739.66 986.995 2739.66 984.125C2739.92 979.185 2739.66 973.975 2739.4 969.025C2738.88 955.495 2739.92 941.955 2739.66 928.945C2740.18 926.075 2739.66 922.955 2739.92 919.825C2740.44 915.925 2741.22 912.025 2740.96 908.115C2740.7 907.595 2740.44 907.075 2740.44 906.555C2740.18 904.995 2740.96 903.165 2741.22 901.605C2741.74 897.445 2742.78 894.835 2744.6 892.495C2748.25 888.335 2756.58 886.505 2762.04 889.115C2762.3 889.115 2763.09 889.115 2763.34 889.375C2763.87 889.635 2764.13 890.415 2764.39 890.675L2766.21 891.715L2767.25 893.535C2767.51 894.055 2768.29 894.575 2768.55 895.355C2768.55 895.615 2768.55 896.145 2768.81 896.395C2769.07 896.925 2769.59 897.445 2769.59 897.705C2770.11 899.005 2770.63 900.825 2770.63 902.125C2771.16 903.955 2771.16 905.775 2771.41 907.595C2771.68 909.415 2771.94 911.235 2771.94 912.805C2772.46 916.705 2772.2 920.875 2772.2 925.035C2772.2 928.945 2771.94 932.845 2771.68 937.275C2771.41 941.175 2770.89 945.605 2770.89 950.025C2770.89 953.935 2771.41 957.575 2771.68 961.225C2771.94 964.865 2771.41 968.505 2771.68 971.895C2771.68 978.145 2771.94 984.385 2772.46 989.855C2772.98 990.115 2772.98 990.895 2773.76 991.415C2783.39 991.935 2793.8 991.415 2802.65 991.415C2802.91 986.215 2803.17 981.265 2803.17 976.055C2802.91 971.375 2802.39 965.905 2802.65 961.225C2802.91 958.355 2802.91 955.495 2802.65 952.885C2802.65 947.165 2802.65 939.615 2802.39 934.145C2802.13 925.035 2802.91 912.275 2801.87 903.165C2802.39 901.865 2802.65 900.045 2802.65 898.485C2803.69 897.445 2804.22 895.885 2804.48 894.835C2806.3 893.795 2807.6 891.975 2809.68 890.675C2812.29 889.115 2814.37 888.075 2817.49 888.075C2820.36 888.075 2821.92 887.815 2824.52 889.115C2826.86 889.895 2828.68 891.455 2829.99 893.015C2832.07 895.095 2832.33 896.145 2833.11 899.005C2833.37 900.045 2834.15 901.345 2834.15 902.385C2834.93 905.775 2834.67 909.935 2834.67 913.845V932.585C2834.67 935.445 2834.41 938.315 2834.15 941.435C2834.15 944.555 2834.41 947.685 2834.67 950.805C2834.93 957.575 2833.89 964.345 2833.89 970.595C2833.89 976.315 2833.89 982.305 2834.15 987.515C2834.15 988.555 2833.89 989.335 2834.15 990.115C2834.93 990.375 2835.71 990.635 2836.23 991.155C2844.82 991.675 2853.16 990.895 2861.49 990.635C2862.27 990.895 2862.27 991.675 2863.31 991.675C2864.87 990.375 2864.35 988.295 2864.35 986.995L2863.83 969.295C2863.57 957.575 2865.13 942.215 2864.87 929.725C2864.61 923.215 2865.13 916.185 2865.13 909.155C2865.13 902.645 2864.09 896.395 2863.57 890.675C2863.57 888.335 2863.31 885.985 2862.79 883.645C2862.27 881.565 2861.49 881.305 2860.7 879.745L2859.92 877.915C2857.32 873.495 2854.2 869.065 2850.29 865.685C2848.99 865.685 2848.47 864.905 2847.43 864.645C2846.39 863.605 2844.82 863.075 2843.26 862.035C2840.66 860.475 2837.54 859.695 2833.89 858.395C2829.99 858.135 2825.56 857.615 2821.4 857.615ZM2790.94 872.195C2790.94 872.195 2791.2 871.935 2791.2 871.675C2791.2 871.935 2790.94 871.935 2790.94 872.195Z" fill="white"/>
<path d="M2979.93 942.475C2979.41 940.135 2979.93 936.225 2979.93 933.105V915.665C2979.93 908.895 2979.67 903.425 2978.89 897.705C2978.11 893.015 2977.85 888.335 2976.29 884.425C2974.46 880.785 2972.64 877.135 2970.3 873.755L2964.05 868.025C2963.79 868.025 2963.53 867.765 2963.27 867.765C2961.71 868.025 2960.93 867.245 2959.89 866.725C2949.99 862.295 2936.72 858.655 2923.18 859.175C2916.93 859.695 2911.21 862.035 2906.78 864.905C2901.83 867.505 2898.97 871.935 2895.07 875.575C2894.29 877.655 2892.72 879.475 2891.68 881.565C2889.6 885.465 2888.3 889.115 2887.52 893.795L2886.22 900.825C2885.96 905.255 2886.48 907.335 2887 910.975C2888.04 921.135 2887 932.845 2887.26 942.735C2887.52 951.325 2887.52 959.915 2890.38 966.945C2891.68 970.595 2893.24 973.715 2895.59 976.055L2897.67 978.925C2898.97 980.225 2900.79 981.265 2902.36 982.305C2907.3 985.955 2913.03 988.295 2919.02 990.115C2919.8 990.115 2919.8 989.595 2920.58 989.855C2931.25 993.495 2941.92 992.715 2951.3 989.335C2953.38 988.815 2955.46 988.295 2957.02 987.515C2959.63 986.475 2961.97 984.905 2963.79 983.605C2966.91 981.525 2969 978.925 2971.86 975.795C2973.68 973.715 2976.55 970.855 2977.33 968.245C2978.11 966.165 2978.63 963.825 2979.15 961.485C2979.93 957.315 2980.19 952.885 2979.93 948.725C2979.93 947.425 2979.41 945.345 2979.93 943.775C2979.93 943.515 2979.93 943.515 2980.19 943.515L2979.93 943.255C2979.67 943.255 2979.93 942.735 2979.93 942.475ZM2949.99 947.425C2949.73 950.545 2949.21 953.155 2948.43 955.495C2946.61 957.055 2944.53 958.355 2942.97 960.435C2940.88 961.485 2939.32 962.005 2937.24 962.785C2936.72 963.045 2936.2 963.305 2935.68 963.305C2932.55 963.825 2927.61 962.265 2925.26 960.695C2923.96 959.655 2922.4 957.835 2921.36 956.015C2920.06 954.195 2919.02 952.365 2918.5 950.545C2917.97 949.245 2917.71 947.685 2917.71 945.865C2917.45 945.085 2917.45 944.295 2917.45 943.515V923.475C2917.45 916.705 2917.19 908.375 2917.71 901.865C2917.97 899.265 2918.24 896.395 2919.28 894.835C2920.06 893.535 2921.62 891.975 2923.18 890.675C2924.48 889.375 2926.57 888.595 2927.61 887.815C2929.95 887.285 2933.07 887.545 2935.68 887.025C2936.72 887.025 2937.24 887.815 2938.54 887.545C2943.23 889.635 2946.61 892.495 2947.91 897.965C2948.43 899.525 2948.43 902.125 2948.69 903.685C2948.95 904.215 2948.69 904.995 2948.69 905.775C2948.69 906.815 2948.95 907.595 2949.21 908.635C2949.47 912.805 2948.95 917.745 2949.21 922.695C2949.73 931.025 2950.52 938.315 2949.99 947.425Z" fill="white"/>
<path d="M3098.12 950.545C3097.86 934.665 3097.59 916.185 3097.86 900.045C3097.86 897.185 3097.86 894.315 3097.59 891.715C3097.33 888.075 3096.03 883.905 3094.73 881.305C3093.17 878.435 3091.87 876.355 3090.05 873.755C3087.18 869.845 3083.02 865.945 3078.59 863.865C3077.29 862.035 3074.17 862.295 3072.6 860.735C3069.22 860.215 3064.79 858.655 3060.37 858.915C3059.85 858.915 3059.33 859.175 3058.81 859.175C3058.29 859.175 3057.51 858.915 3056.99 858.915C3056.72 858.915 3055.94 859.175 3055.42 859.175C3053.86 859.695 3053.6 859.695 3052.56 859.435C3046.31 860.735 3040.58 863.075 3035.38 865.425C3036.16 859.435 3035.9 853.185 3035.9 847.725V840.955C3035.9 837.825 3035.38 834.445 3035.38 831.585C3035.38 830.805 3035.9 830.275 3035.9 829.495C3036.16 827.675 3036.16 825.335 3035.9 823.255C3035.9 818.305 3035.9 814.135 3035.12 809.195C3034.34 808.675 3033.56 809.455 3032.78 809.195C3032.25 809.195 3032.25 808.675 3031.47 808.675C3030.43 808.415 3028.87 808.675 3027.57 808.675C3026.01 808.675 3024.44 808.155 3022.88 807.895C3018.46 807.635 3013.51 808.155 3009.35 807.895C3008.3 807.635 3007.26 807.115 3006.22 807.375C3005.44 807.635 3004.92 809.195 3004.14 809.975C3004.66 809.975 3004.14 810.495 3004.14 810.495C3004.14 811.275 3004.4 811.795 3004.4 812.575C3004.92 818.565 3004.4 822.735 3003.62 829.755C3003.62 830.535 3004.4 830.275 3004.4 831.065C3003.88 834.705 3004.14 839.135 3004.14 843.035C3003.88 852.925 3003.88 862.295 3004.92 871.405C3004.4 880.785 3004.14 890.935 3004.14 899.265C3003.88 901.345 3004.4 903.425 3004.4 905.255C3004.4 906.295 3004.14 907.075 3004.14 907.855C3004.4 912.275 3004.92 916.965 3004.92 921.395L3004.4 929.205C3004.4 932.325 3004.92 935.965 3004.92 939.355C3004.66 942.475 3004.14 945.605 3004.92 948.725C3004.4 952.105 3004.14 954.975 3004.4 958.355C3003.62 959.655 3003.88 962.005 3004.4 963.565C3004.14 971.895 3003.36 980.745 3004.66 987.515C3004.66 988.035 3004.4 988.555 3004.4 989.335L3006.48 991.155C3013.51 991.675 3020.8 991.675 3027.83 991.675C3028.09 991.155 3028.61 990.375 3029.39 990.115C3029.91 988.555 3030.43 984.645 3030.95 982.045C3037.72 990.115 3050.74 993.235 3062.97 993.235C3065.58 992.195 3068.7 992.195 3071.56 991.675C3072.86 991.415 3074.43 990.895 3075.47 990.375C3076.77 989.595 3077.81 988.295 3079.11 987.515C3081.19 986.735 3082.76 985.955 3084.58 984.125C3085.62 983.085 3087.44 981.265 3087.96 979.965C3088.74 978.925 3088.74 977.615 3089.52 976.835C3089.79 976.575 3090.57 976.575 3090.83 976.315C3091.09 975.795 3091.35 974.755 3091.87 974.235C3092.91 972.675 3093.69 971.115 3094.47 969.545C3095.25 967.465 3096.55 964.865 3097.33 962.525C3098.12 959.395 3098.12 953.675 3098.12 950.545ZM3066.88 922.695C3066.62 923.735 3065.84 924.515 3065.84 925.815C3065.58 928.415 3066.1 931.545 3066.1 934.405C3066.1 938.055 3066.1 941.435 3066.36 944.815C3066.62 946.645 3066.1 949.245 3065.58 951.585C3065.05 953.675 3064.79 956.275 3064.27 957.575C3063.49 959.655 3061.41 961.745 3059.59 962.525C3058.29 963.305 3055.42 964.085 3053.86 964.345C3049.7 964.865 3046.31 962.005 3041.37 961.745C3039.02 958.875 3036.16 955.495 3035.64 951.065C3035.38 949.505 3035.12 947.425 3035.12 945.605C3034.86 941.955 3035.38 938.835 3035.64 935.705C3035.64 926.335 3035.64 914.885 3035.9 906.035C3036.16 903.685 3035.38 900.825 3036.42 899.525C3036.42 899.525 3036.94 899.525 3036.94 899.005C3037.46 898.225 3037.46 897.445 3037.72 896.925C3038.5 895.615 3040.32 893.795 3041.63 892.495C3044.23 889.635 3046.05 888.335 3050.48 888.335C3054.12 888.075 3058.03 889.635 3061.41 891.195L3065.05 895.095C3066.36 900.825 3066.62 908.635 3066.62 915.405C3066.88 918.005 3067.14 920.875 3066.88 922.695Z" fill="white"/>
<path d="M3153.82 861.775C3152.78 861.775 3152.52 861.515 3151.74 861.775C3151.74 861.255 3151.48 860.735 3150.96 860.735C3142.11 858.395 3132.22 859.435 3123.89 860.735C3123.11 866.205 3123.37 872.455 3123.37 878.695C3123.37 883.385 3122.59 888.075 3122.59 893.275V908.895C3122.32 914.365 3121.28 920.345 3121.8 925.295C3122.07 927.115 3121.8 927.895 3121.8 929.725C3121.54 935.185 3121.8 940.915 3121.8 945.865C3121.54 955.755 3122.59 965.905 3122.59 975.275C3122.59 979.965 3121.8 984.385 3122.07 988.555C3122.32 991.155 3123.63 993.235 3125.71 991.415C3133.52 992.975 3143.15 992.195 3153.04 991.415C3153.56 990.895 3153.56 989.855 3154.34 989.335C3154.6 977.615 3153.82 965.645 3153.82 953.675C3153.56 945.345 3154.08 937.535 3154.6 928.945C3155.13 921.915 3154.6 914.625 3155.13 907.335C3155.65 895.095 3154.87 883.905 3153.82 871.675C3154.6 869.065 3153.3 864.905 3153.82 861.775ZM3154.08 809.975C3143.67 809.455 3134.04 808.155 3124.41 809.455C3124.93 810.235 3124.15 810.235 3123.63 811.015C3123.63 819.345 3123.37 828.455 3123.11 838.605C3129.87 838.875 3136.38 838.875 3142.89 839.395C3143.41 839.395 3144.19 839.915 3144.71 839.915H3148.62C3150.44 839.915 3151.74 839.655 3153.04 840.175C3153.04 839.655 3153.56 839.655 3153.82 839.655C3154.6 836.785 3155.13 831.845 3155.13 827.675L3154.08 809.975Z" fill="white"/>
<path d="M3214.74 809.195C3214.22 808.675 3213.18 808.935 3213.44 808.155C3204.06 806.855 3192.35 808.155 3183.76 807.375C3183.76 808.155 3183.5 809.195 3182.72 809.195C3183.5 811.795 3182.98 814.135 3182.72 816.485V825.595C3182.72 826.895 3182.98 828.195 3182.98 829.495C3182.98 833.145 3182.2 837.045 3182.46 840.695C3182.46 850.065 3181.94 858.915 3182.46 868.025C3182.46 870.105 3181.94 872.195 3181.94 874.535V893.795C3181.68 900.045 3181.42 906.555 3181.42 913.325L3182.46 948.205C3182.72 954.975 3182.46 962.785 3182.46 968.765C3182.2 974.495 3182.2 978.665 3182.46 984.645C3181.42 986.995 3182.2 990.375 3182.72 991.935C3184.02 992.195 3184.8 991.675 3186.36 991.415C3190.79 990.895 3195.99 991.415 3200.68 991.935C3205.11 992.195 3209.53 992.455 3212.92 991.935C3213.7 990.375 3212.4 990.115 3212.13 988.815C3211.61 986.475 3211.87 983.085 3211.87 979.705L3212.4 950.545C3212.92 935.965 3211.87 921.395 3212.4 907.855C3212.66 899.525 3212.4 891.455 3212.66 883.125C3212.66 874.795 3213.18 866.205 3213.44 858.135C3213.96 850.065 3213.7 841.995 3213.96 833.925C3214.22 825.855 3213.44 817.265 3214.74 809.195Z" fill="white"/>
<path d="M3273.05 861.775C3272.01 861.775 3271.75 861.515 3270.97 861.775C3270.97 861.255 3270.71 860.735 3270.19 860.735C3261.34 858.395 3251.44 859.435 3243.11 860.735C3242.33 866.205 3242.59 872.455 3242.59 878.695C3242.59 883.385 3241.81 888.075 3241.81 893.275V908.895C3241.55 914.365 3240.51 920.345 3241.03 925.295C3241.29 927.115 3241.03 927.895 3241.03 929.725C3240.77 935.185 3241.03 940.915 3241.03 945.865C3240.77 955.755 3241.81 965.905 3241.81 975.275C3241.81 979.965 3241.03 984.385 3241.29 988.555C3241.55 991.155 3242.85 993.235 3244.94 991.415C3252.74 992.975 3262.38 992.195 3272.27 991.415C3272.79 990.895 3272.79 989.855 3273.57 989.335C3273.83 977.615 3273.05 965.645 3273.05 953.675C3272.79 945.345 3273.31 937.535 3273.83 928.945C3274.35 921.915 3273.83 914.625 3274.35 907.335C3274.87 895.095 3274.09 883.905 3273.05 871.675C3273.83 869.065 3272.53 864.905 3273.05 861.775ZM3273.31 809.975C3262.9 809.455 3253.27 808.155 3243.63 809.455C3244.15 810.235 3243.37 810.235 3242.85 811.015C3242.85 819.345 3242.59 828.455 3242.33 838.605C3249.1 838.875 3255.61 838.875 3262.12 839.395C3262.64 839.395 3263.42 839.915 3263.94 839.915H3267.84C3269.67 839.915 3270.97 839.655 3272.27 840.175C3272.27 839.655 3272.79 839.655 3273.05 839.655C3273.83 836.785 3274.35 831.845 3274.35 827.675L3273.31 809.975Z" fill="white"/>
<path d="M3391.23 986.995V984.645C3391.23 981.525 3390.97 978.405 3390.97 975.275C3390.97 972.155 3390.45 969.295 3390.45 966.425C3390.45 957.055 3390.19 947.945 3390.71 938.835C3390.97 928.945 3391.23 919.045 3390.71 909.155C3390.45 899.265 3390.19 889.375 3387.33 880.005C3386.03 878.695 3385.77 876.615 3384.99 875.315C3383.95 873.755 3382.64 872.715 3381.34 871.405C3378.74 869.065 3375.88 867.245 3373.27 864.905C3370.15 863.335 3367.28 861.775 3363.9 860.995C3357.13 859.175 3350.36 856.835 3342.03 857.355C3341.25 857.875 3342.03 857.615 3340.99 857.615C3334.48 857.615 3329.54 858.915 3325.11 860.215L3321.99 861.255C3321.21 861.515 3320.69 862.295 3320.17 862.815L3318.08 863.335C3317.04 863.865 3316 864.905 3314.96 865.685C3313.66 866.725 3312.36 867.765 3311.58 869.065C3310.54 870.105 3308.19 871.675 3307.15 872.715C3300.38 880.265 3298.82 891.195 3298.82 904.735L3300.64 906.295C3306.11 906.555 3310.8 906.555 3316.78 907.075C3320.69 907.595 3325.37 908.375 3328.5 907.075C3328.76 905.775 3327.72 905.255 3327.72 904.215C3326.68 899.785 3329.54 895.095 3331.1 892.755C3332.4 890.675 3333.96 888.855 3336.05 887.815C3337.09 887.025 3338.91 886.245 3340.21 885.985C3345.94 884.425 3350.36 886.245 3354.27 889.115C3360.78 890.415 3361.56 902.125 3360.26 908.115C3355.31 909.155 3350.1 911.235 3346.2 912.535C3340.21 914.885 3333.96 916.445 3328.5 918.785C3322.77 921.395 3317.82 924.515 3313.14 927.895C3311.58 928.945 3310.27 930.765 3308.19 930.765C3304.03 936.225 3300.12 942.475 3298.56 950.285C3298.3 951.845 3298.3 954.195 3298.3 956.275C3298.3 958.095 3298.04 960.175 3298.3 961.745L3299.08 963.565V966.425C3300.12 972.935 3303.25 977.355 3305.85 981.785C3308.97 984.385 3312.62 987.255 3316.52 989.335C3320.17 991.155 3325.11 993.495 3329.28 994.285C3333.7 995.065 3337.61 994.025 3341.77 994.025C3343.6 994.025 3345.16 993.755 3346.72 993.235C3349.06 992.455 3351.41 991.935 3353.23 991.155L3355.31 990.635C3356.09 990.375 3356.87 989.595 3357.65 989.335L3360.26 988.295C3362.86 986.995 3364.68 984.385 3366.5 982.825C3367.55 985.955 3368.85 989.075 3370.41 991.675C3375.88 991.415 3384.99 993.495 3391.23 992.715C3392.02 990.635 3391.49 988.815 3391.23 986.995ZM3358.43 958.095C3353.23 964.085 3341.51 967.465 3333.7 962.005C3331.88 960.955 3330.06 957.835 3329.54 955.235C3328.76 950.805 3331.36 948.205 3332.66 944.555C3339.95 938.575 3350.36 936.485 3359.74 933.365H3360C3359.74 942.215 3361.3 951.325 3358.43 958.095Z" fill="white"/>
<path d="M3493.8 862.295C3492.76 862.035 3492.24 861.255 3491.72 860.735C3489.9 860.475 3488.59 858.655 3486.51 859.175C3485.99 858.915 3487.03 858.655 3486.25 858.655C3478.7 857.095 3472.45 858.135 3464.64 858.655C3464.12 859.175 3463.34 859.435 3462.56 859.175C3454.49 862.295 3447.98 867.245 3443.3 872.975C3442.78 868.285 3441.74 864.125 3441.22 860.475C3440.7 860.735 3440.43 860.475 3440.7 859.955C3439.13 860.215 3437.31 859.435 3436.01 859.695C3435.23 859.695 3434.45 859.955 3433.41 859.955C3431.85 860.215 3430.02 859.695 3428.2 859.695C3425.08 859.695 3418.83 859.955 3418.05 862.815C3417.79 863.605 3418.05 864.645 3418.31 865.425C3418.31 871.145 3418.31 876.615 3418.05 882.865C3418.57 896.395 3418.31 910.975 3418.57 925.555C3418.83 930.505 3419.09 935.185 3419.09 940.135C3418.83 947.425 3419.09 954.195 3418.83 960.955C3418.57 965.645 3418.83 971.115 3418.57 975.795C3418.05 981.265 3418.83 986.215 3419.35 991.155C3421.95 990.895 3424.03 991.935 3426.64 991.935C3431.85 992.455 3438.09 992.195 3442.78 991.935C3445.12 991.675 3446.94 990.895 3448.77 991.935C3449.81 990.895 3449.29 989.855 3449.29 988.555C3449.29 986.215 3449.55 983.865 3449.55 981.785C3449.29 978.405 3448.77 975.015 3448.77 971.895C3448.77 959.655 3449.03 944.035 3448.5 930.245C3447.98 917.745 3448.24 906.815 3452.15 898.485L3453.45 895.615C3456.05 892.235 3461.52 889.115 3465.95 888.335C3472.45 887.285 3480.52 889.115 3486.51 888.335C3487.03 887.545 3485.99 887.025 3486.25 886.245C3489.37 879.215 3490.94 870.365 3493.8 862.295Z" fill="white"/>
<path d="M3545.6 861.775C3544.56 861.775 3544.3 861.515 3543.52 861.775C3543.52 861.255 3543.26 860.735 3542.74 860.735C3533.89 858.395 3524 859.435 3515.67 860.735C3514.89 866.205 3515.15 872.455 3515.15 878.695C3515.15 883.385 3514.37 888.075 3514.37 893.275V908.895C3514.11 914.365 3513.06 920.345 3513.58 925.295C3513.85 927.115 3513.58 927.895 3513.58 929.725C3513.32 935.185 3513.58 940.915 3513.58 945.865C3513.32 955.755 3514.37 965.905 3514.37 975.275C3514.37 979.965 3513.58 984.385 3513.85 988.555C3514.11 991.155 3515.41 993.235 3517.49 991.415C3525.3 992.975 3534.93 992.195 3544.82 991.415C3545.34 990.895 3545.34 989.855 3546.13 989.335C3546.38 977.615 3545.6 965.645 3545.6 953.675C3545.34 945.345 3545.86 937.535 3546.38 928.945C3546.91 921.915 3546.38 914.625 3546.91 907.335C3547.43 895.095 3546.65 883.905 3545.6 871.675C3546.38 869.065 3545.08 864.905 3545.6 861.775ZM3545.86 809.975C3535.45 809.455 3525.82 808.155 3516.19 809.455C3516.71 810.235 3515.93 810.235 3515.41 811.015C3515.41 819.345 3515.15 828.455 3514.89 838.605C3521.65 838.875 3528.16 838.875 3534.67 839.395C3535.19 839.395 3535.97 839.915 3536.49 839.915H3540.4C3542.22 839.915 3543.52 839.655 3544.82 840.175C3544.82 839.655 3545.34 839.655 3545.6 839.655C3546.38 836.785 3546.91 831.845 3546.91 827.675L3545.86 809.975Z" fill="white"/>
<path d="M3663.79 986.995V984.645C3663.79 981.525 3663.53 978.405 3663.53 975.275C3663.53 972.155 3663.01 969.295 3663.01 966.425C3663.01 957.055 3662.75 947.945 3663.27 938.835C3663.53 928.945 3663.79 919.045 3663.27 909.155C3663.01 899.265 3662.75 889.375 3659.88 880.005C3658.58 878.695 3658.32 876.615 3657.54 875.315C3656.5 873.755 3655.2 872.715 3653.9 871.405C3651.29 869.065 3648.43 867.245 3645.83 864.905C3642.7 863.335 3639.84 861.775 3636.46 860.995C3629.69 859.175 3622.92 856.835 3614.59 857.355C3613.81 857.875 3614.59 857.615 3613.55 857.615C3607.04 857.615 3602.09 858.915 3597.67 860.215L3594.54 861.255C3593.76 861.515 3593.24 862.295 3592.72 862.815L3590.64 863.335C3589.6 863.865 3588.56 864.905 3587.52 865.685C3586.21 866.725 3584.91 867.765 3584.13 869.065C3583.09 870.105 3580.75 871.675 3579.7 872.715C3572.94 880.265 3571.38 891.195 3571.38 904.735L3573.2 906.295C3578.66 906.555 3583.35 906.555 3589.34 907.075C3593.24 907.595 3597.93 908.375 3601.05 907.075C3601.31 905.775 3600.27 905.255 3600.27 904.215C3599.23 899.785 3602.09 895.095 3603.65 892.755C3604.96 890.675 3606.52 888.855 3608.6 887.815C3609.64 887.025 3611.46 886.245 3612.77 885.985C3618.49 884.425 3622.92 886.245 3626.82 889.115C3633.33 890.415 3634.11 902.125 3632.81 908.115C3627.86 909.155 3622.66 911.235 3618.75 912.535C3612.77 914.885 3606.52 916.445 3601.05 918.785C3595.33 921.395 3590.38 924.515 3585.69 927.895C3584.13 928.945 3582.83 930.765 3580.75 930.765C3576.58 936.225 3572.68 942.475 3571.12 950.285C3570.85 951.845 3570.85 954.195 3570.85 956.275C3570.85 958.095 3570.59 960.175 3570.85 961.745L3571.64 963.565V966.425C3572.68 972.935 3575.8 977.355 3578.4 981.785C3581.53 984.385 3585.17 987.255 3589.08 989.335C3592.72 991.155 3597.67 993.495 3601.83 994.285C3606.26 995.065 3610.16 994.025 3614.33 994.025C3616.15 994.025 3617.71 993.755 3619.27 993.235C3621.62 992.455 3623.96 991.935 3625.78 991.155L3627.86 990.635C3628.65 990.375 3629.43 989.595 3630.21 989.335L3632.81 988.295C3635.41 986.995 3637.24 984.385 3639.06 982.825C3640.1 985.955 3641.4 989.075 3642.96 991.675C3648.43 991.415 3657.54 993.495 3663.79 992.715C3664.57 990.635 3664.05 988.815 3663.79 986.995ZM3630.99 958.095C3625.78 964.085 3614.07 967.465 3606.26 962.005C3604.44 960.955 3602.61 957.835 3602.09 955.235C3601.31 950.805 3603.91 948.205 3605.22 944.555C3612.51 938.575 3622.92 936.485 3632.29 933.365H3632.55C3632.29 942.215 3633.85 951.325 3630.99 958.095Z" fill="white"/>
</svg>
