<?xml version="1.0" encoding="utf-8"?>
<!-- Generator: Adobe Illustrator 22.0.1, SVG Export Plug-In . SVG Version: 6.00 Build 0)  -->
<svg version="1.1" id="Capa_1" xmlns="http://www.w3.org/2000/svg" xmlns:xlink="http://www.w3.org/1999/xlink" x="0px" y="0px"
	 viewBox="0 0 1010 325.5" style="enable-background:new 0 0 1010 325.5;" xml:space="preserve">
<style type="text/css">
	.st0{fill:url(#SVGID_1_);}
	.st1{fill:url(#SVGID_2_);}
	.st2{fill:url(#SVGID_3_);}
	.st3{fill:#FFFFFF;}
</style>
<g>
	<linearGradient id="SVGID_1_" gradientUnits="userSpaceOnUse" x1="-72.3159" y1="202.8934" x2="467.3953" y2="-94.9406">
		<stop  offset="0" style="stop-color:#FF8A00"/>
		<stop  offset="1" style="stop-color:#FE0000"/>
	</linearGradient>
	<path class="st0" d="M116.9,152.1l17.3-46.1l15.6,40.8l28.3-16.9L138.8,27.7c-2.6-6.9-12.5-6.7-14.9,0.3L84.8,144.6
		c-1.7,5-1.6,10.4,0.2,15.4l7.6,21l28.7-17.1L116.9,152.1z"/>
	<linearGradient id="SVGID_2_" gradientUnits="userSpaceOnUse" x1="-10.2906" y1="315.2907" x2="529.4206" y2="17.4568">
		<stop  offset="0" style="stop-color:#FF8A00"/>
		<stop  offset="1" style="stop-color:#FE0000"/>
	</linearGradient>
	<path class="st1" d="M111.5,230.2l-39.1-13.6l-31,18.5l-2.5,1.5l-1.4,0.9L21,285.7l37.1-22.6L58,263l10-6l84.1,30.8
		c7.5,2.8,14.9-4.6,12-12.1l-38-101.6l-28.8,17.2L111.5,230.2z"/>
	<linearGradient id="SVGID_3_" gradientUnits="userSpaceOnUse" x1="-0.604" y1="332.8439" x2="539.1071" y2="35.01">
		<stop  offset="0" style="stop-color:#FF8A00"/>
		<stop  offset="1" style="stop-color:#FE0000"/>
	</linearGradient>
	<polygon class="st2" points="211.9,306.9 233.8,272.5 207.7,204.4 183,140.2 154.8,157.1 	"/>
</g>
<g>
	<path class="st3" d="M348.3,93.5l-53.1,146.9h-32.3L210.1,93.5h32.2l36.7,102.3l37-102.3H348.3z"/>
	<path class="st3" d="M455.9,93.5h30.4v146.9h-30.4v-12.1c-6.1,5.1-13.3,8.6-21.7,10.5l-1.6,0.3c-4.8,0.9-9.8,1.3-15,1.3
		c-5.2,0-10.2-0.4-15-1.3l-1.6-0.3c-16.2-3.4-28.8-11.4-38-24.1c-9.4-12.7-14.1-28.6-14.1-47.8c0-19.3,4.7-35.3,14.1-48.1
		c9.4-12.7,22.2-20.6,38.5-23.8l1.5-0.4c4.7-0.8,9.6-1.2,14.7-1.2c5.1,0,10,0.4,14.7,1.2l1.5,0.4c8.6,1.8,16,5.3,22.2,10.5V93.5z
		 M455.9,166.7c0-12.1-2.4-21.7-7.3-28.9c-6.4-9.4-16.7-14.1-31-14.1c-14.4,0-24.8,4.7-31.1,14.1c-4.8,7.3-7.2,17-7.2,29
		c0,12.1,2.4,21.7,7.2,28.9c6.4,9.5,16.8,14.2,31.1,14.2c14.3,0,24.6-4.7,31-14.1c4.9-7.2,7.3-16.8,7.3-28.9V166.7z"/>
	<path class="st3" d="M609.7,99.8c10.9,5.5,19.3,14,25.3,25.6c6.1,11.7,9.1,25.5,9.1,41.5v73.5h-30.4v-73.5c0-12.1-2-21.7-6.1-28.9
		c-5.4-9.5-14.2-14.2-26.3-14.2c-12,0-20.7,4.6-26,13.8c-4.2,7-6.3,16.4-6.4,28.3v74.6h-30.4V93.5h30.4v8.8c1.3-0.9,2.6-1.7,4-2.5
		c8.5-4.3,18-6.4,28.4-6.4C591.7,93.4,601.2,95.5,609.7,99.8z"/>
	<path class="st3" d="M720.2,238.8c-16.2-3.4-28.8-11.4-38-24.1c-9.4-12.7-14.1-28.6-14.1-47.8c0-19.3,4.7-35.3,14.1-48.1
		c9.4-12.7,22.2-20.6,38.5-23.8l1.5-0.4c4.7-0.8,9.6-1.2,14.7-1.2c5.1,0,10,0.4,14.7,1.2L753,95c8.6,1.8,16,5.3,22.2,10.5V24.7h30.4
		v215.7h-30.4v-12.1c-6.1,5.1-13.3,8.6-21.7,10.5l-1.6,0.3c-4.8,0.9-9.8,1.3-15,1.3c-5.2,0-10.2-0.4-15-1.3L720.2,238.8z
		 M736.8,123.8c-14.4,0-24.8,4.7-31.1,14.1c-4.8,7.3-7.2,17-7.2,29c0,12.1,2.4,21.7,7.2,28.9c6.4,9.5,16.8,14.2,31.1,14.2
		c14.3,0,24.6-4.7,31-14.1c4.9-7.2,7.3-16.8,7.3-28.9v-0.3c0-12.1-2.4-21.7-7.3-28.9C761.4,128.5,751.1,123.8,736.8,123.8z"/>
	<path class="st3" d="M863.9,234c-10.9-5.5-19.3-14-25.3-25.5c-6.1-11.8-9.1-25.6-9.1-41.6V93.4h30.4v73.5c0,12.2,2,21.9,6.1,29
		c5.4,9.4,14.2,14.1,26.3,14.1c12,0,20.7-4.5,26.1-13.6c4.2-7.1,6.3-16.6,6.4-28.4V93.4h30.4v146.9h-30.4v-8.8c-1.3,1-2.6,1.8-4,2.5
		c-8.5,4.3-18,6.4-28.4,6.4C881.9,240.4,872.4,238.3,863.9,234z"/>
</g>
<path class="st3" d="M917,79.8H870c-4,0-7.3-3.3-7.3-7.3v0c0-4,3.3-7.3,7.3-7.3H917c4,0,7.3,3.3,7.3,7.3v0
	C924.4,76.5,921.1,79.8,917,79.8z"/>
</svg>
